<svg width="100" height="80" viewBox="0 0 100 80" fill="none" xmlns="http://www.w3.org/2000/svg">
<path d="M15.9291 39.9608C15.9291 53.5294 27.3129 64.5098 41.3113 64.5098C48.2702 64.5098 54.5856 61.8039 59.1713 57.4118H53.3788C49.9194 59.6471 45.7763 60.9412 41.3113 60.9412C29.3241 60.9412 19.5896 51.5294 19.5896 39.9216C19.5896 28.3137 29.3241 18.9412 41.3113 18.9412C45.8165 18.9412 49.9999 20.2745 53.4593 22.5098H59.2115C54.6258 18.0784 48.3104 15.3726 41.3113 15.3726C27.3129 15.4118 15.9291 26.4314 15.9291 39.9608Z" fill="#991E66"/>
<path d="M69.469 57.451C63.5156 66.3922 53.1778 72.2745 41.3918 72.2745C22.9686 72.2745 8.00482 57.8039 8.00482 40C8.00482 22.1961 22.9686 7.72549 41.3918 7.72549C53.1778 7.72549 63.5559 13.6471 69.469 22.549H78.6001C71.9227 9.21569 57.7634 0 41.3515 0C18.5036 0 0 17.9216 0 40C0 62.0784 18.5036 80 41.3515 80C57.7232 80 71.8825 70.7843 78.6001 57.451H69.469Z" fill="#991E66"/>
<path d="M46.5004 31.6085C46.5004 30.9026 45.9775 30.3536 45.2936 30.3536H43.7651V32.8634H45.2936C45.9775 32.8634 46.5004 32.3144 46.5004 31.6085ZM48.7932 31.6085C48.7932 33.4516 47.2647 34.9418 45.2534 34.9418H43.7248V38.0006H41.432V28.2751H45.2534C47.2647 28.2751 48.7932 29.7653 48.7932 31.6085Z" fill="#FF7F41"/>
<path d="M57.9645 33.1372C57.9645 31.4117 56.6773 30.2352 55.0281 30.2352C53.3789 30.2352 52.0917 31.3725 52.0917 33.1372C52.0917 34.8627 53.3789 36.0392 55.0281 36.0392C56.6773 36.0392 57.9645 34.8627 57.9645 33.1372ZM49.7988 33.1372C49.7988 30.2744 52.1319 28.0784 55.0281 28.0784C57.9243 28.0784 60.2574 30.2744 60.2574 33.1372C60.2574 35.9999 57.9243 38.196 55.0281 38.196C52.1319 38.196 49.7988 35.9999 49.7988 33.1372Z" fill="#FF7F41"/>
<path d="M68.5438 35.2558C68.5438 37.0989 66.9348 38.197 64.8029 38.197C62.7112 38.197 61.5447 37.2558 60.9815 35.8832L62.9525 34.7852C63.1939 35.5303 63.7168 36.1185 64.8029 36.1185C65.7683 36.1185 66.2108 35.7264 66.2108 35.0989C66.2108 34.4715 65.7281 34.0793 64.7627 34.0793H63.4755V32.1185H64.4811C65.4063 32.1185 65.8488 31.7656 65.8488 31.1774C65.8488 30.5891 65.4867 30.2362 64.6822 30.2362C63.7973 30.2362 63.3548 30.746 63.0732 31.3342L61.1022 30.2362C61.7056 29.0205 62.7916 28.1185 64.6822 28.1185C66.6935 28.1185 68.1416 29.2166 68.1416 30.9813C68.1416 31.844 67.7796 32.5107 67.136 32.9813C68.0209 33.4126 68.5438 34.197 68.5438 35.2558Z" fill="#FF7F41"/>
<path d="M72.3652 28.2751H70.0724V38.0006H72.3652V28.2751Z" fill="#FF7F41"/>
<path d="M79.3643 31.6085C79.3643 30.9026 78.8414 30.3536 78.1576 30.3536H76.629V32.8634H78.1576C78.8414 32.8634 79.3643 32.3144 79.3643 31.6085ZM81.6572 31.6085C81.6572 33.4516 80.1286 34.9418 78.1174 34.9418H76.5888V38.0006H74.296V28.2751H78.1174C80.1286 28.2751 81.6572 29.7653 81.6572 31.6085Z" fill="#FF7F41"/>
<path d="M88.2945 34.981C88.2945 34.432 87.9324 34.0399 87.3291 34.0399H85.3982V35.9222H87.3291C87.8922 35.9222 88.2945 35.53 88.2945 34.981ZM85.3982 30.3536V32.0791H87.0475C87.5704 32.0791 87.9324 31.7261 87.9324 31.2163C87.9324 30.7065 87.5704 30.3536 87.0475 30.3536H85.3982ZM90.5873 35.1379C90.5873 36.8634 89.1392 38.0006 87.3291 38.0006H83.1054V28.2751H87.0475C88.8174 28.2751 90.2253 29.3732 90.2253 31.0595C90.2253 31.883 89.9035 32.5104 89.3403 32.981C90.1046 33.4124 90.5873 34.1575 90.5873 35.1379Z" fill="#FF7F41"/>
<path d="M97.7072 32.7065L93.8053 38.0006H92.0756V28.2751H94.4087V33.5693L98.2703 28.2751H100V38.0006H97.7072V32.7065Z" fill="#FF7F41"/>
<path d="M46.9831 51.6078L43.7651 47.098V51.6078H41.432V41.8823H43.7651V46.0784L46.8222 41.8823H49.4368L46.0579 46.6274L49.5977 51.6078H46.9831Z" fill="#FF7F41"/>
<path d="M58.0048 46.7453C58.0048 45.0199 56.7176 43.8434 55.0683 43.8434C53.4191 43.8434 52.1319 44.9806 52.1319 46.7453C52.1319 48.4708 53.4191 49.6473 55.0683 49.6473C56.6773 49.6473 58.0048 48.4708 58.0048 46.7453ZM49.7988 46.7453C49.7988 43.8826 52.1319 41.6865 55.0281 41.6865C57.9243 41.6865 60.2574 43.8826 60.2574 46.7453C60.2574 49.6081 57.9243 51.8042 55.0281 51.8042C52.1721 51.8042 49.7988 49.6081 49.7988 46.7453Z" fill="#FF7F41"/>
<path d="M60.9412 49.5294C61.9871 49.6863 62.6307 49.3725 62.6307 47.7647V41.8823H69.5897V51.6078H67.2968V44H64.9235V47.647C64.9235 51.1372 62.7916 51.8039 60.9412 51.6078V49.5294Z" fill="#FF7F41"/>
<path d="M79.6862 46.7453C79.6862 45.0199 78.399 43.8434 76.7497 43.8434C75.1005 43.8434 73.8133 44.9806 73.8133 46.7453C73.8133 48.4708 75.1005 49.6473 76.7497 49.6473C78.399 49.6473 79.6862 48.4708 79.6862 46.7453ZM71.5204 46.7453C71.5204 43.8826 73.8535 41.6865 76.7497 41.6865C79.6459 41.6865 81.979 43.8826 81.979 46.7453C81.979 49.6081 79.6459 51.8042 76.7497 51.8042C73.8535 51.8042 71.5204 49.6081 71.5204 46.7453Z" fill="#FF7F41"/>
</svg>
