<svg width="104" height="80" viewBox="0 0 104 80" fill="none" xmlns="http://www.w3.org/2000/svg">
<path d="M39.9398 72.8147C21.8435 72.8147 7.17453 58.1236 7.17453 40C7.17453 21.8764 21.8435 7.18536 39.9398 7.18536C52.9544 7.18536 64.1961 14.7826 69.4879 25.7941H77.293C71.5625 10.7185 57.0033 0 39.9398 0C17.8769 0 0 17.9039 0 40C0 62.0961 17.8769 80 39.9398 80C61.2349 80 78.6274 63.3135 79.8155 42.2883H72.6227C71.4529 59.341 57.2683 72.8147 39.9398 72.8147Z" fill="#991E66"/>
<path d="M39.9397 16.485C26.9707 16.485 16.4694 27.0113 16.4694 39.9907C16.4694 52.9701 26.9799 63.4964 39.9397 63.4964C48.6314 63.4964 56.2172 58.7642 60.2752 51.7436H54.563C51.1265 56.0273 45.853 58.7642 39.9489 58.7642C29.5938 58.7642 21.2037 50.3614 21.2037 39.9907C21.2037 29.62 29.5846 21.2264 39.9397 21.2264C44.6283 21.2264 48.9056 22.9472 52.1958 25.7939H58.6483C54.3619 20.1372 47.5712 16.485 39.9397 16.485Z" fill="#991E66"/>
<path d="M41.859 34.938H40.9176V38.2241H38.9161V29.922H40.9176V33.1348H41.6854L43.2756 29.922H45.6976L43.4219 33.7572L45.9809 38.2332H43.6138L41.859 34.938Z" fill="#FF7F41"/>
<path d="M51.1814 36.6772H48.4395L47.9643 38.2332H45.8256L48.8691 29.9312H50.7518L53.8136 38.2332H51.6658L51.1814 36.6772ZM48.9239 35.1302H50.7061L49.8105 32.2469L48.9239 35.1302Z" fill="#FF7F41"/>
<path d="M56.4184 35.4048V38.2241H54.4168V29.922H57.7253C58.3559 29.922 58.9226 30.041 59.407 30.2698C59.8914 30.5078 60.2752 30.8373 60.5403 31.2675C60.8053 31.6977 60.9424 32.192 60.9424 32.7321C60.9424 33.5376 60.65 34.1874 60.0742 34.6726C59.4984 35.1577 58.7032 35.3957 57.6888 35.3957H56.4184V35.4048ZM56.4184 33.8579H57.7253C58.1092 33.8579 58.4108 33.7572 58.6119 33.565C58.8129 33.3728 58.9135 33.0982 58.9135 32.7412C58.9135 32.3568 58.8129 32.0456 58.6027 31.8076C58.3925 31.5787 58.1092 31.4598 57.7527 31.4506H56.4184V33.8579Z" fill="#FF7F41"/>
<path d="M62.6057 32.5217L61.7649 32.064C62.0756 31.5148 62.2401 30.9839 62.2493 30.453V29.4645H63.6476V30.3981C63.6476 30.7551 63.5471 31.1304 63.346 31.5331C63.1358 31.9267 62.8891 32.2562 62.6057 32.5217Z" fill="#FF7F41"/>
<path d="M71.5534 35.4141C71.526 35.9907 71.3615 36.5033 71.0781 36.9427C70.7857 37.3912 70.3927 37.7299 69.8809 37.977C69.3691 38.2242 68.7841 38.3431 68.1261 38.3431C67.0385 38.3431 66.1794 37.9862 65.5487 37.2722C64.9181 36.5582 64.6074 35.5605 64.6074 34.2608V33.858C64.6074 33.0434 64.7536 32.3203 65.0369 31.707C65.3202 31.0937 65.7315 30.6177 66.2616 30.2882C66.7917 29.9587 67.4041 29.7939 68.0987 29.7939C69.104 29.7939 69.9083 30.0594 70.5206 30.5811C71.1238 31.112 71.4803 31.8351 71.5717 32.7779H69.5793C69.561 32.2745 69.4422 31.9084 69.2045 31.6795C68.9669 31.4507 68.6013 31.3409 68.1078 31.3409C67.6417 31.3409 67.2944 31.5056 67.0476 31.8351C66.81 32.1647 66.6638 32.6498 66.6272 33.2997H68.8298V34.8374H66.6272C66.6729 35.5331 66.81 36.0274 67.0476 36.3386C67.2852 36.6498 67.6508 36.7962 68.1352 36.7962C69.0675 36.7962 69.5427 36.3294 69.561 35.4049H71.5534V35.4141Z" fill="#FF7F41"/>
<path d="M74.4232 35.4048V38.2241H72.4216V29.922H75.7301C76.3608 29.922 76.9274 30.041 77.4118 30.2698C77.8962 30.5078 78.2801 30.8373 78.5451 31.2675C78.8102 31.6977 78.9473 32.192 78.9473 32.7321C78.9473 33.5376 78.6548 34.1874 78.079 34.6726C77.5032 35.1577 76.7081 35.3957 75.6936 35.3957H74.4232V35.4048ZM74.4232 33.8579H75.7301C76.114 33.8579 76.4156 33.7572 76.6167 33.565C76.8177 33.3728 76.9183 33.0982 76.9183 32.7412C76.9183 32.3568 76.8177 32.0456 76.6075 31.8076C76.3973 31.5787 76.114 31.4598 75.7576 31.4506H74.4232V33.8579Z" fill="#FF7F41"/>
<path d="M86.9444 38.2241H84.9611V34.755H82.0182V38.2241H80.0166V29.922H82.0182V33.2172H84.9611V29.922H86.9444V38.2241Z" fill="#FF7F41"/>
<path d="M93.077 29.922H95.0786V38.2241H93.077V32.9884L90.0975 38.2241H88.0959V29.922H90.0975V35.1669L93.077 29.922Z" fill="#FF7F41"/>
<path d="M101.156 29.9221H103.158V38.2242H101.156V32.9885L98.1768 38.2242H96.1753V29.9221H98.1768V35.167L101.156 29.9221ZM101.787 27.6887C101.787 28.2105 101.595 28.6315 101.211 28.9519C100.827 29.2722 100.315 29.437 99.6757 29.437C99.036 29.437 98.5242 29.2722 98.1403 28.9519C97.7564 28.6315 97.5645 28.2105 97.5645 27.6887H98.8715C98.8715 27.9176 98.9446 28.0915 99.0817 28.2196C99.2279 28.3478 99.4198 28.4118 99.6666 28.4118C99.9134 28.4118 100.114 28.3478 100.252 28.2288C100.389 28.1098 100.462 27.9267 100.462 27.6887H101.787Z" fill="#FF7F41"/>
<path d="M42.0144 44.0182L43.3671 41.2539H45.652L43.3305 45.3729L45.7068 49.556H43.4128L42.0144 46.7459L40.6161 49.556H38.3129L40.6892 45.3729L38.3769 41.2539H40.6526L42.0144 44.0182Z" fill="#FF7F41"/>
<path d="M51.0808 48.009H48.339L47.8637 49.5651H45.725L48.7685 41.2631H50.6513L53.713 49.5651H51.5652L51.0808 48.009ZM48.8142 46.4621H50.5964L49.7008 43.5788L48.8142 46.4621Z" fill="#FF7F41"/>
<path d="M59.9188 42.7917H56.3269V44.1097H57.3597C58.0177 44.1097 58.5935 44.2196 59.1054 44.4484C59.608 44.6772 60.001 44.9885 60.2661 45.4004C60.5403 45.8123 60.6774 46.2791 60.6774 46.81C60.6774 47.6246 60.3757 48.2928 59.7725 48.7962C59.1693 49.3088 58.3559 49.5651 57.3323 49.5651H54.3254V41.2631H59.9279V42.7917H59.9188ZM56.3269 45.6566V48.0274H57.3506C57.7527 48.0274 58.0817 47.9175 58.3193 47.6887C58.557 47.4598 58.6758 47.1669 58.6758 46.8008C58.6758 46.4621 58.557 46.1784 58.3193 45.977C58.0817 45.7665 57.7618 45.6658 57.3414 45.6658H56.3269V45.6566Z" fill="#FF7F41"/>
</svg>
