<svg width="519" height="570" viewBox="0 0 519 570" fill="none" xmlns="http://www.w3.org/2000/svg">
<path d="M258.445 262.05V262.062L258.469 262.086L258.445 262.05Z" fill="#F5F5F5"/>
<path d="M258.587 262.252L258.528 262.311H258.67L258.587 262.252Z" fill="#F5F5F5"/>
<path d="M258.683 262.311H258.765L258.706 262.287L258.683 262.311Z" fill="#F5F5F5"/>
<path d="M258.41 262.275L258.398 262.192L258.019 262.086L258.362 262.311L258.41 262.275Z" fill="#F5F5F5"/>
<path d="M258.422 262.204L258.41 262.264L258.469 262.24L258.422 262.204Z" fill="#F5F5F5"/>
<path d="M258.753 262.228L258.729 262.252L258.765 262.264L258.753 262.228Z" fill="#F5F5F5"/>
<path d="M258.693 262.276H258.671L258.682 262.298L258.693 262.276Z" fill="#F5F5F5"/>
<path d="M258.47 262.228L258.494 262.216H258.458L258.47 262.228Z" fill="#F5F5F5"/>
<path d="M258.73 262.204L258.683 262.216L258.706 262.24L258.73 262.204Z" fill="#F5F5F5"/>
<path d="M242.911 151.247L258.576 261.055L274.098 151.224H274.347L295.119 3.28478C270.599 -0.0885124 245.724 0.0351636 221.238 3.65211L242.46 151.33L242.911 151.247Z" fill="#F5F5F5"/>
<path d="M305.084 160.312L258.872 261.968L429.289 64.0839C410.452 47.7717 389.365 34.2553 366.677 23.9502L304.836 160.217L305.084 160.312Z" fill="#F5F5F5"/>
<path d="M151.281 230.827L257.747 262.003H257.332L258.363 262.311H258.446H258.529H258.387L258.458 262.382H258.517H258.458L258.884 262.572L258.529 262.335L365.623 293.688C365.598 293.766 365.578 293.845 365.564 293.925L507.566 335.67C514.901 311.792 518.752 286.981 519.001 262.003H370.446V262.193L258.849 262.311V262.204L259.335 262.062L258.932 262.323L259.927 262.027H259.441L508.846 188.146C501.9 164.125 491.498 141.242 477.966 120.214L259.335 262.003H258.955L259.109 261.813L258.825 262.003L258.932 261.399L258.718 261.849V262.003L258.588 262.098V262.003H258.493V261.849L258.316 261.529L258.387 262.027L258.162 261.885L258.28 262.015H257.901L40.0866 121.707C26.7863 142.704 16.5893 165.513 9.81152 189.426L151.281 230.839V230.827ZM258.529 262.276V262.358L258.185 262.145L258.529 262.276Z" fill="#F5F5F5"/>
<path d="M185.264 177.6L258.315 261.908L211.973 160.371L150.06 25.0046C127.567 35.4846 106.694 49.1357 88.0762 65.5412L185.241 177.612L185.264 177.6Z" fill="#F5F5F5"/>
<path d="M476.414 402.785L352.707 322.921L352.636 323.015L259.026 262.75L332.006 346.88L331.829 347.034L427.761 457.92C446.505 441.936 462.886 423.372 476.414 402.785Z" fill="#F5F5F5"/>
<path d="M258.741 262.558V262.547L258.729 262.536L258.741 262.558Z" fill="#F5F5F5"/>
<path d="M258.481 262.347L258.469 262.37L258.422 262.347L258.434 262.429L258.445 262.418V262.429L258.516 262.406L258.481 262.382L258.505 262.347L258.528 262.358L258.516 262.335L258.528 262.311H258.422L258.481 262.347Z" fill="#F5F5F5"/>
<path d="M257.948 262.572L258.387 262.442L258.399 262.335L258.375 262.311L257.948 262.572Z" fill="#F5F5F5"/>
<path d="M258.126 262.785L164.765 323.359L164.551 323.015L42.1953 402.204C55.6152 422.711 71.8539 441.227 90.4339 457.209L199.531 330.836L258.126 262.785Z" fill="#F5F5F5"/>
<path d="M151.34 294.008L258.315 262.311L0 262.596C0.194588 287.275 3.90518 311.801 11.0199 335.433L151.316 294.032L151.34 294.008Z" fill="#F5F5F5"/>
<path d="M152.062 496.62C174.401 506.79 198.078 513.717 222.376 517.19L258.315 263.164L152.062 496.62Z" fill="#F5F5F5"/>
<path d="M258.765 262.418V262.37L258.741 262.394L258.765 262.418Z" fill="#F5F5F5"/>
<path d="M295.156 517.392C319.512 514.052 343.266 507.245 365.695 497.177L258.885 263.141L295.156 517.392Z" fill="#F5F5F5"/>
<path d="M258.48 262.738L258.599 263.579L258.717 262.773L258.587 262.501L258.48 262.738Z" fill="#F5F5F5"/>
<path d="M258.717 262.406H258.706L258.728 262.417L258.717 262.406Z" fill="#F5F5F5"/>
<path d="M519 559.302C519 559.468 402.806 559.611 259.5 559.611C116.194 559.611 0 559.468 0 559.302C0 559.137 116.123 558.947 259.5 558.947C402.877 558.947 519 559.125 519 559.302Z" fill="#263238"/>
<path d="M327.42 130.559C327.42 130.559 365.03 211.134 336.722 286.188C308.414 361.241 204.424 468.892 192.895 474.556C192.895 474.556 219.58 432.645 170.879 432.989C122.178 433.333 97.7211 421.495 92.4837 404.396C87.2463 387.298 116.182 332.187 89.5688 318.927C62.9552 305.668 30.6065 309.649 8.88672 291.271C8.88672 291.271 59.5426 287.053 96.9272 283.249C136.196 279.303 254.168 197.069 263.695 136.625" fill="#E8505B"/>
<g opacity="0.4">
<path opacity="0.4" d="M327.42 130.559C327.42 130.559 365.03 211.134 336.722 286.188C308.414 361.241 204.424 468.892 192.895 474.556C192.895 474.556 219.58 432.645 170.879 432.989C122.178 433.333 97.7211 421.495 92.4837 404.396C87.2463 387.298 116.182 332.187 89.5688 318.927C62.9552 305.668 30.6065 309.649 8.88672 291.271C8.88672 291.271 59.5426 287.053 96.9272 283.249C136.196 279.303 254.168 197.069 263.695 136.625" fill="black"/>
</g>
<path d="M190.572 269.302C190.367 269.492 190.145 269.663 189.909 269.812L187.93 271.139C186.224 272.324 183.7 273.912 180.536 275.879C174.232 279.753 165.321 284.777 155.143 289.671C144.964 294.565 135.449 298.333 128.482 300.821C124.998 302.066 122.154 303.025 120.187 303.642L117.912 304.329C117.645 304.418 117.372 304.489 117.095 304.542C117.34 304.41 117.598 304.303 117.865 304.222L120.104 303.405C122.06 302.729 124.844 301.71 128.328 300.419C135.248 297.824 144.704 293.973 154.882 289.114C165.061 284.256 173.96 279.279 180.323 275.511C183.498 273.627 186.046 272.075 187.8 270.973L189.838 269.788C190.065 269.601 190.311 269.438 190.572 269.302Z" fill="#263238"/>
<path d="M222.565 313.974C222.32 314.211 222.055 314.425 221.771 314.614L219.401 316.344C217.328 317.837 214.365 320.017 210.728 322.743C203.464 328.193 193.582 335.967 183.142 345.091C172.703 354.215 163.662 362.959 157.275 369.441C154.088 372.676 151.528 375.366 149.775 377.167L147.737 379.264C147.513 379.522 147.267 379.76 147.002 379.975C147.203 379.697 147.42 379.432 147.654 379.181L149.597 377.001C151.291 375.105 153.803 372.415 156.967 369.133C163.271 362.58 172.265 353.729 182.728 344.628C193.191 335.528 203.12 327.767 210.467 322.387C214.14 319.709 217.15 317.576 219.259 316.155L221.629 314.507C221.927 314.306 222.24 314.128 222.565 313.974Z" fill="#263238"/>
<path d="M218.252 327.186C218.149 327.344 218.03 327.491 217.897 327.625L216.783 328.81C215.823 329.841 214.413 331.298 212.6 333.064C209.046 336.618 203.95 341.358 198.109 346.394C192.267 351.43 186.781 355.696 182.705 358.694C180.678 360.199 179.019 361.383 177.858 362.177L176.519 363.09C176.211 363.291 176.033 363.398 176.021 363.374C176.143 363.226 176.287 363.098 176.448 362.995L177.716 361.988L182.456 358.35C186.437 355.257 191.864 350.921 197.694 345.92C203.524 340.92 208.631 336.216 212.292 332.756L216.605 328.644L217.79 327.542C218.027 327.293 218.229 327.163 218.252 327.186Z" fill="#263238"/>
<path d="M211.913 517.475L205.846 544.906L194.791 565.216C194.6 565.562 194.483 565.944 194.447 566.337C194.412 566.731 194.457 567.127 194.582 567.502C194.707 567.877 194.907 568.222 195.172 568.516C195.436 568.81 195.758 569.046 196.118 569.209C196.533 569.404 196.989 569.495 197.448 569.474C197.906 569.453 198.352 569.322 198.748 569.09C203.891 566.128 222.755 555.096 223.087 553.058C223.478 550.688 231.381 524.549 231.381 524.549L211.913 517.475Z" fill="#263238"/>
<path d="M223.952 550.309C223.636 550.617 223.286 550.887 222.909 551.115L219.935 553.141L210.088 559.729L200.253 566.341L197.255 568.32C196.889 568.589 196.491 568.812 196.07 568.984C196.368 568.654 196.706 568.363 197.078 568.119C197.753 567.609 198.736 566.874 199.969 565.986C202.422 564.197 205.893 561.791 209.709 559.22C213.524 556.648 217.079 554.373 219.662 552.774C220.954 551.968 222.032 551.34 222.743 550.913C223.118 550.661 223.525 550.458 223.952 550.309Z" fill="#455A64"/>
<path d="M333.57 523.968L331.935 545.913C331.935 545.913 353.666 554.942 353.761 559.03H311.104L312.288 523.115L333.57 523.968Z" fill="#263238"/>
<path d="M352.422 557.549C351.878 557.597 351.331 557.597 350.787 557.549L346.331 557.407C342.575 557.288 337.373 557.134 331.638 557.051C325.903 556.969 320.713 556.98 316.945 557.051H312.49C311.944 557.088 311.395 557.065 310.854 556.98C311.394 556.879 311.941 556.824 312.49 556.815C313.532 556.743 315.061 556.672 316.945 556.601C320.701 556.471 325.903 556.388 331.65 556.471C337.397 556.554 342.587 556.779 346.343 557.016C348.227 557.123 349.744 557.241 350.799 557.348C351.345 557.358 351.889 557.425 352.422 557.549Z" fill="#455A64"/>
<path d="M238.065 303.298L200.396 535.912L234.984 538.01L288.389 303.298H238.065Z" fill="#E8505B"/>
<path d="M289.017 293.167L306.388 538.01H338.95V278.758L289.017 293.167Z" fill="#E8505B"/>
<path d="M327.171 522.7C326.993 522.7 324.375 474.213 321.306 414.397C318.237 354.582 315.879 306.071 316.056 306.059C316.234 306.047 318.853 354.535 321.922 414.374C324.991 474.213 327.337 522.688 327.171 522.7Z" fill="#263238"/>
<path d="M338.949 522.7L338.701 522.771C338.487 522.831 338.156 522.89 337.729 522.961C336.888 523.091 335.667 523.269 334.174 523.447C331.141 523.814 326.958 524.253 322.325 524.632C313.07 525.473 305.511 525.817 305.522 525.39C305.522 525.39 305.629 525.39 305.854 525.39H306.826L310.381 525.118L322.23 524.075L334.079 523.032C337.101 522.819 339.08 522.677 338.949 522.7Z" fill="#263238"/>
<path d="M258.576 308.785C258.576 308.785 258.576 308.962 258.517 309.33C258.457 309.697 258.386 310.242 258.291 310.929C258.078 312.363 257.758 314.425 257.355 317.067C256.538 322.399 255.305 330.101 253.729 339.581C250.589 358.611 246.016 384.869 240.47 413.781C234.925 442.694 229.427 468.786 225.303 487.626C223.229 497.047 221.523 504.666 220.314 509.927L218.904 515.97L218.525 517.546C218.43 517.89 218.371 518.067 218.371 518.067C218.371 518.067 218.371 517.89 218.466 517.522C218.561 517.155 218.644 516.622 218.786 515.946C219.082 514.524 219.52 512.486 220.077 509.868C221.262 504.571 222.85 496.94 224.876 487.532C228.893 468.667 234.356 442.575 239.866 413.663C245.376 384.751 250.044 358.516 253.303 339.51C254.914 330.03 256.218 322.328 257.118 316.996C257.569 314.354 257.924 312.256 258.173 310.87C258.291 310.195 258.386 309.685 258.457 309.282C258.528 308.879 258.576 308.785 258.576 308.785Z" fill="#263238"/>
<path d="M238.468 522.7C238.003 522.751 237.534 522.751 237.069 522.7L233.23 522.605L220.611 522.214L207.991 521.622L204.164 521.432C203.697 521.431 203.23 521.403 202.766 521.349C204.501 521.108 206.256 521.052 208.003 521.183C211.238 521.183 215.705 521.373 220.634 521.598C225.564 521.823 230.031 522.06 233.254 522.274C234.865 522.38 236.181 522.487 237.081 522.57C237.547 522.556 238.013 522.6 238.468 522.7Z" fill="#263238"/>
<g opacity="0.3">
<path opacity="0.3" d="M236.239 314.626L236.986 310.005L287.488 307.149L285.58 315.574L236.239 314.626Z" fill="black"/>
</g>
<g opacity="0.3">
<path opacity="0.3" d="M290.45 315.574L289.017 307.102L338.95 304.637L338.926 316.617L290.45 315.574Z" fill="black"/>
</g>
<path d="M241.3 131.329L276.563 123.484L306.187 124.717L332.018 132.917L317.325 206.608L261.088 211.584L241.3 131.329Z" fill="#263238"/>
<path d="M271.207 124.717L234.118 132.917L252.662 232.261C252.662 232.261 236.073 272.549 234.118 310.005L289.016 307.113C289.016 307.113 292.796 257.737 291.504 238.731C290.213 219.725 289.336 186.475 289.336 186.475L271.207 124.717Z" fill="#E8505B"/>
<path d="M165.156 181.7C165.156 181.7 177.74 168.939 190.869 162.078C200.55 157.018 219.509 150.667 227.045 142.515C229.8 139.62 232.188 136.396 234.154 132.917L242.911 179.769L205.692 185.694C205.692 185.694 211.226 188.715 207.778 190.872L231.097 218.125L215.112 248.258C215.112 248.258 162.987 203.302 165.156 181.7Z" fill="#E8505B"/>
<path d="M306.186 124.717C310.693 125.273 315.147 126.196 319.504 127.478C327.396 130.096 340.738 132.917 340.738 132.917L321.779 233.553C321.779 233.553 347.552 265.404 340.738 304.388C340.738 304.388 305.131 307.196 289.016 307.113L288.803 184.651C288.803 184.651 302.299 167.469 304.029 150.631C305.759 133.793 306.186 124.717 306.186 124.717Z" fill="#E8505B"/>
<path d="M340.739 132.917C340.739 132.917 361.984 154.885 373.68 163.18C385.375 171.474 400.092 183.928 400.092 190.528C399.858 194.666 399.016 198.746 397.592 202.638C396.774 205.083 395.574 207.382 394.037 209.451C388.669 216.561 374.45 235.129 365.053 243.921L341.355 218.966L363.869 194.083C363.869 194.083 333.653 181.629 332.16 178.228C330.667 174.828 340.739 132.917 340.739 132.917Z" fill="#E8505B"/>
<path d="M288.579 197.934C288.38 197.787 288.197 197.62 288.034 197.436L286.552 195.955L281.114 190.35L262.676 171.083L262.569 170.965V170.799L265.01 160.573C265.378 159.044 265.733 157.528 266.089 156.046L266.385 156.426H254.63H254.239L254.358 156.046C257.225 147.361 259.678 139.919 261.467 134.587C262.344 131.992 263.043 129.919 263.553 128.437L264.122 126.802C264.18 126.608 264.259 126.422 264.359 126.245C264.33 126.443 264.283 126.638 264.216 126.826C264.098 127.253 263.932 127.809 263.731 128.497C263.268 129.99 262.617 132.052 261.799 134.694L254.938 156.224L254.654 155.845H266.8L266.705 156.224C266.361 157.705 265.994 159.222 265.626 160.751C264.785 164.305 263.968 167.706 263.174 170.977L263.103 170.704L281.386 190.113L286.695 195.848L288.105 197.401C288.277 197.565 288.435 197.743 288.579 197.934Z" fill="#263238"/>
<path d="M289.017 307.113C288.851 307.113 288.626 279.481 288.507 245.414C288.389 211.347 288.507 183.715 288.626 183.715C288.744 183.715 289.017 211.335 289.123 245.414C289.23 279.493 289.183 307.113 289.017 307.113Z" fill="#263238"/>
<path d="M311.874 125.606C311.953 125.824 312.004 126.05 312.028 126.281C312.123 126.779 312.242 127.466 312.384 128.224C312.692 129.978 313.107 132.431 313.569 135.476L317.574 160.277L317.633 160.68H317.23L310.689 159.803L311.009 159.364L312.348 162.09C313.249 163.926 314.138 165.739 314.991 167.457L315.074 167.635L314.955 167.789C308.118 176.321 302.075 183.881 297.691 189.367C295.522 192.021 293.78 194.178 292.524 195.73L291.102 197.424C290.943 197.626 290.768 197.816 290.581 197.993C290.703 197.764 290.85 197.55 291.019 197.353L292.347 195.588L297.371 189.106L314.469 167.41V167.73C313.628 166.012 312.739 164.175 311.827 162.362L310.452 159.625L310.192 159.104L310.772 159.187L317.313 160.075L316.97 160.419C315.465 150.501 314.138 141.839 313.19 135.535C312.751 132.478 312.396 130.025 312.135 128.248C312.028 127.442 311.945 126.791 311.874 126.293C311.848 126.065 311.848 125.834 311.874 125.606Z" fill="#263238"/>
<path d="M283.863 267.086C282.607 265.546 280.154 264.657 278.969 266.257C278.371 266.75 277.938 267.413 277.726 268.158C277.515 268.903 277.535 269.694 277.784 270.428C277.985 270.876 278.274 271.28 278.634 271.614C278.994 271.949 279.418 272.208 279.88 272.375C280.341 272.543 280.832 272.617 281.323 272.592C281.814 272.567 282.295 272.443 282.737 272.229C283.167 271.982 283.54 271.648 283.833 271.248C284.126 270.848 284.332 270.391 284.438 269.907C284.544 269.423 284.548 268.921 284.449 268.436C284.35 267.95 284.15 267.49 283.863 267.086Z" fill="#263238"/>
<path d="M284.527 235.093C283.271 233.553 280.818 232.664 279.633 234.264C279.035 234.754 278.601 235.415 278.389 236.158C278.177 236.901 278.198 237.692 278.448 238.423C278.649 238.871 278.938 239.275 279.298 239.61C279.658 239.945 280.081 240.204 280.542 240.373C281.004 240.542 281.495 240.617 281.985 240.593C282.476 240.57 282.958 240.448 283.401 240.236C283.831 239.989 284.204 239.655 284.497 239.255C284.79 238.855 284.996 238.398 285.102 237.914C285.208 237.43 285.212 236.929 285.113 236.443C285.014 235.957 284.814 235.497 284.527 235.093Z" fill="#263238"/>
<path d="M369.142 232.463C367.957 230.922 365.433 230.034 364.26 231.633C363.662 232.126 363.229 232.789 363.017 233.534C362.806 234.279 362.826 235.071 363.075 235.804C363.275 236.254 363.563 236.658 363.923 236.994C364.283 237.329 364.707 237.589 365.169 237.757C365.631 237.925 366.123 237.998 366.614 237.972C367.105 237.946 367.586 237.821 368.028 237.605C368.457 237.357 368.829 237.022 369.121 236.622C369.413 236.222 369.618 235.765 369.723 235.28C369.828 234.796 369.83 234.295 369.73 233.81C369.63 233.325 369.43 232.866 369.142 232.463Z" fill="#263238"/>
<path d="M214.84 235.461C213.584 233.92 211.131 233.031 209.946 234.631C209.348 235.121 208.915 235.782 208.703 236.525C208.491 237.269 208.511 238.059 208.761 238.79C208.963 239.239 209.252 239.642 209.612 239.977C209.971 240.312 210.394 240.571 210.856 240.74C211.317 240.909 211.808 240.984 212.299 240.96C212.79 240.937 213.271 240.815 213.714 240.603C214.144 240.356 214.518 240.022 214.811 239.622C215.104 239.222 215.31 238.765 215.416 238.281C215.522 237.797 215.525 237.296 215.426 236.81C215.327 236.324 215.127 235.865 214.84 235.461Z" fill="#263238"/>
<path d="M208.074 191.239C205.107 189.872 201.945 188.977 198.702 188.585C195.439 188.411 192.168 188.746 189.009 189.58C189.856 189.092 190.776 188.743 191.734 188.549C194.026 187.958 196.403 187.761 198.761 187.969C201.115 188.177 203.418 188.778 205.574 189.746C206.485 190.1 207.33 190.605 208.074 191.239Z" fill="#263238"/>
<path d="M189.009 185.61C189.738 185.143 190.538 184.799 191.379 184.591C193.405 183.99 195.509 183.691 197.623 183.703C199.743 183.719 201.848 184.054 203.868 184.698C204.715 184.904 205.518 185.261 206.238 185.753C203.431 184.927 200.534 184.445 197.611 184.319C194.703 184.408 191.815 184.841 189.009 185.61Z" fill="#263238"/>
<path d="M243.978 185.753C243.759 185.107 243.589 184.445 243.469 183.774C243.16 182.388 242.746 180.563 242.284 178.347L238.03 160.49C236.371 153.511 235.056 147.136 234.321 142.491C233.942 140.121 233.681 138.284 233.551 136.969C233.449 136.294 233.394 135.613 233.385 134.931C233.577 135.586 233.712 136.256 233.788 136.934C233.989 138.237 234.321 140.109 234.747 142.408C235.589 147.029 236.975 153.369 238.634 160.348C240.293 167.327 241.774 173.643 242.71 178.252C243.184 180.551 243.54 182.423 243.741 183.727C243.876 184.394 243.955 185.072 243.978 185.753Z" fill="#263238"/>
<path d="M339.424 135.192C339.398 135.893 339.311 136.591 339.163 137.277C338.938 138.711 338.63 140.619 338.251 142.917C337.457 147.776 336.39 154.305 335.205 161.521C334.021 168.737 332.836 175.361 331.994 180.101C331.544 182.47 331.165 184.39 330.88 185.705C330.768 186.397 330.602 187.078 330.383 187.743C330.41 187.056 330.481 186.372 330.596 185.693C330.833 184.272 331.141 182.364 331.508 180.053L334.554 161.45C335.739 154.186 336.924 147.622 337.777 142.882C338.227 140.512 338.594 138.592 338.879 137.265C339.014 136.563 339.196 135.87 339.424 135.192Z" fill="#263238"/>
<path d="M379.842 181.902C379.842 182.008 378.527 181.902 376.441 182.008C373.733 182.04 371.111 182.97 368.988 184.651C367.054 186.557 365.618 188.909 364.805 191.5C364.482 192.591 364.086 193.66 363.62 194.699C363.749 193.558 364.011 192.437 364.402 191.357C365.118 188.629 366.569 186.149 368.597 184.189C369.78 183.161 371.189 182.426 372.709 182.044C373.924 181.731 375.174 181.572 376.429 181.57C377.273 181.561 378.116 181.609 378.953 181.712C379.258 181.726 379.558 181.79 379.842 181.902Z" fill="#263238"/>
<path d="M385.494 187.435C385.494 187.542 384.191 187.435 382.105 187.578C379.393 187.756 376.714 188.273 374.131 189.118C371.557 189.988 369.104 191.183 366.832 192.673C365.09 193.858 364.106 194.663 364.035 194.581C363.964 194.498 364.225 194.308 364.651 193.905C365.26 193.335 365.905 192.804 366.583 192.317C371.093 189.04 376.507 187.24 382.082 187.163C382.92 187.146 383.759 187.182 384.594 187.269C384.9 187.283 385.203 187.339 385.494 187.435Z" fill="#263238"/>
<path d="M261.538 235.093C260.159 234.763 258.817 234.294 257.533 233.695C256.176 233.296 254.859 232.772 253.599 232.131C255.032 232.183 256.442 232.517 257.746 233.114C259.123 233.529 260.41 234.2 261.538 235.093Z" fill="#263238"/>
<path d="M263.056 223.185C263.15 223.339 260.378 225.235 257.261 227.925C254.145 230.614 251.846 233.067 251.716 232.949C254.755 228.921 258.621 225.592 263.056 223.185Z" fill="#263238"/>
<path d="M340.739 304.388C340.739 304.554 316.886 305.952 287.417 307.505C257.947 309.057 234.095 310.171 234.095 310.005C234.095 309.839 257.936 308.441 287.417 306.888C316.898 305.336 340.727 304.187 340.739 304.388Z" fill="#263238"/>
<g opacity="0.3">
<path opacity="0.3" d="M362.719 193.479C361.98 191.191 361.986 188.727 362.735 186.442C363.485 184.158 364.939 182.17 366.89 180.764C367.695 180.109 368.724 179.795 369.758 179.887C370.01 179.924 370.251 180.013 370.466 180.15C370.681 180.287 370.865 180.467 371.005 180.68C371.145 180.893 371.238 181.133 371.278 181.384C371.319 181.636 371.305 181.893 371.239 182.139C370.89 182.7 370.383 183.145 369.782 183.418C367.985 184.65 366.628 186.423 365.907 188.478C365.19 190.521 364.689 192.634 364.414 194.782" fill="black"/>
</g>
<g opacity="0.3">
<path opacity="0.3" d="M254.666 156.07C254.891 156.698 259.133 157.184 259.927 158.938C260.579 160.77 260.604 162.766 259.998 164.614C259.385 166.442 259.092 168.362 259.133 170.289C259.489 173.726 262.309 176.321 264.939 178.584C272.286 184.864 281.232 191.618 288.579 197.91C282.014 190.137 273.459 182.139 266.231 174.911C265.081 173.944 264.165 172.728 263.553 171.356C263.12 169.499 263.235 167.556 263.885 165.763C264.501 163.338 265.125 160.909 265.757 158.476C265.911 157.848 266.267 156.793 266.349 156.449C265.473 156.296 264.585 156.22 263.695 156.224C260.69 155.995 257.673 155.975 254.666 156.165" fill="black"/>
</g>
<path d="M213.868 238.257C213.942 237.912 214.07 237.58 214.247 237.274C214.52 236.669 214.958 235.804 215.539 234.75C217.051 232.018 218.75 229.393 220.622 226.894C222.5 224.383 224.551 222.008 226.76 219.784C227.613 218.943 228.324 218.279 228.834 217.853C229.076 217.598 229.356 217.383 229.663 217.213C228.86 218.223 227.997 219.184 227.08 220.092C225.469 221.846 223.3 224.334 221.155 227.202C219.011 230.069 217.186 232.866 215.954 234.904C215.323 236.06 214.626 237.18 213.868 238.257Z" fill="#263238"/>
<path d="M222.649 208.906C222.72 208.977 221.357 210.293 219.319 212.568C213.994 218.501 209.683 225.271 206.557 232.605C205.372 235.413 204.732 237.214 204.638 237.179C204.693 236.733 204.8 236.296 204.958 235.875C205.195 235.058 205.597 233.873 206.143 232.439C209.074 224.953 213.437 218.111 218.987 212.295C220.054 211.193 220.942 210.328 221.594 209.759C221.909 209.433 222.263 209.146 222.649 208.906Z" fill="#263238"/>
<path d="M375.375 232.854C375.022 232.568 374.704 232.242 374.427 231.882L371.962 229.157C369.877 226.87 366.938 223.765 363.585 220.412C360.231 217.059 357.127 214.144 354.828 212.058L352.091 209.605C351.728 209.332 351.401 209.014 351.119 208.657C351.517 208.875 351.894 209.129 352.245 209.416C352.932 209.949 353.927 210.731 355.112 211.786C357.482 213.776 360.658 216.679 364.023 220.08C367.388 223.481 370.291 226.597 372.318 228.967C373.325 230.152 374.107 231.136 374.687 231.835C374.955 232.147 375.185 232.489 375.375 232.854Z" fill="#263238"/>
<path d="M227.72 224.346L235.482 228.529L252.699 233.423C252.699 233.423 249.144 256.979 246.904 258.982C244.665 260.984 219.509 239.833 219.509 239.833L227.72 224.346Z" fill="#FFBE9D"/>
<path d="M345.088 222.936L339.483 227.296L323.32 234.987C323.32 234.987 330.797 257.619 333.309 259.23C335.821 260.842 357.126 235.78 357.126 235.78L345.088 222.936Z" fill="#FFBE9D"/>
<path d="M265.578 52.981C265.353 59.036 257.284 62.7093 257.379 68.7761C257.379 71.383 259.037 73.7173 259.357 76.3004C259.772 79.7723 257.841 83.0545 257.118 86.479C255.649 93.5886 259.748 100.971 265.839 104.834C271.93 108.696 279.56 109.419 286.753 108.436" fill="#263238"/>
<path d="M314.374 51.4644C314.125 54.7229 316.282 57.626 318.439 60.067C320.595 62.5079 323.024 65.0555 323.486 68.2785C324.316 74.0018 318.747 79.3221 319.872 84.9861C320.489 88.0195 322.977 90.4605 323.427 93.5295C323.877 96.5984 322.242 99.4541 320.299 101.658C318.356 103.862 316.045 103.59 314.303 106.019C312.277 108.762 309.702 111.054 306.743 112.749C300.463 116.185 292.927 111.209 289.894 110.379" fill="#263238"/>
<path d="M264.358 56.441C264.275 53.4905 267 51.2155 269.749 50.1372C272.498 49.0589 275.556 48.6441 278.044 46.9971C280.212 45.5396 281.67 43.2527 283.506 41.3924C285.769 39.0986 288.6 37.4475 291.711 36.608C294.822 35.7685 298.099 35.7709 301.209 36.6148C304.318 37.4587 307.147 39.1139 309.406 41.4109C311.665 43.7079 313.274 46.564 314.066 49.6869C315.12 53.8934 314.41 58.8583 311.092 61.6547C307.253 64.8896 301.541 64.1786 296.624 63.1714C291.706 62.1642 286.113 61.157 282.002 64.0601C279.525 65.802 278.103 68.634 276.586 71.2645C275.07 73.8951 273.162 76.573 270.294 77.5565C267.427 78.54 263.54 76.8455 263.422 73.8121" fill="#263238"/>
<path d="M275.994 57.0453C274.765 57.1811 273.631 57.772 272.815 58.7018C271.999 59.6315 271.561 60.8328 271.586 62.0694L274.536 128.817C274.655 136.696 286.173 141.116 294.597 140.927C303.117 140.725 303.39 136.554 303.496 129.077C303.674 116.564 303.662 111.86 303.662 111.931C303.662 112.002 314.421 110.118 316.625 96.077C317.715 89.0859 317.336 77.6394 316.732 68.2903C316.175 59.7825 310.582 49.4262 302.157 50.3623L275.994 57.0453Z" fill="#FFBE9D"/>
<path d="M312.277 76.2294C312.28 76.7002 312.101 77.1539 311.776 77.4944C311.45 77.835 311.006 78.0358 310.535 78.0542C310.306 78.0703 310.077 78.041 309.859 77.9681C309.642 77.8951 309.441 77.7799 309.268 77.6291C309.095 77.4782 308.953 77.2947 308.852 77.0891C308.75 76.8835 308.69 76.6598 308.675 76.4308C308.672 75.9541 308.856 75.4952 309.189 75.1537C309.522 74.8121 309.976 74.6154 310.452 74.606C310.909 74.5801 311.358 74.7364 311.7 75.0407C312.042 75.345 312.25 75.7724 312.277 76.2294Z" fill="#263238"/>
<path d="M314.256 74.1677C314.042 74.4047 312.668 73.3975 310.701 73.4094C308.734 73.4212 307.347 74.381 307.146 74.144C306.945 73.9071 307.265 73.6227 307.881 73.1724C308.719 72.5904 309.716 72.2801 310.736 72.2837C311.745 72.2709 312.731 72.587 313.545 73.1842C314.173 73.6345 314.374 74.0611 314.256 74.1677Z" fill="#263238"/>
<path d="M293.47 76.2294C293.477 76.6991 293.3 77.1528 292.976 77.4937C292.653 77.8346 292.21 78.0357 291.74 78.0542C291.511 78.0703 291.282 78.041 291.064 77.9681C290.847 77.8951 290.646 77.7799 290.473 77.6291C290.3 77.4782 290.159 77.2947 290.057 77.0891C289.955 76.8835 289.895 76.6598 289.88 76.4309C289.876 75.962 290.055 75.51 290.377 75.1698C290.7 74.8295 291.142 74.6275 291.61 74.6061C291.839 74.5867 292.071 74.6137 292.289 74.6854C292.508 74.7571 292.711 74.8721 292.884 75.0236C293.058 75.175 293.199 75.3598 293.3 75.5669C293.4 75.7741 293.458 75.9994 293.47 76.2294Z" fill="#263238"/>
<path d="M295.212 74.5704C294.987 74.8074 293.625 73.8002 291.658 73.8121C289.691 73.8239 288.304 74.7837 288.103 74.5467C287.901 74.3097 288.233 74.0253 288.849 73.5751C289.687 72.9917 290.684 72.6813 291.705 72.6864C292.713 72.6803 293.697 72.9957 294.513 73.5869C295.118 74.0372 295.319 74.4638 295.212 74.5704Z" fill="#263238"/>
<path d="M302.276 88.92C303.299 88.6007 304.358 88.4097 305.428 88.3512C305.914 88.3512 306.388 88.1972 306.471 87.8536C306.511 87.3453 306.395 86.8367 306.139 86.3961C305.665 85.2112 305.179 83.9433 304.67 82.628C302.62 77.2721 301.115 72.8642 301.352 72.7812C301.589 72.6983 303.402 76.9759 305.452 82.3436C305.937 83.6589 306.411 84.9268 306.862 86.1236C307.173 86.7209 307.265 87.4085 307.122 88.0668C307.054 88.244 306.944 88.4022 306.802 88.528C306.659 88.6538 306.489 88.7435 306.305 88.7897C306.032 88.8714 305.748 88.9114 305.463 88.9081C304.406 89.0572 303.334 89.0612 302.276 88.92Z" fill="#263238"/>
<path d="M303.662 111.848C297.054 111.963 290.544 110.24 284.857 106.872C285.011 106.872 290.036 116.636 303.485 115.166L303.662 111.848Z" fill="#EB996E"/>
<path d="M301.47 93.6005C301.103 93.1354 300.622 92.7723 300.074 92.5462C299.527 92.32 298.93 92.2383 298.342 92.309C297.913 92.3455 297.496 92.4696 297.117 92.6733C296.738 92.8771 296.405 93.1564 296.138 93.4939C295.864 93.8221 295.703 94.2291 295.677 94.6555C295.652 95.0818 295.763 95.5052 295.995 95.8638C296.31 96.2054 296.718 96.4471 297.169 96.5587C297.62 96.6704 298.093 96.6471 298.531 96.4918C299.441 96.1488 300.271 95.6248 300.972 94.9514C301.186 94.7951 301.37 94.6026 301.517 94.3826C301.59 94.2762 301.629 94.1502 301.629 94.0212C301.629 93.8922 301.59 93.7662 301.517 93.6598" fill="#E8505B"/>
<path d="M296.576 90.2708C296.896 90.2708 296.908 92.3563 298.709 93.8256C300.51 95.2949 302.749 95.0817 302.761 95.3779C302.773 95.6741 302.263 95.7808 301.315 95.8045C300.086 95.8173 298.891 95.3979 297.938 94.6195C297.026 93.8666 296.433 92.7951 296.28 91.6216C296.232 90.7803 296.434 90.259 296.576 90.2708Z" fill="#263238"/>
<path d="M296.078 71.1698C295.889 71.703 293.957 71.4542 291.682 71.7385C289.407 72.0229 287.57 72.6391 287.274 72.1651C287.132 71.94 287.452 71.4423 288.187 70.9802C289.177 70.3552 290.295 69.9623 291.459 69.831C292.622 69.6996 293.801 69.8333 294.905 70.2218C295.735 70.5181 296.161 70.9209 296.078 71.1698Z" fill="#263238"/>
<path d="M313.533 68.5628C313.201 69.0012 311.862 68.5628 310.25 68.5628C308.639 68.5628 307.288 68.8709 306.98 68.4088C306.838 68.1836 307.051 67.7452 307.644 67.3305C308.439 66.8266 309.366 66.571 310.308 66.5963C311.249 66.6216 312.161 66.9267 312.928 67.4727C313.497 67.8874 313.687 68.3851 313.533 68.5628Z" fill="#263238"/>
<path d="M270.058 104.016C273.909 104.798 274.253 102.831 277.168 100.153C278.598 98.7987 279.692 97.1298 280.365 95.2787C281.037 93.4276 281.269 91.4453 281.042 89.4889C280.616 86.0407 278.756 82.5333 279.952 79.2747C281.528 74.9497 287.571 73.6226 289.183 69.3213C290.119 66.8211 289.278 63.8943 290.368 61.4415C291.458 58.9887 293.792 57.8038 296.15 56.9506C298.508 56.0975 301.044 55.505 303.035 53.9646C305.026 52.4242 306.246 49.5092 304.966 47.3527C294.481 48.6135 284.183 51.1154 274.288 54.8059C272.001 55.659 269.549 56.6899 268.233 58.728C266.918 60.7661 266.871 63.6692 267.048 66.2523C267.641 78.8916 268.229 91.4993 268.814 104.075" fill="#263238"/>
<path d="M261.217 75.3763C260.997 73.0403 260.019 70.8403 258.434 69.1107C256.848 67.3811 254.741 66.2165 252.433 65.7941C250.125 65.3716 247.743 65.7144 245.647 66.7703C243.552 67.8261 241.859 69.5374 240.825 71.6437C238.882 75.6133 239.557 80.4359 241.37 84.4647C243.538 89.2044 247.97 93.6242 253.219 93.3872C258.16 93.1621 262.13 88.8253 263.552 84.0974C264.974 79.3695 264.405 74.2861 263.813 69.3805" fill="#263238"/>
<path d="M258.468 94.6077C258.171 94.3871 257.921 94.1091 257.733 93.7901C257.18 92.9438 256.824 91.9841 256.691 90.9818C256.485 89.5081 256.525 88.0107 256.809 86.5501C257.105 84.8912 257.662 83.1612 258.065 81.3246C258.514 79.6326 258.618 77.8678 258.373 76.1346C258.077 74.5705 257.342 73.2433 257.022 71.9991C256.707 71.0286 256.678 69.9878 256.939 69.0013C257.165 68.314 257.461 68.0178 257.485 68.0415C257.508 68.0652 257.307 68.397 257.176 69.0605C257.022 70.0074 257.111 70.9782 257.437 71.8807C258.02 73.2309 258.519 74.616 258.93 76.0279C259.22 77.8236 259.132 79.6601 258.669 81.4194C258.255 83.3034 257.674 84.9742 257.378 86.6094C257.075 88.0179 256.991 89.4647 257.129 90.8988C257.287 92.2209 257.745 93.4894 258.468 94.6077Z" fill="#455A64"/>
<path d="M258.315 77.7461C257.759 78.5992 257.023 79.3194 256.158 79.8553C254.138 81.2868 251.732 82.0753 249.257 82.1176C246.781 82.1599 244.35 81.454 242.282 80.0923C241.4 79.5886 240.64 78.8968 240.055 78.066C240.138 77.9831 240.943 78.8125 242.508 79.7249C244.547 80.9293 246.88 81.5447 249.248 81.5029C251.616 81.4611 253.926 80.7636 255.921 79.4879C257.414 78.5281 258.196 77.675 258.315 77.7461Z" fill="#455A64"/>
<path d="M257.568 79.9502C257.32 80.7551 256.918 81.5038 256.383 82.1542C255.175 83.796 253.654 85.1819 251.906 86.2314C250.159 87.281 248.221 87.9733 246.204 88.2684C245.378 88.4246 244.53 88.4246 243.704 88.2684C244.505 88.074 245.316 87.9237 246.133 87.8181C248.057 87.4057 249.902 86.6855 251.596 85.6853C253.277 84.6627 254.779 83.3696 256.039 81.8579C256.514 81.1953 257.025 80.5585 257.568 79.9502Z" fill="#455A64"/>
<path d="M261.111 99.312C261.049 99.263 260.996 99.2027 260.957 99.1343C260.811 98.9595 260.681 98.7733 260.566 98.5773C260.114 97.8171 259.801 96.9826 259.641 96.1127C259.377 94.7326 259.454 93.3087 259.867 91.9654C260.399 90.1609 261.559 88.606 263.137 87.5812C264.796 86.3962 266.964 85.5786 268.351 83.7183C268.698 83.2491 268.944 82.7132 269.075 82.1444C269.205 81.5756 269.217 80.9859 269.109 80.4123C268.839 79.1626 268.442 77.9436 267.924 76.7746C267.373 75.4418 267.104 74.0092 267.134 72.5672C267.165 71.1252 267.494 69.7053 268.102 68.3971C268.739 66.9939 269.717 65.772 270.946 64.8423C272.242 63.9507 273.712 63.3411 275.259 63.0531C276.776 62.7094 278.292 62.508 279.702 62.0814C281.078 61.7372 282.345 61.0527 283.387 60.0907C284.324 59.0787 284.892 57.7803 284.999 56.4056C285.136 55.0346 285.358 53.6733 285.663 52.3294C286.291 49.8071 287.603 47.507 289.454 45.682C291.082 44.1165 293.149 43.0869 295.379 42.7315C297.229 42.4238 299.129 42.71 300.806 43.5491C302.06 44.1813 303.139 45.1134 303.946 46.2626C304.453 46.9801 304.826 47.7828 305.048 48.6324C305.127 48.9307 305.175 49.2366 305.19 49.5448C304.917 48.4127 304.43 47.343 303.756 46.3929C302.943 45.3052 301.878 44.4311 300.652 43.8453C299.034 43.073 297.214 42.8285 295.45 43.1462C293.309 43.5143 291.331 44.5223 289.774 46.0374C288.023 47.812 286.793 50.0337 286.219 52.4598C285.918 53.7866 285.708 55.1328 285.591 56.4885C285.461 57.9853 284.841 59.3973 283.826 60.5055C282.703 61.5605 281.335 62.3181 279.845 62.7094C278.363 63.1479 276.847 63.3493 275.354 63.6929C273.891 63.9582 272.501 64.5318 271.277 65.3755C270.127 66.2326 269.21 67.3654 268.611 68.6697C268.035 69.9065 267.72 71.2492 267.688 72.6134C267.655 73.9776 267.905 75.3339 268.422 76.5969C268.945 77.8087 269.343 79.0715 269.607 80.3649C269.718 81.0054 269.697 81.6621 269.544 82.294C269.391 82.9259 269.11 83.5196 268.718 84.0382C267.189 86.0526 264.962 86.8347 263.338 87.9603C261.84 88.9234 260.728 90.3833 260.198 92.0839C259.771 93.3738 259.661 94.7477 259.878 96.089C260.082 97.2315 260.5 98.3251 261.111 99.312Z" fill="#455A64"/>
<path d="M262.047 60.0906C261.943 59.8924 261.882 59.6743 261.869 59.4508C261.819 58.7917 261.985 58.1343 262.343 57.5786C262.898 56.6907 263.731 56.0115 264.713 55.6471C266.017 55.2269 267.412 55.1777 268.742 55.5049C270.211 55.7893 271.74 56.37 273.41 56.6899C274.264 56.9235 275.158 56.9725 276.033 56.8336C276.907 56.6946 277.742 56.371 278.482 55.8841C279.975 54.7584 280.733 52.7915 281.492 50.8363C282.258 48.7476 283.354 46.7953 284.738 45.0538C287.422 41.6317 291.178 39.2111 295.403 38.1812C297.253 37.751 299.182 37.8 301.007 38.3234C302.602 38.8006 304.028 39.7211 305.119 40.9777C305.989 42.0295 306.511 43.3254 306.612 44.6865C306.704 45.7124 306.545 46.7451 306.15 47.6962C305.905 48.2958 305.547 48.8429 305.095 49.3078C304.947 49.4753 304.771 49.6157 304.574 49.7225C305.156 49.1134 305.615 48.3971 305.925 47.6133C306.317 46.544 306.414 45.3888 306.206 44.2691C305.997 43.1494 305.491 42.1066 304.74 41.2502C303.69 40.0816 302.33 39.2351 300.818 38.8093C299.073 38.3237 297.233 38.2951 295.474 38.7263C291.41 39.7689 287.804 42.122 285.212 45.4212C283.85 47.1262 282.77 49.0384 282.013 51.0852C281.231 53.0166 280.461 55.0902 278.778 56.3699C277.97 56.9694 277.009 57.3269 276.005 57.4008C275.089 57.4707 274.167 57.4069 273.268 57.2113C271.526 56.8558 270.033 56.2396 268.6 55.9434C267.351 55.5957 266.032 55.5957 264.784 55.9434C263.868 56.2842 263.084 56.9065 262.545 57.7208C262.19 58.228 262 58.8319 261.999 59.4508C261.999 59.8773 262.082 60.0906 262.047 60.0906Z" fill="#455A64"/>
<path d="M457.254 529.17C457.308 529.006 457.375 528.848 457.455 528.696C457.609 528.352 457.822 527.89 458.107 527.309C458.894 525.517 459.532 523.662 460.014 521.764C461.534 514.709 461.477 507.406 459.849 500.376C458.839 495.504 457.513 490.702 455.879 486.003C454.196 480.896 452.253 475.492 450.654 469.639C448.852 463.532 447.981 457.188 448.07 450.822C448.319 444.174 450.286 437.527 452.455 430.915C454.623 424.303 456.851 417.822 457.526 411.316C458.283 405.057 457.039 398.719 453.971 393.211C451.104 387.926 447.502 383.411 444.8 378.731C442.278 374.39 440.417 369.697 439.278 364.808C437.657 357.718 437.54 350.368 438.935 343.23C439.433 340.627 440.187 338.078 441.186 335.623C441.155 335.792 441.111 335.958 441.056 336.12C440.937 336.488 440.783 336.974 440.593 337.59C440.029 339.464 439.562 341.367 439.195 343.289C437.909 350.385 438.099 357.67 439.752 364.689C440.908 369.519 442.773 374.151 445.286 378.434C447.987 383.068 451.601 387.558 454.528 392.914C457.684 398.526 458.982 404.993 458.237 411.387C457.562 417.999 455.31 424.516 453.154 431.128C450.997 437.74 449.042 444.317 448.793 450.857C448.696 457.154 449.547 463.429 451.317 469.473C452.881 475.291 454.872 480.706 456.472 485.825C458.088 490.553 459.39 495.382 460.37 500.281C462.183 509.286 461.673 516.87 460.311 521.835C459.806 523.739 459.124 525.592 458.273 527.369L457.562 528.719C457.476 528.88 457.373 529.031 457.254 529.17Z" fill="#263238"/>
<path d="M448.414 383.34C448.414 383.34 442.939 365.815 452.774 355.542C452.851 355.458 452.949 355.397 453.058 355.367C453.168 355.336 453.283 355.337 453.392 355.369C453.501 355.401 453.598 355.463 453.674 355.548C453.749 355.633 453.798 355.738 453.817 355.85C454.338 358.693 455.014 367.557 448.414 383.34Z" fill="#E8505B"/>
<path d="M451.708 361.383C451.683 362.471 451.556 363.554 451.329 364.618C450.974 366.846 450.547 369.464 450.085 372.356L448.9 380.093C448.811 381.176 448.616 382.247 448.32 383.293C448.231 382.206 448.267 381.113 448.426 380.034C448.604 378.032 448.959 375.294 449.457 372.249C449.955 369.204 450.476 366.502 450.903 364.535C451.051 363.457 451.321 362.4 451.708 361.383Z" fill="#263238"/>
<path d="M454.859 424.694C454.859 424.694 458.213 406.636 471.709 402.181C471.815 402.144 471.929 402.138 472.039 402.163C472.148 402.188 472.249 402.243 472.328 402.322C472.408 402.4 472.465 402.5 472.492 402.609C472.518 402.718 472.514 402.832 472.479 402.939C471.602 405.712 468.048 413.817 454.859 424.694Z" fill="#E8505B"/>
<path d="M468.049 406.825C467.534 407.784 466.918 408.686 466.213 409.515L461.473 415.76C459.707 418.13 458.12 420.215 456.733 422.016C456.147 422.933 455.472 423.79 454.719 424.576C455.144 423.572 455.685 422.622 456.33 421.744C457.432 420.061 459.032 417.786 460.892 415.345C462.753 412.904 464.447 410.747 465.774 409.207C466.442 408.331 467.205 407.532 468.049 406.825Z" fill="#263238"/>
<path d="M451.21 470.006C451.21 470.006 449.172 451.746 460.784 443.546C460.876 443.482 460.984 443.443 461.096 443.435C461.208 443.427 461.32 443.45 461.42 443.501C461.521 443.553 461.605 443.63 461.664 443.726C461.723 443.822 461.755 443.932 461.756 444.044C461.72 446.983 460.677 455.763 451.21 470.006Z" fill="#E8505B"/>
<path d="M458.627 449.08C458.397 450.144 458.068 451.183 457.644 452.185L454.942 459.531C453.935 462.28 453.034 464.769 452.264 466.89C451.96 467.934 451.564 468.949 451.079 469.923C451.196 468.836 451.438 467.767 451.802 466.736C452.359 464.804 453.236 462.174 454.302 459.294C455.369 456.415 456.399 453.844 457.193 452.007C457.555 450.979 458.036 449.996 458.627 449.08Z" fill="#263238"/>
<path d="M461.377 515.578C461.377 515.578 459.99 497.259 471.899 489.51C471.992 489.449 472.1 489.414 472.212 489.411C472.323 489.407 472.433 489.434 472.53 489.489C472.627 489.545 472.707 489.626 472.761 489.723C472.815 489.821 472.84 489.932 472.835 490.043C472.693 492.946 471.342 501.691 461.377 515.578Z" fill="#E8505B"/>
<path d="M469.53 494.961C469.278 496.02 468.913 497.049 468.44 498.03C467.586 500.127 466.591 502.58 465.477 505.281C464.363 507.983 463.38 510.448 462.539 512.545C462.202 513.579 461.77 514.578 461.247 515.531C461.401 514.452 461.679 513.394 462.077 512.379C462.716 510.46 463.676 507.853 464.849 505.021C466.022 502.189 467.136 499.653 468.001 497.84C468.405 496.828 468.918 495.862 469.53 494.961Z" fill="#263238"/>
<path d="M440.534 367.936C440.534 367.936 424.253 359.44 423.945 345.221C423.94 345.109 423.967 344.997 424.022 344.899C424.078 344.801 424.159 344.721 424.257 344.667C424.356 344.613 424.468 344.587 424.58 344.593C424.692 344.599 424.8 344.635 424.893 344.699C427.31 346.37 434.017 352.141 440.534 367.936Z" fill="#E8505B"/>
<path d="M427.322 350.103C428.076 350.887 428.754 351.74 429.348 352.65C430.664 354.487 432.228 356.632 433.934 359.002L438.544 365.329C439.242 366.165 439.864 367.061 440.404 368.007C439.562 367.313 438.809 366.517 438.164 365.637C436.873 364.097 435.167 361.905 433.425 359.416C431.683 356.928 430.083 354.677 428.993 352.935C428.323 352.062 427.762 351.111 427.322 350.103Z" fill="#263238"/>
<path d="M458.023 405.593C458.023 405.593 441.257 398.093 440.072 383.921C440.064 383.81 440.087 383.7 440.137 383.601C440.187 383.503 440.262 383.419 440.356 383.36C440.449 383.301 440.557 383.267 440.667 383.264C440.778 383.26 440.887 383.287 440.984 383.34C443.508 384.869 450.546 390.213 458.023 405.593Z" fill="#E8505B"/>
<path d="M443.744 388.589C444.541 389.312 445.271 390.105 445.924 390.959L450.889 397.026L455.866 403.057C456.621 403.841 457.296 404.698 457.88 405.617C457.008 404.967 456.213 404.22 455.511 403.389C454.124 401.92 452.299 399.834 450.356 397.464C448.413 395.095 446.718 392.938 445.533 391.315C444.836 390.477 444.236 389.563 443.744 388.589Z" fill="#263238"/>
<path d="M448.379 447.564C448.379 447.564 436.861 433.25 442.265 420.109C442.304 420.003 442.373 419.911 442.462 419.842C442.552 419.774 442.659 419.731 442.771 419.72C442.883 419.709 442.996 419.73 443.097 419.78C443.198 419.829 443.283 419.906 443.343 420.002C444.895 422.526 448.723 430.5 448.379 447.564Z" fill="#E8505B"/>
<path d="M443.401 425.95C443.788 426.97 444.07 428.026 444.243 429.102C444.717 431.306 445.285 433.842 445.902 436.757C446.518 439.672 447.086 442.196 447.596 444.4C447.898 445.442 448.108 446.508 448.224 447.587C447.734 446.613 447.364 445.582 447.122 444.518C446.553 442.587 445.937 439.897 445.238 436.899C444.539 433.901 444.053 431.176 443.769 429.197C443.526 428.132 443.403 427.043 443.401 425.95Z" fill="#263238"/>
<path d="M459.753 497.011C459.753 497.011 443.164 489.238 442.169 475.054C442.158 474.941 442.179 474.828 442.229 474.727C442.28 474.626 442.357 474.541 442.454 474.481C442.55 474.422 442.661 474.391 442.774 474.392C442.887 474.393 442.997 474.425 443.093 474.485C445.617 476.002 452.561 481.512 459.753 497.011Z" fill="#E8505B"/>
<path d="M445.783 479.782C446.584 480.52 447.304 481.342 447.928 482.235L452.786 488.373L457.668 494.499C458.408 495.296 459.07 496.16 459.647 497.082C458.764 496.427 457.968 495.662 457.277 494.807C455.926 493.326 454.125 491.252 452.229 488.799C450.333 486.346 448.674 484.166 447.49 482.531C446.824 481.678 446.252 480.757 445.783 479.782Z" fill="#263238"/>
<path d="M492.931 424.789C492.931 424.789 492.931 424.931 492.931 425.192C492.931 425.452 492.931 425.903 492.931 426.377C492.931 427.479 492.812 428.96 492.73 430.82L491.865 446.734C490.68 453.381 487.291 460.752 482.741 467.897C479.411 473.17 475.915 477.957 472.894 482.412C470.158 486.307 467.691 490.385 465.512 494.617C464.09 497.491 462.935 500.489 462.064 503.575C461.767 504.677 461.554 505.53 461.424 506.111C461.37 506.414 461.286 506.712 461.175 506.999C461.186 506.693 461.222 506.388 461.281 506.087C461.364 505.495 461.554 504.618 461.803 503.504C462.581 500.367 463.677 497.318 465.073 494.404C467.208 490.119 469.647 485.992 472.372 482.057C475.37 477.578 478.842 472.779 482.16 467.529C486.686 460.42 490.052 453.156 491.284 446.627C491.746 440.098 492.125 434.647 492.398 430.737C492.552 428.877 492.67 427.384 492.765 426.294C492.765 425.82 492.848 425.441 492.872 425.109C492.883 425.001 492.902 424.894 492.931 424.789Z" fill="#263238"/>
<path d="M483.014 466.522C483.014 466.522 490.064 449.554 481.201 438.439C481.13 438.353 481.037 438.287 480.932 438.25C480.826 438.212 480.713 438.204 480.603 438.226C480.494 438.248 480.392 438.299 480.31 438.374C480.227 438.449 480.166 438.546 480.134 438.653C479.352 441.532 477.895 450.253 483.014 466.522Z" fill="#E8505B"/>
<path d="M481.733 444.411C482.027 445.439 482.206 446.496 482.267 447.563C482.515 449.566 482.8 452.303 483.013 455.384C483.226 458.465 483.333 461.214 483.333 463.228C483.397 464.314 483.333 465.404 483.143 466.475C482.937 465.409 482.838 464.325 482.847 463.24C482.705 460.989 482.527 458.346 482.326 455.431C482.124 452.516 481.947 449.862 481.781 447.611C481.66 446.548 481.644 445.477 481.733 444.411Z" fill="#263238"/>
<g opacity="0.3">
<path opacity="0.3" d="M483.014 466.522C483.014 466.522 490.064 449.554 481.201 438.439C481.13 438.353 481.037 438.287 480.932 438.25C480.826 438.212 480.713 438.204 480.603 438.226C480.494 438.248 480.392 438.299 480.31 438.374C480.227 438.449 480.166 438.546 480.134 438.653C479.352 441.532 477.895 450.253 483.014 466.522Z" fill="black"/>
</g>
<path d="M461.187 507.45C461.187 507.45 466.839 489.972 457.099 479.616C457.024 479.532 456.928 479.471 456.82 479.439C456.712 479.408 456.598 479.406 456.49 479.436C456.382 479.465 456.284 479.525 456.207 479.607C456.131 479.689 456.078 479.79 456.056 479.9C455.499 482.791 454.765 491.607 461.187 507.45Z" fill="#E8505B"/>
<path d="M458.105 485.481C458.498 486.501 458.772 487.563 458.923 488.645C459.338 490.612 459.835 493.385 460.309 496.359C460.783 499.333 461.103 502.153 461.269 504.156C461.424 505.235 461.444 506.33 461.328 507.414C461.055 506.366 460.873 505.295 460.783 504.215C460.452 501.987 460.061 499.357 459.598 496.466C459.136 493.574 458.769 490.956 458.414 488.728C458.212 487.657 458.108 486.571 458.105 485.481Z" fill="#263238"/>
<g opacity="0.3">
<path opacity="0.3" d="M461.187 507.45C461.187 507.45 466.839 489.972 457.099 479.616C457.024 479.532 456.928 479.471 456.82 479.439C456.712 479.408 456.598 479.406 456.49 479.436C456.382 479.465 456.284 479.525 456.207 479.607C456.131 479.689 456.078 479.79 456.056 479.9C455.499 482.791 454.765 491.607 461.187 507.45Z" fill="black"/>
</g>
<path d="M491.995 445.833C491.995 445.833 507.044 435.299 505.527 421.163C505.514 421.051 505.471 420.945 505.402 420.857C505.333 420.768 505.241 420.7 505.136 420.659C505.031 420.619 504.917 420.608 504.806 420.628C504.696 420.648 504.592 420.698 504.508 420.772C502.328 422.739 496.486 429.327 491.995 445.833Z" fill="#E8505B"/>
<g opacity="0.3">
<path opacity="0.3" d="M491.995 445.833C491.995 445.833 507.044 435.299 505.527 421.163C505.514 421.051 505.471 420.945 505.402 420.857C505.333 420.768 505.241 420.7 505.136 420.659C505.031 420.619 504.917 420.608 504.806 420.628C504.696 420.648 504.592 420.698 504.508 420.772C502.328 422.739 496.486 429.327 491.995 445.833Z" fill="black"/>
</g>
<path d="M502.801 426.448C502.495 427.495 502.074 428.504 501.545 429.458C500.692 431.271 499.448 433.747 497.99 436.449C496.533 439.15 495.135 441.544 494.056 443.238C493.521 444.191 492.877 445.077 492.137 445.881C492.544 444.873 493.043 443.905 493.63 442.99L497.386 436.117C498.772 433.546 500.04 431.223 501.119 429.232C501.585 428.251 502.149 427.318 502.801 426.448Z" fill="#263238"/>
<path d="M467.254 490.114C467.254 490.114 485.407 487.294 490.265 473.928C490.304 473.824 490.313 473.712 490.292 473.603C490.271 473.494 490.22 473.393 490.146 473.311C490.071 473.229 489.975 473.169 489.869 473.138C489.762 473.107 489.65 473.105 489.543 473.134C486.711 473.94 478.511 477.246 467.254 490.114Z" fill="#E8505B"/>
<g opacity="0.3">
<path opacity="0.3" d="M467.254 490.114C467.254 490.114 485.407 487.294 490.265 473.928C490.304 473.824 490.313 473.712 490.292 473.603C490.271 473.494 490.22 473.393 490.146 473.311C490.071 473.229 489.975 473.169 489.869 473.138C489.762 473.107 489.65 473.105 489.543 473.134C486.711 473.94 478.511 477.246 467.254 490.114Z" fill="black"/>
</g>
<path d="M485.502 477.471C484.767 478.276 483.944 478.995 483.049 479.616C481.485 480.872 479.269 482.554 476.78 484.355C474.292 486.156 471.97 487.673 470.251 488.716C469.358 489.342 468.391 489.855 467.372 490.244C468.182 489.524 469.054 488.878 469.979 488.313L476.378 483.798C478.747 482.092 480.916 480.564 482.764 479.26C483.611 478.568 484.528 477.968 485.502 477.471Z" fill="#263238"/>
<path d="M449.942 523.518L444.646 559.16H477.646L473.368 523.518H449.942Z" fill="#455A64"/>
<path d="M474.684 534.561C470.257 534.904 465.816 535.019 461.377 534.905C456.939 535.019 452.497 534.904 448.07 534.561C452.497 534.218 456.939 534.103 461.377 534.218C465.816 534.103 470.257 534.218 474.684 534.561Z" fill="#263238"/>
<path d="M475.336 537.393C475.336 537.595 469.187 537.737 461.603 537.737C454.02 537.737 447.905 537.618 447.905 537.393C447.905 537.168 454.055 537.05 461.65 537.05C469.246 537.05 475.336 537.204 475.336 537.393Z" fill="#263238"/>
<path d="M56.9719 494.108C58.6395 494.392 60.2329 495.008 61.6578 495.92C63.0826 496.832 64.3098 498.021 65.2664 499.416C67.1521 502.236 68.368 505.45 68.8212 508.813C69.8995 515.259 68.1576 522.581 65.7641 528.672C59.2469 525.591 55.6921 517.925 54.1991 513.92C51.77 507.604 51.2368 494.712 56.9719 494.108Z" fill="#E8505B"/>
<path d="M75.5035 537.749C74.5132 536.133 73.9684 534.285 73.9247 532.391C73.881 530.497 74.3399 528.625 75.2546 526.966C76.1926 525.322 77.4492 523.882 78.9509 522.731C80.4525 521.579 82.1689 520.739 83.9994 520.259C84.8183 519.949 85.6948 519.82 86.5683 519.881C87.4418 519.943 88.2916 520.193 89.0591 520.614C89.6958 521.128 90.1857 521.801 90.4791 522.564C90.7724 523.328 90.8589 524.155 90.7298 524.963C90.4345 526.574 89.7192 528.078 88.6562 529.324C85.2318 533.755 81.0963 537.405 75.5035 537.737" fill="#E8505B"/>
<path d="M73.8447 558.189C73.7089 557.747 73.6331 557.288 73.6196 556.826C73.5366 555.949 73.4181 554.681 73.3352 553.105C73.0358 548.979 73.2868 544.831 74.0817 540.77C74.9296 536.675 76.8658 532.885 79.6864 529.798C80.5568 528.891 81.5359 528.095 82.6013 527.428C82.9611 527.161 83.3611 526.953 83.7863 526.812C82.4429 527.827 81.1828 528.949 80.0182 530.165C77.39 533.267 75.5812 536.978 74.7571 540.96C73.9781 544.959 73.6601 549.034 73.8091 553.105C73.9222 554.798 73.9341 556.495 73.8447 558.189Z" fill="#263238"/>
<path d="M58.5 503.895C58.836 504.573 59.1135 505.279 59.3295 506.004C59.8153 507.379 60.5144 509.381 61.2964 511.858C62.9198 516.811 65.0408 523.707 67.2211 531.338C69.4014 538.969 71.1551 545.972 72.3637 551.043C72.968 553.579 73.4302 555.641 73.7382 557.063C73.9286 557.798 74.0594 558.547 74.1293 559.302C73.8456 558.599 73.6197 557.874 73.4539 557.134C73.051 555.605 72.5059 553.579 71.866 551.209C70.5271 546.173 68.6667 539.23 66.522 531.575C64.3773 523.92 62.3155 517.036 60.8343 512.047L59.0806 506.123C58.8253 505.398 58.6311 504.652 58.5 503.895Z" fill="#263238"/>
<path d="M66.7471 543.886C65.1034 540.246 62.617 537.05 59.4934 534.561C56.3698 532.072 52.6987 530.362 48.7835 529.572C46.7928 529.193 44.34 529.253 43.2262 530.947C42.1123 532.641 43.0721 534.928 44.2689 536.575C46.825 539.963 50.3278 542.518 54.3349 543.916C58.342 545.314 62.6736 545.494 66.7826 544.432" fill="#E8505B"/>
<path d="M50.9521 535.308C51.3906 535.291 51.8292 535.334 52.2556 535.438C52.7681 535.509 53.2749 535.616 53.7723 535.758C54.4349 535.917 55.0878 536.115 55.7274 536.35C57.4108 536.936 59.0306 537.69 60.562 538.602C62.4322 539.741 64.1759 541.075 65.7638 542.583C67.3241 544.116 68.7146 545.812 69.9111 547.643C70.8548 549.141 71.6486 550.729 72.2809 552.383C72.5772 553.082 72.7431 553.745 72.9326 554.326C73.0876 554.815 73.2103 555.314 73.3 555.819C73.4161 556.244 73.4759 556.682 73.4777 557.122C73.3355 557.122 72.98 555.321 71.7951 552.572C71.103 550.973 70.2703 549.438 69.3068 547.986C68.1029 546.225 66.7341 544.583 65.2187 543.081C63.67 541.615 61.9836 540.301 60.1828 539.159C58.6996 538.233 57.1372 537.439 55.5141 536.789C52.7888 535.746 50.9521 535.45 50.9521 535.308Z" fill="#263238"/>
<path d="M393.159 104.383C393.159 104.727 395.731 105.011 398.894 105.011C402.058 105.011 404.629 104.727 404.629 104.383C404.629 104.04 402.058 103.743 398.894 103.743C395.731 103.743 393.159 104.028 393.159 104.383Z" fill="#E8505B"/>
<path d="M387.069 88.7659C386.713 88.7659 386.429 91.3727 386.429 94.5957C386.429 97.8188 386.713 100.414 387.069 100.414C387.424 100.414 387.697 97.8069 387.697 94.5957C387.697 91.3846 387.471 88.7659 387.069 88.7659Z" fill="#E8505B"/>
<path d="M380.576 104.004C380.576 103.649 378.004 103.364 374.841 103.364C371.677 103.364 369.094 103.649 369.094 104.004C369.094 104.36 371.665 104.644 374.841 104.644C378.016 104.644 380.576 104.36 380.576 104.004Z" fill="#E8505B"/>
<path d="M386.666 119.61C387.022 119.61 387.306 117.003 387.306 113.792C387.306 110.58 387.022 107.974 386.666 107.974C386.311 107.974 386.038 110.58 386.038 113.792C386.038 117.003 386.287 119.61 386.666 119.61Z" fill="#E8505B"/>
<path d="M377.389 112.915C377.661 113.14 378.799 112.228 379.925 110.877C381.05 109.526 381.738 108.258 381.477 108.033C381.216 107.808 380.079 108.72 378.941 110.071C377.804 111.422 377.128 112.69 377.389 112.915Z" fill="#E8505B"/>
<path d="M377.993 95.2119C377.744 95.4608 378.491 96.622 379.652 97.7951C380.813 98.9682 382.022 99.7384 382.223 99.4895C382.425 99.2407 381.726 98.0913 380.553 96.9064C379.38 95.7214 378.183 94.9749 377.993 95.2119Z" fill="#E8505B"/>
<path d="M391.086 99.7265C391.311 99.9991 392.39 99.4658 393.456 98.5416C394.522 97.6173 395.293 96.6457 395.068 96.3732C394.842 96.1006 393.764 96.6339 392.698 97.5581C391.631 98.4823 390.861 99.454 391.086 99.7265Z" fill="#E8505B"/>
<path d="M391.595 107.488C391.335 107.725 391.986 108.862 393.053 110.035C394.119 111.208 395.186 111.943 395.423 111.706C395.66 111.469 395.032 110.343 393.965 109.17C392.899 107.997 391.856 107.286 391.595 107.488Z" fill="#E8505B"/>
<path d="M109.593 241.219C110.639 241.579 111.751 241.704 112.851 241.586C113.951 241.704 115.064 241.579 116.11 241.219C115.06 240.874 113.95 240.753 112.851 240.864C111.752 240.753 110.642 240.874 109.593 241.219Z" fill="#E8505B"/>
<path d="M106.134 232.368C105.66 234.542 105.66 236.793 106.134 238.968C106.608 236.793 106.608 234.542 106.134 232.368Z" fill="#E8505B"/>
<path d="M102.449 241.018C101.403 240.659 100.29 240.533 99.1902 240.651C98.0902 240.533 96.9779 240.659 95.9316 241.018C96.9811 241.363 98.0911 241.484 99.1902 241.373C100.289 241.484 101.399 241.363 102.449 241.018Z" fill="#E8505B"/>
<path d="M105.909 249.87C106.383 247.691 106.383 245.436 105.909 243.258C105.435 245.436 105.435 247.691 105.909 249.87Z" fill="#E8505B"/>
<path d="M100.648 246.125C100.802 246.243 101.442 245.734 102.082 244.94C102.721 244.146 103.112 243.447 102.958 243.329C102.804 243.21 102.165 243.708 101.525 244.513C100.885 245.319 100.494 245.947 100.648 246.125Z" fill="#E8505B"/>
<path d="M100.944 236.029C100.802 236.16 101.229 236.823 101.892 237.487C102.556 238.15 103.208 238.589 103.35 238.446C103.492 238.304 103.065 237.653 102.402 236.977C101.738 236.302 101.087 235.887 100.944 236.029Z" fill="#E8505B"/>
<path d="M108.409 238.589C108.539 238.731 109.155 238.435 109.795 237.913C110.435 237.392 110.826 236.835 110.708 236.728C110.589 236.622 109.961 236.871 109.333 237.404C108.705 237.937 108.29 238.435 108.409 238.589Z" fill="#E8505B"/>
<path d="M108.705 243.009C108.563 243.151 108.93 243.791 109.535 244.454C110.139 245.118 110.72 245.544 110.886 245.414C111.052 245.284 110.672 244.632 110.068 243.968C109.464 243.305 108.859 242.878 108.705 243.009Z" fill="#E8505B"/>
<path d="M399.073 311.462C401.22 311.936 403.444 311.936 405.59 311.462C403.444 310.988 401.22 310.988 399.073 311.462Z" fill="#E8505B"/>
<path d="M395.613 302.599C395.139 304.777 395.139 307.032 395.613 309.211C396.087 307.032 396.087 304.777 395.613 302.599Z" fill="#E8505B"/>
<path d="M391.928 311.296C389.782 310.822 387.558 310.822 385.411 311.296C387.556 311.786 389.784 311.786 391.928 311.296Z" fill="#E8505B"/>
<path d="M395.389 320.112C395.863 317.934 395.863 315.679 395.389 313.5C394.915 315.679 394.915 317.934 395.389 320.112Z" fill="#E8505B"/>
<path d="M390.127 316.308C390.281 316.439 390.921 315.917 391.561 315.123C392.201 314.33 392.592 313.63 392.438 313.5C392.284 313.37 391.644 313.891 391.004 314.685C390.364 315.479 389.973 316.178 390.127 316.308Z" fill="#E8505B"/>
<path d="M390.424 306.26C390.282 306.402 390.708 307.054 391.372 307.729C392.035 308.405 392.687 308.831 392.829 308.689C392.971 308.547 392.545 307.895 391.881 307.22C391.218 306.544 390.566 306.118 390.424 306.26Z" fill="#E8505B"/>
<path d="M397.9 308.82C398.018 308.974 398.635 308.678 399.274 308.144C399.914 307.611 400.317 307.066 400.187 306.959C400.057 306.853 399.44 307.113 398.812 307.635C398.184 308.156 397.77 308.666 397.9 308.82Z" fill="#E8505B"/>
<path d="M398.137 313.251C397.995 313.382 398.362 314.033 398.966 314.697C399.571 315.36 400.151 315.775 400.317 315.645C400.483 315.514 400.104 314.863 399.5 314.211C398.895 313.559 398.338 313.121 398.137 313.251Z" fill="#E8505B"/>
<path d="M159.421 494.961C161.566 495.451 163.793 495.451 165.938 494.961C163.792 494.487 161.567 494.487 159.421 494.961Z" fill="#E8505B"/>
<path d="M155.961 486.097C155.487 488.272 155.487 490.523 155.961 492.697C156.45 490.525 156.45 488.27 155.961 486.097Z" fill="#E8505B"/>
<path d="M152.288 494.736C151.238 494.392 150.128 494.271 149.029 494.38C147.93 494.27 146.82 494.391 145.771 494.736C146.817 495.095 147.929 495.22 149.029 495.103C150.129 495.219 151.241 495.093 152.288 494.736Z" fill="#E8505B"/>
<path d="M155.735 503.599C156.225 501.422 156.225 499.164 155.735 496.987C155.261 499.165 155.261 501.42 155.735 503.599Z" fill="#E8505B"/>
<path d="M150.486 499.807C150.64 499.926 151.28 499.416 151.92 498.622C152.56 497.828 152.951 497.129 152.809 496.999C152.666 496.868 152.003 497.39 151.375 498.184C150.747 498.978 150.32 499.7 150.486 499.807Z" fill="#E8505B"/>
<path d="M150.783 489.747C150.641 489.889 151.068 490.553 151.731 491.216C152.395 491.88 153.046 492.318 153.189 492.176C153.331 492.034 152.904 491.382 152.241 490.707C151.577 490.031 150.925 489.617 150.783 489.747Z" fill="#E8505B"/>
<path d="M158.248 492.318C158.378 492.46 158.995 492.164 159.623 491.643C160.251 491.122 160.665 490.565 160.535 490.458C160.405 490.351 159.8 490.6 159.161 491.133C158.521 491.667 158.118 492.164 158.248 492.318Z" fill="#E8505B"/>
<path d="M158.544 496.738C158.39 496.88 158.757 497.52 159.362 498.184C159.966 498.847 160.546 499.274 160.724 499.132C160.902 498.99 160.499 498.361 159.895 497.698C159.29 497.034 158.686 496.608 158.544 496.738Z" fill="#E8505B"/>
<path d="M154.692 193.194L154.313 194.094C153.988 194.871 153.513 195.575 152.916 196.167C152.318 196.758 151.609 197.226 150.829 197.543L149.857 197.945L150.794 198.325C151.599 198.641 152.33 199.12 152.941 199.732C153.553 200.343 154.032 201.074 154.348 201.879L154.609 202.543L155.012 201.714C155.729 200.215 157.005 199.058 158.567 198.49L159.408 198.182L158.306 197.649C156.904 196.973 155.799 195.805 155.201 194.367L154.692 193.194Z" fill="#E8505B"/>
<path d="M112.888 177.529L112.698 177.967C112.54 178.358 112.304 178.713 112.004 179.01C111.705 179.308 111.349 179.541 110.957 179.697L110.471 179.899L110.945 180.089C111.339 180.249 111.698 180.487 111.999 180.788C112.3 181.089 112.538 181.448 112.698 181.842L112.829 182.174L113.03 181.759C113.387 181.013 114.02 180.436 114.796 180.148L115.222 179.994L114.665 179.721C113.968 179.385 113.419 178.802 113.125 178.086L112.888 177.529Z" fill="#E8505B"/>
<path d="M437.085 113.14L436.896 113.59C436.565 114.373 435.939 114.995 435.154 115.32L434.668 115.51L435.13 115.699C435.527 115.86 435.886 116.099 436.188 116.402C436.489 116.706 436.726 117.067 436.884 117.465L437.014 117.785L437.216 117.382C437.574 116.632 438.212 116.053 438.993 115.77L439.42 115.616L438.863 115.344C438.167 115.001 437.617 114.421 437.31 113.709L437.085 113.14Z" fill="#E8505B"/>
<path d="M419.252 354.38L419.074 354.831C418.743 355.611 418.117 356.228 417.333 356.549L416.847 356.75L417.309 356.94C417.702 357.102 418.06 357.34 418.361 357.641C418.662 357.942 418.9 358.3 419.062 358.694L419.193 359.025L419.394 358.611C419.756 357.864 420.393 357.286 421.172 356.999L421.598 356.845L421.041 356.584C420.34 356.244 419.788 355.658 419.489 354.937L419.252 354.38Z" fill="#E8505B"/>
<path d="M169.444 460.064L169.267 460.515C168.936 461.295 168.309 461.912 167.525 462.233L167.039 462.434L167.501 462.624C167.897 462.782 168.256 463.02 168.558 463.321C168.859 463.622 169.096 463.982 169.255 464.378L169.385 464.709L169.587 464.295C169.945 463.545 170.583 462.966 171.364 462.683L171.791 462.529L171.234 462.257C170.531 461.923 169.978 461.34 169.681 460.621L169.444 460.064Z" fill="#E8505B"/>
<path d="M357.186 66.3943L356.996 66.8446C356.836 67.2344 356.599 67.5883 356.3 67.8854C356.001 68.1825 355.645 68.4168 355.254 68.5746L354.769 68.776L355.243 68.9656C355.641 69.1299 356.001 69.3732 356.303 69.6807C356.604 69.9882 356.84 70.3536 356.996 70.7548L357.127 71.0866L357.316 70.6719C357.681 69.9275 358.317 69.3509 359.094 69.0604L359.52 68.9063L358.963 68.6338C358.268 68.2937 357.721 67.7126 357.423 66.9986L357.186 66.3943Z" fill="#E8505B"/>
<path d="M385.494 381.669L385.115 382.57C384.79 383.346 384.315 384.05 383.717 384.642C383.119 385.234 382.41 385.702 381.631 386.018L380.659 386.409L381.595 386.788C382.399 387.108 383.128 387.588 383.739 388.199C384.351 388.81 384.831 389.54 385.15 390.343L385.411 390.995L385.814 390.177C386.531 388.679 387.807 387.521 389.368 386.954L390.21 386.646L389.108 386.101C387.709 385.425 386.605 384.262 386.003 382.831L385.494 381.669Z" fill="#E8505B"/>
</svg>
