<svg width="14" height="14" viewBox="0 0 14 14" fill="none" xmlns="http://www.w3.org/2000/svg">
<path d="M12.4444 1.6H11.6667V0.8C11.6667 0.36 11.3167 0 10.8889 0C10.4611 0 10.1111 0.36 10.1111 0.8V1.6H3.88889V0.8C3.88889 0.36 3.53889 0 3.11111 0C2.68333 0 2.33333 0.36 2.33333 0.8V1.6H1.55556C0.692222 1.6 0.00777777 2.32 0.00777777 3.2L0 12.4C0 12.8243 0.163888 13.2313 0.455612 13.5314C0.747335 13.8314 1.143 14 1.55556 14H12.4444C13.3 14 14 13.28 14 12.4V3.2C14 2.32 13.3 1.6 12.4444 1.6ZM12.4444 5.4V12.4H1.55556V5.4H12.4444ZM3.88889 7C4.31667 7 4.66667 7.36 4.66667 7.8C4.66667 8.24 4.31667 8.6 3.88889 8.6C3.46111 8.6 3.11111 8.24 3.11111 7.8C3.11111 7.36 3.46111 7 3.88889 7ZM7 7C7.42778 7 7.77778 7.36 7.77778 7.8C7.77778 8.24 7.42778 8.6 7 8.6C6.57222 8.6 6.22222 8.24 6.22222 7.8C6.22222 7.36 6.57222 7 7 7ZM10.1111 7C10.5389 7 10.8889 7.36 10.8889 7.8C10.8889 8.24 10.5389 8.6 10.1111 8.6C9.68333 8.6 9.33333 8.24 9.33333 7.8C9.33333 7.36 9.68333 7 10.1111 7Z" fill="#FF7F41"/>
</svg>
