<svg width="416" height="501" viewBox="0 0 416 501" fill="none" xmlns="http://www.w3.org/2000/svg">
<path d="M4.65041 301.347H175.32C177.878 301.347 179.971 303.439 179.971 305.997C179.971 308.555 177.878 310.647 175.32 310.647H98.9374V488.293L141.721 499.686H98.9374H84.0561H40.4585C41.1561 499.686 84.0561 488.293 84.0561 488.293V310.531H4.65041C2.09268 310.531 0 308.438 0 305.881C0 303.323 2.09268 301.347 4.65041 301.347Z" fill="#E0E0E0"/>
<path d="M60.8033 268.096L57.548 302.16H39.9927L36.5049 268.096H60.8033Z" fill="#E0E0E0"/>
<path d="M34.3822 268.074H63.4473V265.633H34.3822V268.074Z" fill="#EBEBEB"/>
<path d="M57.8963 261.353L60.8028 266.12H37.667L38.8296 261.353H57.8963Z" fill="#EBEBEB"/>
<path d="M59.7564 279.606L58.4776 291.697H38.8296L37.667 279.606H59.7564Z" fill="#F5F5F5"/>
<path d="M46.1562 289.023C46.1562 288.093 46.3888 287.047 47.0863 286.001C47.5514 285.187 48.1327 284.605 48.5977 283.908C49.0628 283.21 49.4115 282.629 49.6441 282.048C49.7603 281.699 49.7603 281.466 49.7603 281.234C49.7603 281.234 49.8766 281.234 49.8766 281.35C50.5741 281.815 51.0392 282.513 51.1554 283.327C51.2717 284.14 51.2717 284.954 51.0392 285.768C50.8067 286.698 50.4579 287.628 49.7603 288.326C48.9465 289.14 47.7839 289.488 46.7376 289.256C46.505 289.256 46.3888 289.14 46.1562 289.023Z" fill="#FAFAFA"/>
<path d="M44.6453 286.349C44.7615 285.303 44.8778 284.14 45.2266 283.21C45.6916 282.164 46.5054 281.234 47.5518 281.001C47.9006 280.885 48.5981 280.885 49.2957 281.117C49.2957 281.35 49.1794 281.699 49.0632 281.931C48.8306 282.512 48.4819 283.094 48.0168 283.675C47.5518 284.256 46.9705 284.954 46.3892 285.768C45.8079 286.582 45.5754 287.512 45.4591 288.325C45.4591 288.558 45.4591 288.674 45.4591 288.907C45.2266 288.79 44.9941 288.558 44.7615 288.209C44.529 287.628 44.6453 287.047 44.6453 286.349Z" fill="#FAFAFA"/>
<path d="M102.889 268.096L99.6339 302.16H82.0786L78.5908 268.096H102.889Z" fill="#E0E0E0"/>
<path d="M76.4936 268.074H105.559V265.633H76.4936V268.074Z" fill="#EBEBEB"/>
<path d="M99.9831 261.353L102.89 266.12H79.8701L80.9165 261.353H99.9831Z" fill="#EBEBEB"/>
<path d="M101.842 279.606L100.68 291.697H81.0318L79.7529 279.606H101.842Z" fill="#F5F5F5"/>
<path d="M88.2422 289.023C88.2422 288.093 88.4747 287.047 89.1723 286.001C89.6373 285.187 90.2186 284.605 90.6836 283.908C91.1487 283.21 91.4975 282.629 91.73 282.048C91.8463 281.699 91.8463 281.466 91.8463 281.234C91.8463 281.234 91.9625 281.234 91.9625 281.35C92.6601 281.815 93.1251 282.513 93.2414 283.327C93.3576 284.14 93.3576 284.954 93.1251 285.768C92.8926 286.698 92.5438 287.628 91.8463 288.326C91.0324 289.14 89.8698 289.488 88.8235 289.256C88.7072 289.256 88.4747 289.14 88.2422 289.023Z" fill="#FAFAFA"/>
<path d="M86.7312 286.349C86.8475 285.303 86.9637 284.14 87.3125 283.21C87.7776 282.164 88.5914 281.234 89.6377 281.001C89.9865 280.885 90.6841 280.885 91.3816 281.117C91.3816 281.35 91.2654 281.699 91.1491 281.931C90.9166 282.512 90.5678 283.094 90.1028 283.675C89.6377 284.256 89.0564 284.954 88.4751 285.768C87.8938 286.582 87.6613 287.512 87.545 288.325C87.545 288.558 87.545 288.674 87.545 288.907C87.3125 288.79 87.08 288.558 86.8475 288.209C86.615 287.628 86.7312 287.047 86.7312 286.349Z" fill="#FAFAFA"/>
<path d="M147.185 21.0431H28.832V192.643H147.185V21.0431Z" fill="#E0E0E0"/>
<path d="M141.257 21.0432H22.9043V192.643H141.257V21.0432Z" fill="#F5F5F5"/>
<path d="M126.608 39.6439H37.6689V174.041H126.608V39.6439Z" fill="white"/>
<path d="M126.608 174.041C126.608 174.041 126.608 173.809 126.608 173.344C126.608 172.879 126.608 172.297 126.608 171.484C126.608 169.74 126.608 167.298 126.608 164.159C126.608 157.765 126.608 148.348 126.492 136.489C126.492 112.772 126.376 79.173 126.376 39.6446L126.724 39.9933C99.5195 39.9933 69.4081 39.9933 37.7854 39.9933L38.1341 39.6446C38.1341 90.334 38.1341 137.071 38.0179 174.041L37.7854 173.809C64.874 173.809 87.0797 173.925 102.542 173.925C110.332 173.925 116.261 173.925 120.446 174.041C122.539 174.041 124.05 174.041 125.097 174.041C126.027 174.041 126.608 174.041 126.608 174.041C126.608 174.041 126.027 174.041 124.98 174.041C123.934 174.041 122.306 174.041 120.33 174.041C116.261 174.041 110.215 174.041 102.542 174.158C87.0797 174.158 64.7577 174.274 37.6691 174.274H37.4366V174.041C37.4366 137.071 37.4366 90.334 37.3203 39.6446V39.2958H37.6691C69.2919 39.2958 99.4032 39.2958 126.608 39.2958H126.957V39.6446C126.841 79.2893 126.841 112.888 126.841 136.606C126.841 148.464 126.724 157.765 126.724 164.275C126.724 167.414 126.724 169.972 126.724 171.6C126.724 172.414 126.724 172.995 126.724 173.46C126.608 173.809 126.608 174.041 126.608 174.041Z" fill="#E0E0E0"/>
<path d="M141.606 21.0431C141.723 21.0431 140.909 22.3219 139.514 24.0658C138.119 25.926 136.142 28.3674 133.933 31.1577C131.724 33.8317 129.632 36.2731 128.12 38.017C126.609 39.7609 125.563 40.691 125.563 40.691C125.446 40.5748 126.376 39.5284 127.771 37.7845C129.399 35.8081 131.259 33.4829 133.468 30.9252C135.677 28.2512 137.537 25.926 139.165 23.9496C140.676 21.9731 141.606 20.9268 141.606 21.0431Z" fill="#E0E0E0"/>
<path d="M127.072 173.576C131.49 180.552 136.722 187.179 142.535 192.992L127.072 173.576Z" fill="white"/>
<path d="M142.535 192.992C142.419 193.108 141.372 192.178 139.861 190.55C138.233 188.923 136.141 186.598 134.048 183.924C131.839 181.25 130.095 178.692 128.932 176.715C127.77 174.855 127.072 173.576 127.072 173.576C127.189 173.576 128.002 174.623 129.281 176.483C130.56 178.343 132.42 180.785 134.513 183.459C136.606 186.133 138.698 188.458 140.21 190.202C141.721 191.946 142.651 192.992 142.535 192.992Z" fill="#E0E0E0"/>
<path d="M22.9033 192.527C28.0188 186.133 33.2505 179.738 38.3659 173.344L22.9033 192.527Z" fill="white"/>
<path d="M38.366 173.344C38.4822 173.46 35.1107 177.878 30.809 183.11C26.5074 188.341 22.9034 192.643 22.7871 192.527C22.6708 192.411 26.0424 187.993 30.344 182.761C34.6456 177.413 38.2497 173.228 38.366 173.344Z" fill="#E0E0E0"/>
<path d="M22.9025 21.0431C23.0188 20.9268 26.3903 24.9959 30.4595 29.9951C34.5286 35.1106 37.6676 39.2959 37.4351 39.4122C37.3188 39.5284 33.9473 35.4593 29.8782 30.4602C25.9253 25.3447 22.7863 21.1593 22.9025 21.0431Z" fill="#E0E0E0"/>
<path d="M98.8212 66.8496H69.0586V151.487H98.8212V66.8496Z" fill="#E0E0E0"/>
<path d="M263.564 0.116333H183.81V83.3586H263.564V0.116333Z" fill="#E0E0E0"/>
<path d="M258.097 0.115845H178.343V83.3581H258.097V0.115845Z" fill="#FAFAFA"/>
<path d="M258.214 83.2423H178.343V0H258.214V83.2423ZM178.459 83.2423H258.214V0.116263H178.459V83.2423Z" fill="#E0E0E0"/>
<path d="M247.518 11.2772H189.155V72.0813H247.518V11.2772Z" fill="#FAFAFA"/>
<path d="M189.155 72.4302C189.155 72.4302 188.69 73.1277 187.76 74.0578C186.83 74.9879 185.551 76.383 184.039 77.7781C182.528 79.1733 181.249 80.5684 180.203 81.3822C179.157 82.196 178.575 82.8936 178.459 82.7773C178.459 82.7773 178.924 82.0798 179.854 81.1497C180.784 80.2196 182.063 78.8245 183.574 77.4294C185.086 76.0342 186.365 74.6391 187.411 73.8253C188.457 73.0115 189.039 72.4302 189.155 72.4302Z" fill="#E0E0E0"/>
<path d="M247.52 72.3138C247.52 72.3138 248.217 72.7789 249.147 73.709C250.077 74.639 251.472 75.9179 252.868 77.4293C254.263 78.9407 255.658 80.2195 256.472 81.2659C257.402 82.3122 257.983 82.8935 257.867 83.0098C257.867 83.0098 257.169 82.5447 256.239 81.6147C255.309 80.6846 253.914 79.4057 252.519 77.8943C251.124 76.3829 249.729 75.1041 248.915 74.0577C247.985 73.0114 247.403 72.4301 247.52 72.3138Z" fill="#E0E0E0"/>
<path d="M247.286 11.3935C247.286 11.3935 247.751 10.6959 248.681 9.76587C249.611 8.83579 250.89 7.44066 252.402 6.04554C253.913 4.65042 255.192 3.2553 256.238 2.44148C257.285 1.5114 257.866 0.930097 257.982 1.04636C257.982 1.04636 257.517 1.74392 256.587 2.674C255.657 3.60408 254.378 4.9992 252.867 6.39432C251.355 7.78944 250.076 9.18457 249.03 9.99839C247.984 10.9285 247.402 11.5098 247.286 11.3935Z" fill="#E0E0E0"/>
<path d="M188.923 11.5098C188.923 11.5098 188.226 11.0447 187.296 10.1147C186.366 9.18458 184.971 7.90571 183.575 6.39433C182.18 4.88295 180.785 3.60409 179.971 2.55775C179.041 1.5114 178.46 0.930103 178.576 0.813843C178.576 0.813843 179.274 1.27888 180.204 2.20897C181.134 3.13905 182.529 4.41791 183.924 5.92929C185.319 7.44067 186.714 8.71954 187.528 9.76588C188.342 10.8122 189.04 11.5098 188.923 11.5098Z" fill="#E0E0E0"/>
<path d="M247.286 72.0812C247.286 72.0812 247.286 71.9649 247.286 71.7324C247.286 71.4999 247.286 71.2674 247.286 70.9186C247.286 70.1048 247.286 69.0584 247.286 67.6633C247.286 64.7568 247.286 60.5714 247.17 55.2235C247.17 44.5275 247.054 29.4137 247.054 11.2771L247.286 11.5096C230.312 11.5096 210.316 11.5096 189.156 11.5096L189.389 11.2771C189.389 33.5991 189.389 54.5259 189.389 72.0812L189.156 71.8487C206.595 71.8487 221.128 71.9649 231.243 71.9649C236.358 71.9649 240.311 71.9649 243.101 71.9649C244.496 71.9649 245.543 71.9649 246.24 71.9649C246.589 71.9649 246.821 71.9649 247.054 71.9649C247.17 72.0812 247.286 72.0812 247.286 72.0812C247.286 72.0812 247.17 72.0812 247.054 72.0812C246.821 72.0812 246.589 72.0812 246.24 72.0812C245.543 72.0812 244.496 72.0812 243.101 72.0812C240.311 72.0812 236.358 72.0812 231.359 72.0812C221.128 72.0812 206.595 72.1974 189.04 72.1974H188.808V71.9649C188.808 54.2934 188.808 33.4828 188.808 11.1609V10.9283H189.04C210.316 10.9283 230.196 10.9283 247.17 10.9283H247.403V11.1609C247.403 29.4137 247.286 44.6438 247.286 55.3397C247.286 60.6877 247.286 64.8731 247.17 67.6633C247.17 69.0584 247.17 70.1048 247.17 70.9186C247.17 71.2674 247.17 71.4999 247.17 71.7324C247.286 71.9649 247.286 72.0812 247.286 72.0812Z" fill="#E0E0E0"/>
<path d="M224.383 51.8523C224.383 49.4108 223.685 46.7368 222.058 44.1791C220.779 42.2027 219.267 40.5751 218.105 38.9474C216.826 37.3198 216.012 35.5759 215.547 34.0645C215.315 33.2507 215.198 32.5531 215.198 31.9718C215.082 32.0881 214.966 32.0881 214.85 32.2043C213.106 33.3669 211.943 35.2271 211.594 37.3198C211.129 39.2962 211.362 41.5051 211.827 43.4816C212.408 45.923 213.338 48.2482 215.082 49.9921C217.059 51.9685 220.081 52.8986 222.872 52.4336C223.337 52.2011 223.918 52.0848 224.383 51.8523Z" fill="#E0E0E0"/>
<path d="M228.22 44.644C227.987 41.8538 227.755 39.0636 226.592 36.5058C225.546 33.9481 223.337 31.6229 220.663 31.0416C219.849 30.8091 217.989 30.5766 216.361 31.2741C216.478 31.8554 216.594 32.6692 216.826 33.4831C217.291 34.8782 218.221 36.5058 219.5 38.0172C220.663 39.6449 222.291 41.2725 223.569 43.2489C224.848 45.2253 225.662 47.5505 225.895 49.6432C225.895 50.1083 226.011 50.5733 226.011 51.0383C226.708 50.5733 227.29 49.992 227.755 49.2944C228.452 47.8993 228.336 46.2717 228.22 44.644Z" fill="#E0E0E0"/>
<path d="M295.068 106.843H225.544V179.273H295.068V106.843Z" fill="#E0E0E0"/>
<path d="M290.418 106.843H220.895V179.273H290.418V106.843Z" fill="#FAFAFA"/>
<path d="M290.418 179.39H220.895V106.96H290.418V179.39ZM220.895 179.273H290.302V106.843H220.895V179.273Z" fill="#E0E0E0"/>
<path d="M281.001 116.609H230.195V169.507H281.001V116.609Z" fill="white"/>
<path d="M230.194 169.973C230.194 169.973 229.729 170.554 228.916 171.484C228.102 172.298 226.939 173.46 225.66 174.739C224.381 176.018 223.219 177.064 222.289 177.878C221.475 178.692 220.894 179.157 220.777 179.157C220.777 179.157 221.242 178.576 222.056 177.762C222.87 176.948 224.033 175.786 225.312 174.507C226.59 173.228 227.753 172.065 228.683 171.368C229.613 170.321 230.194 169.856 230.194 169.973Z" fill="#E0E0E0"/>
<path d="M281.002 169.856C281.002 169.856 281.583 170.321 282.513 171.135C283.327 171.949 284.49 173.111 285.769 174.39C287.047 175.669 288.094 176.832 288.908 177.762C289.721 178.575 290.186 179.157 290.186 179.273C290.186 179.273 289.605 178.808 288.791 177.994C287.978 177.18 286.815 176.018 285.536 174.739C284.257 173.46 283.095 172.297 282.397 171.367C281.467 170.437 281.002 169.856 281.002 169.856Z" fill="#E0E0E0"/>
<path d="M280.884 116.725C280.884 116.725 281.349 116.144 282.163 115.214C282.976 114.4 284.139 113.237 285.418 111.959C286.697 110.68 287.859 109.633 288.789 108.82C289.603 108.006 290.185 107.541 290.301 107.541C290.301 107.541 289.836 108.122 289.022 108.936C288.208 109.75 287.046 110.912 285.767 112.191C284.488 113.47 283.325 114.633 282.395 115.33C281.465 116.376 280.884 116.841 280.884 116.725Z" fill="#E0E0E0"/>
<path d="M230.08 116.958C230.08 116.958 229.499 116.493 228.569 115.679C227.755 114.865 226.592 113.702 225.313 112.424C224.035 111.145 222.988 109.982 222.174 109.052C221.361 108.238 220.896 107.657 220.896 107.541C220.896 107.541 221.477 108.006 222.291 108.82C223.104 109.633 224.267 110.796 225.546 112.075C226.825 113.354 227.987 114.516 228.685 115.446C229.731 116.26 230.196 116.841 230.08 116.958Z" fill="#E0E0E0"/>
<path d="M280.886 169.624C280.886 169.624 280.886 169.507 280.886 169.391C280.886 169.159 280.886 168.926 280.886 168.694C280.886 167.996 280.886 167.066 280.886 165.787C280.886 163.229 280.886 159.625 280.886 154.975C280.886 145.674 280.77 132.537 280.77 116.725L281.002 116.958C266.237 116.958 248.798 116.958 230.313 116.958L230.545 116.725C230.545 136.141 230.545 154.394 230.545 169.624L230.313 169.391C245.543 169.391 258.099 169.507 266.935 169.507C271.352 169.507 274.84 169.507 277.282 169.507C278.444 169.507 279.374 169.507 279.956 169.507C280.304 169.507 280.537 169.507 280.653 169.507C280.77 169.624 280.886 169.624 280.886 169.624C280.886 169.624 280.77 169.624 280.653 169.624C280.537 169.624 280.304 169.624 279.956 169.624C279.374 169.624 278.444 169.624 277.282 169.624C274.957 169.624 271.469 169.624 267.051 169.624C258.215 169.624 245.426 169.624 230.196 169.74H229.964V169.507C229.964 154.161 229.964 136.024 229.964 116.609V116.376H230.196C248.682 116.376 266.005 116.376 280.886 116.376H281.118V116.609C281.118 132.537 281.002 145.79 281.002 155.091C281.002 159.742 281.002 163.346 281.002 165.787C281.002 167.066 281.002 167.996 281.002 168.577C281.002 168.926 281.002 169.159 281.002 169.275C280.886 169.507 280.886 169.624 280.886 169.624Z" fill="#E0E0E0"/>
<path d="M260.889 151.952C260.889 149.859 260.308 147.418 258.913 145.325C257.866 143.697 256.471 142.186 255.425 140.675C254.379 139.28 253.565 137.768 253.216 136.489C252.983 135.792 252.867 135.21 252.867 134.629C252.751 134.629 252.635 134.745 252.518 134.745C251.007 135.675 250.077 137.419 249.728 139.163C249.379 140.907 249.612 142.767 249.961 144.511C250.426 146.604 251.24 148.697 252.751 150.208C254.495 151.952 257.169 152.766 259.494 152.301C260.075 152.301 260.424 152.184 260.889 151.952Z" fill="#E0E0E0"/>
<path d="M264.261 145.674C264.029 143.232 263.796 140.791 262.866 138.582C261.936 136.373 260.076 134.28 257.751 133.815C257.053 133.583 255.425 133.467 254.03 134.048C254.147 134.629 254.263 135.211 254.495 135.908C254.96 137.187 255.658 138.466 256.821 139.861C257.867 141.256 259.262 142.651 260.308 144.511C261.471 146.255 262.052 148.232 262.285 150.092C262.285 150.441 262.401 150.906 262.401 151.254C262.982 150.906 263.564 150.441 263.912 149.743C264.494 148.58 264.377 147.069 264.261 145.674Z" fill="#E0E0E0"/>
<path d="M326.575 488.06C324.599 486.433 320.181 481.085 323.552 474.807C324.831 472.481 327.389 471.435 329.83 470.389C332.155 469.342 334.713 468.529 336.69 466.785C340.41 463.646 341.456 458.414 343.898 454.112C346.688 449.229 352.036 445.625 357.616 445.858C364.011 446.09 369.359 451.322 371.8 457.368C374.242 463.297 374.358 469.924 374.358 476.318C374.358 479.922 374.242 483.875 371.568 486.316C369.126 488.525 365.522 488.525 362.267 488.409C350.641 488.06 339.015 487.711 327.273 487.363" fill="#F5F5F5"/>
<path d="M393.425 391.913H301.463L317.972 490.618C318.669 494.92 321.808 498.291 325.761 499.454C325.878 499.454 325.994 499.454 326.11 499.57C326.343 499.686 326.691 499.686 326.924 499.802C327.505 499.919 328.203 500.035 328.784 500.035V500.151L329.249 500.035H370.289C371.103 500.035 371.8 499.919 372.498 499.802C377.381 499.105 381.217 495.152 381.799 490.153L389.821 422.141L390.169 419.467L393.308 392.494L393.425 391.913ZM376.102 454.926H366.685L367.615 426.326H378.543L376.102 454.926ZM379.357 426.21H388.426L385.054 454.81H376.916L379.357 426.21ZM352.501 486.665L351.92 461.785H365.522L364.708 486.665H352.501ZM337.736 461.785H350.99L351.571 486.665H339.713L337.736 461.785ZM338.782 486.665H327.738C326.691 479.922 325.296 471.202 323.785 461.785H336.806L338.782 486.665ZM337.271 454.926L335.062 426.326H350.176L350.873 454.926H337.271ZM351.687 454.926L350.99 426.326H366.569L365.639 454.926H351.687ZM350.873 419.35L350.292 392.843H367.731L366.801 419.35H350.873ZM349.943 419.35H334.481L332.388 392.843H349.362L349.943 419.35ZM333.551 419.35H317.158C316.577 415.63 315.995 412.259 315.53 409.12C313.786 398.424 313.205 394.355 312.856 392.843H331.574L333.551 419.35ZM334.132 426.21L336.341 454.81H322.739C322.273 451.903 321.808 448.997 321.343 445.974C320.297 439.231 319.251 432.488 318.204 426.094H334.132V426.21ZM321.808 454.926H312.973L308.206 426.326H317.391C318.669 435.162 320.297 444.928 321.808 454.926ZM322.855 461.785C324.25 470.389 325.529 478.876 326.808 486.665H318.321L314.135 461.785H322.855ZM365.522 486.665L366.336 461.785H375.404L373.312 486.665H365.522ZM367.847 419.35L368.778 392.843H381.45L379.241 419.35H367.847ZM311.926 392.843C312.275 394.82 314.019 405.167 316.228 419.35H307.043L302.625 392.843H311.926ZM381.334 486.665H374.242L376.334 461.785H384.24L381.334 486.665ZM389.239 419.35H379.938L382.264 392.843H392.378L389.239 419.35Z" fill="#E0E0E0"/>
<path d="M62.1994 499.803H142.535C146.488 499.803 149.743 496.547 149.743 492.594V442.951C149.743 438.998 146.488 435.743 142.535 435.743H62.1994C58.1303 435.743 54.7588 439.115 54.7588 443.184V492.246C54.7588 496.431 58.1303 499.803 62.1994 499.803Z" fill="#E8505B"/>
<g opacity="0.4">
<path opacity="0.4" d="M62.1994 499.803H142.535C146.488 499.803 149.743 496.547 149.743 492.594V442.951C149.743 438.998 146.488 435.743 142.535 435.743H62.1994C58.1303 435.743 54.7588 439.115 54.7588 443.184V492.246C54.7588 496.431 58.1303 499.803 62.1994 499.803Z" fill="black"/>
</g>
<path d="M68.9434 499.803H156.836C160.789 499.803 164.044 496.547 164.044 492.594V442.951C164.044 438.998 160.789 435.743 156.836 435.743H68.9434V499.803Z" fill="#E8505B"/>
<path d="M68.8253 500.035C68.7091 500.035 68.4766 485.851 68.4766 468.296C68.4766 450.741 68.5928 436.557 68.8253 436.557C68.9416 436.557 69.1741 450.741 69.1741 468.296C69.1741 485.851 69.0579 500.035 68.8253 500.035Z" fill="#263238"/>
<path d="M91.8467 434.929C91.8467 434.929 91.9629 434.813 92.0792 434.581C92.3117 434.348 92.5442 433.999 92.893 433.65C93.7068 432.837 94.8694 431.674 96.4971 430.628C99.7524 428.302 105.217 425.977 111.378 426.21C117.656 426.442 122.888 429 126.027 431.442C127.655 432.72 128.817 433.883 129.515 434.697C129.864 435.162 130.096 435.511 130.329 435.743C130.445 435.976 130.561 436.092 130.561 436.092C130.445 436.208 129.05 434.116 125.795 431.79C122.656 429.465 117.424 426.907 111.378 426.791C105.333 426.675 99.9849 428.768 96.7296 430.976C93.4743 433.069 91.9629 435.046 91.8467 434.929Z" fill="#263238"/>
<path d="M68.2441 444.928C68.2441 444.928 68.2441 445.044 68.3604 445.276C68.3604 445.509 68.4767 445.858 68.4767 446.323C68.5929 446.788 68.5929 447.369 68.7092 447.95C68.8254 448.648 69.058 449.345 69.1742 450.159C69.988 453.415 71.6157 458.181 74.871 463.297C78.1263 468.412 83.1254 473.876 89.9848 478.062C96.8441 482.247 105.68 484.689 114.981 484.456C124.282 484.224 133.001 481.55 139.86 477.248C146.72 473.063 151.835 467.715 155.439 462.832C159.043 457.833 161.136 453.415 162.299 450.159C162.88 448.532 163.345 447.369 163.577 446.439C163.694 446.09 163.81 445.741 163.926 445.509C164.043 445.276 164.043 445.16 164.043 445.16C164.043 445.16 164.043 445.276 163.926 445.509C163.81 445.741 163.81 446.09 163.694 446.555C163.461 447.485 163.112 448.648 162.531 450.276C161.369 453.531 159.276 458.065 155.788 463.064C152.184 468.063 147.069 473.411 140.209 477.713C133.35 482.015 124.514 484.805 115.097 485.037C105.68 485.154 96.7279 482.712 89.8685 478.527C82.8929 474.341 77.8937 468.645 74.6384 463.529C71.3832 458.298 69.7555 453.531 69.058 450.159C68.9417 449.345 68.7092 448.532 68.5929 447.95C68.4767 447.253 68.4767 446.788 68.3604 446.323C68.3604 445.858 68.2441 445.625 68.2441 445.276C68.2441 445.044 68.2441 444.928 68.2441 444.928Z" fill="#263238"/>
<path d="M86.846 368.196L84.9859 275.885C84.5208 252.168 103.588 232.637 127.421 232.52C150.789 232.52 169.856 251.355 169.972 274.723L170.437 368.08L86.846 371.684" fill="#455A64"/>
<path d="M86.8477 384.008H216.943C216.943 375.288 211.13 368.778 202.41 368.778L86.8477 368.312V384.008Z" fill="#455A64"/>
<path d="M194.401 499.704H203.586V383.909H194.401V499.704Z" fill="#455A64"/>
<path d="M97.1524 499.704H106.337L106.337 383.909H97.1524L97.1524 499.704Z" fill="#455A64"/>
<path d="M97.542 368.661C97.542 368.545 121.724 368.312 151.603 368.312C181.482 368.312 205.664 368.429 205.664 368.661C205.664 368.777 181.482 369.01 151.603 369.01C121.724 369.01 97.542 368.894 97.542 368.661Z" fill="#263238"/>
<path d="M89.0557 384.007C89.0557 383.891 117.539 383.659 152.534 383.659C187.644 383.659 216.012 383.775 216.012 384.007C216.012 384.24 187.528 384.356 152.534 384.356C117.539 384.356 89.0557 384.124 89.0557 384.007Z" fill="#263238"/>
<path d="M96.0314 249.029C96.1477 249.029 96.3802 275.42 96.3802 307.857C96.3802 340.41 96.2639 366.685 96.0314 366.685C95.9151 366.685 95.6826 340.294 95.6826 307.857C95.6826 275.42 95.9151 249.029 96.0314 249.029Z" fill="#263238"/>
<path d="M174.041 316.46C174.041 316.46 247.285 316.111 252.982 316.46C263.329 317.041 270.188 328.551 271.584 334.481C272.979 340.41 304.95 432.488 304.95 432.488L280.071 448.532L246.704 373.311L229.962 344.13L138.698 360.058L174.041 316.46Z" fill="#FFBE9D"/>
<path d="M230.428 341.34C230.428 341.34 243.914 341.34 251.238 352.152C255.54 358.546 254.028 369.824 254.145 378.427C254.261 390.053 251.238 480.62 251.238 480.62C242.635 486.781 232.985 487.479 222.522 483.293L215.081 383.077L216.941 368.08L167.066 369.242C167.066 369.242 158.23 352.617 170.554 339.363C172.065 337.736 230.428 341.34 230.428 341.34Z" fill="#FFBE9D"/>
<path d="M236.822 341.805C236.822 341.805 236.938 341.805 237.171 341.805C237.403 341.805 237.868 341.921 238.217 341.921C239.147 342.154 240.542 342.502 242.286 343.316C243.914 344.13 245.89 345.409 247.75 347.385C249.61 349.362 251.354 351.803 252.749 354.826C254.145 357.849 254.958 361.453 255.191 365.406C255.423 369.359 255.191 373.544 254.842 377.846C254.493 382.263 254.261 386.798 254.028 391.564C253.912 396.331 253.679 401.214 253.563 406.329C252.982 426.559 252.401 444.811 252.052 458.065C251.819 464.692 251.703 470.04 251.587 473.76C251.471 475.62 251.471 477.015 251.471 478.062C251.471 478.527 251.471 478.876 251.354 479.224C251.354 479.457 251.354 479.573 251.354 479.573C251.354 479.573 251.354 479.457 251.354 479.224C251.354 478.992 251.354 478.527 251.354 478.062C251.354 477.015 251.354 475.62 251.354 473.76C251.471 470.04 251.587 464.692 251.703 458.065C252.052 444.811 252.401 426.559 253.098 406.329C253.214 401.33 253.447 396.331 253.563 391.564C253.796 386.798 253.912 382.147 254.377 377.846C254.726 373.428 255.075 369.359 254.726 365.406C254.493 361.569 253.679 357.965 252.401 354.942C251.122 351.92 249.378 349.478 247.634 347.502C245.89 345.642 243.914 344.246 242.402 343.433C238.914 342.037 236.705 341.921 236.822 341.805Z" fill="#EB996E"/>
<path d="M251.237 479.69V481.55C251.237 481.55 282.511 493.757 282.976 499.686L221.01 500.035L221.707 479.457C231.008 483.526 240.658 483.991 251.237 479.69Z" fill="#263238"/>
<path d="M221.01 500.035L221.242 495.036L280.535 496.547C280.535 496.547 283.325 497.71 282.976 499.686L221.01 500.035Z" fill="#455A64"/>
<path d="M303.788 428.535L304.486 430.279C304.486 430.279 338.085 430.046 340.642 435.394L283.21 458.53L276.351 439.115C286.349 439.696 295.533 436.441 303.788 428.535Z" fill="#263238"/>
<path d="M283.211 458.53L281.583 453.88L337.272 433.418C337.272 433.418 340.294 433.534 340.759 435.394L283.211 458.53Z" fill="#455A64"/>
<path d="M304.718 430.395C304.834 430.628 303.439 431.325 302.393 432.836C301.346 434.232 301.114 435.743 300.765 435.743C300.532 435.743 300.184 433.999 301.463 432.255C302.858 430.395 304.718 430.046 304.718 430.395Z" fill="#263238"/>
<path d="M256.935 272.979L268.096 274.723L275.304 284.837L273.211 292.511L271.932 292.976L272.165 295.882C272.281 297.161 271.583 298.324 270.537 299.021L264.724 289.023L267.165 299.254C267.165 299.254 265.77 299.835 263.213 298.556C260.771 297.277 258.097 286 258.097 286L254.261 283.559L258.097 296.115C258.097 296.115 256.935 297.393 254.842 297.277C252.749 297.161 248.331 285.767 248.331 285.767L190.085 293.906L189.969 286.349L204.036 262.98L256.935 272.979Z" fill="#FFBE9D"/>
<path d="M111.609 155.44C108.47 153.696 104.401 153.812 101.262 155.556C98.1233 157.416 96.0306 160.904 95.9144 164.508C95.7981 169.507 99.1696 174.739 97.1932 179.273C95.9144 182.296 92.7753 184.04 90.6827 186.598C88.7062 189.155 88.59 194.038 91.8453 194.736C87.4274 194.62 83.3583 198.224 82.3119 202.525C81.2656 206.827 83.0095 211.477 86.0323 214.733C89.055 217.872 93.3566 219.732 97.7745 220.546C103.936 221.592 110.796 220.546 115.562 216.36C120.213 212.175 121.84 204.385 118.004 199.386C120.562 201.595 124.863 201.246 127.188 198.689C129.397 196.131 129.281 191.829 126.84 189.504C125.096 187.876 122.538 187.295 120.678 185.784C118.004 183.691 116.957 180.203 117.074 176.832C117.19 173.46 118.353 170.321 119.515 167.182" fill="#263238"/>
<path d="M94.7526 216.244C94.7526 216.244 93.8225 215.779 92.6599 214.5C91.4973 213.221 90.1022 210.896 89.7534 207.641C89.4046 204.502 90.451 200.433 93.125 197.177C94.5201 195.55 96.1477 194.038 98.2404 192.992C100.217 191.829 102.426 191.016 104.286 189.504C105.216 188.807 105.914 187.877 106.379 186.83C106.844 185.784 106.96 184.738 106.96 183.575C106.844 181.366 106.03 179.273 105.332 177.413C104.635 175.437 103.937 173.577 103.705 171.716C103.472 169.856 103.588 167.996 104.053 166.485C104.984 163.346 106.844 161.369 108.355 160.439C109.169 159.974 109.866 159.742 110.331 159.742C110.564 159.742 110.797 159.742 110.913 159.742C111.029 159.742 111.145 159.742 111.145 159.742C111.145 159.858 110.099 159.742 108.588 160.672C107.192 161.602 105.449 163.694 104.635 166.717C104.17 168.229 104.17 169.972 104.402 171.716C104.635 173.577 105.332 175.437 106.03 177.297C106.727 179.273 107.657 181.366 107.774 183.691C107.89 184.854 107.657 186.133 107.192 187.179C106.727 188.342 105.914 189.272 104.867 190.085C102.891 191.597 100.682 192.527 98.7055 193.573C96.729 194.62 95.1014 196.015 93.7063 197.642C91.0323 200.781 89.9859 204.618 90.3347 207.757C90.6835 210.896 91.9624 213.221 93.0087 214.5C93.9388 215.663 94.7526 216.244 94.7526 216.244Z" fill="#455A64"/>
<path d="M255.076 316.112C231.475 315.53 208.572 315.53 186.599 316.228L186.831 316.112L194.505 244.379L164.974 194.503L142.304 190.899H134.747L128.701 194.271C121.144 200.898 107.077 215.198 107.077 215.779C107.077 216.477 125.795 307.276 125.795 307.276L136.956 318.204L105.449 340.41C105.449 340.41 106.147 362.267 120.912 368.312C135.677 374.242 201.48 369.708 209.153 368.777C209.153 368.777 237.87 357.616 241.822 354.245C245.659 350.757 256.122 323.552 255.076 316.112Z" fill="#263238"/>
<path d="M176.251 326.226C176.251 326.226 176.483 326.226 176.949 326.342C177.414 326.458 178.111 326.575 178.925 326.691C180.553 326.923 182.994 327.388 186.017 327.97C191.946 329.132 200.201 331.109 209.153 333.318C218.105 335.643 226.243 337.736 232.172 339.247C235.079 339.945 237.404 340.642 239.148 341.107C239.962 341.34 240.543 341.456 241.008 341.572C241.473 341.688 241.705 341.805 241.705 341.805C241.705 341.805 241.473 341.805 241.008 341.688C240.543 341.572 239.845 341.456 239.031 341.34C237.404 340.991 234.962 340.41 232.056 339.712C226.127 338.317 217.988 336.224 209.036 333.899C200.084 331.574 191.83 329.714 185.901 328.318C182.878 327.621 180.553 327.156 178.809 326.807C177.995 326.691 177.414 326.458 176.949 326.342C176.483 326.342 176.251 326.226 176.251 326.226Z" fill="#455A64"/>
<path d="M169.857 315.763C169.857 315.647 172.299 315.646 175.438 315.879C178.461 316.112 180.902 316.46 180.902 316.577C180.902 316.693 178.461 316.693 175.322 316.46C172.299 316.228 169.857 315.879 169.857 315.763Z" fill="#455A64"/>
<path d="M169.624 302.625C169.74 302.509 171.6 304.95 174.391 307.508C177.065 310.066 179.739 311.693 179.622 311.81C179.506 311.926 176.832 310.531 174.042 307.857C171.135 305.299 169.508 302.741 169.624 302.625Z" fill="#455A64"/>
<path d="M167.997 264.957C167.881 264.841 168.927 263.911 170.322 262.283C171.717 260.539 173.345 257.982 174.508 254.842C175.67 251.703 176.019 248.681 176.135 246.472C176.252 244.263 176.019 242.984 176.135 242.868C176.135 242.868 176.252 243.216 176.368 243.798C176.484 244.379 176.6 245.309 176.6 246.472C176.6 248.681 176.252 251.82 175.089 254.959C173.926 258.214 172.182 260.772 170.671 262.399C169.974 263.213 169.276 263.911 168.811 264.26C168.346 264.725 167.997 264.957 167.997 264.957Z" fill="#455A64"/>
<path d="M176.599 199.037C184.853 204.153 192.527 215.314 194.503 229.265L199.037 250.773C199.037 250.773 202.525 248.913 204.618 251.587C207.059 254.61 206.478 258.098 206.478 258.098L215.895 264.724L200.781 275.653L190.434 288.325C190.434 288.325 199.27 314.368 200.781 316.925C202.292 319.483 205.199 323.901 205.199 323.901L191.713 321.343C191.713 321.343 182.528 314.716 182.993 303.788C183.342 292.859 184.388 250.89 182.993 245.309C181.598 239.845 164.508 194.387 164.508 194.387L176.599 199.037Z" fill="#E8505B"/>
<path d="M192.061 287.976C192.061 287.976 192.061 287.744 191.945 287.395C191.945 286.93 191.828 286.349 191.828 285.535C191.712 283.907 191.712 281.582 191.828 278.792C191.945 273.095 192.642 265.305 192.991 256.586C193.34 247.983 193.34 240.077 192.875 234.38C192.642 231.59 192.526 229.265 192.293 227.637C192.177 226.94 192.177 226.242 192.061 225.777C192.061 225.312 192.061 225.196 192.061 225.079C192.061 225.079 192.177 225.312 192.177 225.661C192.293 226.126 192.293 226.707 192.526 227.521C192.758 229.032 192.991 231.358 193.34 234.264C193.805 239.961 194.037 247.866 193.572 256.47C193.224 265.189 192.526 272.979 192.177 278.675C192.061 281.466 192.061 283.791 192.061 285.419C192.061 286.116 192.061 286.814 192.061 287.279C192.061 287.744 192.061 287.976 192.061 287.976Z" fill="#263238"/>
<path d="M175.319 200.549C175.319 200.549 175.435 200.781 175.784 201.13C176.017 201.479 176.365 202.06 176.83 202.874C177.76 204.385 179.039 206.478 180.434 209.268C181.83 212.058 183.573 215.314 185.085 219.15C185.899 221.01 186.596 223.103 186.945 225.312C187.061 225.893 187.178 226.475 187.178 227.056V227.986L187.061 228.8C186.945 229.963 186.829 231.125 186.712 232.288C186.596 233.45 186.596 234.613 186.596 235.776C186.712 236.938 186.945 237.984 187.294 239.031C187.643 240.077 188.108 241.123 188.456 242.054C188.689 242.519 188.805 243.1 188.921 243.565C189.038 244.03 189.154 244.611 189.27 245.076C189.968 249.262 189.154 252.982 188.34 255.889C187.41 258.911 186.48 261.237 185.782 262.748C185.434 263.562 185.201 264.143 184.969 264.608C184.736 265.073 184.62 265.189 184.62 265.189C184.62 265.189 184.62 264.957 184.852 264.492C185.085 264.027 185.317 263.445 185.55 262.632C186.131 261.004 187.061 258.679 187.991 255.656C188.805 252.75 189.503 249.029 188.805 244.96C188.689 244.495 188.573 243.914 188.456 243.449C188.34 242.984 188.224 242.402 187.991 241.937C187.643 240.891 187.178 239.961 186.829 238.915C186.48 237.868 186.131 236.706 186.015 235.543C185.899 234.38 186.015 233.218 186.131 231.939C186.364 229.614 186.829 227.289 186.48 225.196C186.131 222.987 185.434 221.01 184.62 219.15C183.108 215.314 181.481 212.058 180.086 209.268C178.691 206.478 177.528 204.269 176.598 202.758C176.249 202.06 175.9 201.479 175.668 201.014C175.319 200.781 175.203 200.549 175.319 200.549Z" fill="#263238"/>
<path d="M162.764 277.048L159.393 251.587L128.584 194.271L104.867 205.664C104.285 205.897 103.588 206.246 103.123 206.478C100.797 207.873 98.9373 210.082 97.4259 212.524C94.0544 218.22 92.8918 224.963 93.9381 231.474L103.006 289.255C103.006 289.255 106.959 299.719 111.958 308.438L98.2398 350.176C98.2398 350.176 133.467 367.731 144.86 367.731C154.51 367.731 162.88 367.615 164.508 348.897C166.019 330.063 162.764 277.048 162.764 277.048Z" fill="#E8505B"/>
<path d="M133.351 287.977C133.235 287.977 133.7 286.814 134.281 284.954C134.63 284.024 134.862 282.861 135.444 281.699C135.909 280.536 136.722 279.141 137.885 278.211C139.164 277.281 140.559 276.816 141.954 276.699C143.349 276.699 144.512 276.932 145.442 277.281C146.372 277.629 147.07 278.211 147.418 278.56C147.767 278.908 148 279.257 148 279.257C147.883 279.373 147.186 278.327 145.326 277.629C144.396 277.281 143.349 277.048 142.07 277.164C140.792 277.281 139.513 277.629 138.35 278.56C137.188 279.49 136.49 280.652 136.025 281.815C135.444 282.977 135.095 284.024 134.746 284.954C134.048 286.93 133.467 288.093 133.351 287.977Z" fill="#263238"/>
<path d="M125.794 265.422C125.794 265.422 126.026 265.306 126.608 265.073C127.189 264.957 128.003 264.841 128.933 264.841C130.909 264.841 133.932 265.655 136.025 267.98C138.234 270.305 138.815 273.328 138.699 275.304C138.699 276.351 138.466 277.165 138.234 277.63C138.001 278.211 137.885 278.443 137.885 278.443C137.769 278.443 138.234 277.281 138.234 275.304C138.234 273.328 137.536 270.538 135.56 268.445C133.467 266.236 130.793 265.422 128.817 265.306C126.957 265.073 125.794 265.539 125.794 265.422Z" fill="#263238"/>
<path d="M125.676 219.383C125.676 219.383 125.908 219.964 126.257 221.127C126.606 222.289 126.955 223.917 127.42 226.01C128.35 230.079 129.512 235.775 130.21 242.17C131.024 248.564 131.373 254.377 131.489 258.562C131.489 260.655 131.489 262.399 131.489 263.562C131.489 264.724 131.373 265.422 131.373 265.422C131.373 265.422 131.256 264.724 131.256 263.562C131.256 262.283 131.14 260.655 131.024 258.562C130.791 254.377 130.442 248.564 129.629 242.286C128.815 235.892 127.768 230.195 126.955 226.126C126.49 224.149 126.257 222.522 125.908 221.243C125.792 219.964 125.676 219.383 125.676 219.383Z" fill="#263238"/>
<path d="M105.1 207.757C105.1 207.641 106.146 207.408 107.774 207.408C109.401 207.408 111.726 207.757 114.168 208.571C116.609 209.501 118.586 210.78 119.748 211.826C121.027 212.872 121.609 213.686 121.609 213.803C121.492 213.919 118.702 210.896 113.935 209.152C109.285 207.408 105.1 207.873 105.1 207.757Z" fill="#263238"/>
<path d="M113.121 310.298C113.121 310.298 113.354 310.531 113.586 310.88C113.935 311.345 114.284 311.926 114.865 312.624C116.144 314.019 117.888 316.111 120.911 317.623C123.817 319.134 127.77 320.064 132.188 319.716C136.489 319.251 141.256 317.739 145.325 314.716C146.371 314.019 147.185 313.205 148.115 312.507L147.999 312.74C147.999 303.439 147.883 295.068 147.883 289.023C147.883 286.116 147.883 283.675 147.883 281.931C147.883 281.117 147.883 280.536 147.883 280.071C147.883 279.606 147.883 279.373 147.883 279.373C147.883 279.373 147.883 279.606 147.999 280.071C147.999 280.536 147.999 281.233 148.115 281.931C148.115 283.675 148.232 286.116 148.232 289.023C148.348 295.068 148.464 303.439 148.58 312.74V312.856L148.464 312.972C147.534 313.67 146.72 314.6 145.674 315.181C141.489 318.204 136.606 319.832 132.188 320.181C127.77 320.529 123.585 319.599 120.678 317.972C117.655 316.344 115.911 314.251 114.632 312.74C114.051 311.926 113.702 311.345 113.47 310.88C113.237 310.531 113.121 310.298 113.121 310.298Z" fill="#263238"/>
<path d="M127.304 196.131C127.304 196.131 127.42 196.48 127.42 196.945C127.42 197.526 127.536 198.34 127.653 199.386C127.885 201.479 128.118 204.618 128.699 208.338C129.28 212.058 130.21 216.593 132.303 221.127C133.349 223.452 134.628 225.661 136.372 227.87C137.186 228.916 138.116 229.962 139.162 230.893C140.209 231.823 141.371 232.869 141.953 234.264C142.65 235.775 142.301 237.287 141.836 238.682C141.371 240.077 140.906 241.356 140.674 242.635C140.209 245.309 140.558 247.983 141.488 250.308C143.115 255.075 146.371 258.446 149.277 260.888C152.184 263.329 154.858 264.84 156.718 266.003C157.532 266.584 158.229 266.933 158.81 267.282C159.275 267.631 159.508 267.747 159.508 267.747C159.508 267.747 159.275 267.631 158.694 267.398C158.113 267.049 157.415 266.701 156.601 266.236C154.741 265.189 152.067 263.678 149.045 261.236C146.138 258.911 142.767 255.423 141.023 250.54C140.209 248.099 139.744 245.425 140.209 242.635C140.441 241.24 140.906 239.845 141.371 238.566C141.836 237.287 142.069 235.775 141.488 234.613C140.906 233.334 139.86 232.404 138.814 231.474C137.767 230.544 136.837 229.497 135.907 228.335C134.163 226.126 132.884 223.801 131.838 221.475C129.745 216.825 128.815 212.291 128.35 208.571C127.769 204.734 127.653 201.711 127.536 199.619C127.536 198.572 127.42 197.758 127.42 197.177C127.188 196.363 127.188 196.131 127.304 196.131Z" fill="#263238"/>
<g opacity="0.3">
<g opacity="0.3">
<path opacity="0.3" d="M164.391 308.787C160.206 310.531 154.974 312.158 154.044 316.576C153.812 318.088 153.928 319.599 153.463 320.994C152.3 324.366 147.999 325.296 144.395 325.645C138.349 326.226 132.187 326.458 126.374 324.598C120.561 322.738 115.33 318.32 113.935 312.391C119.166 315.646 121.608 319.367 127.77 320.297C131.141 320.878 137.535 318.669 140.791 317.623C144.046 316.576 148.115 312.158 148.115 312.158C148.348 310.996 148.115 307.275 147.883 308.438C147.766 308.787 153.463 305.183 156.253 304.136C159.625 302.858 164.275 300.649 164.275 300.649" fill="black"/>
</g>
</g>
<g opacity="0.3">
<g opacity="0.3">
<path opacity="0.3" d="M136.838 279.49C135.908 283.559 133.35 290.069 131.955 294.022C131.722 294.72 131.49 295.417 131.025 295.999C130.56 296.58 129.862 296.929 129.048 296.929C128.002 296.812 127.305 295.534 127.421 294.371C127.537 293.325 128.118 292.278 128.816 291.348C131.49 287.512 134.164 283.442 136.838 279.49Z" fill="black"/>
</g>
</g>
<g opacity="0.3">
<g opacity="0.3">
<path opacity="0.3" d="M161.368 273.211C152.997 271.7 145.44 266.236 141.488 258.795C137.535 251.238 137.186 241.937 140.674 234.148C141.604 236.822 140.906 239.728 140.674 242.519C140.325 249.61 143.697 256.702 149.51 260.771C152.067 262.632 154.974 263.794 157.415 265.771C159.857 267.747 161.949 270.654 161.484 273.793" fill="black"/>
</g>
</g>
<path d="M115.097 330.528C115.097 330.528 115.445 329.83 116.143 328.551C116.841 327.272 118.003 325.528 119.282 323.436L119.398 323.32L119.631 323.436C122.305 324.366 125.56 325.529 129.048 326.575C133.815 328.086 138.349 329.249 141.488 329.946C142.999 330.295 144.278 330.644 145.324 330.876C146.254 331.109 146.719 331.225 146.719 331.225C146.719 331.225 146.254 331.225 145.324 331.109C144.394 330.993 143.115 330.76 141.488 330.411C138.232 329.714 133.815 328.668 128.932 327.156C125.444 326.11 122.189 324.947 119.515 323.901L119.863 323.785C118.468 325.877 117.306 327.621 116.492 328.784C115.678 329.946 115.213 330.644 115.097 330.528Z" fill="#263238"/>
<path d="M144.395 341.456C144.278 341.34 145.208 339.247 146.255 336.689C147.301 334.015 147.882 331.807 147.999 331.807C148.115 331.807 147.766 334.132 146.72 336.806C145.79 339.596 144.511 341.572 144.395 341.456Z" fill="#263238"/>
<path d="M115.214 331.342C115.214 331.225 116.725 332.156 119.167 333.434C121.608 334.713 125.212 336.225 129.165 337.503C133.234 338.782 136.955 339.596 139.745 339.945C142.535 340.41 144.163 340.526 144.163 340.643C144.163 340.643 143.698 340.643 143 340.643C142.186 340.643 141.14 340.526 139.745 340.41C136.955 340.061 133.118 339.364 129.049 338.085C124.98 336.806 121.492 335.178 119.05 333.783C117.772 333.086 116.842 332.504 116.26 332.039C115.563 331.691 115.214 331.458 115.214 331.342Z" fill="#263238"/>
<g opacity="0.3">
<g opacity="0.3">
<path opacity="0.3" d="M142.303 340.643C142.652 341.34 142.303 342.27 141.606 342.619C140.908 342.968 140.094 342.968 139.281 342.968C130.794 342.619 122.423 339.596 115.68 334.365C114.982 333.783 114.285 332.853 114.866 332.156C115.331 331.574 116.261 331.923 116.842 332.388C124.864 337.039 133.816 339.945 143.001 340.991" fill="black"/>
</g>
</g>
<path d="M90.3339 189.504C90.3339 189.62 89.5201 188.574 87.5436 188.225C86.6135 188.109 85.2184 188.109 84.0558 188.807C83.4745 189.155 82.8932 189.62 82.4282 190.318C81.9631 191.015 81.7306 191.829 81.7306 192.643C81.6144 194.387 82.4282 196.48 84.2883 197.41C86.1485 198.34 88.59 198.224 90.6826 197.177C92.7753 196.131 94.7518 194.387 95.9144 192.062C97.077 189.737 97.542 186.946 96.9607 184.272C96.3794 181.598 95.2168 179.041 94.1705 176.715C93.1241 174.274 92.194 171.833 91.9615 169.391C91.6127 166.95 92.0778 164.508 93.3566 162.648C94.5192 160.788 96.2631 159.509 97.8908 158.695C101.379 157.068 104.518 157.416 106.494 157.765C107.54 157.998 108.238 158.23 108.819 158.346C109.284 158.579 109.633 158.695 109.633 158.695C109.633 158.811 108.587 158.346 106.494 157.998C104.518 157.649 101.379 157.416 98.1233 159.044C96.4957 159.858 94.868 161.137 93.8217 162.881C92.6591 164.624 92.3103 166.95 92.5428 169.391C92.7753 171.716 93.7054 174.158 94.7518 176.599C95.7981 179.041 96.9607 181.482 97.542 184.272C98.1233 187.063 97.7745 190.085 96.4957 192.411C95.2168 194.852 93.2404 196.712 91.0314 197.759C88.8225 198.805 86.1485 199.037 84.1721 197.991C83.1257 197.41 82.4282 196.596 81.9631 195.666C81.4981 194.736 81.3818 193.689 81.3818 192.759C81.4981 191.829 81.7306 190.899 82.1957 190.202C82.6607 189.504 83.3583 188.923 83.9396 188.574C85.3347 187.876 86.6135 187.876 87.6599 187.993C88.7062 188.225 89.4038 188.574 89.8688 188.923C90.1014 189.155 90.3339 189.504 90.3339 189.504Z" fill="#455A64"/>
<path d="M107.655 158.346C107.19 156.021 108.236 153.347 110.329 152.301C112.538 151.254 115.561 152.766 115.677 155.091L119.63 155.324C122.304 162.648 124.745 169.972 126.838 177.413C127.419 179.273 127.884 181.25 127.768 183.226C127.652 185.202 126.954 187.179 125.443 188.458C123.699 189.737 121.257 189.853 119.397 189.039C117.421 188.225 115.909 186.481 114.979 184.621C113.468 181.715 113.003 178.227 113.701 175.088C111.143 175.204 108.585 173.228 108.004 170.67C107.422 168.112 108.934 165.322 111.375 164.276C109.631 162.764 108.12 160.788 107.655 158.346Z" fill="#E8505B"/>
<path d="M136.605 191.015C130.559 190.899 124.746 187.528 121.258 182.412C117.77 177.297 116.84 170.321 118.933 164.508C113.818 158.114 114.283 147.534 119.979 141.954C121.026 140.907 122.188 140.093 123.002 138.815C124.397 136.489 124.165 133.35 124.514 130.56C125.211 126.026 128.001 121.957 131.954 119.98C135.907 118.004 140.79 118.12 144.627 120.329C147.998 117.423 151.602 114.516 155.788 113.237C159.973 111.959 165.088 112.54 168.227 115.911C169.855 117.772 170.901 120.446 173.11 121.608C175.319 122.887 177.993 122.422 180.318 123.119C184.853 124.398 187.294 129.63 188.34 134.513C189.387 139.28 186.248 145.093 189.27 148.929C190.782 150.906 192.991 152.417 194.27 154.626C195.665 157.067 195.781 160.323 194.502 162.764C193.223 165.206 190.666 166.833 187.992 166.95C190.666 170.786 183.109 183.226 172.413 183.226" fill="#263238"/>
<path d="M134.627 202.176L131.14 136.606C131.023 133.932 133 131.723 135.674 131.374L162.762 124.166C171.482 123.119 177.411 133.815 177.992 142.535C178.69 152.185 179.271 164.043 178.109 171.367C176.016 185.9 164.855 187.876 164.855 187.876C164.855 187.876 164.855 194.852 164.855 203.455C164.855 210.315 158.112 215.314 151.601 213.221C145.905 211.593 139.51 208.222 134.627 202.176Z" fill="#FFBE9D"/>
<path d="M174.739 153.696C174.739 154.626 174.041 155.556 172.995 155.556C171.949 155.672 171.135 154.859 171.019 153.928C171.019 152.998 171.716 152.068 172.762 152.068C173.809 151.952 174.739 152.65 174.739 153.696Z" fill="#263238"/>
<path d="M175.784 149.976C175.551 150.208 174.156 149.162 172.18 149.278C170.203 149.278 168.692 150.324 168.459 150.092C168.343 149.976 168.575 149.511 169.273 149.046C169.854 148.581 171.017 148.115 172.18 148.115C173.458 148.115 174.505 148.581 175.086 149.046C175.667 149.394 175.9 149.859 175.784 149.976Z" fill="#263238"/>
<path d="M155.556 153.231C155.556 154.161 154.859 155.091 153.812 155.091C152.766 155.207 151.952 154.394 151.836 153.463C151.836 152.533 152.533 151.603 153.58 151.603C154.742 151.487 155.556 152.301 155.556 153.231Z" fill="#263238"/>
<path d="M155.905 149.976C155.672 150.208 154.277 149.162 152.184 149.278C150.208 149.278 148.697 150.324 148.464 150.092C148.348 149.976 148.58 149.511 149.278 149.046C149.859 148.581 151.022 148.115 152.184 148.115C153.463 148.115 154.51 148.581 155.091 149.046C155.788 149.394 156.021 149.859 155.905 149.976Z" fill="#263238"/>
<path d="M163.229 164.159C163.229 164.043 164.508 163.81 166.484 163.578C166.949 163.462 167.531 163.462 167.531 163.113C167.647 162.764 167.414 162.183 167.182 161.601C166.717 160.323 166.136 159.044 165.671 157.765C163.462 152.184 161.95 147.65 162.183 147.65C162.415 147.534 164.392 151.952 166.484 157.532C166.949 158.927 167.531 160.206 167.996 161.485C168.228 162.066 168.577 162.764 168.228 163.462C168.112 163.81 167.763 164.159 167.414 164.275C167.066 164.392 166.833 164.392 166.601 164.392C164.508 164.275 163.229 164.275 163.229 164.159Z" fill="#263238"/>
<path d="M164.858 187.993C164.858 187.993 155.092 188.69 145.326 182.994C145.326 182.994 150.325 193.224 164.858 191.713V187.993Z" fill="#EB996E"/>
<path d="M162.416 169.042C161.718 168.112 160.439 167.531 159.16 167.763C158.346 167.879 157.416 168.344 156.951 169.042C156.486 169.74 156.37 170.786 156.835 171.484C157.416 172.181 158.463 172.414 159.509 172.065C160.439 171.832 161.253 171.135 162.067 170.553C162.299 170.321 162.532 170.205 162.648 169.972C162.648 169.623 162.648 169.275 162.416 169.042Z" fill="#E8505B"/>
<path d="M157.298 165.671C157.647 165.671 157.647 167.88 159.507 169.391C161.367 170.902 163.692 170.67 163.692 170.902C163.692 171.019 163.227 171.367 162.181 171.367C161.251 171.367 159.856 171.135 158.693 170.205C157.531 169.275 157.065 167.996 156.949 167.066C156.949 166.252 157.182 165.671 157.298 165.671Z" fill="#263238"/>
<path d="M156.252 144.511C156.02 145.093 154.043 144.86 151.718 145.093C149.393 145.325 147.417 146.023 147.184 145.558C147.068 145.325 147.417 144.86 148.114 144.279C148.812 143.698 150.091 143.233 151.486 143C152.881 142.884 154.16 143 155.09 143.349C155.904 143.93 156.369 144.279 156.252 144.511Z" fill="#263238"/>
<path d="M176.133 145.209C175.784 145.674 174.389 145.209 172.761 145.209C171.133 145.093 169.738 145.558 169.389 145.093C169.273 144.86 169.506 144.395 170.087 143.93C170.668 143.465 171.715 143.116 172.877 143.116C174.04 143.116 174.97 143.581 175.551 144.046C176.133 144.511 176.249 144.976 176.133 145.209Z" fill="#263238"/>
<path d="M143.579 123.352C143.579 126.258 144.975 129.165 147.184 131.025C149.392 132.885 152.531 133.699 155.438 133.118C157.647 132.653 160.088 131.49 162.065 132.653C164.157 133.932 164.157 136.954 166.018 138.466C168.575 140.675 172.644 138.582 175.9 139.512C178.457 140.21 179.969 142.651 181.713 144.627C183.457 146.604 185.898 148.58 188.456 147.766C188.223 145.558 188.107 143.232 187.41 141.023C186.712 138.814 185.433 136.838 183.573 135.559C182.527 134.862 181.364 134.513 180.318 133.699C178.225 132.071 177.76 129.049 176.365 126.723C174.621 123.701 171.482 121.608 167.994 121.259C165.088 121.027 162.181 121.84 159.391 121.259C157.298 120.794 155.554 119.399 153.462 119.05C149.392 118.353 145.672 121.259 142.766 124.166" fill="#263238"/>
<path d="M148.464 126.375C149.975 129.281 150.789 136.838 149.627 139.977C148.464 143.116 145.79 145.558 142.651 146.604C146.836 151.138 146.604 159.044 142.186 163.346C140.326 165.09 137.884 166.485 137.187 168.926C136.489 171.251 137.768 173.693 138.466 176.018C139.396 179.39 138.814 183.226 136.954 186.249C135.908 187.993 134.164 189.62 132.188 189.504C130.327 189.504 128.7 188.109 127.537 186.714C122.887 181.366 120.91 173.693 122.422 166.717L127.537 142.07L134.28 127.421L148.464 126.375Z" fill="#263238"/>
<path d="M119.865 165.322C119.865 165.322 119.748 165.206 119.748 164.857C119.632 164.508 119.632 164.043 119.516 163.346C119.283 162.067 119.167 160.207 119.051 157.881C119.051 155.556 119.283 152.766 120.33 149.859C121.376 146.953 123.236 143.93 126.259 141.954C129.282 139.977 132.769 139.628 135.676 139.047C137.187 138.815 138.582 138.466 139.745 138.117C141.024 137.652 142.07 137.071 143 136.373C144.861 135.094 145.791 133.467 146.139 132.188C146.488 131.025 146.372 130.211 146.372 130.211C146.372 130.211 146.604 130.909 146.372 132.188C146.139 133.467 145.093 135.211 143.233 136.606C142.303 137.303 141.14 137.885 139.861 138.466C138.582 138.931 137.187 139.28 135.676 139.512C132.769 140.094 129.282 140.442 126.491 142.302C123.585 144.163 121.841 147.069 120.795 149.859C119.748 152.65 119.516 155.324 119.4 157.649C119.4 159.974 119.516 161.718 119.632 162.997C119.748 164.624 119.865 165.322 119.865 165.322Z" fill="#455A64"/>
<path d="M125.095 131.374C125.095 131.374 125.327 131.142 126.025 130.909C126.606 130.676 127.652 130.676 128.699 130.909C131.024 131.374 133.349 133.699 136.721 133.932C140.092 134.281 142.999 132.885 144.743 131.607C146.487 130.328 147.184 129.049 147.3 129.165C147.3 129.165 147.184 129.514 146.835 129.979C146.487 130.444 145.905 131.258 144.975 131.955C143.231 133.35 140.209 134.862 136.721 134.513C134.977 134.397 133.349 133.815 132.07 133.002C130.791 132.304 129.629 131.607 128.583 131.258C126.374 130.676 125.095 131.49 125.095 131.374Z" fill="#455A64"/>
<path d="M193.806 160.207C193.69 160.207 194.271 159.277 194.039 157.649C193.806 156.021 192.644 153.812 190.435 151.72C189.389 150.673 188.11 149.627 186.947 148.232C185.784 146.837 184.854 145.093 184.389 143.116C183.924 141.14 183.576 139.047 183.227 136.955C182.762 134.862 182.064 132.769 180.785 130.909C180.088 129.979 179.274 129.281 178.344 128.816C177.414 128.351 176.367 128.119 175.321 128.235C173.228 128.351 171.252 129.049 169.276 129.514C168.345 129.746 167.299 129.863 166.369 129.746C165.439 129.746 164.509 129.398 163.579 129.049C161.951 128.351 160.556 127.305 159.277 126.491C156.836 124.747 154.278 124.398 152.65 124.864C151.836 125.096 151.255 125.445 151.023 125.677C150.674 125.91 150.558 126.142 150.558 126.142C150.558 126.142 150.558 126.142 150.674 126.026C150.79 125.91 150.79 125.794 151.023 125.677C151.371 125.329 151.836 124.98 152.767 124.631C154.394 124.05 157.068 124.515 159.626 126.142C160.905 126.956 162.3 127.886 163.811 128.584C164.625 128.933 165.439 129.165 166.369 129.165C167.299 129.165 168.229 129.049 169.159 128.816C171.136 128.468 173.112 127.654 175.321 127.538C176.484 127.538 177.646 127.654 178.693 128.235C179.739 128.7 180.669 129.514 181.367 130.444C182.762 132.304 183.576 134.629 183.924 136.722C184.389 138.815 184.622 140.907 185.087 142.884C185.552 144.744 186.366 146.488 187.528 147.767C188.691 149.162 189.854 150.208 190.9 151.255C193.109 153.347 194.271 155.672 194.388 157.416C194.504 158.23 194.388 158.928 194.271 159.393C194.271 159.625 194.155 159.742 194.039 159.858C193.806 160.207 193.806 160.207 193.806 160.207Z" fill="#455A64"/>
<path d="M168.694 117.423C168.694 117.423 168.694 117.772 168.461 118.353C168.229 118.934 167.531 119.748 166.485 120.329C165.438 121.027 164.043 121.376 162.416 121.376C160.788 121.376 159.16 121.027 157.416 120.678C155.672 120.329 154.045 120.097 152.533 120.329C151.022 120.446 149.743 121.027 148.929 121.841C148.116 122.538 147.65 123.468 147.418 124.05C147.185 124.631 147.302 124.98 147.185 124.98C147.185 124.98 147.069 124.631 147.185 123.933C147.302 123.236 147.65 122.306 148.581 121.492C149.394 120.678 150.79 119.981 152.417 119.748C154.045 119.515 155.789 119.748 157.533 120.097C159.277 120.446 160.904 120.794 162.416 120.794C163.927 120.794 165.206 120.446 166.252 119.981C167.298 119.399 167.88 118.702 168.229 118.237C168.577 117.655 168.694 117.307 168.694 117.423Z" fill="#455A64"/>
<path d="M123.236 138.582C123.236 138.582 123.003 138.117 122.654 137.187C122.306 136.257 121.84 134.862 121.492 133.118C121.143 131.374 120.91 129.165 121.608 126.84C121.957 125.677 122.538 124.515 123.352 123.585C124.166 122.538 125.328 121.724 126.723 121.259C128.119 120.794 129.514 120.911 130.676 121.027C131.955 121.259 133.118 121.492 134.28 121.841C136.489 122.422 138.466 123.003 140.21 123.468C141.837 123.933 143.116 124.282 144.162 124.631C145.093 124.863 145.674 125.096 145.558 125.096C145.558 125.096 144.976 125.096 144.046 124.863C143 124.631 141.605 124.282 139.977 123.933C138.233 123.468 136.257 123.003 133.932 122.422C132.769 122.189 131.606 121.841 130.444 121.608C129.165 121.492 127.886 121.376 126.723 121.841C124.282 122.538 122.654 124.863 122.073 126.956C121.375 129.165 121.608 131.258 121.84 133.002C122.073 134.746 122.538 136.141 122.771 137.071C123.236 138.001 123.352 138.582 123.236 138.582Z" fill="#455A64"/>
<path d="M118.353 188.109C118.353 187.993 119.631 187.528 120.91 186.598C122.189 185.668 122.887 184.389 123.003 184.505C123.119 184.505 122.654 186.016 121.259 187.063C119.864 188.225 118.469 188.342 118.353 188.109Z" fill="#263238"/>
<path d="M115.097 182.528C115.097 182.412 116.027 181.947 117.189 181.133C118.352 180.319 119.05 179.622 119.166 179.738C119.282 179.854 118.701 180.901 117.538 181.715C116.259 182.528 115.097 182.761 115.097 182.528Z" fill="#263238"/>
<path d="M113.934 175.785C113.818 175.669 114.631 174.739 115.91 174.158C117.189 173.576 118.352 173.576 118.352 173.693C118.352 173.809 117.305 174.158 116.143 174.739C114.98 175.32 114.05 175.902 113.934 175.785Z" fill="#263238"/>
<path d="M107.889 169.275C107.889 169.159 110.098 168.345 113.004 168.228C115.911 168.112 118.236 168.577 118.236 168.693C118.236 168.926 115.911 168.577 113.004 168.81C110.214 168.926 107.889 169.391 107.889 169.275Z" fill="#263238"/>
<path d="M111.028 164.043C111.028 163.927 112.423 163.229 114.4 163.113C116.376 162.881 117.888 163.113 117.888 163.346C117.888 163.462 116.376 163.578 114.4 163.694C112.656 163.927 111.145 164.159 111.028 164.043Z" fill="#263238"/>
<path d="M109.053 159.742C108.936 159.625 109.983 158.23 112.075 157.765C114.052 157.184 115.796 157.881 115.68 158.114C115.68 158.346 114.052 157.881 112.192 158.346C110.332 158.811 109.169 159.858 109.053 159.742Z" fill="#263238"/>
<path d="M148.231 280.303L200.781 268.909L211.826 266.235L220.545 271.467C221.824 272.165 222.638 273.444 222.754 274.955L223.452 280.535L222.405 281.466L223.801 284.023C224.382 285.186 224.266 286.581 223.452 287.511L214.616 280.884L220.429 289.022C220.429 289.022 219.383 290.069 216.592 289.953C213.802 289.72 206.943 280.303 206.943 280.303L202.409 279.605L211.826 289.836C211.826 289.836 212.291 290.65 210.198 291.464C208.222 292.161 197.642 284.14 197.642 284.14L148.231 308.205" fill="#FFBE9D"/>
<path d="M148.464 308.089C148.464 308.089 148.58 308.089 148.696 307.973C148.813 307.857 149.045 307.741 149.394 307.624C149.975 307.276 150.905 306.927 152.068 306.346C154.393 305.183 157.765 303.555 162.066 301.346C170.67 297.045 182.993 290.999 197.875 283.791C197.991 283.791 198.107 283.791 198.107 283.791C200.2 285.419 202.525 287.046 204.85 288.558C206.013 289.372 207.292 290.069 208.57 290.65C209.268 290.883 209.966 291.232 210.431 290.999C210.779 290.883 211.128 290.767 211.361 290.534C211.593 290.302 211.709 290.069 211.709 289.953V290.069C208.687 286.814 205.548 283.442 202.292 279.955C202.176 279.838 202.176 279.606 202.292 279.489C202.409 279.373 202.409 279.373 202.525 279.373C203.92 279.606 205.431 279.838 207.059 280.071C207.175 280.071 207.175 280.187 207.292 280.187C209.036 282.512 210.779 284.721 212.872 286.93C213.918 287.976 214.965 289.023 216.244 289.604C217.522 289.837 219.266 289.72 220.313 288.907V289.255C219.731 288.442 219.15 287.628 218.569 286.814C217.174 284.837 215.895 282.977 214.5 281.117C214.383 281.001 214.383 280.768 214.616 280.652C214.732 280.536 214.849 280.536 214.965 280.652C217.406 282.512 219.731 284.256 222.173 286L223.103 286.698L223.568 287.046L223.801 287.163L223.917 287.279C224.266 287.279 223.452 287.395 223.452 287.279C223.801 286.698 224.033 286.116 224.033 285.419C224.033 284.721 223.684 284.14 223.336 283.559C222.987 282.977 222.638 282.28 222.289 281.698C222.173 281.582 222.289 281.466 222.405 281.35C222.754 281.001 223.103 280.768 223.452 280.42L223.336 280.652C223.103 278.908 222.87 277.164 222.638 275.537C222.522 273.909 221.592 272.398 220.196 271.7C217.29 269.956 214.5 268.328 211.826 266.585H212.058C209.733 267.166 207.408 267.747 205.199 268.328C202.99 268.91 200.781 269.491 198.572 269.84C194.27 270.77 190.201 271.7 186.249 272.514C178.575 274.142 171.716 275.653 166.135 276.816C160.555 277.978 156.137 278.908 152.998 279.606C151.487 279.955 150.324 280.187 149.51 280.303C149.162 280.42 148.813 280.42 148.58 280.42C148.348 280.42 148.231 280.42 148.231 280.42C148.231 280.42 148.348 280.42 148.58 280.303C148.813 280.303 149.045 280.187 149.51 280.071C150.324 279.838 151.487 279.606 152.998 279.257C156.021 278.559 160.439 277.629 166.019 276.35C171.6 275.072 178.459 273.676 186.132 271.933C189.969 271.119 194.154 270.189 198.456 269.259C200.665 268.794 202.757 268.212 205.083 267.747C207.292 267.166 209.617 266.585 211.942 266.003C212.058 266.003 212.058 266.003 212.175 266.003C214.849 267.631 217.639 269.375 220.545 271.003C221.243 271.351 222.057 272.049 222.522 272.746C222.987 273.444 223.219 274.374 223.336 275.304C223.568 277.048 223.801 278.676 224.033 280.42C224.033 280.536 224.033 280.652 223.917 280.652C223.568 281.001 223.219 281.233 222.87 281.582L222.987 281.233C223.336 281.815 223.684 282.512 224.033 283.094C224.382 283.675 224.847 284.489 224.847 285.302C224.847 286.116 224.614 286.93 224.149 287.511V287.628C224.266 287.628 223.335 287.744 223.684 287.628L223.568 287.511L223.336 287.395L222.87 287.046L221.94 286.349C219.615 284.605 217.174 282.745 214.732 281.001L215.197 280.536C216.592 282.396 217.871 284.372 219.266 286.233C219.848 287.046 220.429 287.86 221.01 288.674C221.127 288.79 221.127 288.907 221.01 289.023C220.313 289.604 219.499 289.837 218.801 289.953C218.453 289.953 217.988 290.069 217.639 290.069C217.406 290.069 217.29 290.069 217.057 290.069C216.825 290.069 216.592 289.953 216.476 289.953C214.965 289.255 213.918 288.209 212.872 287.163C210.779 284.954 208.919 282.745 207.292 280.42L207.524 280.536C206.013 280.303 204.385 280.071 202.99 279.838L203.222 279.373C206.478 282.861 209.617 286.349 212.64 289.604C212.872 290.185 212.407 290.65 212.175 290.883C211.826 291.115 211.477 291.348 211.128 291.464C211.012 291.581 210.663 291.581 210.431 291.581C210.198 291.581 209.966 291.581 209.849 291.464C209.501 291.348 209.152 291.232 208.803 291.115C207.408 290.534 206.245 289.72 204.966 288.907C202.525 287.395 200.316 285.651 198.107 284.024H198.34C183.458 291.232 171.135 297.161 162.531 301.463C158.23 303.555 154.858 305.183 152.533 306.346C151.37 306.927 150.557 307.276 149.859 307.624C149.627 307.741 149.394 307.857 149.162 307.973C148.58 308.089 148.464 308.089 148.464 308.089Z" fill="#EB996E"/>
<path d="M220.429 288.907C220.313 288.907 219.499 287.976 218.337 286.233C217.058 284.489 215.43 282.163 213.57 279.489C212.756 278.094 211.71 277.048 210.431 276.699C209.152 276.35 207.873 276.118 206.827 275.885C204.734 275.42 203.456 275.072 203.572 274.955C203.572 274.839 204.851 275.072 206.943 275.42C207.99 275.653 209.152 275.769 210.547 276.118C211.942 276.467 213.221 277.746 214.035 279.141C215.895 281.815 217.523 284.14 218.686 285.884C219.732 287.744 220.429 288.907 220.429 288.907Z" fill="#EB996E"/>
<path d="M222.173 281.582C222.057 281.582 221.359 280.652 220.08 279.257C218.801 277.862 217.174 275.885 214.965 273.909C214.383 273.444 213.918 272.979 213.453 272.514C213.221 272.281 212.988 272.049 212.756 271.816L212.407 271.468L212.291 271.351H212.175C211.012 271.235 209.849 271.235 208.919 271.235C207.059 271.235 205.896 271.235 205.896 271.119C205.896 271.003 207.059 270.886 208.919 270.886C209.849 270.886 211.012 270.77 212.291 270.886H212.407C212.523 270.886 212.523 270.886 212.64 271.003C212.756 271.119 212.756 271.119 212.872 271.119L213.221 271.468C213.453 271.7 213.686 271.933 214.035 272.165C214.5 272.63 215.081 273.095 215.662 273.56C217.871 275.537 219.499 277.629 220.662 279.024C221.592 280.536 222.173 281.582 222.173 281.582Z" fill="#EB996E"/>
<path d="M350.525 266.585L347.153 300.533H329.598L326.11 266.585H350.525Z" fill="#E8505B"/>
<path d="M324.07 266.545H353.135V264.104H324.07V266.545Z" fill="#263238"/>
<path d="M347.619 259.725L350.525 264.608H327.39L328.436 259.725H347.619Z" fill="#263238"/>
<path d="M349.363 277.978L348.2 290.185H328.552L327.273 277.978H349.363Z" fill="#455A64"/>
<path d="M335.761 287.511C335.761 286.581 335.993 285.535 336.691 284.489C337.156 283.675 337.737 283.093 338.202 282.396C338.667 281.698 339.016 281.117 339.249 280.536C339.365 280.187 339.365 279.954 339.365 279.722C339.365 279.722 339.481 279.722 339.481 279.838C340.179 280.303 340.644 281.001 340.76 281.815C340.876 282.628 340.876 283.442 340.644 284.256C340.411 285.186 340.062 286.116 339.365 286.814C338.551 287.628 337.388 287.976 336.342 287.744C336.226 287.628 335.993 287.511 335.761 287.511Z" fill="#263238"/>
<path d="M334.365 284.837C334.482 283.791 334.598 282.628 334.947 281.698C335.412 280.652 336.226 279.722 337.272 279.489C337.621 279.373 338.318 279.373 339.016 279.606C339.016 279.838 338.9 280.187 338.783 280.419C338.551 281.001 338.202 281.582 337.737 282.163C337.272 282.745 336.691 283.442 336.109 284.256C335.528 285.07 335.295 286 335.179 286.814C335.179 287.046 335.179 287.162 335.179 287.395C334.947 287.279 334.714 287.046 334.482 286.697C334.249 286.116 334.249 285.419 334.365 284.837Z" fill="#263238"/>
<path d="M303.323 300.881L323.552 249.959C325.296 245.541 322.157 240.775 317.39 240.775H254.261C251.355 240.775 248.913 242.635 247.983 245.309L230.544 296.58L210.199 296.696C208.571 296.696 207.176 298.905 207.176 300.533H229.614L303.323 300.881Z" fill="#263238"/>
<path d="M276.816 273.56C276.816 275.769 278.677 277.629 280.886 277.629C283.094 277.629 284.955 275.769 284.955 273.56C284.955 271.351 283.094 269.491 280.886 269.491C278.677 269.491 276.816 271.351 276.816 273.56Z" fill="#F5F5F5"/>
<path d="M185.9 309.833H357.384C359.942 309.833 362.035 307.741 362.035 305.183C362.035 302.625 359.942 300.532 357.384 300.532H185.9C183.343 300.532 181.25 302.625 181.25 305.183C181.25 307.741 183.343 309.833 185.9 309.833Z" fill="#455A64"/>
<path d="M265.612 499.766H280.609V308.053H265.612V499.766Z" fill="#455A64"/>
<path d="M323.553 499.802H221.825C222.523 499.802 265.655 488.409 265.655 488.409H280.653L323.553 499.802Z" fill="#455A64"/>
<path d="M185.435 309.485C185.435 309.368 224.265 309.136 272.048 309.136C319.831 309.136 358.662 309.252 358.662 309.485C358.662 309.717 319.948 309.833 272.048 309.833C224.149 309.717 185.435 309.601 185.435 309.485Z" fill="#263238"/>
<path d="M415.63 499.802C415.63 499.996 327.121 500.384 217.988 500.384C108.795 500.384 20.3457 500.19 20.3457 499.802C20.3457 499.415 108.795 499.221 217.988 499.221C327.121 499.415 415.63 499.609 415.63 499.802Z" fill="#263238"/>
</svg>
