<svg width="459" height="494" viewBox="0 0 459 494" fill="none" xmlns="http://www.w3.org/2000/svg">
<path d="M347.646 11.2894L439.073 61.8147L435.556 68.2923L344.87 16.6566L347.646 11.2894Z" fill="#E0E0E0"/>
<path d="M343.02 6.4776L347.276 0L349.682 1.48059L345.981 7.95819L343.02 6.4776Z" fill="#E0E0E0"/>
<path d="M428.708 53.8566L433.335 56.6327L417.974 154.352H410.756L428.708 53.8566Z" fill="#E0E0E0"/>
<path d="M389.657 164.531C389.657 164.531 400.762 153.241 415.753 154.167C430.744 154.907 438.332 164.531 438.332 164.531H389.657Z" fill="#E0E0E0"/>
<path d="M343.204 50.7103L306.93 29.7969L317.294 11.6597C323.031 1.66564 335.801 -1.85077 345.795 4.07161C355.789 9.80891 359.306 22.579 353.383 32.573L343.204 50.7103Z" fill="#E0E0E0"/>
<path d="M83.9622 179.468H193.623V174.221H83.9622V179.468Z" fill="#EBEBEB"/>
<path d="M210.644 179.484L231.282 102.354H145.582L127.043 179.484H210.644Z" fill="#EBEBEB"/>
<path d="M132.115 173.537H208.546L226.385 105.852H149.43L132.115 173.537Z" fill="#E0E0E0"/>
<path d="M67.9288 195.225H62.332V459.67H67.9288V195.225Z" fill="#F5F5F5"/>
<path d="M73.3506 195.924H67.7539V459.495H73.3506V195.924Z" fill="#EBEBEB"/>
<path d="M408.98 195.225H403.383V459.67H408.98V195.225Z" fill="#EBEBEB"/>
<path d="M414.576 195.924H408.979V459.495H414.576V195.924Z" fill="#E0E0E0"/>
<path d="M459 179.834H38.3711V201.521H459V179.834Z" fill="#E0E0E0"/>
<path d="M406.182 201.521H220.965V237.375H406.182V201.521Z" fill="#EBEBEB"/>
<path d="M321.879 217.087C321.879 219.361 319.956 221.285 317.682 221.285C315.408 221.285 313.484 219.361 313.484 217.087C313.484 214.813 315.408 212.89 317.682 212.89C319.956 212.89 321.879 214.813 321.879 217.087Z" fill="#E0E0E0"/>
<path d="M30.5976 346.699C25.4599 343.503 19.523 341.447 13.4719 340.762C10.6176 340.42 7.64921 340.534 5.36578 342.247C4.9091 342.589 4.4524 343.16 4.56657 343.731C4.68074 344.188 5.02327 344.53 5.36578 344.758C12.2161 350.01 22.834 350.695 30.5976 346.699Z" fill="#E0E0E0"/>
<path d="M30.1404 346.128C26.2586 343.046 22.3768 340.077 19.0659 336.424C15.7549 332.77 13.1289 328.432 12.1014 323.523C11.7589 322.038 11.7589 320.44 12.6722 319.184C21.4634 326.149 28.4279 335.054 30.1404 346.128Z" fill="#E0E0E0"/>
<path d="M30.484 346.585C29.7989 341.79 29.5705 336.767 30.7123 331.971C31.854 327.176 34.3658 322.724 38.476 319.983C39.9602 323.523 39.3893 327.633 38.2476 331.401C36.535 337.223 34.0233 342.703 30.5981 347.613" fill="#E0E0E0"/>
<path d="M39.1613 362.113C33.9094 362.798 29.3426 365.538 25.3466 369.077C21.4648 372.616 18.6105 377.411 17.4688 382.549C22.6065 382.207 27.0591 378.553 30.1417 374.557C33.3385 370.447 35.622 365.994 39.1613 362.113Z" fill="#E0E0E0"/>
<path d="M40.9866 364.624C36.7622 354.235 38.2465 341.562 44.8684 332.542C47.951 343.16 46.8093 355.148 40.9866 364.624Z" fill="#E0E0E0"/>
<path d="M52.5191 378.211C47.7239 377.868 42.9287 379.01 38.7043 381.407C34.5942 383.805 31.169 387.458 28.9998 391.683C28.6573 392.254 28.429 393.053 28.8856 393.51C29.2281 393.966 29.9132 393.966 30.4841 393.966C35.1651 393.624 39.161 390.884 42.5862 387.687C45.8972 384.604 48.8656 380.951 52.5191 378.211Z" fill="#E0E0E0"/>
<path d="M52.0615 377.526C49.5498 369.648 49.4356 361.085 51.6049 353.093C52.5182 349.896 53.8883 346.585 56.8567 345.215C57.0851 345.101 57.4276 344.987 57.6559 345.101C57.8843 345.215 57.9984 345.444 58.1126 345.672C59.1401 347.841 59.4827 350.239 59.3685 352.636C59.2543 355.034 58.7977 357.432 58.2268 359.715C57.3134 364.054 56.8568 368.735 54.4592 372.502C53.8883 373.416 53.4316 374.329 52.9749 375.242C52.5182 376.156 52.5182 376.498 52.0615 377.297" fill="#E0E0E0"/>
<path d="M82.4324 381.978C80.149 373.416 82.5465 363.14 87.9126 356.061C88.2551 355.491 88.8259 355.034 89.511 355.034C90.5385 355.148 90.7669 356.404 90.7669 357.432C90.3102 366.223 87.4559 374.786 82.4324 381.978Z" fill="#E0E0E0"/>
<path d="M85.1709 383.805C95.5605 386.545 107.434 383.919 116.111 377.526C110.974 374.9 104.923 374.215 99.3282 375.471C93.7338 376.841 88.596 379.353 85.1709 383.805Z" fill="#E0E0E0"/>
<path d="M87.4551 378.211C93.2778 368.734 104.352 362.569 115.541 361.998C114.285 366.565 110.518 369.99 106.408 372.16C102.183 374.329 97.5021 375.242 92.9353 376.041C91.1085 376.384 88.5968 376.726 87.4551 378.211Z" fill="#E0E0E0"/>
<path d="M83.0031 350.581C84.6015 345.215 86.1998 339.735 86.5423 334.141C86.999 328.546 86.1998 322.724 83.2314 317.928C77.7511 328.432 77.2945 340.648 82.7747 351.152" fill="#E0E0E0"/>
<path d="M101.27 341.333C107.663 329.802 120.564 320.554 133.694 319.298C128.556 331.857 114.856 341.562 101.27 341.333Z" fill="#E0E0E0"/>
<path d="M97.2734 343.617C106.75 345.101 114.856 351.152 123.647 354.806C125.588 355.605 127.529 356.176 129.584 355.947C131.639 355.719 133.58 354.349 134.037 352.294C134.379 350.581 133.694 348.869 132.438 347.613C131.296 346.357 129.698 345.672 128.1 344.987C118.509 340.991 108.12 340.877 97.9584 343.274" fill="#E0E0E0"/>
<path d="M91.7929 350.239C93.9621 350.81 94.6471 351.951 96.3597 353.436C102.068 358.345 109.033 361.884 116.34 363.711C117.139 363.939 118.052 363.939 118.509 363.254C118.851 362.683 118.395 361.884 117.938 361.428C114.855 357.546 110.517 354.92 105.836 353.207C101.269 351.495 97.2731 349.44 91.6787 349.896" fill="#E0E0E0"/>
<path d="M85.6279 310.165C93.2774 317.357 104.124 321.011 114.627 319.983C115.084 319.983 115.655 319.869 115.997 319.527C116.682 318.727 115.883 317.472 114.97 316.787C106.407 310.165 96.1317 307.424 85.6279 310.165Z" fill="#E0E0E0"/>
<path d="M92.9355 307.425C103.097 299.775 117.026 297.492 129.128 301.488C124.561 305.94 118.282 308.452 111.888 309.023C105.494 309.708 99.1008 309.023 92.9355 307.425Z" fill="#E0E0E0"/>
<path d="M89.9665 289.043C89.1673 280.48 89.624 273.858 89.0531 265.295C89.0531 264.61 88.8248 263.811 88.2539 263.583C87.3405 263.24 86.6555 264.382 86.313 265.295C83.8012 273.173 85.1713 282.193 89.9665 289.043Z" fill="#E0E0E0"/>
<path d="M89.3965 289.956C95.2192 286.417 99.4436 281.736 103.554 276.256C106.294 272.488 108.691 267.921 108.006 263.24C104.125 263.126 100.357 265.295 97.8452 268.264C95.3334 271.232 93.735 275 92.7075 278.653C91.5658 282.421 90.7665 286.303 89.3965 289.956Z" fill="#E0E0E0"/>
<path d="M103.325 286.075C115.998 281.394 127.872 274.429 138.033 265.638C133.923 263.925 129.128 264.953 125.018 266.665C115.541 270.433 107.778 276.941 103.211 286.075" fill="#E0E0E0"/>
<path d="M93.2783 294.637C99.6719 295.322 106.18 295.779 112.573 294.752C118.853 293.724 124.675 291.212 130.612 288.815C131.069 288.586 131.64 288.358 131.868 287.901C132.097 287.33 131.868 286.76 131.411 286.417C130.955 286.075 130.384 285.846 129.927 285.732C123.534 283.905 116.683 284.819 110.518 286.874C104.125 288.815 98.9869 291.326 93.2783 294.637Z" fill="#E0E0E0"/>
<path d="M56.7435 310.393C52.405 301.602 52.6333 291.212 56.4009 282.193C59.0268 286.189 59.3694 291.441 58.9127 296.236C58.456 301.031 56.9718 306.055 56.8576 310.85" fill="#E0E0E0"/>
<path d="M39.2747 301.602C28.3142 301.374 17.468 306.055 10.0469 314.047C15.5271 314.846 21.1215 313.476 26.0308 311.078C30.9402 308.68 35.3929 305.255 39.7314 301.944" fill="#E0E0E0"/>
<path d="M27.5152 297.72C22.1492 297.263 17.0115 296.578 11.8738 298.177C6.73606 299.775 2.05508 303.314 0 308.224C5.02353 308.795 10.0471 307.539 14.6139 305.484C19.1808 303.428 23.4051 300.574 27.5152 297.72Z" fill="#E0E0E0"/>
<path d="M44.8699 297.834C40.0747 294.637 35.1653 291.441 29.5709 290.185C23.9765 288.929 17.4687 289.842 13.5869 294.067C18.1538 296.693 23.634 297.035 28.8859 297.035C34.1378 297.035 40.5313 296.921 45.5549 298.748" fill="#E0E0E0"/>
<path d="M44.869 298.177C36.6487 290.071 33.566 275.571 36.877 264.61C43.3848 274.315 46.239 286.417 44.869 298.177Z" fill="#E0E0E0"/>
<path d="M67.4746 275.228C69.073 271.575 70.1005 267.807 71.4706 264.154C72.8407 260.5 74.5532 256.847 77.1792 253.992C79.8051 251.138 83.4586 248.969 87.3404 248.74C84.9428 259.815 77.5217 269.748 67.5888 275.342" fill="#E0E0E0"/>
<path d="M63.3658 280.024C60.854 276.484 57.8855 271.689 54.3462 269.063C50.9211 266.437 46.3542 264.839 42.1299 265.866C46.4684 273.63 54.6888 278.996 63.3658 280.024Z" fill="#E0E0E0"/>
<path d="M64.2781 275.571C62.5656 271.346 60.853 267.008 60.2821 262.441C59.5971 257.874 60.0538 253.079 62.3372 249.083C66.7899 257.646 68.2741 266.78 64.6206 275.685" fill="#E0E0E0"/>
<path d="M67.5898 249.083C70.1016 240.634 77.8652 234.355 86.1997 231.501C87.2273 231.158 88.369 230.816 89.5107 231.044C90.6524 231.158 91.68 231.957 91.9083 233.099C92.2508 234.583 90.9949 235.839 89.8532 236.752C83.3455 242.347 75.696 246.571 67.5898 249.083Z" fill="#E0E0E0"/>
<path d="M67.5897 242.233C67.9322 236.753 68.2747 231.272 69.9873 226.135C71.814 220.997 75.125 216.088 80.1485 213.918C80.9477 219.399 78.5501 224.879 75.5817 229.674C72.6132 234.355 69.0739 238.922 67.3613 244.174" fill="#E0E0E0"/>
<path d="M67.4758 245.886C65.4207 239.721 65.1924 231.957 61.4247 226.591C58.7988 222.824 54.6887 220.312 52.5194 216.316C51.0352 219.969 51.4919 224.308 53.0903 227.961C54.6887 231.615 57.2004 234.812 59.9405 237.78C62.6806 240.634 64.964 242.804 67.4758 245.886Z" fill="#E0E0E0"/>
<path d="M67.5906 427.304C67.4764 427.304 67.248 386.203 67.248 335.511C67.248 284.819 67.3622 243.717 67.4764 243.717C67.5906 243.717 67.8189 284.819 67.8189 335.511C67.8189 386.203 67.7048 427.304 67.5906 427.304Z" fill="#E0E0E0"/>
<path d="M103.439 304.228C103.439 304.228 102.868 304.456 101.84 304.799C100.698 305.141 99.3284 305.598 97.6158 306.283C94.0765 307.539 89.053 309.251 83.8011 311.421C78.5492 313.704 73.5257 315.531 70.6714 318.043C69.3013 319.298 68.388 320.554 68.0455 321.582C67.5888 322.495 67.5888 323.18 67.4746 323.18C67.4746 323.18 67.4746 323.066 67.4746 322.724C67.4746 322.495 67.5888 322.039 67.8171 321.582C68.1596 320.554 68.9589 319.184 70.4431 317.814C71.9273 316.558 73.8682 315.302 76.1517 314.275C78.4351 313.247 80.9468 312.106 83.6869 310.964C89.053 308.795 93.9624 307.082 97.6158 305.94C99.4426 305.369 100.927 304.913 101.954 304.684C102.868 304.342 103.439 304.228 103.439 304.228Z" fill="#E0E0E0"/>
<path d="M115.198 275.343C115.198 275.343 115.084 275.571 114.742 275.799C114.399 276.142 113.943 276.484 113.372 277.055C112.116 278.197 110.517 279.681 108.462 281.508C104.238 285.275 98.4153 290.413 92.1358 296.122C85.7423 301.83 80.262 307.196 76.3802 311.306C74.4393 313.362 72.9551 315.074 71.9275 316.216C71.4708 316.787 71.0142 317.243 70.7858 317.586C70.5575 317.928 70.3291 318.043 70.3291 318.043C70.3291 318.043 70.4433 317.814 70.6716 317.472C70.8999 317.129 71.2425 316.673 71.8133 315.987C72.8409 314.732 74.211 313.019 76.1519 310.964C79.9195 306.74 85.3997 301.259 91.7933 295.551C98.1869 289.842 104.01 284.819 108.234 281.051C110.289 279.224 112.002 277.854 113.258 276.713C113.828 276.256 114.285 275.913 114.628 275.571C114.97 275.457 115.198 275.343 115.198 275.343Z" fill="#E0E0E0"/>
<path d="M85.2855 301.83C85.1714 301.716 86.4272 298.633 87.7973 294.752C89.1673 290.87 89.7382 287.559 89.9665 287.559C90.0807 287.559 89.7382 290.984 88.3681 294.866C87.6831 296.807 86.9981 298.519 86.4273 299.775C85.7422 301.145 85.2855 301.944 85.2855 301.83Z" fill="#E0E0E0"/>
<path d="M67.5894 326.72C67.5894 326.72 67.2468 326.377 66.5618 325.578C65.8768 324.664 65.0775 323.637 64.05 322.381C61.8808 319.641 59.0265 315.873 55.7155 311.763C52.4046 307.653 49.4361 303.885 47.2668 301.259C46.2393 300.003 45.3259 298.862 44.6409 298.063C44.07 297.263 43.7275 296.921 43.7275 296.807C43.7275 296.807 44.1843 297.149 44.7551 297.834C45.4401 298.519 46.3535 299.547 47.4952 300.917C49.7786 303.543 52.8613 307.196 56.1722 311.306C59.4832 315.417 62.3374 319.298 64.3925 322.038C65.42 323.409 66.2193 324.55 66.7901 325.349C67.361 326.263 67.5894 326.72 67.5894 326.72Z" fill="#E0E0E0"/>
<path d="M59.7117 316.672C59.5975 316.787 57.5424 314.275 56.4007 310.507C55.6015 307.881 55.6016 305.369 55.6016 304.228H55.8298C55.7157 304.684 55.6016 304.913 55.6016 304.913C55.6016 304.913 55.6016 304.684 55.6016 304.114H55.8298C55.944 305.255 56.0582 307.539 56.8574 310.165C57.9991 313.932 59.8259 316.558 59.7117 316.672Z" fill="#E0E0E0"/>
<path d="M49.551 303.885C49.4369 303.999 48.7518 303.086 47.2676 302.515C45.7834 301.944 43.3858 301.83 40.874 302.058C38.3623 302.287 36.0789 302.743 34.4805 303.086C32.8821 303.543 31.8545 303.771 31.8545 303.771C31.8545 303.657 32.7679 303.2 34.3663 302.743C35.9647 302.287 38.2481 301.716 40.874 301.488C43.3858 301.259 45.8976 301.488 47.496 302.173C48.9802 302.858 49.551 303.885 49.551 303.885Z" fill="#E0E0E0"/>
<path d="M47.1529 300.803C47.1529 300.917 45.7829 300.232 43.6137 299.547C41.4444 298.747 38.3618 298.062 34.8225 297.72C31.2832 297.492 28.0863 297.72 25.8029 298.177C23.5195 298.633 22.1494 298.976 22.1494 298.862C22.1494 298.862 22.492 298.633 23.0628 298.519C23.6337 298.291 24.5471 298.062 25.6888 297.72C27.9722 297.149 31.169 296.807 34.8225 297.035C38.3618 297.263 41.5586 298.177 43.7278 299.09C44.8695 299.547 45.6687 299.889 46.2396 300.232C46.8104 300.574 47.1529 300.688 47.1529 300.803Z" fill="#E0E0E0"/>
<path d="M67.476 287.673C67.3618 287.673 66.2201 283.677 64.85 278.768C63.5942 273.744 62.6808 269.748 62.9091 269.634C63.0233 269.634 64.165 273.63 65.535 278.539C66.7909 283.563 67.7043 287.559 67.476 287.673Z" fill="#E0E0E0"/>
<path d="M67.7035 287.673C67.4751 287.787 66.7901 285.047 64.8492 282.307C63.0225 279.567 60.5107 278.083 60.6249 277.968C60.6249 277.854 61.3099 278.197 62.2233 278.768C63.1366 279.453 64.2784 280.48 65.3059 281.964C67.361 284.819 67.8177 287.673 67.7035 287.673Z" fill="#E0E0E0"/>
<path d="M67.59 405.383C67.4758 405.383 67.3616 404.356 66.9049 402.643C66.4482 400.931 65.5349 398.419 64.1648 395.565C61.3105 389.742 56.1728 382.435 49.5508 375.014C46.3541 371.246 43.1573 367.821 40.4171 364.396C37.7912 361.085 35.5078 357.888 33.9094 355.034C32.311 352.18 31.2835 349.782 30.5984 348.07C30.2559 347.156 30.0276 346.585 29.9134 346.129C29.7993 345.672 29.6851 345.444 29.7992 345.444C29.7992 345.444 30.1418 346.357 30.8268 348.07C31.5118 349.782 32.6535 352.066 34.2519 354.92C35.8503 357.66 38.1338 360.857 40.7597 364.168C43.4998 367.479 46.5824 371.018 49.8934 374.671C56.5153 382.093 61.653 389.514 64.3931 395.451C65.7632 398.419 66.5624 400.931 67.0191 402.643C67.2474 403.557 67.3616 404.242 67.3616 404.698C67.5899 405.155 67.59 405.383 67.59 405.383Z" fill="#E0E0E0"/>
<path d="M100.014 368.734C100.014 368.734 99.4436 369.077 98.3019 369.648C97.1602 370.219 95.676 371.246 93.8492 372.616C92.0225 373.986 90.0815 375.699 88.0265 377.868C85.9714 380.037 83.9163 382.549 81.747 385.175C77.5227 390.541 73.5267 395.336 71.1291 399.104C69.8732 400.931 69.0741 402.529 68.5032 403.671C67.9323 404.812 67.5898 405.383 67.5898 405.383C67.5898 405.383 67.5898 405.155 67.704 404.927C67.8182 404.584 68.0465 404.127 68.2748 403.557C68.8457 402.415 69.6449 400.816 70.7866 398.876C73.07 394.994 77.0661 390.199 81.2904 384.833C83.4596 382.207 85.5147 379.695 87.5698 377.526C89.6249 375.356 91.6799 373.644 93.5067 372.274C95.3334 370.904 96.9318 369.99 98.0735 369.534C98.6444 369.305 99.1011 369.077 99.4436 368.963C99.7861 368.734 100.014 368.734 100.014 368.734Z" fill="#E0E0E0"/>
<path d="M100.585 380.608C100.585 380.722 99.2145 380.837 97.0453 381.179C94.876 381.522 91.7934 381.864 88.4824 382.892C85.2856 383.919 82.5455 385.518 80.833 386.888C79.1204 388.258 78.207 389.399 78.207 389.285C78.207 389.285 78.3212 388.943 78.7779 388.486C79.1204 388.029 79.8054 387.344 80.6046 386.545C82.3172 385.061 85.0573 383.348 88.3682 382.321C91.6792 381.293 94.7619 380.951 97.0453 380.837C99.2145 380.608 100.585 380.608 100.585 380.608Z" fill="#E0E0E0"/>
<path d="M79.2345 387.915C79.0062 387.801 80.7188 385.289 81.9747 381.978C83.1164 378.667 83.4589 375.699 83.6872 375.699C83.8014 375.699 83.8014 376.498 83.5731 377.64C83.4589 378.781 83.1164 380.494 82.5455 382.207C81.9747 383.919 81.0613 385.403 80.4905 386.317C79.8054 387.458 79.3487 388.029 79.2345 387.915Z" fill="#E0E0E0"/>
<path d="M110.518 336.881C110.518 336.881 110.29 336.995 109.947 337.223C109.491 337.451 108.92 337.68 108.235 338.022C107.55 338.365 106.636 338.707 105.609 339.278C104.581 339.849 103.44 340.306 102.184 341.105C101.613 341.447 100.928 341.79 100.243 342.247C99.5578 342.589 98.8727 343.046 98.1877 343.503C96.7035 344.416 95.3334 345.443 93.735 346.585C90.7666 348.869 87.5698 351.609 84.4872 354.691C81.4045 357.888 78.8928 361.085 76.6093 364.282C75.5818 365.88 74.5542 367.364 73.755 368.849C73.2984 369.534 72.8417 370.219 72.4992 370.904C72.1567 371.589 71.8141 372.274 71.4716 372.845C70.7866 374.1 70.3299 375.356 69.7591 376.384C69.3024 377.411 68.8457 378.325 68.6173 379.124C68.2748 379.809 68.0465 380.38 67.9323 380.837C67.8182 381.179 67.704 381.407 67.5898 381.407C67.5898 381.407 67.5898 381.179 67.8181 380.837C67.9323 380.38 68.1606 379.809 68.389 379.124C68.6173 378.325 68.9599 377.411 69.4166 376.384C69.8732 375.356 70.33 374.1 71.015 372.845C71.3575 372.159 71.7 371.474 72.0425 370.789C72.385 370.104 72.8417 369.419 73.2984 368.62C74.0976 367.136 75.1251 365.652 76.1527 364.053C78.3219 360.857 80.9478 357.66 84.0305 354.463C87.1131 351.266 90.3099 348.526 93.3925 346.243C94.9909 345.101 96.4752 344.073 97.8452 343.16C98.5302 342.703 99.2153 342.247 99.9003 341.904C100.585 341.562 101.27 341.219 101.841 340.762C103.097 340.077 104.353 339.507 105.38 339.05C106.408 338.593 107.321 338.136 108.121 337.908C108.806 337.68 109.377 337.451 109.833 337.223C110.29 336.881 110.518 336.766 110.518 336.881Z" fill="#E0E0E0"/>
<path d="M84.8291 354.006C84.8291 354.006 85.0575 352.979 86.1992 351.951C87.3409 350.81 89.396 349.896 91.9077 349.782C94.3053 349.668 96.4746 350.353 97.8446 350.924C99.3289 351.495 100.128 351.951 100.128 352.066C100.128 352.18 99.2147 351.837 97.7304 351.381C96.2462 350.924 94.1912 350.353 91.9077 350.353C89.6243 350.467 87.5692 351.266 86.4275 352.294C85.2858 353.207 84.9433 354.121 84.8291 354.006Z" fill="#E0E0E0"/>
<path d="M80.9462 358.002C80.832 357.888 82.2021 355.833 82.5446 352.751C82.8871 349.668 81.9738 347.27 82.2021 347.27C82.3163 347.27 82.5446 347.841 82.8871 348.755C83.1155 349.782 83.3438 351.152 83.1155 352.751C82.8871 354.349 82.4305 355.719 81.8596 356.632C81.5171 357.546 81.0604 358.002 80.9462 358.002Z" fill="#E0E0E0"/>
<path d="M39.1611 411.32C40.0745 427.076 44.7555 442.946 52.0625 459.158H83.6879C90.6524 443.174 94.9908 427.19 95.79 411.32H39.1611Z" fill="#E0E0E0"/>
<path d="M90.6512 436.666C90.6512 436.781 80.2616 437.009 67.3603 437.009C54.4589 437.009 44.0693 436.895 44.0693 436.666C44.0693 436.552 54.4589 436.324 67.3603 436.324C80.2616 436.438 90.6512 436.552 90.6512 436.666Z" fill="#FAFAFA"/>
<path d="M89.9669 442.375C89.9669 442.489 80.1482 442.718 68.1603 442.718C56.0581 442.718 46.3535 442.603 46.3535 442.375C46.3535 442.261 56.1723 442.032 68.1603 442.032C80.2624 442.032 89.9669 442.261 89.9669 442.375Z" fill="#FAFAFA"/>
<path d="M52.5193 421.596C52.6334 421.596 52.8618 424.907 52.8618 428.903C52.8618 432.899 52.7476 436.21 52.5193 436.21C52.4051 436.21 52.1768 432.899 52.1768 428.903C52.2909 424.907 52.4051 421.596 52.5193 421.596Z" fill="#FAFAFA"/>
<path d="M69.53 421.596C69.6442 421.596 69.8726 425.021 69.8726 429.131C69.8726 433.355 69.7583 436.666 69.53 436.666C69.4158 436.666 69.1875 433.241 69.1875 429.131C69.1875 425.021 69.4158 421.596 69.53 421.596Z" fill="#FAFAFA"/>
<path d="M85.4001 421.482C85.5143 421.482 85.7426 424.907 85.7426 429.131C85.7426 433.355 85.6285 436.781 85.4001 436.781C85.2859 436.781 85.0576 433.355 85.0576 429.131C85.1718 424.907 85.2859 421.482 85.4001 421.482Z" fill="#FAFAFA"/>
<path d="M94.8766 421.596C94.8766 421.71 82.6603 421.938 67.5897 421.938C52.5191 421.938 40.3027 421.824 40.3027 421.596C40.3027 421.482 52.5191 421.253 67.5897 421.253C82.6603 421.253 94.8766 421.367 94.8766 421.596Z" fill="#FAFAFA"/>
<path opacity="0.3" d="M364.555 253.816L283.053 266.233L285.851 256.964L363.506 250.143L364.555 253.816Z" fill="black"/>
<path d="M348.639 340.39C353.187 374.32 364.205 407.201 362.806 441.306C362.456 449.526 361.407 458.446 355.635 464.043C351.263 468.065 345.316 469.465 339.545 470.514C265.913 484.506 189.482 483.631 116.2 467.541C106.406 465.442 95.5623 462.294 90.3154 453.374C86.8174 447.427 86.6425 439.907 86.4676 432.911C86.2927 415.946 86.1178 398.981 85.768 382.191C85.4182 354.557 85.0684 326.748 89.6158 299.639C94.1631 272.53 103.957 245.596 121.797 224.958C139.462 204.32 166.046 190.503 192.631 192.601C192.805 192.601 338.67 266.933 348.639 340.39Z" fill="#455A64"/>
<path d="M290.924 207.643C290.924 207.643 306.84 242.972 320.831 244.021C334.823 244.896 353.187 244.021 353.187 244.021L355.461 220.76C355.461 220.76 330.101 216.388 327.652 213.589C325.204 210.966 309.113 189.104 309.113 189.104L290.924 207.643Z" fill="#EB996E"/>
<path d="M325.028 481.357L324.153 465.792L294.771 467.191L295.645 489.927H297.394C305.614 489.927 338.845 489.753 344.092 487.829C350.213 485.905 325.028 481.357 325.028 481.357Z" fill="#E8505B"/>
<g opacity="0.5">
<g opacity="0.5">
<path opacity="0.5" d="M306.313 489.228C305.789 486.779 304.39 484.68 302.291 483.106C300.192 481.707 297.743 481.008 295.295 481.357L295.645 489.578L306.313 489.228Z" fill="white"/>
</g>
</g>
<g opacity="0.4">
<g opacity="0.4">
<path opacity="0.4" d="M337.269 483.981C337.269 483.981 346.189 486.08 345.14 487.479C344.09 488.878 310.51 490.452 295.644 489.927V489.228L334.821 487.829C334.821 487.829 335.52 484.156 337.269 483.981Z" fill="white"/>
</g>
</g>
<path d="M295.121 489.403C295.121 489.403 295.296 489.403 295.646 489.403C296.17 489.403 296.52 489.403 297.045 489.403C298.444 489.403 300.368 489.403 302.467 489.403C307.014 489.403 313.31 489.228 320.131 488.878C326.952 488.528 333.249 488.178 337.796 487.829C339.895 487.654 341.644 487.479 343.218 487.304C343.743 487.304 344.267 487.129 344.617 487.129C344.967 487.129 345.142 487.129 345.142 487.129C345.142 487.129 344.967 487.129 344.617 487.129C344.267 487.129 343.743 487.129 343.218 487.129C341.819 487.304 339.895 487.304 337.796 487.479C333.249 487.829 327.127 488.178 320.131 488.528C313.31 488.878 307.014 489.053 302.467 489.053C300.368 489.053 298.619 489.228 297.045 489.228C296.52 489.228 295.996 489.228 295.646 489.228C295.296 489.403 295.121 489.403 295.121 489.403Z" fill="#263238"/>
<path d="M334.821 488.353C334.996 488.353 334.996 487.129 335.696 485.73C336.395 484.331 337.445 483.631 337.445 483.631C337.445 483.631 336.22 484.156 335.346 485.555C334.646 486.954 334.821 488.353 334.821 488.353Z" fill="#263238"/>
<path d="M326.077 484.331C326.077 484.331 326.601 483.806 326.951 483.106C327.301 482.407 327.651 481.882 327.476 481.707C327.476 481.707 326.951 482.232 326.601 482.931C326.252 483.806 325.902 484.331 326.077 484.331Z" fill="#263238"/>
<path d="M323.628 483.281C323.628 483.281 324.152 483.106 324.677 482.582C325.202 482.057 325.551 481.707 325.377 481.532C325.377 481.532 324.852 481.707 324.327 482.232C323.802 482.756 323.453 483.106 323.628 483.281Z" fill="#263238"/>
<path d="M321.88 480.483C321.88 480.658 322.579 480.658 323.454 480.658C324.328 480.658 325.028 480.483 325.028 480.483C325.028 480.308 324.328 480.308 323.454 480.308C322.579 480.308 321.88 480.483 321.88 480.483Z" fill="#263238"/>
<path d="M321.354 478.734C321.354 478.909 322.054 479.084 323.103 479.084C324.153 479.084 324.852 478.909 324.852 478.734C324.852 478.559 323.978 478.734 323.103 478.734C322.054 478.734 321.354 478.559 321.354 478.734Z" fill="#263238"/>
<path d="M326.951 481.882C326.951 481.882 327.651 482.057 328.875 481.707C329.4 481.532 330.099 481.357 330.799 481.183C331.149 481.008 331.499 481.008 331.848 480.658C332.023 480.483 332.198 480.308 332.373 480.133C332.373 479.783 332.198 479.608 332.023 479.434C330.099 478.559 328.35 479.608 327.826 480.658C327.476 481.183 327.301 481.532 327.301 481.882C327.301 482.232 327.301 482.407 327.301 482.407C327.301 482.407 327.476 481.707 328.175 480.833C328.525 480.308 329.05 479.958 329.75 479.783C330.449 479.608 331.324 479.434 332.023 479.783C332.373 479.958 332.198 480.308 331.848 480.483C331.499 480.658 331.149 480.833 330.799 481.008C330.099 481.357 329.4 481.532 328.875 481.532C327.651 481.707 326.951 481.707 326.951 481.882Z" fill="#263238"/>
<path d="M327.303 481.882C327.303 481.882 327.653 481.357 327.478 480.658C327.478 480.308 327.303 479.783 326.953 479.259C326.603 478.909 326.078 478.384 325.379 478.384C325.029 478.384 324.679 478.909 324.854 479.259C324.854 479.608 325.029 479.783 325.204 480.133C325.554 480.658 325.904 481.007 326.078 481.182C326.778 481.707 327.128 481.882 327.303 481.882C327.128 481.882 326.778 481.532 326.253 481.007C325.904 480.658 325.729 480.308 325.379 479.958C325.029 479.608 324.854 478.909 325.379 478.734C325.904 478.734 326.428 479.084 326.603 479.433C326.953 479.783 327.128 480.308 327.128 480.658C327.478 481.357 327.303 481.882 327.303 481.882Z" fill="#263238"/>
<path d="M295.471 481.358C295.471 481.358 296.345 481.183 297.569 481.358C298.969 481.358 300.718 481.882 302.467 483.107C304.041 484.331 305.09 485.905 305.615 487.129C306.139 488.354 306.139 489.228 306.314 489.228C306.314 489.228 306.314 489.053 306.314 488.703C306.314 488.354 306.139 487.829 305.965 487.129C305.44 485.905 304.565 484.156 302.816 482.932C301.067 481.707 299.144 481.183 297.744 481.183C297.045 481.183 296.52 481.183 296.17 481.358C295.646 481.183 295.471 481.358 295.471 481.358Z" fill="#263238"/>
<path d="M297.917 469.115C297.742 469.115 297.742 471.738 297.917 475.061C298.092 478.384 298.267 481.008 298.267 481.008C298.442 481.008 298.442 478.384 298.267 475.061C298.267 471.738 298.092 469.115 297.917 469.115Z" fill="#263238"/>
<path d="M309.812 486.255C309.812 486.43 311.735 486.604 314.184 486.429C316.633 486.429 318.556 485.905 318.556 485.905C318.556 485.73 316.633 486.08 314.184 486.08C311.735 486.255 309.812 486.255 309.812 486.255Z" fill="#263238"/>
<path d="M304.04 486.604C304.04 486.604 304.215 486.954 304.39 487.479C304.565 487.829 304.74 488.353 304.915 488.353C305.089 488.353 305.089 487.829 304.74 487.479C304.565 486.779 304.215 486.429 304.04 486.604Z" fill="#263238"/>
<path d="M301.767 483.981C301.767 483.981 301.941 484.331 302.291 484.681C302.641 485.03 302.991 485.205 302.991 485.03C302.991 485.03 302.816 484.681 302.466 484.331C302.116 483.981 301.941 483.806 301.767 483.981Z" fill="#263238"/>
<path d="M298.618 482.932C298.618 483.106 298.968 482.932 299.493 483.106C300.017 483.281 300.192 483.456 300.367 483.456C300.367 483.456 300.192 482.932 299.668 482.757C299.143 482.582 298.618 482.757 298.618 482.932Z" fill="#263238"/>
<path d="M296.345 482.407C296.345 482.582 296.52 482.582 296.695 482.757C296.869 482.757 297.219 482.757 297.219 482.757C297.219 482.582 297.044 482.582 296.869 482.407C296.695 482.232 296.52 482.232 296.345 482.407Z" fill="#263238"/>
<path d="M389.915 393.209L382.045 379.742L356.335 394.084L367.528 414.022L369.102 413.147C376.448 409.649 406.006 394.433 409.854 390.411C414.401 385.863 389.915 393.209 389.915 393.209Z" fill="#E8505B"/>
<g opacity="0.5">
<g opacity="0.5">
<path opacity="0.5" d="M376.796 408.6C375.222 406.676 372.948 405.452 370.5 405.102C368.051 404.752 365.603 405.277 363.504 406.676L367.527 413.847L376.796 408.6Z" fill="white"/>
</g>
</g>
<g opacity="0.4">
<g opacity="0.4">
<path opacity="0.4" d="M401.983 389.886C401.983 389.886 410.903 387.787 410.553 389.536C410.378 391.285 380.996 407.726 367.529 413.847L367.179 413.322L401.459 394.433C401.634 394.433 400.584 390.761 401.983 389.886Z" fill="white"/>
</g>
</g>
<path d="M366.828 413.497C366.828 413.497 367.003 413.497 367.353 413.322C367.703 413.148 368.227 412.973 368.577 412.623C369.801 411.923 371.55 411.224 373.299 410.174C377.322 408.076 382.744 405.102 388.865 401.779C394.812 398.456 400.234 395.308 404.081 392.859C405.83 391.81 407.404 390.761 408.629 390.061C409.153 389.711 409.503 389.536 409.853 389.362C410.203 389.187 410.203 389.012 410.203 389.012C410.203 389.012 410.028 389.012 409.678 389.187C409.328 389.361 408.804 389.711 408.454 389.886C407.229 390.586 405.655 391.46 403.906 392.51C400.059 394.783 394.637 397.932 388.515 401.255C382.569 404.578 376.972 407.551 372.95 409.65C371.026 410.699 369.452 411.399 368.227 412.098C367.703 412.273 367.353 412.623 367.003 412.798C367.003 413.497 366.828 413.497 366.828 413.497Z" fill="#263238"/>
<path d="M401.808 394.958C401.983 394.958 401.283 393.734 401.458 392.335C401.458 390.76 402.158 389.711 401.983 389.711C401.983 389.711 401.108 390.76 401.108 392.335C401.108 393.734 401.808 394.958 401.808 394.958Z" fill="#263238"/>
<path d="M392.19 395.308C392.364 395.308 392.364 394.608 392.364 393.909C392.364 393.034 392.364 392.51 392.19 392.51C392.015 392.51 392.015 393.209 392.015 393.909C392.015 394.608 392.015 395.308 392.19 395.308Z" fill="#263238"/>
<path d="M389.391 395.483C389.566 395.483 389.74 394.958 389.915 394.433C390.09 393.734 390.265 393.209 390.09 393.209C389.915 393.209 389.74 393.734 389.566 394.259C389.391 394.783 389.391 395.308 389.391 395.483Z" fill="#263238"/>
<path d="M386.768 393.734C386.768 393.734 387.467 393.559 388.167 393.209C388.866 392.859 389.391 392.335 389.391 392.335C389.391 392.335 388.691 392.51 387.992 392.859C387.292 393.209 386.768 393.734 386.768 393.734Z" fill="#263238"/>
<path d="M385.367 392.335C385.367 392.51 386.242 392.335 387.116 391.985C387.991 391.635 388.69 390.936 388.515 390.936C388.515 390.936 387.816 391.285 386.941 391.635C386.067 391.985 385.367 392.16 385.367 392.335Z" fill="#263238"/>
<path d="M391.664 392.684C391.664 392.684 392.363 392.51 393.238 391.81C393.762 391.46 394.287 390.935 394.812 390.411C394.987 390.061 395.337 389.886 395.511 389.361C395.686 389.186 395.686 388.837 395.686 388.662C395.686 388.312 395.337 388.137 394.987 388.137C392.888 388.137 391.839 390.061 391.664 391.11C391.489 391.635 391.664 392.16 391.664 392.51C391.839 392.859 391.839 393.034 391.839 393.034C391.839 393.034 391.664 392.335 391.839 391.285C392.013 390.761 392.188 390.061 392.713 389.536C393.238 389.012 393.937 388.487 394.812 388.487C395.162 388.487 395.337 388.837 394.987 389.186C394.812 389.536 394.462 389.886 394.287 390.061C393.762 390.586 393.238 391.11 392.888 391.46C392.363 392.16 391.664 392.51 391.664 392.684Z" fill="#263238"/>
<path d="M392.188 392.509C392.188 392.509 392.188 391.985 391.663 391.285C391.488 390.935 390.964 390.586 390.614 390.411C390.089 390.236 389.39 389.886 388.69 390.411C388.34 390.76 388.34 391.285 388.69 391.46C388.865 391.81 389.215 391.985 389.39 391.985C389.914 392.335 390.264 392.509 390.789 392.509C391.488 392.509 392.013 392.509 392.188 392.509C392.013 392.509 391.488 392.509 390.789 392.16C390.439 391.985 389.914 391.81 389.565 391.635C389.215 391.46 388.69 390.935 389.04 390.586C389.39 390.236 390.089 390.411 390.439 390.586C390.964 390.76 391.314 391.11 391.488 391.46C392.013 391.985 392.188 392.509 392.188 392.509Z" fill="#263238"/>
<path d="M363.504 406.327C363.504 406.327 364.204 405.802 365.428 405.277C366.652 404.752 368.576 404.403 370.5 404.578C372.599 404.927 374.173 405.802 375.222 406.676C376.271 407.551 376.621 408.25 376.796 408.25C376.796 408.25 376.796 408.076 376.446 407.726C376.271 407.376 375.922 407.026 375.397 406.501C374.348 405.627 372.773 404.578 370.675 404.228C368.576 403.878 366.652 404.403 365.428 404.927C364.728 405.277 364.378 405.452 364.029 405.802C363.679 406.152 363.504 406.327 363.504 406.327Z" fill="#263238"/>
<path d="M360.183 394.259C360.183 394.259 361.407 396.707 362.981 399.68C364.555 402.654 365.954 404.927 366.129 404.927C366.129 404.927 364.905 402.479 363.331 399.505C361.582 396.532 360.183 394.259 360.183 394.259Z" fill="#263238"/>
<path d="M378.547 404.228C378.547 404.228 380.471 403.703 382.57 402.479C384.668 401.254 386.242 400.205 386.067 400.03C386.067 400.03 384.318 400.905 382.395 402.129C380.296 403.353 378.547 404.053 378.547 404.228Z" fill="#263238"/>
<path d="M373.649 407.026C373.649 407.201 373.999 407.376 374.349 407.551C374.699 407.9 375.049 408.075 375.049 408.075C375.049 408.075 374.874 407.551 374.524 407.201C373.999 407.026 373.649 407.026 373.649 407.026Z" fill="#263238"/>
<path d="M370.327 405.802C370.327 405.977 370.677 406.152 371.027 406.152C371.377 406.327 371.726 406.327 371.901 406.152C371.901 405.977 371.551 405.802 371.202 405.802C370.677 405.627 370.327 405.627 370.327 405.802Z" fill="#263238"/>
<path d="M367.002 406.152C367.002 406.152 367.352 405.977 367.876 405.977C368.401 405.802 368.751 405.977 368.751 405.802C368.751 405.802 368.401 405.452 367.876 405.627C367.177 405.802 367.002 406.152 367.002 406.152Z" fill="#263238"/>
<path d="M364.729 406.851C364.729 407.026 364.903 407.026 365.253 407.026C365.428 407.026 365.778 406.851 365.778 406.851C365.778 406.676 365.603 406.676 365.253 406.676C365.078 406.676 364.729 406.676 364.729 406.851Z" fill="#263238"/>
<path d="M246.324 62.1277C236.705 59.3293 225.511 64.0515 220.789 72.6215C217.466 78.7429 217.116 86.0886 213.618 92.0352C211.17 96.2327 207.322 99.5558 204.349 103.404C201.201 107.251 198.927 112.148 199.976 116.871C201.026 121.418 205.223 125.091 204.874 129.638C204.524 134.011 200.151 136.984 199.452 141.356C198.752 146.428 203.999 150.626 209.071 151.151C214.143 151.5 219.04 149.227 223.762 147.128C228.31 144.854 233.382 142.756 238.454 143.28C244.4 143.98 249.123 148.177 254.544 150.801C265.563 156.223 279.905 154.299 289.174 146.253C292.847 143.105 295.82 138.208 294.596 133.661C293.372 129.288 288.999 126.665 287.425 122.467C285.152 116.171 290.049 109.35 288.65 102.704C286.901 93.959 275.532 90.636 270.985 82.9405C268.711 79.2676 268.187 74.7203 266.263 70.8725C264.339 67.0248 259.617 63.8766 255.769 65.8005" fill="#263238"/>
<path d="M256.121 142.581C255.247 139.433 255.422 126.14 255.422 126.14C255.422 126.14 267.14 123.867 266.79 111.624C266.44 99.5559 263.117 71.922 263.117 71.922L240.38 63.1771L222.891 86.0887L226.738 144.505L256.121 142.581Z" fill="#FFBE9D"/>
<path d="M263.99 92.2102C263.99 93.0847 263.465 93.7843 262.591 93.9592C261.716 93.9592 261.017 93.4345 261.017 92.56C261.017 91.6855 261.541 90.9859 262.416 90.811C263.115 90.811 263.815 91.5106 263.99 92.2102Z" fill="#263238"/>
<path d="M263.99 90.6362C263.815 90.8111 262.59 89.9366 261.016 90.1115C259.442 90.1115 258.218 91.1609 258.043 90.8111C257.868 90.6362 258.043 90.2864 258.568 89.9366C259.093 89.5868 259.967 89.0621 261.016 89.0621C262.066 89.0621 262.94 89.4119 263.465 89.7617C263.815 90.1115 263.99 90.4613 263.99 90.6362Z" fill="#263238"/>
<path d="M245.975 93.7844C245.975 94.6589 245.451 95.3585 244.576 95.5334C243.702 95.5334 243.002 95.0087 243.002 94.1342C243.002 93.2597 243.527 92.5602 244.401 92.3853C245.101 92.3853 245.8 92.9099 245.975 93.7844Z" fill="#263238"/>
<path d="M245.798 92.2103C245.623 92.3852 244.399 91.5107 242.825 91.6856C241.251 91.6856 240.027 92.735 239.852 92.3852C239.677 92.2103 239.852 91.8605 240.376 91.5107C240.901 91.1609 241.776 90.6362 242.825 90.6362C243.874 90.6362 244.749 90.986 245.274 91.3358C245.798 91.6856 245.973 92.2103 245.798 92.2103Z" fill="#263238"/>
<path d="M252.968 105.677C252.968 105.503 254.018 105.328 255.592 105.153C255.941 105.153 256.466 104.978 256.466 104.628C256.466 104.278 256.291 103.754 256.116 103.404C255.592 102.354 255.242 101.305 254.717 100.081C252.793 95.3585 251.219 91.5107 251.394 91.3358C251.569 91.3358 253.318 95.0087 255.242 99.7309C255.767 100.955 256.116 102.005 256.641 103.054C256.816 103.579 257.166 104.103 256.991 104.803C256.816 105.153 256.641 105.328 256.291 105.503C255.941 105.677 255.767 105.677 255.592 105.677C254.018 105.677 252.968 105.852 252.968 105.677Z" fill="#263238"/>
<path d="M254.548 126.14C254.548 126.14 246.677 127.015 238.457 122.118C238.457 122.118 242.829 130.688 254.548 129.114V126.14Z" fill="#EB996E"/>
<path d="M252.799 110.05C252.624 109 251.75 108.126 250.7 107.951C250.001 107.776 249.301 107.776 248.602 108.126C247.902 108.476 247.552 109.35 247.727 110.05C247.902 110.924 248.777 111.449 249.476 111.449C250.351 111.624 251.05 111.274 251.925 111.099C252.1 111.099 252.449 110.924 252.624 110.749C252.799 110.574 252.799 110.225 252.799 110.05Z" fill="#EB996E"/>
<path d="M248.424 106.027C248.249 106.027 248.074 106.552 248.249 107.252C248.424 107.951 248.774 109 249.823 109.875C250.873 110.575 251.922 110.924 252.797 110.924C253.671 110.924 254.021 110.575 254.021 110.575C254.021 110.4 252.097 110.575 250.523 109.35C248.774 107.776 248.599 105.852 248.424 106.027Z" fill="#263238"/>
<path d="M263.989 70.5228C263.814 77.5187 257.518 83.9899 250.522 84.1648C251.396 81.7163 252.446 79.2677 253.32 76.8191C250.697 80.492 247.898 84.1648 244.051 86.4385C240.203 88.7122 234.956 89.4118 231.283 86.7883C230.409 89.7616 230.583 93.0846 229.884 96.0579C229.009 99.0311 227.61 111.624 224.462 111.274C221.489 111.099 218.516 98.8562 217.641 96.0579C215.018 88.5373 216.941 79.7924 221.664 73.3212C227.26 65.6257 236.705 60.9034 246.324 60.9034C250.522 60.9034 254.894 61.7779 258.392 64.2265C261.54 66.3253 263.814 69.4734 264.863 72.9714" fill="#263238"/>
<path d="M284.277 123.692C284.277 123.692 284.627 123.692 285.152 123.517C285.677 123.342 286.376 122.992 287.251 122.467C289 121.418 291.448 119.319 293.197 115.821C294.946 112.498 295.646 107.426 293.372 102.879C292.323 100.605 290.574 98.5063 288.475 96.7573C286.376 95.0084 283.578 93.959 280.605 93.4343C279.205 93.2594 277.806 92.9096 276.932 92.0351C276.057 91.1606 275.533 89.9363 275.358 88.7121C275.008 86.2635 275.707 83.64 275.882 81.1914C276.057 78.568 275.183 76.1194 273.958 74.3704C272.734 72.4466 270.81 71.2223 269.061 70.5227C267.312 69.8231 265.738 69.2984 264.339 68.7737C262.94 68.249 261.716 67.8992 260.841 67.3745C259.092 66.3251 258.393 65.2758 258.393 65.2758C258.393 65.2758 258.567 65.6256 258.917 65.9753C259.267 66.3251 259.792 67.0247 260.666 67.5494C261.541 68.0741 262.765 68.7737 264.164 69.2984C265.563 69.8231 267.137 70.3478 268.886 71.0474C270.635 71.747 272.209 72.9713 273.434 74.8951C274.658 76.6441 275.358 78.9178 275.183 81.1914C275.008 83.64 274.133 86.0886 274.658 88.8869C274.833 90.2861 275.358 91.6853 276.582 92.7347C277.631 93.7841 279.38 94.1339 280.779 94.3088C286.376 95.0084 290.924 98.8561 292.847 103.054C294.946 107.426 294.422 112.148 292.847 115.296C291.273 118.62 289 120.718 287.251 121.943C285.327 123.167 284.277 123.517 284.277 123.692Z" fill="#263238"/>
<path d="M206.449 145.204C206.449 145.204 205.399 144.679 203.475 143.455C201.726 142.231 198.753 140.482 197.004 136.984C196.13 135.235 195.78 133.136 196.304 130.863C196.479 129.813 197.004 128.764 197.879 127.889C198.578 127.015 199.802 126.315 200.852 125.616C203.125 124.216 204.874 121.418 204.7 118.27C204.525 115.122 202.426 112.673 201.551 109.875C200.677 107.076 201.202 104.103 202.251 101.655C203.3 99.0311 205.049 96.9324 206.973 95.1834C210.646 91.5105 214.669 88.8871 217.467 85.7389C220.265 82.7656 221.665 79.6175 222.014 77.5187C222.189 76.4693 222.189 75.5948 222.189 74.8952C222.189 74.3705 222.189 74.0208 222.014 74.0208C221.84 74.0208 222.014 75.245 221.49 77.3438C220.965 79.4426 219.566 82.4158 216.767 85.2142C214.144 88.1875 210.121 90.8109 206.274 94.4838C204.35 96.2328 202.426 98.5064 201.376 101.305C200.152 103.928 199.627 107.251 200.677 110.225C201.726 113.198 203.825 115.472 203.825 118.27C204 121.068 202.426 123.517 200.327 124.916C199.278 125.616 198.053 126.315 197.179 127.365C196.304 128.414 195.78 129.638 195.605 130.688C195.08 133.136 195.605 135.41 196.479 137.159C197.354 138.908 198.753 140.307 199.977 141.356C201.202 142.406 202.426 143.105 203.3 143.63C204.35 144.155 205.049 144.505 205.574 144.854C206.099 145.204 206.449 145.204 206.449 145.204Z" fill="#263238"/>
<path d="M265.564 85.0392C263.815 83.815 262.591 81.8911 261.716 79.9672C261.017 77.8684 260.667 75.7697 260.492 73.6709C260.492 72.9713 260.492 72.2717 261.017 72.0968C261.542 71.9219 262.066 72.4466 262.416 72.9713C264.865 76.819 265.914 81.3664 265.564 85.9137C265.389 85.7388 265.214 85.7388 265.214 85.5639" fill="#263238"/>
<path d="M223.588 69.6482C227.086 66.5001 227.261 60.3786 224.113 56.8807C220.965 53.3827 215.193 52.6831 211.17 55.3066C209.247 56.5309 207.673 58.4548 207.148 60.5535C206.623 62.8272 207.148 65.4507 208.547 67.3746C209.771 69.4733 211.695 71.0474 213.794 72.2717C216.592 73.8458 219.74 74.8952 222.889 74.3705C226.037 73.8458 228.835 71.3972 229.36 68.249" fill="#263238"/>
<path d="M181.263 203.97L185.285 172.488C188.084 146.778 223.763 142.406 223.763 142.406L251.921 139.782C251.921 139.782 273.084 135.06 286.551 148.877C289 151.326 312.086 188.229 312.086 188.229L290.749 214.988L277.107 189.453C277.107 189.453 281.479 195.575 282.179 203.27C282.878 211.49 274.308 216.038 274.308 216.038L273.434 241.398L285.327 281.45L192.981 284.598C193.68 269.731 197.528 256.789 203.65 245.246L198.752 202.92L181.263 203.97Z" fill="#E8505B"/>
<path d="M297.046 167.941C297.046 167.941 296.871 168.291 296.521 168.99C296.171 169.69 295.297 170.739 294.247 171.614C291.799 173.538 287.426 175.287 281.83 174.762C279.031 174.412 276.058 173.538 273.085 172.488C270.111 171.439 266.963 170.04 263.465 168.815C256.644 166.717 248.424 166.017 240.379 167.941C232.333 169.69 225.512 174.412 218.691 176.686C215.194 177.91 211.696 178.61 208.547 178.61C205.224 178.435 202.251 177.735 199.803 176.686C194.73 174.412 191.407 171.089 189.658 168.465C187.909 165.842 187.385 164.268 187.385 164.268C187.56 164.268 188.084 165.842 190.008 168.291C191.757 170.739 195.08 173.887 199.977 175.986C202.426 177.035 205.399 177.735 208.547 177.735C211.696 177.735 215.019 177.035 218.517 175.811C225.338 173.363 231.984 168.815 240.379 166.891C248.599 164.968 256.994 165.492 263.815 167.766C267.313 168.815 270.461 170.389 273.434 171.439C276.408 172.663 279.381 173.538 282.004 173.712C287.426 174.412 291.799 172.663 294.247 170.914C296.346 169.69 297.046 167.941 297.046 167.941Z" fill="#FAFAFA"/>
<path d="M280.957 206.069C280.957 206.069 280.782 206.243 280.432 206.593C280.082 206.768 279.557 207.293 278.683 207.643C277.109 208.517 274.835 209.741 271.862 210.791C265.915 212.89 256.646 214.289 247.026 211.316C242.304 209.916 238.107 207.818 234.259 206.243C230.411 204.669 226.738 203.97 223.59 203.795C220.442 203.795 217.993 204.32 216.244 205.019C214.67 205.719 213.796 206.243 213.796 206.243C213.796 206.243 213.971 206.069 214.321 205.719C214.67 205.369 215.37 205.019 216.07 204.669C217.644 203.795 220.267 203.095 223.415 203.095C226.738 203.095 230.411 203.795 234.434 205.369C238.456 206.768 242.654 208.867 247.201 210.266C256.471 213.065 265.566 212.015 271.512 210.091C277.634 208.167 280.782 205.894 280.957 206.069Z" fill="#FAFAFA"/>
<path d="M218.343 166.367C218.343 166.367 218.168 167.067 217.993 168.466C217.818 170.04 217.643 171.789 217.293 174.063C216.769 178.96 215.894 185.256 215.195 192.252C214.32 199.423 213.62 205.894 213.271 210.441C213.096 212.715 212.921 214.639 212.921 216.038C212.921 217.437 212.921 218.137 212.921 218.137C212.921 218.137 213.096 217.437 213.271 216.038C213.446 214.464 213.62 212.715 213.97 210.441C214.495 205.544 215.369 199.248 216.069 192.252C216.944 185.081 217.643 178.61 217.993 174.063C218.168 171.789 218.343 169.865 218.343 168.466C218.343 167.067 218.343 166.367 218.343 166.367Z" fill="#263238"/>
<path d="M180.739 202.396C180.739 202.57 188.435 202.221 197.879 201.696C207.324 200.996 214.844 200.297 214.844 200.122C214.844 199.947 207.149 200.297 197.704 200.822C188.26 201.521 180.739 202.221 180.739 202.396Z" fill="#263238"/>
<path d="M281.131 197.498C281.306 197.498 280.607 195.924 279.732 193.301C279.208 192.077 278.683 190.503 277.983 188.928C277.634 188.054 277.284 187.179 276.759 186.305C276.584 185.78 276.234 185.43 276.059 185.081C275.885 184.731 275.885 184.206 275.71 183.681C275.71 182.807 275.885 181.758 275.885 180.708C276.059 179.834 276.059 178.784 276.234 177.91C276.409 176.161 276.584 174.587 276.759 173.188C276.934 170.564 277.109 168.815 276.934 168.815C276.759 168.815 276.409 170.389 276.059 173.013C275.885 174.412 275.71 175.986 275.36 177.735C275.185 178.609 275.185 179.484 275.01 180.533C274.835 181.408 274.66 182.457 274.835 183.507C274.835 184.031 275.01 184.556 275.185 185.081C275.36 185.605 275.71 185.955 275.885 186.48C276.409 187.354 276.759 188.229 277.109 188.928C277.808 190.503 278.508 191.902 279.033 193.126C280.082 196.099 280.957 197.498 281.131 197.498Z" fill="#263238"/>
<g opacity="0.3">
<path opacity="0.3" d="M217.818 174.762C217.993 192.077 218.518 208.167 219.392 225.482C216.769 225.307 214.32 224.957 212.746 223.908C211.172 216.737 215.195 193.651 217.818 174.762Z" fill="black"/>
</g>
<path d="M179.338 230.729C180.037 215.688 181.612 202.745 181.612 202.745L214.142 200.297C214.142 200.297 211.519 219.536 212.743 223.733C213.793 227.581 277.281 225.482 293.721 224.433C294.595 223.558 296.17 224.783 297.394 223.558C298.443 222.509 299.318 221.285 300.017 219.885C300.717 218.311 301.766 216.038 301.941 214.638C302.116 212.89 304.215 212.365 305.089 213.764C305.789 215.163 305.439 219.885 302.641 224.608C299.842 229.33 307.888 226.357 310.861 225.307C313.834 224.258 323.104 221.634 324.153 222.334C325.727 223.383 324.853 225.132 321.879 226.007C318.906 226.881 310.161 230.379 310.861 231.953C311.386 233.527 326.427 228.106 326.427 228.106C326.427 228.106 329.4 226.357 330.275 228.281C331.674 231.429 315.408 235.976 313.834 236.326C312.785 236.676 313.309 238.25 314.534 237.9C315.758 237.55 329.225 232.128 330.799 235.451C331.849 237.9 317.507 239.299 315.233 241.923C312.96 244.546 326.077 239.824 326.952 242.097C327.301 242.972 321.705 243.846 313.834 245.595C306.488 247.169 292.497 248.044 289.174 248.219C270.809 250.493 205.398 256.614 191.406 256.789C174.441 257.314 178.988 235.801 179.338 230.729Z" fill="#FFBE9D"/>
<path d="M234.43 82.4158C232.156 85.7388 229.708 89.7615 230.582 93.6092C231.282 97.1072 234.43 100.08 234.08 103.578C233.905 107.601 229.183 110.749 229.358 114.772C229.358 118.095 232.506 120.543 234.78 123.167C238.103 126.84 239.852 131.737 239.502 136.634C239.152 141.531 236.529 146.253 232.331 148.877C228.134 151.5 222.537 152.025 218.165 149.751C214.142 147.653 211.344 143.63 209.595 139.432C207.321 134.011 206.272 127.539 209.245 122.292C210.469 120.194 212.393 118.445 212.568 115.996C212.918 113.023 210.644 110.399 209.944 107.426C209.245 103.403 211.693 99.5557 214.667 96.7574C217.64 93.959 221.138 91.5105 223.237 88.0125" fill="#263238"/>
<path d="M192.281 280.4C192.281 280.4 310.862 246.645 322.93 251.192C334.997 255.739 398.31 383.59 398.31 383.59L356.335 405.277L301.592 296.84C301.592 296.84 219.39 333.569 204.524 331.47C189.832 329.371 192.281 280.4 192.281 280.4Z" fill="#263238"/>
<path d="M246.674 283.373C248.598 283.898 320.306 307.159 325.902 315.904C331.499 324.649 330.45 476.985 330.45 476.985L290.748 479.783L283.402 344.937L204.698 331.12L246.674 283.373Z" fill="#263238"/>
<path d="M204.351 331.645C204.351 331.645 204.7 331.645 205.4 331.47C206.274 331.295 207.324 330.945 208.548 330.596C211.346 329.896 215.369 328.847 220.266 327.447C230.061 324.649 243.703 320.452 258.394 315.03C265.74 312.406 272.736 309.608 278.857 306.984C285.153 304.361 290.575 301.738 295.122 299.464C297.396 298.414 299.495 297.19 301.244 296.316C302.993 295.441 304.567 294.567 305.791 293.692C307.016 292.993 307.89 292.468 308.59 291.943C309.289 291.593 309.639 291.419 309.464 291.244C309.464 291.244 309.114 291.419 308.415 291.768C307.715 292.118 306.666 292.643 305.441 293.342C304.217 294.042 302.643 294.917 300.894 295.791C299.145 296.665 297.046 297.715 294.773 298.764C290.225 301.038 284.629 303.486 278.332 306.11C272.036 308.733 265.215 311.357 257.869 314.155C243.178 319.577 229.711 323.775 219.916 326.748C215.019 328.147 211.172 329.371 208.373 330.246C207.149 330.596 206.1 330.945 205.225 331.295C204.7 331.47 204.351 331.645 204.351 331.645Z" fill="#455A64"/>
<path d="M328.177 350.709C328.177 350.709 328.352 349.834 328.352 348.435C328.352 346.861 328.527 344.762 328.527 342.139C328.527 339.516 328.702 336.367 328.702 332.869C328.702 329.371 328.877 325.524 327.828 321.501C326.778 317.478 324.155 314.155 321.356 312.057C318.558 309.783 315.585 308.559 313.136 307.509C310.688 306.635 308.589 305.935 307.015 305.585C305.616 305.236 304.741 305.061 304.741 305.061C304.741 305.236 307.889 306.11 312.786 308.034C315.235 309.083 318.033 310.308 320.832 312.581C323.455 314.68 326.079 317.828 326.953 321.676C328.003 325.524 327.828 329.371 327.828 332.869C327.828 336.367 327.828 339.516 327.828 342.139C327.828 344.588 327.828 346.686 327.828 348.435C328.177 350.009 328.177 350.709 328.177 350.709Z" fill="#455A64"/>
<path d="M292.673 340.215C292.498 340.04 290.399 340.915 287.951 342.139C285.502 343.538 283.578 344.762 283.578 344.937C283.753 345.112 285.852 344.238 288.3 343.013C290.924 341.789 292.848 340.565 292.673 340.215Z" fill="#455A64"/>
<path d="M289.002 336.367C288.827 336.367 287.777 338.466 286.203 341.09C284.629 343.538 282.88 345.287 283.055 345.637C283.23 345.812 285.329 344.238 286.903 341.614C288.652 338.991 289.177 336.542 289.002 336.367Z" fill="#455A64"/>
<path d="M274.135 343.713C274.135 343.713 274.31 344.063 274.834 344.238C275.359 344.587 276.234 344.587 277.108 344.587C278.157 344.587 279.207 344.413 280.431 344.413C281.655 344.413 282.53 345.287 282.53 346.686C283.055 352.458 283.579 357.18 283.754 357.18C283.929 357.18 283.929 352.458 283.404 346.686C283.229 345.987 283.055 345.112 282.53 344.587C282.005 344.063 281.131 343.713 280.431 343.713C279.032 343.713 277.982 343.888 276.933 344.063C275.184 344.413 274.31 343.538 274.135 343.713Z" fill="#263238"/>
<path d="M392.364 178.61L365.43 257.314H243.701L244.576 253.291L293.897 251.717L316.459 178.61H392.364Z" fill="#263238"/>
<path d="M153.103 207.643C172.867 209.042 190.182 223.208 199.801 240.523C209.42 258.013 212.219 278.301 212.743 298.065C232.157 296.141 252.095 304.186 265.038 318.703C277.805 333.394 282.877 354.382 278.505 373.271L122.146 350.709L153.103 207.643Z" fill="#455A64"/>
<path d="M344.092 368.199C344.092 368.199 344.092 368.549 343.742 369.248C343.567 369.948 343.217 370.997 342.693 372.396C341.643 375.02 339.37 378.693 335.522 382.54C331.674 386.388 325.903 390.236 318.557 392.859C311.211 395.483 302.291 396.532 292.672 396.707C282.878 396.882 272.384 396.532 260.841 396.532C249.472 396.357 237.229 396.357 224.287 396.182C211.519 396.007 197.877 396.182 183.886 395.133C169.894 394.084 155.377 391.985 141.56 386.388C127.743 380.966 115.326 372.221 106.931 360.853C98.5355 349.485 94.5129 336.018 93.2886 323.075C92.2392 310.133 93.8133 297.89 96.9615 286.871C97.3113 285.472 97.8359 284.073 98.1857 282.849C98.7104 281.449 99.2351 280.225 99.5849 279.001C100.459 276.377 101.684 273.929 102.558 271.48C104.482 266.583 106.406 261.861 108.33 257.314C112.178 248.394 116.025 240.349 119.873 233.702C123.896 227.056 127.743 221.634 131.416 217.612C134.914 213.589 138.062 210.616 140.161 208.692C141.211 207.818 142.085 207.118 142.61 206.593C143.134 206.069 143.484 205.894 143.484 205.894C143.484 205.894 143.309 206.243 142.61 206.593C142.085 207.118 141.211 207.818 140.161 208.867C138.062 210.791 135.089 213.764 131.591 217.962C128.093 222.159 124.245 227.581 120.223 234.227C116.375 240.873 112.527 248.919 108.854 257.838C106.931 262.386 105.007 267.108 103.083 272.005C102.033 274.454 100.984 276.902 100.11 279.526C99.5849 280.75 99.2351 282.149 98.7104 283.373C98.3606 284.773 97.8359 285.997 97.4861 287.396C94.338 298.24 92.7639 310.657 93.8133 323.425C95.0376 336.192 99.0602 349.485 107.28 360.678C115.501 371.872 127.743 380.442 141.385 385.863C155.202 391.285 169.544 393.559 183.536 394.608C197.528 395.658 210.995 395.483 223.762 395.658C236.53 395.833 248.773 396.008 260.316 396.008C271.684 396.182 282.353 396.357 292.147 396.357C301.767 396.182 310.686 395.133 317.857 392.51C325.203 390.061 330.8 386.213 334.647 382.54C338.495 378.693 340.769 375.02 341.993 372.571C342.518 371.347 343.043 370.298 343.217 369.598C343.917 368.549 344.092 368.199 344.092 368.199Z" fill="#263238"/>
<path d="M217.818 411.923C217.468 411.923 217.643 408.25 217.118 403.878C216.593 399.505 215.719 396.007 215.894 395.833C216.069 395.833 217.468 399.156 217.993 403.703C218.517 408.25 217.993 411.923 217.818 411.923Z" fill="#263238"/>
<path d="M224.111 409.3C223.936 409.3 224.461 406.152 224.636 402.304C224.811 398.456 224.286 395.483 224.461 395.308C224.636 395.308 225.685 398.281 225.511 402.304C225.336 406.327 224.286 409.3 224.111 409.3Z" fill="#263238"/>
<path d="M153.453 373.096C153.628 373.271 150.655 375.719 148.731 379.917C146.807 384.114 146.807 387.962 146.632 387.962C146.457 387.962 145.933 383.94 147.857 379.567C149.955 375.02 153.453 372.921 153.453 373.096Z" fill="#263238"/>
<path d="M145.931 371.872C146.106 372.046 142.783 373.446 140.335 376.944C137.886 380.442 138.061 383.939 137.711 383.939C137.536 383.939 137.361 383.065 137.536 381.666C137.711 380.267 138.236 378.343 139.46 376.419C140.684 374.67 142.259 373.271 143.483 372.571C145.057 371.872 145.931 371.697 145.931 371.872Z" fill="#263238"/>
<path d="M223.237 298.939C223.237 299.114 220.614 298.589 216.241 298.589C214.143 298.589 211.519 298.589 208.721 298.939C205.923 299.289 202.774 299.989 199.626 300.863C196.478 301.912 193.505 302.962 191.056 304.361C188.433 305.585 186.334 306.984 184.585 308.209C181.087 310.657 179.163 312.581 178.988 312.406C178.988 312.406 179.338 311.882 180.213 311.007C181.087 310.133 182.486 308.908 184.235 307.684C185.984 306.285 188.258 304.886 190.706 303.661C193.33 302.262 196.303 301.038 199.451 300.163C202.599 299.289 205.748 298.589 208.721 298.24C211.694 297.89 214.318 297.89 216.416 298.065C218.69 298.24 220.439 298.414 221.488 298.589C222.538 298.764 223.237 298.764 223.237 298.939Z" fill="#263238"/>
<path d="M150.793 437.628C150.793 437.628 152.734 423.585 154.332 412.625C155.931 401.664 158.442 396.298 152.962 384.653C147.482 373.007 149.195 364.787 145.655 360.106C142.23 355.425 140.974 350.744 126.589 350.858C112.203 350.972 112.203 351.429 112.203 351.429C112.203 351.429 128.872 363.074 134.467 373.806C139.947 384.539 138.462 382.598 141.431 388.535C144.399 394.357 146.226 412.967 146.226 412.967L148.053 437.514L150.793 437.628Z" fill="#FF725E"/>
<path d="M75.7822 357.48C75.7822 357.48 75.8964 349.031 86.8568 343.779C97.8173 338.527 103.983 339.898 111.632 341.382C119.396 342.866 128.986 346.634 130.356 348.118C131.726 349.488 138.919 353.141 138.919 353.141C138.919 353.141 117.226 351.771 112.203 351.771C107.179 351.771 101.927 351.543 94.8488 351.086C87.7702 350.63 90.6245 355.082 83.2034 356.338C75.7822 357.48 75.7822 357.48 75.7822 357.48Z" fill="#FF725E"/>
<g opacity="0.3">
<g opacity="0.3">
<path opacity="0.3" d="M150.793 437.628C150.793 437.628 152.734 423.585 154.332 412.625C155.931 401.664 158.442 396.298 152.962 384.653C147.482 373.007 149.195 364.787 145.655 360.106C142.23 355.425 140.974 350.744 126.589 350.858C112.203 350.972 112.203 351.429 112.203 351.429C112.203 351.429 128.872 363.074 134.467 373.806C139.947 384.539 138.462 382.598 141.431 388.535C144.399 394.357 146.226 412.967 146.226 412.967L148.51 455.096L150.793 437.628Z" fill="black"/>
</g>
</g>
<path d="M204.112 387.736C201.829 386.48 193.608 382.598 186.073 399.381C178.538 416.05 172.829 413.538 168.034 417.42C163.239 421.302 155.361 429.636 154.333 433.632C153.42 437.628 152.849 442.309 152.849 442.309L149.196 442.081C149.196 442.081 148.396 433.632 155.247 422.444C162.097 411.255 162.668 409.771 167.691 402.121C172.829 394.357 172.601 390.932 178.538 389.562C184.36 388.078 188.927 388.078 188.927 388.078L204.112 387.736Z" fill="#FF725E"/>
<g opacity="0.3">
<g opacity="0.3">
<path opacity="0.3" d="M204.112 387.736C201.829 386.48 193.608 382.598 186.073 399.381C178.538 416.05 172.829 413.538 168.034 417.42C163.239 421.302 155.361 429.636 154.333 433.632C153.42 437.628 152.849 442.309 152.849 442.309L149.196 442.081C149.196 442.081 148.396 433.632 155.247 422.444C162.097 411.255 162.668 409.771 167.691 402.121C172.829 394.357 172.601 390.932 178.538 389.562C184.36 388.078 188.927 388.078 188.927 388.078L204.112 387.736Z" fill="black"/>
</g>
</g>
<path d="M211.418 384.082C214.387 385.109 216.328 387.964 215.985 391.16C215.757 393.444 215.072 395.156 212.788 393.33C208.792 390.247 207.422 390.818 200.001 390.019C192.58 389.22 178.423 389.334 178.423 389.334C178.423 389.334 200.23 381.684 205.253 382.483C207.422 382.826 209.592 383.511 211.418 384.082Z" fill="#FF725E"/>
<path d="M193.378 317.52C185.729 321.288 179.563 327.567 174.997 334.76C170.43 341.953 167.347 349.945 164.607 358.051C155.131 386.822 148.623 416.849 149.651 447.104V448.589C153.989 428.494 160.497 408.857 169.06 390.133C174.426 378.373 180.591 367.07 185.386 355.082C190.181 343.209 193.721 330.421 193.378 317.52Z" fill="#FF725E"/>
<path d="M99.3015 360.448C98.7306 366.157 100.9 371.98 103.868 376.889C106.951 381.798 110.833 386.137 114.03 391.046C116.427 394.586 118.482 398.353 121.108 401.664C126.931 408.857 135.494 413.652 140.86 421.188C147.596 430.664 148.395 442.994 148.167 454.526C149.651 454.868 151.135 453.726 151.706 452.242C152.277 450.758 152.049 449.274 151.934 447.675C150.336 434.774 148.852 421.873 147.253 408.857C146.226 400.294 144.856 391.046 138.919 384.881C134.923 380.771 129.443 378.487 125.333 374.491C122.592 371.866 120.651 368.555 118.368 365.472C116.085 362.389 113.459 359.421 110.034 357.937C106.608 356.452 102.042 356.681 99.5298 359.421" fill="#FF725E"/>
<path d="M139.376 415.365C139.376 415.365 135.151 414.908 132.069 415.365C128.986 415.821 125.218 410.684 121.565 416.735C117.911 422.786 119.282 430.892 113.459 437.286C107.522 443.565 107.522 457.38 107.979 466.97C108.321 474.277 109.349 480.556 109.805 483.068C109.919 483.525 110.49 483.639 110.719 483.297C111.86 481.47 114.144 477.588 113.459 474.505C112.66 470.395 117.112 467.769 120.309 456.238C123.506 444.707 127.159 442.423 130.014 435.573C132.868 428.723 135.037 426.553 135.037 426.553L139.376 415.365Z" fill="#FF725E"/>
<path d="M148.053 444.592C148.053 444.592 146.911 452.356 146.911 448.931C146.911 431.234 135.151 426.211 135.151 426.211L139.262 415.365C139.262 415.365 141.545 414.565 144.285 423.699C147.254 432.833 148.053 444.592 148.053 444.592Z" fill="#FF725E"/>
<g opacity="0.3">
<g opacity="0.3">
<path opacity="0.3" d="M148.053 444.592C148.053 444.592 146.911 452.356 146.911 448.931C146.911 431.234 135.151 426.211 135.151 426.211L139.262 415.365C139.262 415.365 141.545 414.565 144.285 423.699C147.254 432.833 148.053 444.592 148.053 444.592Z" fill="black"/>
</g>
</g>
<path d="M179.336 341.496C179.336 341.496 179.221 341.839 178.993 342.409C178.65 343.094 178.308 343.894 177.737 345.035C177.166 346.177 176.481 347.547 175.796 349.26C175.111 350.858 174.198 352.799 173.284 354.854C171.458 358.964 169.403 363.988 167.348 369.582C165.292 375.177 163.237 381.456 161.296 388.078C159.356 394.7 157.757 401.093 156.501 407.03C155.245 412.853 154.332 418.219 153.647 422.672C153.304 424.955 152.962 426.896 152.734 428.723C152.505 430.55 152.277 432.034 152.163 433.29C152.049 434.546 151.934 435.459 151.82 436.144C151.706 436.829 151.706 437.172 151.706 437.172C151.706 437.172 151.706 436.829 151.706 436.144C151.82 435.459 151.82 434.431 151.934 433.176C152.049 431.92 152.163 430.321 152.391 428.609C152.619 426.782 152.848 424.727 153.19 422.558C153.875 418.105 154.789 412.739 155.93 406.802C157.186 400.979 158.785 394.472 160.611 387.85C162.552 381.228 164.722 374.948 166.777 369.354C168.946 363.759 171.001 358.736 172.828 354.626C173.741 352.571 174.654 350.744 175.454 349.031C176.253 347.433 176.938 346.063 177.509 344.921C178.08 343.78 178.536 342.98 178.879 342.295C179.107 341.839 179.336 341.496 179.336 341.496Z" fill="#263238"/>
<path d="M149.08 452.813C149.08 452.813 149.08 452.47 149.08 451.785C149.08 451.1 149.08 450.187 149.08 448.931C149.08 446.419 149.08 442.766 148.623 438.313C147.824 429.408 145.312 417.191 139.375 404.861C137.891 401.778 136.293 398.81 134.466 396.184C132.639 393.558 130.584 391.275 128.187 389.448C125.903 387.621 123.392 386.251 121.336 384.653C119.167 383.054 117.455 381.228 116.085 379.515C113.344 375.976 111.746 372.665 110.604 370.381C110.033 369.24 109.691 368.326 109.348 367.755C109.12 367.184 108.892 366.842 109.006 366.842C109.006 366.842 109.234 367.184 109.463 367.755C109.805 368.44 110.262 369.24 110.833 370.267C111.974 372.436 113.687 375.747 116.427 379.172C117.797 380.885 119.51 382.712 121.565 384.196C123.62 385.794 126.132 387.164 128.529 388.991C130.927 390.818 133.096 393.101 134.923 395.841C136.75 398.467 138.348 401.436 139.832 404.518C145.883 416.849 148.281 429.294 148.966 438.199C149.308 442.652 149.308 446.305 149.194 448.817C149.194 450.073 149.08 450.986 149.08 451.671C149.08 452.47 149.08 452.813 149.08 452.813Z" fill="#263238"/>
<path d="M112.659 458.75C112.659 458.75 112.773 458.065 113.116 456.923C113.573 455.667 114.029 453.955 114.714 452.014C116.084 447.904 117.911 442.195 120.194 435.916C121.336 432.833 122.364 429.864 123.391 427.124C123.848 425.754 124.305 424.498 124.761 423.243C125.218 421.987 125.675 420.959 126.131 419.932C127.045 417.991 128.301 416.506 129.442 415.936C130.013 415.593 130.47 415.479 130.812 415.479C131.155 415.479 131.269 415.479 131.269 415.479C131.269 415.593 130.584 415.593 129.557 416.164C128.529 416.735 127.387 418.105 126.474 420.16C126.017 421.073 125.561 422.215 125.218 423.471C124.761 424.727 124.305 425.983 123.848 427.353C122.82 430.093 121.793 433.061 120.651 436.144C118.368 442.423 116.427 448.132 114.943 452.242C114.258 454.183 113.687 455.895 113.23 457.037C113.002 458.179 112.773 458.75 112.659 458.75Z" fill="#263238"/>
<path d="M121.565 344.236C121.565 344.236 120.994 344.236 119.967 344.122C118.939 344.008 117.341 343.894 115.514 343.665C113.573 343.551 111.404 343.551 108.892 343.551C106.38 343.665 103.64 343.894 100.786 344.35C97.9315 344.807 95.3056 345.492 92.908 346.177C90.5104 346.862 88.4553 347.661 86.6286 348.346C84.916 349.031 83.4318 349.716 82.5184 350.173C81.605 350.63 81.0342 350.858 81.0342 350.858C81.0342 350.858 81.4909 350.516 82.4042 349.945C83.3176 349.374 84.6877 348.689 86.4002 348.004C88.1128 347.205 90.282 346.405 92.6796 345.72C95.0772 345.035 97.8173 344.35 100.672 343.894C103.526 343.437 106.266 343.209 108.778 343.094C111.29 343.094 113.573 343.094 115.4 343.323C117.341 343.551 118.825 343.665 119.852 343.894C120.994 344.122 121.565 344.236 121.565 344.236Z" fill="#263238"/>
<path d="M173.741 425.868C171.686 425.298 169.517 424.727 167.348 424.955C161.867 425.526 157.072 431.235 154.675 436.258C152.391 441.282 148.624 443.679 149.765 449.959C149.537 446.305 152.277 442.994 155.702 441.624C159.127 440.254 163.009 440.711 166.434 441.738C169.974 442.766 173.284 444.364 176.824 445.392C182.304 446.99 188.241 447.447 193.036 450.644C195.434 452.242 197.375 454.411 199.658 456.238C201.941 457.951 204.91 459.321 207.764 458.636C203.54 442.537 189.497 430.435 173.741 425.868Z" fill="#FF725E"/>
<path d="M198.745 449.045C198.631 449.045 198.631 448.246 197.832 446.99C197.147 445.734 195.549 444.25 193.265 443.108C190.982 441.966 187.899 441.167 184.931 439.341C181.962 437.628 178.994 435.23 175.569 433.404C173.856 432.49 172.029 431.805 170.203 431.463C168.376 431.12 166.663 431.234 164.951 431.691C161.64 432.604 159.128 434.431 157.301 436.144C155.36 437.856 154.104 439.455 153.077 440.596C152.62 441.053 152.278 441.51 151.935 441.852C151.707 442.081 151.593 442.309 151.479 442.309C151.479 442.309 151.593 442.081 151.821 441.852C152.049 441.51 152.392 441.053 152.849 440.482C153.762 439.341 155.018 437.742 156.959 435.915C158.785 434.089 161.411 432.148 164.837 431.234C166.549 430.778 168.376 430.549 170.317 430.892C172.258 431.234 174.084 431.919 175.797 432.833C179.336 434.66 182.191 437.171 185.159 438.884C188.013 440.596 191.096 441.51 193.379 442.766C195.777 444.022 197.261 445.62 197.946 446.876C198.289 447.561 198.517 448.018 198.517 448.474C198.745 448.817 198.745 449.045 198.745 449.045Z" fill="#263238"/>
<path d="M127.273 456.466L132.868 493.229H165.521L173.056 456.923L127.273 456.466Z" fill="#263238"/>
<path d="M168.488 479.986C168.488 480.1 160.154 480.214 149.878 480.214C139.603 480.214 131.269 480.1 131.269 479.986C131.269 479.871 139.603 479.757 149.878 479.757C160.154 479.871 168.488 479.986 168.488 479.986Z" fill="#455A64"/>
<path d="M168.603 478.273C168.603 478.387 160.155 478.501 149.879 478.501C139.49 478.501 131.155 478.387 131.155 478.273C131.155 478.159 139.604 478.045 149.879 478.045C160.155 478.045 168.603 478.159 168.603 478.273Z" fill="#455A64"/>
<path d="M168.603 476.218C168.603 476.332 160.155 476.446 149.879 476.446C139.49 476.446 131.155 476.332 131.155 476.218C131.155 476.104 139.604 475.99 149.879 475.99C160.155 475.99 168.603 476.104 168.603 476.218Z" fill="#455A64"/>
<path d="M136.635 491.174C136.521 491.174 136.064 489.119 135.608 486.493C135.151 483.867 134.923 481.812 135.037 481.812C135.151 481.812 135.608 483.867 136.064 486.493C136.521 489.005 136.749 491.174 136.635 491.174Z" fill="#455A64"/>
<path d="M138.805 490.832C138.691 490.832 138.577 488.777 138.348 486.265C138.234 483.753 138.006 481.698 138.12 481.698C138.234 481.698 138.577 483.753 138.691 486.265C139.033 488.777 138.919 490.832 138.805 490.832Z" fill="#455A64"/>
<path d="M142.914 490.832C142.8 490.832 142.343 488.777 142.115 486.151C141.772 483.525 141.772 481.47 141.887 481.47C142.001 481.47 142.229 483.525 142.572 486.151C142.686 488.663 143.028 490.718 142.914 490.832Z" fill="#455A64"/>
<path d="M145.77 490.946C145.655 490.946 145.427 488.891 145.313 486.265C145.199 483.639 145.313 481.47 145.427 481.584C145.541 481.584 145.541 483.753 145.655 486.265C145.77 488.891 145.884 490.946 145.77 490.946Z" fill="#455A64"/>
<path d="M150.793 490.832C150.679 490.832 150.565 488.777 150.451 486.379C150.337 483.867 150.337 481.926 150.451 481.926C150.565 481.926 150.679 483.981 150.793 486.379C150.908 488.777 150.908 490.832 150.793 490.832Z" fill="#455A64"/>
<path d="M154.446 490.946C154.331 490.946 154.217 488.891 154.331 486.265C154.331 483.753 154.446 481.584 154.56 481.584C154.674 481.584 154.788 483.639 154.674 486.265C154.674 488.891 154.56 490.946 154.446 490.946Z" fill="#455A64"/>
<path d="M157.871 490.489C157.757 490.489 157.871 488.32 158.099 485.694C158.328 483.068 158.67 480.899 158.784 480.899C158.899 480.899 158.784 483.068 158.556 485.694C158.213 488.32 157.985 490.489 157.871 490.489Z" fill="#455A64"/>
<path d="M162.324 490.033C162.21 490.033 162.438 488.206 162.895 485.922C163.352 483.639 164.037 481.926 164.151 481.926C164.265 481.926 163.808 483.753 163.352 486.037C162.781 488.206 162.438 490.033 162.324 490.033Z" fill="#455A64"/>
<path d="M123.505 449.159V456.01C123.505 457.494 124.761 458.75 126.245 458.75H173.398C174.882 458.75 176.138 457.494 176.138 456.01V449.159H123.505Z" fill="#263238"/>
<path d="M172.028 458.75C172.028 458.864 161.981 459.092 149.537 459.092C137.092 459.092 127.045 458.978 127.045 458.75C127.045 458.636 137.092 458.407 149.537 458.407C161.981 458.407 172.028 458.636 172.028 458.75Z" fill="#455A64"/>
</svg>
