<svg width="394" height="395" viewBox="0 0 394 395" fill="none" xmlns="http://www.w3.org/2000/svg">
<path d="M172.075 385.847C170.718 384.67 167.733 381.051 169.994 376.708C170.809 375.17 172.618 374.356 174.337 373.632C175.966 372.908 177.684 372.365 179.042 371.189C181.575 369.017 182.298 365.398 184.017 362.503C186.008 359.155 189.627 356.621 193.426 356.802C197.859 356.983 201.478 360.602 203.197 364.674C204.826 368.746 204.916 373.36 204.916 377.794C204.916 380.237 204.826 383.042 203.016 384.671C201.388 386.209 198.855 386.209 196.593 386.118C188.541 385.847 180.58 385.666 172.528 385.394" fill="#F5F5F5"/>
<path d="M218.125 319.615H154.795L166.195 387.656C166.738 390.642 168.818 392.904 171.623 393.719C171.713 393.719 171.804 393.719 171.804 393.809C171.985 393.9 172.166 393.9 172.347 393.99C172.799 394.081 173.161 394.081 173.613 394.171C173.613 394.171 173.613 394.171 173.613 394.262L173.885 394.171H202.112C202.654 394.171 203.197 394.081 203.65 393.99C206.997 393.447 209.621 390.823 210.073 387.385L215.592 340.516L215.863 338.616L218.034 320.067L218.125 319.615ZM206.183 362.955H199.669L200.302 343.23H207.811L206.183 362.955ZM208.535 343.23H214.777L212.425 362.955H206.816L208.535 343.23ZM189.989 384.851L189.627 367.66H198.945L198.402 384.851H189.989ZM179.856 367.751H188.993L189.355 384.942H181.213L179.856 367.751ZM180.58 384.851H172.98C172.256 380.237 171.352 374.175 170.266 367.66H179.223L180.58 384.851ZM179.494 362.955L177.956 343.23H188.36L188.812 362.955H179.494ZM189.446 362.955L188.993 343.23H199.759L199.126 362.955H189.446ZM188.903 338.525L188.451 320.248H200.483L199.85 338.525H188.903ZM188.27 338.525H177.594L176.146 320.248H187.817L188.27 338.525ZM176.961 338.525H165.652C165.29 335.992 164.838 333.639 164.566 331.468C163.39 324.048 162.938 321.334 162.666 320.248H175.513L176.961 338.525ZM177.323 343.23L178.861 362.955H169.542C169.271 360.964 168.909 358.883 168.547 356.893C167.823 352.188 167.099 347.573 166.376 343.23H177.323ZM168.818 362.955H162.666L159.319 343.23H165.652C166.738 349.292 167.733 356.078 168.818 362.955ZM169.633 367.751C170.537 373.722 171.442 379.513 172.347 384.942H166.466L163.571 367.751H169.633ZM198.945 384.851L199.488 367.66H205.73L204.283 384.851H198.945ZM200.483 338.525L201.116 320.248H209.892L208.354 338.525H200.483ZM162.033 320.157C162.304 321.515 163.481 328.663 165.019 338.435H158.686L155.61 320.157H162.033ZM209.892 384.851H205.007L206.454 367.66H211.882L209.892 384.851ZM215.32 338.525H208.987L210.525 320.248H217.492L215.32 338.525Z" fill="#E0E0E0"/>
<path d="M221.201 252.296L187.003 262.973C184.651 263.697 182.118 262.43 181.394 259.987L166.647 212.666C165.923 210.313 167.19 207.78 169.633 207.056L191.346 200.27L213.511 212.304L224.186 246.596C224.91 249.039 223.644 251.573 221.201 252.296Z" fill="#EBEBEB"/>
<path d="M191.345 200.36L195.507 213.661C196.231 215.833 198.493 217.099 200.754 216.375L213.511 212.394L191.345 200.36Z" fill="#E0E0E0"/>
<path d="M192.431 214.023C192.522 214.204 188.993 215.47 184.651 216.827C180.308 218.184 176.689 219.18 176.689 218.999C176.599 218.818 180.127 217.551 184.47 216.194C188.812 214.837 192.431 213.842 192.431 214.023Z" fill="#FAFAFA"/>
<path d="M205.007 218.366C205.097 218.547 199.307 220.447 192.069 222.709C184.922 224.97 179.042 226.599 178.951 226.418C178.861 226.237 184.651 224.337 191.888 222.075C199.126 219.904 204.916 218.185 205.007 218.366Z" fill="#FAFAFA"/>
<path d="M209.349 223.885C209.44 224.066 203.107 226.147 195.236 228.59C187.365 231.033 181.032 232.843 180.941 232.662C180.851 232.481 187.184 230.4 195.055 227.957C202.835 225.605 209.259 223.795 209.349 223.885Z" fill="#FAFAFA"/>
<path d="M211.159 229.857C211.249 230.038 204.916 232.119 197.045 234.562C189.174 237.005 182.841 238.815 182.751 238.634C182.66 238.453 188.993 236.372 196.864 233.929C204.735 231.486 211.068 229.676 211.159 229.857Z" fill="#FAFAFA"/>
<path d="M212.968 235.738C213.058 235.919 206.725 238 198.855 240.443C190.984 242.886 184.651 244.696 184.56 244.515C184.47 244.334 190.803 242.253 198.674 239.81C206.545 237.458 212.968 235.648 212.968 235.738Z" fill="#FAFAFA"/>
<path d="M214.868 241.71C214.958 241.891 208.625 243.972 200.755 246.415C192.884 248.858 186.551 250.668 186.46 250.487C186.37 250.306 192.703 248.225 200.574 245.782C208.445 243.339 214.778 241.529 214.868 241.71Z" fill="#FAFAFA"/>
<path d="M366.225 67.7147L332.842 54.7759C330.58 53.8711 329.404 51.2471 330.309 48.9851L348.312 2.83964C349.217 0.577609 351.841 -0.598648 354.102 0.306165L375.272 8.53996L385.043 31.7936L372.016 65.2717C371.111 67.5337 368.578 68.6195 366.225 67.7147Z" fill="#EBEBEB"/>
<path d="M375.273 8.44855L370.206 21.4778C369.392 23.6494 370.478 26.0019 372.559 26.9067L385.044 31.7927L375.273 8.44855Z" fill="#E0E0E0"/>
<path d="M367.583 19.8494C367.492 20.0303 364.054 18.7638 359.712 17.1353C355.46 15.5068 352.022 13.9688 352.112 13.7879C352.203 13.6069 355.64 14.8735 359.983 16.502C364.235 18.2209 367.673 19.6685 367.583 19.8494Z" fill="#FAFAFA"/>
<path d="M374.73 31.0698C374.639 31.2508 368.939 29.1697 361.883 26.4553C354.826 23.7408 349.217 21.3883 349.307 21.2074C349.398 21.0264 355.097 23.1075 362.154 25.8219C369.12 28.5364 374.73 30.8889 374.73 31.0698Z" fill="#FAFAFA"/>
<path d="M374.639 38.1273C374.549 38.3083 368.306 36.0463 360.707 33.0604C353.017 30.0745 346.955 27.541 346.955 27.3601C347.046 27.1791 353.288 29.4411 360.888 32.427C368.487 35.4129 374.639 37.9464 374.639 38.1273Z" fill="#FAFAFA"/>
<path d="M372.378 43.9181C372.287 44.0991 366.045 41.837 358.445 38.8511C350.755 35.8653 344.693 33.3318 344.693 33.1508C344.784 32.9699 351.026 35.2319 358.626 38.2178C366.316 41.2037 372.378 43.7371 372.378 43.9181Z" fill="#FAFAFA"/>
<path d="M370.116 49.7089C370.025 49.8898 363.783 47.6278 356.183 44.6419C348.493 41.656 342.432 39.1226 342.432 38.9416C342.522 38.7606 348.765 41.0227 356.364 44.0086C364.054 46.9944 370.206 49.5279 370.116 49.7089Z" fill="#FAFAFA"/>
<path d="M367.854 55.4996C367.764 55.6806 361.521 53.4186 353.922 50.4327C346.232 47.4468 340.17 44.9133 340.17 44.7324C340.261 44.5514 346.503 46.8134 354.103 49.7993C361.793 52.7852 367.945 55.3187 367.854 55.4996Z" fill="#FAFAFA"/>
<path d="M52.8349 199.817C54.2825 199.998 55.2777 201.355 55.0967 202.894C55.0062 203.798 54.8253 204.703 54.7348 205.156L51.6588 225.333C51.4779 226.328 50.5732 226.962 49.6685 226.781L3.43794 219.723C2.53323 219.542 1.89994 218.728 1.99041 217.823L4.34265 191.674C4.43312 190.679 5.33782 189.955 6.333 190.045L16.8276 191.674C17.8228 191.855 18.7275 192.307 19.3608 193.122L21.2607 195.293L52.8349 199.817Z" fill="#E0E0E0"/>
<path d="M55.8477 203.097L5.40381 195.423L0.763365 225.925L51.2073 233.599L55.8477 203.097Z" fill="#F5F5F5"/>
<path d="M0.995178 197.555L0 229.856C0 230.399 0.361883 230.942 0.995178 231.033L50.2112 238.543C50.7541 238.633 51.3874 238.271 51.4778 237.638L58.806 206.241C58.9869 205.607 58.5345 204.974 57.9013 204.883L2.35224 196.469C1.62847 196.288 0.995178 196.831 0.995178 197.555Z" fill="#EBEBEB"/>
<path d="M119.15 202.531C109.198 207.689 101.508 216.646 95.9893 226.418C90.4706 236.19 86.9422 246.958 83.4139 257.634L80.3379 312.737C91.9181 293.013 101.237 269.759 103.77 246.958C101.237 246.686 98.613 246.505 96.0798 246.234C101.237 245.419 105.579 241.71 108.384 237.276C111.188 232.843 112.545 227.685 113.993 222.618C110.827 223.071 107.751 223.523 104.584 223.975C112.003 219.089 117.34 211.218 119.15 202.531Z" fill="#455A64"/>
<g opacity="0.3">
<path opacity="0.3" d="M119.15 202.531C109.198 207.689 101.508 216.646 95.9893 226.418C90.4706 236.19 86.9422 246.958 83.4139 257.634L80.3379 312.737C91.9181 293.013 101.237 269.759 103.77 246.958C101.237 246.686 98.613 246.505 96.0798 246.234C101.237 245.419 105.579 241.71 108.384 237.276C111.188 232.843 112.545 227.685 113.993 222.618C110.827 223.071 107.751 223.523 104.584 223.975C112.003 219.089 117.34 211.218 119.15 202.531Z" fill="black"/>
</g>
<path d="M78.7095 325.586C78.7095 325.586 53.4682 295.456 53.83 266.592H64.0532C64.0532 266.592 53.0158 259.354 53.83 255.282C54.7347 251.211 55.0062 235.829 55.0062 235.829L64.3246 238.181C64.3246 238.181 57.3584 234.653 56.4537 229.133C55.549 223.614 58.5345 198.008 58.5345 198.008C58.5345 198.008 69.7529 209.861 73.2812 222.076C76.8096 234.291 85.9471 248.587 83.233 285.774C80.5189 323.053 78.7095 325.586 78.7095 325.586Z" fill="#455A64"/>
<path d="M91.4659 328.482C91.4659 328.482 118.788 310.295 124.85 287.041L116.707 284.779C116.707 284.779 127.202 281.341 127.383 277.903C127.564 274.464 130.73 261.978 130.73 261.978L122.769 261.797C122.769 261.797 129.102 260.53 131.092 256.277C132.992 252.025 136.249 230.762 136.249 230.762C136.249 230.762 124.488 237.91 119.059 246.958C113.541 256.006 103.137 265.507 97.0751 295.999C91.0135 326.581 91.4659 328.482 91.4659 328.482Z" fill="#455A64"/>
<path d="M65.3198 224.247C65.3198 224.247 65.3198 224.338 65.4103 224.519C65.5008 224.79 65.5008 225.062 65.5912 225.424C65.7722 226.238 66.0436 227.505 66.4055 229.043C66.7674 230.581 67.1292 232.481 67.5816 234.743C68.0339 237.005 68.5768 239.448 69.0291 242.253C70.1148 247.863 71.2909 254.558 72.3765 261.978C73.5527 269.397 74.6383 277.631 75.6335 286.227C76.6287 294.823 77.3524 303.147 77.9857 310.657C78.5285 318.167 78.9809 324.953 79.1618 330.653C79.3428 333.458 79.3428 336.082 79.4333 338.344C79.5237 340.606 79.5237 342.597 79.5237 344.135C79.5237 345.673 79.5237 346.94 79.5237 347.845C79.5237 348.207 79.5237 348.568 79.5237 348.84C79.5237 349.021 79.5237 349.202 79.5237 349.202C79.5237 349.202 79.5237 349.111 79.5237 348.84C79.5237 348.568 79.5237 348.297 79.5237 347.845C79.5237 346.94 79.4333 345.764 79.4333 344.135C79.4333 342.506 79.3428 340.606 79.2523 338.344C79.1618 336.082 79.0714 333.549 78.8904 330.653C78.619 324.953 78.1667 318.167 77.6238 310.657C76.9906 303.147 76.2668 294.913 75.2716 286.317C74.2764 277.722 73.1003 269.488 72.0147 262.068C70.8385 254.649 69.7529 247.953 68.7577 242.344C68.3054 239.539 67.7625 237.005 67.3102 234.834C66.8578 232.572 66.4959 230.671 66.2245 229.133C65.9531 227.595 65.6817 226.419 65.5008 225.514C65.4103 225.152 65.4103 224.79 65.3198 224.609C65.3198 224.338 65.3198 224.247 65.3198 224.247Z" fill="#263238"/>
<path d="M75.1812 344.044C75.1812 344.044 52.1112 317.895 44.964 302.061L50.3922 299.709C46.502 300.342 42.4308 298.713 39.4453 296.089C36.3693 293.556 34.198 290.208 32.0267 286.86L39.1739 285.684C32.66 283.874 26.9603 279.441 23.6129 273.65C32.0267 275.007 39.6262 279.622 45.8687 285.413C50.9351 290.118 55.2777 295.546 59.3488 301.066C61.3392 303.78 63.1486 306.676 64.5961 309.661C68.3959 317.714 75.1812 334.453 75.1812 344.044Z" fill="#455A64"/>
<path d="M125.211 246.053C125.211 246.053 125.211 246.144 125.121 246.325C125.03 246.506 124.94 246.777 124.759 247.049C124.397 247.772 123.945 248.677 123.312 249.944C122.045 252.477 120.326 256.097 118.245 260.621C116.074 265.145 113.631 270.574 111.008 276.636C108.384 282.698 105.579 289.484 102.865 296.542C100.151 303.69 97.6179 310.476 95.4466 316.81C93.2753 323.053 91.4658 328.753 90.0183 333.549C88.5708 338.344 87.3947 342.235 86.5804 344.949C86.2185 346.306 85.8567 347.302 85.6757 348.026C85.5852 348.388 85.4948 348.659 85.4043 348.84C85.3138 349.021 85.3138 349.111 85.3138 349.111C85.3138 349.111 85.3138 349.021 85.4043 348.84C85.4948 348.659 85.4948 348.388 85.5853 348.026C85.7662 347.302 86.0376 346.216 86.3995 344.949C87.1233 342.235 88.2089 338.344 89.6564 333.549C91.104 328.753 92.9134 323.053 94.9942 316.81C97.1655 310.566 99.6082 303.69 102.322 296.542C105.127 289.394 107.841 282.698 110.555 276.636C113.179 270.574 115.712 265.145 117.883 260.621C120.055 256.097 121.864 252.477 123.131 249.944C123.764 248.677 124.216 247.772 124.578 247.049C124.759 246.777 124.85 246.506 124.94 246.325C125.121 246.144 125.211 246.053 125.211 246.053Z" fill="#263238"/>
<path d="M77.1714 355.264C77.1714 355.264 77.081 355.083 77.081 354.812C76.9905 354.45 76.9905 353.997 76.9 353.455C76.7191 352.278 76.4477 350.469 75.9953 348.388C75.543 346.216 75.0001 343.683 74.2764 340.968C73.4621 338.163 72.5574 335.177 71.3813 332.01C70.2052 328.934 68.9386 326.039 67.672 323.415C66.4054 320.791 65.1388 318.529 64.0532 316.629C62.9675 314.729 62.0628 313.281 61.3391 312.195C61.0676 311.743 60.7962 311.29 60.6153 311.019C60.4343 310.747 60.3439 310.566 60.3439 310.566C60.3439 310.566 60.4343 310.657 60.6153 310.928C60.7962 311.2 61.0676 311.652 61.4295 312.105C62.1533 313.1 63.1485 314.548 64.2341 316.448C65.4102 318.348 66.6768 320.61 67.9434 323.143C69.21 325.767 70.4766 328.663 71.7432 331.739C72.9193 334.906 73.824 337.892 74.6382 340.697C75.362 343.502 75.9048 346.035 76.2667 348.207C76.6286 350.378 76.9 352.097 76.9905 353.364C77.081 353.907 77.081 354.359 77.1714 354.721C77.1714 355.083 77.1714 355.264 77.1714 355.264Z" fill="#263238"/>
<path d="M107.57 349.111H57.087V359.426H107.57V349.111Z" fill="#FF725E"/>
<path d="M61.8821 359.426L67.4008 394.081H97.8894L102.956 359.426H61.8821Z" fill="#FF725E"/>
<path d="M104.494 359.426C104.494 359.517 94.9037 359.698 83.1425 359.698C71.3813 359.698 61.7914 359.607 61.7914 359.426C61.7914 359.336 71.3813 359.155 83.1425 359.155C94.9037 359.155 104.494 359.336 104.494 359.426Z" fill="#263238"/>
<path d="M272.587 13.3354H47.1342V154.577H272.587V13.3354Z" fill="white"/>
<path d="M272.587 13.3354H47.1342V26.2743H272.587V13.3354Z" fill="#455A64"/>
<path d="M272.588 151.772H47.0447V177.197H272.588V151.772Z" fill="#F5F5F5"/>
<path d="M93.3657 164.077H95.356L95.9893 165.434H96.4417L94.4513 161.182H94.3608L92.3705 165.434H92.8228L93.3657 164.077ZM94.4513 161.996L95.2656 163.715H93.6371L94.4513 161.996Z" fill="#263238"/>
<path d="M96.8037 166.339H92.0088V166.701H96.8037V166.339Z" fill="#263238"/>
<path d="M63.7819 160.91C63.6914 160.91 63.6914 160.91 63.7819 160.91H63.5104C62.6057 160.91 61.7915 161.725 61.7915 162.72C61.7915 163.715 62.7867 165.615 63.5104 166.339C63.5104 166.339 63.6009 166.52 63.8723 166.339C64.5056 165.705 65.5913 163.715 65.5913 162.72C65.4103 161.815 64.6866 160.91 63.7819 160.91ZM63.6009 163.805C63.0581 163.805 62.6057 163.353 62.6057 162.81C62.6057 162.267 63.0581 161.815 63.6009 161.815C64.1437 161.815 64.5961 162.267 64.5961 162.81C64.5961 163.353 64.1437 163.805 63.6009 163.805Z" fill="#263238"/>
<path d="M86.128 165.163C86.128 165.705 85.6756 166.158 85.1328 166.158C84.59 166.158 84.1376 165.705 84.1376 165.163V161.906C84.1376 161.544 84.409 161.272 84.7709 161.272C85.1328 161.272 85.4042 161.544 85.4042 161.906V164.71C85.4042 164.891 85.2233 164.982 85.0423 164.982C84.8614 164.982 84.6804 164.891 84.6804 164.71V162.539H84.409V164.62V164.71C84.4995 164.982 84.6805 165.253 85.0423 165.253C85.3137 165.253 85.5852 164.982 85.6756 164.71V164.62C85.6756 164.62 85.6756 164.62 85.6756 164.529V161.815C85.6756 161.363 85.2233 160.91 84.7709 160.91C84.3186 160.91 83.8662 161.272 83.8662 161.815V165.253C83.9567 165.886 84.4995 166.429 85.1328 166.429C85.7661 166.429 86.3089 165.886 86.3994 165.253V162.448H86.128V165.163Z" fill="#263238"/>
<path d="M75.2717 162.629L74.367 160.729L73.4623 162.629L71.3815 162.901L72.9195 164.348L72.5576 166.429L74.4575 165.434L76.3574 166.429L75.9955 164.348L77.5335 162.901L75.2717 162.629ZM75.7241 165.977L74.2765 165.163L72.829 165.977L73.1004 164.439V164.348L71.9243 163.172L73.5528 162.901L74.2765 161.363L75.0003 162.901L76.6288 163.172L75.4527 164.258L75.3622 164.348L75.7241 165.977Z" fill="#263238"/>
<path d="M112.455 158.377H112.184V168.239H112.455V158.377ZM112.274 168.239V158.467V168.239Z" fill="#263238"/>
<path d="M106.394 161.906H102.503V166.067H106.394V161.906Z" fill="#263238"/>
<path d="M103.77 160.91V161.182H105.218V160.91H106.484V161.544H102.503V160.91H103.77Z" fill="#263238"/>
<path d="M105.217 160.548H103.77V160.91H105.217V160.548Z" fill="#263238"/>
<path d="M105.217 160.91H103.77V161.272H105.217V160.91Z" fill="#263238"/>
<path d="M121.321 164.077L122.497 162.901L122.678 163.082L121.321 164.349L119.964 163.082L120.145 162.901L121.321 164.077Z" fill="#263238"/>
<path d="M260.103 62.9193C259.379 62.9193 258.837 63.4621 258.746 64.1858V69.2522C258.837 70.1569 259.651 70.9711 260.556 70.9711C261.551 70.9711 262.274 70.2474 262.365 69.2522V65.181H262.003V69.0713C262.003 69.8855 261.37 70.6093 260.465 70.6093C259.651 70.6093 258.927 69.976 258.927 69.0713V64.2763C258.927 63.7335 259.379 63.2811 259.922 63.2811C260.465 63.2811 260.917 63.7335 260.917 64.2763V68.3475C260.827 68.6189 260.646 68.7998 260.375 68.7998C260.103 68.7998 259.922 68.6189 259.832 68.3475V65.181H259.651V68.1666V68.3475C259.741 68.7998 260.103 69.1617 260.556 69.1617C261.008 69.1617 261.37 68.7998 261.46 68.3475V68.257C261.46 68.257 261.46 68.257 261.46 68.1666V64.1858C261.46 63.5525 260.827 62.9193 260.103 62.9193Z" fill="#263238"/>
<path d="M54.5539 33.5127H53.0159V32.9698H56.7252V33.5127H55.1872V37.4029H54.5539V33.5127Z" fill="#263238"/>
<path d="M56.6346 35.7747C56.6346 34.7795 57.3584 34.0557 58.4441 34.0557C59.4392 34.0557 60.2535 34.7795 60.2535 35.7747C60.2535 36.7698 59.5297 37.4936 58.4441 37.4936C57.4489 37.4936 56.6346 36.7698 56.6346 35.7747ZM59.6202 35.7747C59.6202 35.0509 59.1678 34.5985 58.4441 34.5985C57.8108 34.5985 57.2679 35.0509 57.2679 35.7747C57.2679 36.4984 57.7203 36.9508 58.4441 36.9508C59.0774 36.9508 59.6202 36.4984 59.6202 35.7747Z" fill="#263238"/>
<path d="M62.5153 34.4176C62.5153 34.1462 62.6962 33.9652 62.9676 33.9652C63.239 33.9652 63.42 34.1462 63.42 34.4176C63.42 34.689 63.239 34.8699 62.9676 34.8699C62.6962 34.8699 62.5153 34.689 62.5153 34.4176ZM62.5153 37.0412C62.5153 36.7698 62.6962 36.5889 62.9676 36.5889C63.239 36.5889 63.42 36.7698 63.42 37.0412C63.42 37.3126 63.239 37.4936 62.9676 37.4936C62.6962 37.4936 62.5153 37.3126 62.5153 37.0412Z" fill="#263238"/>
<path d="M53.9205 50.3421C53.9205 48.985 54.9157 48.0803 56.2728 48.0803C56.9965 48.0803 57.5394 48.3517 57.9917 48.8041L57.5394 49.166C57.1775 48.8041 56.7251 48.6231 56.2728 48.6231C55.2776 48.6231 54.4634 49.3469 54.4634 50.3421C54.4634 51.3373 55.1871 52.061 56.2728 52.061C56.7251 52.061 57.1775 51.8801 57.5394 51.5182L57.9917 51.8801C57.5394 52.3324 56.9965 52.6039 56.2728 52.6039C54.9157 52.6039 53.9205 51.6087 53.9205 50.3421Z" fill="#263238"/>
<path d="M58.3535 50.885C58.3535 49.8898 59.0773 49.1661 60.1629 49.1661C60.7962 49.1661 61.2486 49.4375 61.52 49.8898L61.0676 50.1613C60.8867 49.7994 60.5248 49.7089 60.1629 49.7089C59.5296 49.7089 58.9868 50.1613 58.9868 50.885C58.9868 51.6088 59.5296 52.0611 60.1629 52.0611C60.5248 52.0611 60.8867 51.8802 61.0676 51.6088L61.52 51.8802C61.2486 52.3326 60.7058 52.604 60.1629 52.604C59.1678 52.604 58.3535 51.8802 58.3535 50.885Z" fill="#263238"/>
<path d="M63.7819 49.5279C63.7819 49.2565 63.9628 49.0756 64.2342 49.0756C64.5056 49.0756 64.6866 49.2565 64.6866 49.5279C64.6866 49.7993 64.5056 49.9803 64.2342 49.9803C63.9628 49.9803 63.7819 49.7993 63.7819 49.5279ZM63.7819 52.1516C63.7819 51.8802 63.9628 51.6992 64.2342 51.6992C64.5056 51.6992 64.6866 51.8802 64.6866 52.1516C64.6866 52.423 64.5056 52.6039 64.2342 52.6039C63.9628 52.6039 63.7819 52.423 63.7819 52.1516Z" fill="#263238"/>
<path d="M53.2872 67.3523L53.5586 66.8095C53.9205 67.0809 54.4633 67.3523 55.0062 67.3523C55.8204 67.3523 56.0918 67.0809 56.0918 66.6285C56.0918 65.5429 53.3777 66.2667 53.3777 64.5477C53.3777 63.824 53.9205 63.2811 55.0966 63.2811C55.6395 63.2811 56.1823 63.4621 56.5442 63.643L56.2728 64.1858C55.9109 63.9144 55.4585 63.824 55.0062 63.824C54.2824 63.824 53.9205 64.1858 53.9205 64.5477C53.9205 65.6334 56.6346 65.0001 56.6346 66.6285C56.6346 67.3523 56.0918 67.8951 54.9157 67.8951C54.2824 67.8951 53.6491 67.7142 53.2872 67.3523Z" fill="#263238"/>
<path d="M60.7058 64.4573V67.8952H60.163V67.3524C59.8915 67.7143 59.5297 67.8952 58.9868 67.8952C58.0821 67.8952 57.5393 67.4429 57.5393 66.4477V64.4573H58.1726V66.3572C58.1726 66.9905 58.5345 67.3524 59.0773 67.3524C59.7106 67.3524 60.163 66.9905 60.163 66.2668V64.5478H60.7058V64.4573Z" fill="#263238"/>
<path d="M65.4103 66.1762C65.4103 67.1713 64.6866 67.8951 63.6914 67.8951C63.1485 67.8951 62.7867 67.7142 62.5153 67.3523V67.8951H61.882V63.1002H62.5153V65C62.7867 64.6382 63.239 64.4572 63.6914 64.4572C64.6866 64.4572 65.4103 65.0905 65.4103 66.1762ZM64.777 66.1762C64.777 65.4524 64.3247 65 63.6009 65C62.9676 65 62.4248 65.4524 62.4248 66.1762C62.4248 66.8999 62.8771 67.3523 63.6009 67.3523C64.3247 67.3523 64.777 66.8999 64.777 66.1762Z" fill="#263238"/>
<path d="M65.0486 68.9807L65.2295 68.5284C65.32 68.6188 65.5009 68.7093 65.7723 68.7093C66.1342 68.7093 66.3152 68.5284 66.3152 68.076V64.5476H66.9485V68.076C66.9485 68.7998 66.5866 69.1617 65.8628 69.1617C65.5914 69.1617 65.2295 69.0712 65.0486 68.9807ZM66.2247 63.3715C66.2247 63.1906 66.4056 63.0096 66.6771 63.0096C66.9485 63.0096 67.1294 63.1906 67.1294 63.3715C67.1294 63.6429 66.9485 63.8239 66.6771 63.8239C66.4056 63.8239 66.2247 63.6429 66.2247 63.3715Z" fill="#263238"/>
<path d="M71.11 66.3574H68.3054C68.3959 66.9907 68.8482 67.3525 69.572 67.3525C69.9339 67.3525 70.2958 67.2621 70.5672 66.9002L70.929 67.2621C70.6576 67.624 70.1148 67.8049 69.572 67.8049C68.4863 67.8049 67.7626 67.0811 67.7626 66.0859C67.7626 65.0908 68.4863 64.367 69.4815 64.367C70.4767 64.367 71.2005 65.0908 71.2005 66.0859C71.2005 66.2669 71.2005 66.2669 71.11 66.3574ZM68.3959 65.905H70.5672C70.4767 65.3622 70.1148 64.9098 69.4815 64.9098C68.8482 64.9098 68.4863 65.3622 68.3959 65.905Z" fill="#263238"/>
<path d="M71.7434 66.1763C71.7434 65.1811 72.4672 64.4573 73.5528 64.4573C74.1861 64.4573 74.6385 64.7287 74.9099 65.1811L74.4575 65.4525C74.2766 65.0906 73.9147 65.0002 73.5528 65.0002C72.9195 65.0002 72.3767 65.4525 72.3767 66.1763C72.3767 66.9 72.9195 67.3524 73.5528 67.3524C73.9147 67.3524 74.2766 67.1715 74.4575 66.9L74.9099 67.1715C74.6385 67.6238 74.0956 67.8952 73.5528 67.8952C72.4672 67.8952 71.7434 67.1715 71.7434 66.1763Z" fill="#263238"/>
<path d="M77.6239 67.6238C77.4429 67.8047 77.1715 67.8952 76.9001 67.8952C76.1763 67.8952 75.8144 67.5333 75.8144 66.8095V64.9097H75.2716V64.3668H75.8144V63.6431H76.4477V64.3668H77.4429V64.9097H76.4477V66.7191C76.4477 67.081 76.6287 67.2619 76.9906 67.2619C77.1715 67.2619 77.3524 67.1714 77.4429 67.0809L77.6239 67.6238Z" fill="#263238"/>
<path d="M79.795 64.9097C79.795 64.6383 79.976 64.4573 80.2474 64.4573C80.5188 64.4573 80.6998 64.6383 80.6998 64.9097C80.6998 65.1811 80.5188 65.362 80.2474 65.362C79.976 65.2716 79.795 65.0906 79.795 64.9097ZM79.795 67.4429C79.795 67.1715 79.976 66.9905 80.2474 66.9905C80.5188 66.9905 80.6998 67.1715 80.6998 67.4429C80.6998 67.7143 80.5188 67.8952 80.2474 67.8952C79.976 67.8952 79.795 67.7143 79.795 67.4429Z" fill="#263238"/>
<path d="M136.159 36.5891C136.159 36.6796 121.774 36.8605 103.951 36.8605C86.2187 36.8605 71.7434 36.77 71.7434 36.5891C71.7434 36.4986 86.1282 36.3177 103.951 36.3177C121.774 36.4082 136.159 36.4986 136.159 36.5891Z" fill="#263238"/>
<path d="M164.838 51.3375C164.838 51.428 144.029 51.6089 118.336 51.6089C92.642 51.6089 71.8337 51.5185 71.8337 51.3375C71.8337 51.247 92.642 51.0661 118.336 51.0661C144.029 51.0661 164.838 51.1566 164.838 51.3375Z" fill="#263238"/>
<path d="M130.459 65.9051C130.459 65.9051 130.278 65.9051 130.006 65.9956C129.644 65.9956 129.283 65.9956 128.74 65.9956C127.564 65.9956 126.116 65.9956 124.216 66.0861C120.416 66.0861 115.169 66.1766 109.379 66.1766C103.589 66.1766 98.3416 66.1766 94.5418 66.0861C92.7324 66.0861 91.1944 65.9956 90.0183 65.9956C89.5659 65.9956 89.1136 65.9956 88.7517 65.9956C88.4803 65.9956 88.2993 65.9956 88.2993 65.9051C88.2993 65.9051 88.4803 65.9051 88.7517 65.8147C89.1136 65.8147 89.4754 65.8147 90.0183 65.8147C91.1944 65.8147 92.6419 65.8147 94.5418 65.7242C98.3416 65.7242 103.589 65.6337 109.379 65.6337C115.169 65.6337 120.416 65.6337 124.216 65.7242C126.026 65.7242 127.564 65.8147 128.74 65.8147C129.192 65.8147 129.644 65.8147 130.006 65.8147C130.278 65.8147 130.459 65.9051 130.459 65.9051Z" fill="#263238"/>
<path d="M270.145 73.7769C270.145 73.8674 220.206 74.0483 158.685 74.0483C97.0749 74.0483 47.2256 73.9578 47.2256 73.7769C47.2256 73.596 97.1654 73.5055 158.685 73.5055C220.206 73.596 270.145 73.6864 270.145 73.7769Z" fill="#E0E0E0"/>
<path d="M270.145 57.9427C270.145 58.0332 220.206 58.2142 158.595 58.2142C96.9845 58.1237 47.0447 58.0332 47.0447 57.9427C47.0447 57.8523 96.9845 57.6713 158.595 57.6713C220.206 57.6713 270.145 57.7618 270.145 57.9427Z" fill="#E0E0E0"/>
<path d="M270.145 44.0085C270.145 44.0989 220.206 44.2799 158.685 44.2799C97.0749 44.2799 47.2256 44.1894 47.2256 44.0085C47.2256 43.8275 97.1654 43.7371 158.685 43.7371C220.206 43.7371 270.145 43.8275 270.145 44.0085Z" fill="#E0E0E0"/>
<path d="M77.0811 93.2303C77.0811 93.3208 73.6432 93.5017 69.3911 93.5017C65.1389 93.5017 61.701 93.4113 61.701 93.2303C61.701 93.0494 65.1389 92.9589 69.3911 92.9589C73.6432 92.9589 77.0811 93.0494 77.0811 93.2303Z" fill="#263238"/>
<path d="M164.385 102.098C164.385 102.188 141.134 102.369 112.546 102.369C83.9568 102.369 60.7058 102.278 60.7058 102.098C60.7058 101.917 83.8663 101.826 112.546 101.826C141.134 101.826 164.385 101.917 164.385 102.098Z" fill="#263238"/>
<path d="M147.196 108.25C147.196 108.341 127.835 108.431 103.951 108.431C80.0665 108.431 60.7058 108.341 60.7058 108.25C60.7058 108.16 80.0665 108.069 103.951 108.069C127.835 108.069 147.196 108.16 147.196 108.25Z" fill="#263238"/>
<path d="M53.4681 21.2064C54.2176 21.2064 54.8252 20.5988 54.8252 19.8493C54.8252 19.0998 54.2176 18.4922 53.4681 18.4922C52.7187 18.4922 52.1111 19.0998 52.1111 19.8493C52.1111 20.5988 52.7187 21.2064 53.4681 21.2064Z" fill="white"/>
<path d="M58.4441 21.2064C59.1936 21.2064 59.8012 20.5988 59.8012 19.8493C59.8012 19.0998 59.1936 18.4922 58.4441 18.4922C57.6946 18.4922 57.087 19.0998 57.087 19.8493C57.087 20.5988 57.6946 21.2064 58.4441 21.2064Z" fill="white"/>
<path d="M63.42 21.2064C64.1695 21.2064 64.7771 20.5988 64.7771 19.8493C64.7771 19.0998 64.1695 18.4922 63.42 18.4922C62.6706 18.4922 62.063 19.0998 62.063 19.8493C62.063 20.5988 62.6706 21.2064 63.42 21.2064Z" fill="white"/>
<path d="M273.493 177.197C273.493 175.659 273.403 112.684 273.312 13.3355L273.493 13.5165C210.073 13.5165 131.816 13.5165 47.2258 13.5165L47.4972 13.245C47.4972 71.9674 47.4972 127.704 47.4972 177.107L47.3162 176.926C180.941 177.107 271.593 177.197 273.493 177.197C271.593 177.197 181.032 177.288 47.1353 177.378H46.9543V177.197C46.9543 127.794 46.9543 72.0578 46.9543 13.3355V13.0641H47.2258C131.816 13.0641 210.163 13.0641 273.493 13.0641H273.674V13.245C273.583 112.684 273.493 175.659 273.493 177.197Z" fill="#263238"/>
<path d="M342.794 341.782H337.546V344.587H342.794V341.782Z" fill="#E0E0E0"/>
<path d="M340.894 270.845H328.861V330.744H340.894V270.845Z" fill="#EBEBEB"/>
<path d="M362.335 274.012H305.61C299.549 274.012 294.663 269.126 294.663 263.064C294.663 257.002 299.549 252.116 305.61 252.116H362.335C368.397 252.116 373.282 257.002 373.282 263.064C373.282 269.126 368.397 274.012 362.335 274.012Z" fill="#455A64"/>
<path d="M338.813 330.744H331.123V373.27H338.813V330.744Z" fill="#E0E0E0"/>
<path d="M304.253 393.99C302.715 394.171 368.759 393.99 368.759 393.99C368.759 393.99 340.622 390.823 338.813 373.27H331.123C331.123 373.27 329.223 390.823 304.253 393.99Z" fill="#E0E0E0"/>
<path d="M364.597 274.012C364.597 274.102 351.479 274.283 335.284 274.283C319.09 274.283 305.972 274.193 305.972 274.012C305.972 273.922 319.09 273.741 335.284 273.741C351.479 273.741 364.597 273.831 364.597 274.012Z" fill="#263238"/>
<path d="M340.984 330.744C340.984 330.834 338.27 331.015 334.923 331.015C331.575 331.015 328.861 330.925 328.861 330.744C328.861 330.563 331.575 330.472 334.923 330.472C338.27 330.472 340.984 330.563 340.984 330.744Z" fill="#263238"/>
<path d="M342.794 347.664C341.979 347.664 341.256 346.94 341.256 346.125V340.154C341.256 339.339 341.979 338.616 342.794 338.616C343.608 338.616 344.332 339.339 344.332 340.154V346.216C344.332 347.03 343.608 347.664 342.794 347.664Z" fill="#E0E0E0"/>
<path d="M222.106 99.7451C222.106 99.7451 224.729 96.8497 225.544 96.7592C226.358 96.6687 234.591 99.2022 234.591 99.2022C234.591 99.2022 236.4 99.5641 237.214 100.469C237.938 101.374 246.08 110.241 246.08 110.241L237.033 118.203C237.033 118.203 226.448 116.303 225.453 115.217C224.548 114.132 223.825 112.322 224.458 111.779C224.458 111.779 223.553 110.241 223.825 109.155C224.096 108.069 224.367 107.255 224.367 107.255C224.367 107.255 222.739 106.079 222.739 105.355C222.649 104.541 222.468 104.088 222.468 104.088L222.106 103.455V99.7451Z" fill="#FFBE9D"/>
<path d="M225.815 101.464C225.905 101.464 225.815 101.735 225.634 102.188C225.453 102.549 225.182 103.183 224.639 103.545C224.096 103.997 223.372 104.087 222.92 103.906C222.467 103.816 222.286 103.545 222.286 103.545C222.286 103.454 222.558 103.635 222.92 103.635C223.282 103.635 223.825 103.545 224.367 103.183C224.82 102.821 225.182 102.368 225.363 102.007C225.634 101.735 225.815 101.464 225.815 101.464Z" fill="#EB996E"/>
<path d="M189.536 80.7435C186.822 80.7435 184.56 82.915 184.56 85.6295L184.108 140.19C184.108 142.904 186.279 145.166 188.993 145.166L228.439 145.438C231.153 145.438 233.415 143.266 233.415 140.552L233.686 85.9914C233.686 83.1865 231.424 80.9244 228.62 80.9244L189.536 80.7435Z" fill="#E0E0E0"/>
<path d="M211.159 97.3926C211.159 97.5735 207.088 97.7544 202.021 97.664C196.955 97.664 192.884 97.3926 192.884 97.2116C192.884 97.0307 196.955 96.8497 202.021 96.9402C207.088 96.9402 211.159 97.1211 211.159 97.3926Z" fill="#E0E0E0"/>
<path d="M222.829 104.45C222.829 104.631 216.135 104.721 207.811 104.721C199.488 104.631 192.793 104.45 192.793 104.269C192.793 104.088 199.488 103.998 207.811 103.998C216.135 104.088 222.829 104.269 222.829 104.45Z" fill="#E0E0E0"/>
<path d="M225.453 111.688C225.453 111.869 218.125 111.96 209.078 111.96C200.031 111.869 192.703 111.689 192.703 111.508C192.703 111.327 200.031 111.236 209.078 111.236C218.216 111.327 225.544 111.508 225.453 111.688Z" fill="#E0E0E0"/>
<path d="M225.453 118.565C225.453 118.746 218.125 118.837 209.078 118.837C200.031 118.746 192.703 118.565 192.703 118.384C192.703 118.203 200.031 118.113 209.078 118.113C218.125 118.113 225.453 118.384 225.453 118.565Z" fill="#E0E0E0"/>
<path d="M225.363 125.442C225.363 125.623 218.035 125.713 208.988 125.713C199.94 125.623 192.612 125.442 192.612 125.261C192.612 125.08 199.94 124.989 208.988 124.989C218.035 124.989 225.363 125.17 225.363 125.442Z" fill="#E0E0E0"/>
<path d="M225.363 132.228C225.363 132.409 218.035 132.499 208.988 132.499C199.94 132.409 192.612 132.228 192.612 132.047C192.612 131.866 199.94 131.775 208.988 131.775C218.035 131.866 225.363 132.047 225.363 132.228Z" fill="#E0E0E0"/>
<path d="M187.727 79.1151C185.013 79.1151 182.751 81.2867 182.751 84.0011L182.299 138.561C182.299 141.276 184.47 143.538 187.184 143.538L226.629 143.809C229.343 143.809 231.605 141.638 231.605 138.923L231.877 84.363C231.877 81.5581 229.615 79.2961 226.81 79.2961L187.727 79.1151Z" fill="white"/>
<path d="M187.727 79.115C187.727 79.115 187.908 79.115 188.27 79.115C188.632 79.115 189.174 79.115 189.898 79.115C191.346 79.115 193.517 79.115 196.231 79.115C201.75 79.115 209.802 79.115 219.663 79.115C220.93 79.115 222.196 79.115 223.463 79.115C224.096 79.115 224.729 79.115 225.453 79.115C226.086 79.115 226.81 79.115 227.443 79.2055C228.8 79.3865 230.158 80.2008 230.972 81.377C231.424 82.0104 231.696 82.6438 231.786 83.3676C231.967 84.0915 231.876 84.8153 231.876 85.5392C231.876 91.33 231.877 97.5732 231.786 104.088C231.786 110.602 231.696 117.479 231.696 124.627C231.696 128.156 231.696 131.775 231.605 135.485C231.605 136.39 231.605 137.294 231.605 138.29C231.605 139.195 231.515 140.28 231.062 141.095C230.248 142.904 228.348 144.081 226.358 144.081C218.758 143.99 211.43 143.99 204.283 143.9C200.755 143.9 197.226 143.809 193.788 143.809C192.069 143.809 190.35 143.809 188.722 143.809C187.908 143.809 187.093 143.809 186.189 143.719C185.375 143.628 184.56 143.266 183.837 142.723C182.479 141.728 181.756 139.918 181.846 138.29C181.846 136.661 181.846 135.123 181.846 133.585C181.846 130.508 181.937 127.432 181.937 124.537C182.027 118.746 182.027 113.317 182.118 108.34C182.208 98.478 182.299 90.4252 182.389 84.9058C182.389 84.182 182.389 83.5486 182.57 82.9152C182.751 82.2819 182.932 81.739 183.294 81.2866C183.927 80.3818 184.651 79.8389 185.375 79.5674C186.008 79.296 186.641 79.2055 187.003 79.115C187.546 79.115 187.727 79.115 187.727 79.115C187.727 79.2055 186.913 79.0245 185.555 79.6579C184.922 79.9293 184.198 80.4722 183.565 81.377C183.294 81.8295 183.022 82.3723 182.932 82.9152C182.751 83.4581 182.841 84.182 182.841 84.8153C182.841 90.3347 182.751 98.3875 182.751 108.25C182.751 113.226 182.66 118.655 182.66 124.446C182.66 127.342 182.66 130.327 182.57 133.494C182.57 135.032 182.57 136.661 182.57 138.199C182.479 139.737 183.113 141.276 184.379 142.271C185.013 142.723 185.736 143.085 186.551 143.176C187.274 143.266 188.179 143.266 188.993 143.266C190.712 143.266 192.341 143.266 194.06 143.266C197.498 143.266 201.026 143.357 204.554 143.357C211.702 143.447 219.03 143.447 226.629 143.538C228.439 143.538 230.158 142.452 230.972 140.823C231.334 140.009 231.424 139.104 231.424 138.199C231.424 137.294 231.424 136.39 231.424 135.394C231.424 131.685 231.424 128.065 231.515 124.537C231.515 117.389 231.605 110.512 231.605 103.997C231.605 97.4827 231.696 91.2395 231.696 85.4487C231.696 84.7249 231.786 84.001 231.605 83.3676C231.515 82.7343 231.243 82.0104 230.791 81.4675C229.977 80.3818 228.8 79.5674 227.534 79.3865C226.901 79.296 226.177 79.296 225.544 79.296C224.91 79.296 224.186 79.296 223.553 79.296C222.287 79.296 221.02 79.296 219.753 79.296C209.892 79.2055 201.84 79.115 196.322 79.115C193.607 79.115 191.436 79.0245 189.989 79.0245C189.265 79.0245 188.722 79.0245 188.36 79.0245C187.908 79.2055 187.727 79.115 187.727 79.115Z" fill="#263238"/>
<path d="M209.35 95.7639C209.35 95.9448 205.278 96.1258 200.212 96.0353C195.146 96.0353 191.074 95.7639 191.074 95.5829C191.074 95.402 195.146 95.2211 200.212 95.3115C205.278 95.3115 209.35 95.4925 209.35 95.7639Z" fill="#263238"/>
<path d="M221.02 102.821C221.02 103.002 214.325 103.093 206.002 103.093C197.679 103.002 190.984 102.821 190.984 102.64C190.984 102.459 197.679 102.369 206.002 102.369C214.325 102.459 221.02 102.64 221.02 102.821Z" fill="#263238"/>
<path d="M223.644 110.06C223.644 110.241 216.316 110.331 207.269 110.331C198.222 110.241 190.893 110.06 190.893 109.879C190.893 109.698 198.222 109.607 207.269 109.607C216.316 109.698 223.644 109.879 223.644 110.06Z" fill="#263238"/>
<path d="M223.644 116.936C223.644 117.117 216.316 117.208 207.269 117.208C198.222 117.117 190.893 116.936 190.893 116.756C190.893 116.575 198.222 116.484 207.269 116.484C216.316 116.484 223.644 116.756 223.644 116.936Z" fill="#263238"/>
<path d="M223.553 123.813C223.553 123.994 216.225 124.084 207.178 124.084C198.131 123.994 190.803 123.813 190.803 123.632C190.803 123.451 198.131 123.361 207.178 123.361C216.225 123.361 223.553 123.542 223.553 123.813Z" fill="#263238"/>
<path d="M223.553 130.599C223.553 130.78 216.225 130.871 207.178 130.871C198.131 130.78 190.803 130.599 190.803 130.418C190.803 130.237 198.131 130.147 207.178 130.147C216.225 130.237 223.553 130.418 223.553 130.599Z" fill="#263238"/>
<path d="M193.246 84.9967V80.4726C193.246 79.7487 192.612 79.1154 191.889 79.1154C191.165 79.1154 190.532 79.7487 190.532 80.4726V86.8063C190.532 87.9825 191.527 88.9778 192.703 88.9778C193.879 88.9778 194.874 87.9825 194.874 86.8063V79.4773C194.874 77.7582 193.517 76.4009 191.798 76.4009C190.441 76.4009 189.355 77.2153 188.903 78.3915V78.7535" stroke="#263238" stroke-width="0.75" stroke-miterlimit="10" stroke-linecap="round" stroke-linejoin="round"/>
<path d="M240.833 105.988L236.491 103.274L225.453 97.3926C225.453 97.3926 223.282 99.5641 226.991 102.64L231.605 106.26C231.605 106.26 235.676 113.679 236.581 114.313C237.486 114.855 241.467 116.303 241.467 116.303L240.833 105.988Z" fill="#FFBE9D"/>
<path d="M241.738 116.484C241.738 116.484 241.557 116.484 241.286 116.394C241.014 116.303 240.562 116.213 240.019 116.032C239.476 115.851 238.843 115.579 238.119 115.308C237.757 115.127 237.395 114.946 236.943 114.674C236.581 114.493 236.129 114.132 235.857 113.679C234.591 112.05 233.415 109.879 232.148 107.617C231.967 107.345 231.786 107.074 231.605 106.712C231.424 106.441 231.243 106.26 230.972 105.988C230.429 105.536 229.886 105.083 229.343 104.631C228.167 103.726 226.991 102.821 225.815 101.736C224.639 100.559 224.277 98.5688 225.182 97.2115L225.272 97.0306L225.453 97.1211C229.886 99.6545 233.686 101.917 236.581 103.274C237.938 103.998 239.024 104.721 239.748 105.174C240.109 105.355 240.381 105.536 240.562 105.717C240.743 105.807 240.833 105.898 240.833 105.898C240.833 105.898 240.743 105.898 240.562 105.717C240.29 105.626 240.019 105.445 239.657 105.264C238.933 104.812 237.848 104.179 236.4 103.455C233.505 102.188 229.615 99.926 225.182 97.483L225.453 97.3925C225.091 97.9354 224.91 98.7497 225.091 99.4736C225.182 100.197 225.544 100.921 226.086 101.464C227.172 102.55 228.439 103.455 229.524 104.269C230.067 104.721 230.7 105.174 231.243 105.626C231.334 105.717 231.515 105.898 231.605 105.988C231.696 106.169 231.877 106.26 231.967 106.441C232.148 106.712 232.329 107.074 232.51 107.345C233.776 109.698 234.953 111.87 236.129 113.408C236.672 114.222 237.576 114.584 238.3 114.946C239.024 115.308 239.657 115.579 240.2 115.76C240.743 115.941 241.105 116.122 241.466 116.213C241.647 116.484 241.738 116.484 241.738 116.484Z" fill="#EB996E"/>
<path d="M361.25 84.9967C361.069 82.2823 360.797 69.253 360.616 67.2624C360.435 64.5479 359.259 61.924 357.359 60.1144C355.369 58.3047 352.293 57.4904 349.941 58.6667C348.312 59.0286 347.046 60.2953 346.684 61.924C341.165 81.4679 342.07 102.279 339.627 122.546C346.774 123.723 356.455 123.27 363.692 122.818C363.602 106.622 362.245 102.369 361.25 84.9967Z" fill="#263238"/>
<path d="M358.174 112.593C358.174 112.593 358.174 112.412 358.083 112.05C358.083 111.688 358.083 111.145 357.993 110.512C357.993 109.155 357.902 107.254 357.812 104.992C357.721 100.287 357.54 93.8633 357.45 86.8057C357.359 83.277 357.359 79.8387 357.269 76.7623C357.269 75.2241 357.269 73.7764 357.178 72.4192C357.178 71.062 357.088 69.7953 356.907 68.619C356.545 66.357 355.188 64.8188 354.102 64.1854C353.017 63.552 352.203 63.6425 352.203 63.6425C352.203 63.6425 352.203 63.6425 352.293 63.6425C352.383 63.6425 352.474 63.6425 352.655 63.6425C353.017 63.6425 353.56 63.733 354.102 64.0949C354.736 64.3664 355.369 64.9093 355.912 65.7236C356.455 66.4474 356.907 67.5332 357.178 68.619C357.45 69.7953 357.45 71.062 357.54 72.4192C357.54 73.7764 357.631 75.2241 357.631 76.7623C357.721 79.8387 357.721 83.277 357.812 86.8057C357.902 93.8633 357.993 100.287 358.083 104.992C358.083 107.254 358.083 109.155 358.083 110.512C358.083 111.145 358.083 111.598 358.083 112.05C358.264 112.412 358.174 112.593 358.174 112.593Z" fill="#455A64"/>
<path d="M351.66 105.174C351.66 105.174 351.569 104.722 351.569 103.998C351.569 103.274 351.569 102.098 351.569 100.741C351.569 98.0261 351.66 94.3163 351.75 90.1542C351.841 86.0825 351.931 82.3728 352.022 79.5679C352.022 78.3012 352.112 77.2154 352.112 76.4011C352.112 75.6772 352.202 75.2248 352.202 75.2248C352.202 75.2248 352.293 75.6772 352.293 76.4011C352.293 77.1249 352.293 78.3012 352.293 79.6584C352.293 82.3728 352.203 86.0825 352.112 90.2447C352.022 94.3163 351.931 98.0261 351.841 100.831C351.841 102.098 351.75 103.184 351.75 103.998C351.75 104.722 351.66 105.174 351.66 105.174Z" fill="#455A64"/>
<path d="M327.685 43.5563C333.113 43.0135 337.637 45.366 341.889 48.6233C346.232 51.8806 349.308 56.6761 350.936 61.8336C352.655 67.2624 352.655 74.9533 350.755 80.3822C348.855 85.7206 344.694 89.5208 339.627 90.9685C332.118 93.0496 323.704 92.2352 317.824 87.1683C311.943 82.1013 308.867 74.0485 309.139 66.2671C309.32 60.9287 310.948 55.4999 314.205 51.2472C317.281 46.9946 322.347 44.0087 327.685 43.5563Z" fill="#263238"/>
<path d="M341.618 62.6478C340.984 60.5667 341.437 58.3047 341.256 56.1331C340.894 51.3376 337.275 47.2659 333.023 45.0944C329.042 43.1038 323.976 43.1038 318.909 44.461C315.472 45.3658 312.124 47.085 309.681 49.7089C306.425 53.1472 305.067 58.3047 306.063 62.9192L330.671 60.9286C332.842 62.9192 335.013 65.0003 337.727 66.267C338.542 66.6289 339.356 66.9004 340.261 66.8099C341.165 66.7194 341.98 66.1765 342.251 65.3622C342.432 64.5479 341.889 63.5526 341.618 62.6478Z" fill="#263238"/>
<path d="M317.914 51.1558L338.903 57.0371C340.984 57.3085 342.432 59.1182 342.341 61.1992L339.084 107.164C338.903 110.331 337.637 113.316 335.556 115.669L333.385 118.112C328.409 123.812 319.09 122.546 315.924 115.669C315.743 115.217 315.562 114.764 315.472 114.402C315.472 113.95 315.291 113.678 315.381 113.316C315.019 109.697 315.472 106.349 315.472 106.349C315.562 102.278 315.562 100.559 315.562 100.559C315.562 100.559 306.967 98.9299 305.429 87.5293C304.706 81.9195 305.248 72.6904 305.882 65.1804C306.425 58.4848 311.129 50.251 317.914 51.1558Z" fill="#FFBE9D"/>
<path d="M308.505 74.0478C308.415 74.7715 309.048 75.4953 309.862 75.5858C310.676 75.6762 311.31 75.0429 311.4 74.3192C311.491 73.5954 310.857 72.8716 310.043 72.7812C309.229 72.6907 308.596 73.324 308.505 74.0478Z" fill="#263238"/>
<path d="M307.691 70.0671C307.872 70.248 308.957 69.4338 310.586 69.5242C312.124 69.5242 313.3 70.3385 313.481 70.1575C313.572 70.0671 313.391 69.7052 312.938 69.3433C312.486 68.9814 311.672 68.6195 310.676 68.5291C309.681 68.5291 308.867 68.8005 308.415 69.1623C307.781 69.6147 307.6 69.9766 307.691 70.0671Z" fill="#263238"/>
<path d="M322.438 74.5906C322.347 75.3143 322.981 76.0381 323.795 76.1286C324.609 76.219 325.242 75.5857 325.333 74.862C325.423 74.1382 324.79 73.4144 323.976 73.324C323.252 73.324 322.528 73.8668 322.438 74.5906Z" fill="#263238"/>
<path d="M322.527 70.6099C322.708 70.7908 323.794 69.9766 325.422 70.0671C326.96 70.0671 328.136 70.8813 328.317 70.7004C328.408 70.6099 328.227 70.248 327.775 69.8861C327.322 69.5243 326.508 69.1624 325.513 69.0719C324.518 69.0719 323.703 69.3433 323.251 69.7052C322.618 70.248 322.437 70.6099 322.527 70.6099Z" fill="#263238"/>
<path d="M317.1 82.1919C317.1 82.1014 316.105 81.9204 314.567 81.649C314.205 81.5585 313.752 81.468 313.752 81.1966C313.662 80.9251 313.843 80.4727 314.024 80.0203C314.386 79.025 314.838 78.0297 315.291 77.0344C317.009 72.7818 318.276 69.2531 318.186 69.1626C318.005 69.0721 316.467 72.5104 314.657 76.763C314.205 77.8488 313.843 78.8441 313.481 79.7489C313.3 80.2013 313.029 80.7442 313.21 81.2871C313.3 81.5585 313.572 81.8299 313.843 81.9204C314.114 82.0109 314.295 82.0109 314.476 82.0109C316.105 82.2824 317.1 82.2824 317.1 82.1919Z" fill="#263238"/>
<path d="M315.471 100.649C315.471 100.649 323.071 101.373 330.761 97.0306C330.761 97.0306 326.78 104.721 315.471 103.364V100.649Z" fill="#EB996E"/>
<path d="M317.643 85.9919C318.185 85.2681 319.181 84.9062 320.176 84.9967C320.809 85.0872 321.533 85.449 321.895 85.9919C322.257 86.5347 322.347 87.3489 321.985 87.8918C321.533 88.4346 320.628 88.6155 319.904 88.3441C319.181 88.0727 318.547 87.6203 317.914 87.0775C317.733 86.8966 317.552 86.8061 317.462 86.6252C317.462 86.4442 317.462 86.1728 317.643 85.9919Z" fill="#EB996E"/>
<path d="M321.623 83.3681C321.352 83.3681 321.352 84.9966 319.814 86.1727C318.366 87.3488 316.557 87.0774 316.557 87.3488C316.557 87.4393 316.919 87.7107 317.733 87.7107C318.457 87.8012 319.543 87.5298 320.447 86.806C321.352 86.0822 321.714 85.0871 321.804 84.4538C321.895 83.8205 321.714 83.3681 321.623 83.3681Z" fill="#263238"/>
<path d="M322.89 65.9953C323.071 66.4477 324.609 66.2667 326.418 66.5381C328.228 66.8096 329.675 67.3524 329.947 66.9905C330.037 66.8096 329.856 66.4477 329.223 65.9953C328.68 65.543 327.685 65.1811 326.599 65.0001C325.514 64.8192 324.519 65.0001 323.795 65.2716C323.162 65.543 322.8 65.8144 322.89 65.9953Z" fill="#263238"/>
<path d="M308.324 63.281C308.596 63.6429 309.681 63.281 310.948 63.281C312.215 63.281 313.3 63.5524 313.572 63.1905C313.662 63.0096 313.481 62.6477 313.029 62.2858C312.576 61.9239 311.762 61.6525 310.858 61.6525C309.953 61.6525 309.229 61.9239 308.686 62.2858C308.415 62.7382 308.234 63.1001 308.324 63.281Z" fill="#263238"/>
<path d="M345.779 59.6619C343.97 53.0567 334.923 43.5562 328.137 43.7372L316.919 49.7994C317.371 53.5091 320.176 56.9474 323.704 58.2142C325.604 58.8475 327.956 59.119 328.952 60.8381C330.037 62.5573 329.223 65.0003 330.218 66.8099C331.575 69.3434 335.737 69.3434 336.732 72.0578C337.184 73.234 336.823 74.5913 337.275 75.7675C337.908 77.3057 341.617 79.3868 343.246 78.9344C344.874 78.482 344.965 75.7675 345.598 74.4103C346.593 72.0578 346.322 70.7911 346.051 69.4338C345.598 66.1765 346.593 62.8287 345.779 59.6619Z" fill="#263238"/>
<path d="M338.632 80.0201C338.632 79.2058 339.718 77.2152 340.532 77.1247C342.794 76.8533 346.774 77.1247 346.684 82.7346C346.503 90.4255 338.813 88.7063 338.813 88.4349C338.722 88.3444 338.541 82.9155 338.632 80.0201Z" fill="#FFBE9D"/>
<path d="M341.165 85.6294C341.165 85.6294 341.256 85.7199 341.527 85.8104C341.708 85.9008 342.16 85.9913 342.522 85.8104C343.337 85.539 344.06 84.2724 344.151 82.8248C344.151 82.1011 344.06 81.4678 343.789 80.9249C343.608 80.3821 343.246 79.9298 342.794 79.8393C342.432 79.7488 342.07 80.0202 341.98 80.2012C341.889 80.3821 341.889 80.5631 341.889 80.5631C341.889 80.5631 341.708 80.4726 341.799 80.1107C341.799 79.9298 341.889 79.7488 342.07 79.6584C342.251 79.4774 342.522 79.4774 342.794 79.4774C343.427 79.5679 343.879 80.1107 344.151 80.744C344.422 81.3773 344.603 82.1011 344.603 82.9153C344.513 84.4533 343.698 85.9008 342.613 86.1723C342.07 86.2627 341.618 86.1722 341.346 85.9008C341.165 85.8104 341.165 85.6294 341.165 85.6294Z" fill="#EB996E"/>
<path d="M352.022 70.3387C352.112 70.3387 352.384 69.5244 352.474 68.0767C352.565 66.629 352.474 64.6384 351.931 62.4668C351.388 60.2953 350.393 58.4856 349.579 57.3094C348.765 56.1331 348.131 55.4998 348.041 55.4998C347.86 55.5902 350.303 58.3047 351.388 62.5573C352.655 66.7194 351.931 70.3387 352.022 70.3387Z" fill="#FF725E"/>
<path d="M319.271 47.6275C318.367 50.7039 313.3 54.4136 311.129 56.6756C306.877 61.1092 306.063 61.7426 305.158 75.6767C303.529 71.967 302.444 65.6333 302.806 61.5616C303.258 57.49 304.977 53.5993 307.963 50.7944C311.039 48.1704 315.291 46.7227 319.271 47.6275Z" fill="#263238"/>
<path d="M349.67 59.7518C349.67 59.7518 349.217 59.8423 348.313 60.0232C347.86 60.1137 347.317 60.2042 346.775 60.2042C346.141 60.2042 345.417 60.2947 344.694 60.2947C343.156 60.3852 341.256 60.2042 339.265 60.0232C337.185 59.7518 335.013 59.2994 332.752 58.5755C330.49 57.8517 328.409 56.9469 326.6 56.0421C324.79 55.0468 323.162 54.142 321.986 53.1467C321.352 52.6943 320.809 52.2419 320.357 51.8799C319.905 51.518 319.452 51.1561 319.181 50.8846C318.548 50.2513 318.186 49.9798 318.186 49.8893C318.186 49.8893 318.548 50.1608 319.271 50.7037C319.633 50.9751 319.995 51.337 320.538 51.699C320.99 52.0609 321.533 52.5133 322.257 52.8752C323.524 53.78 325.062 54.6848 326.871 55.5897C328.68 56.4945 330.761 57.3993 333.023 58.1231C335.285 58.847 337.456 59.2994 339.446 59.5708C341.437 59.8423 343.337 59.9328 344.875 59.9328C345.689 59.9328 346.322 59.9328 346.955 59.9328C347.589 59.9328 348.132 59.8423 348.493 59.8423C349.217 59.7518 349.67 59.7518 349.67 59.7518Z" fill="#455A64"/>
<path d="M350.122 65.3617C350.122 65.3617 349.76 65.4522 349.217 65.5426C348.674 65.6331 347.77 65.7236 346.684 65.7236C344.603 65.7236 341.618 65.5426 338.451 64.7284C335.285 63.9142 332.661 62.6476 330.852 61.5619C329.947 61.0191 329.223 60.5667 328.771 60.2049C328.318 59.843 328.047 59.662 328.047 59.662C328.137 59.5716 329.133 60.3858 331.033 61.2905C332.842 62.2857 335.556 63.4618 338.632 64.276C341.708 65.0903 344.603 65.3617 346.684 65.4522C348.855 65.3617 350.122 65.2712 350.122 65.3617Z" fill="#455A64"/>
<path d="M352.022 65.6338C352.022 65.6338 352.112 66.0862 352.203 66.81C352.293 67.5339 352.293 68.7102 352.293 70.0674C352.293 71.4246 352.203 73.0533 352.022 74.8629C351.841 76.6725 351.479 78.6631 350.846 80.6537C349.489 84.7253 346.684 87.6207 344.332 88.978C343.156 89.7018 342.07 90.0637 341.346 90.3352C340.622 90.6066 340.17 90.6971 340.17 90.6066C340.17 90.6066 340.532 90.4256 341.256 90.1542C341.979 89.8828 342.975 89.4304 344.06 88.7065C345.236 87.9827 346.413 86.9874 347.589 85.5397C348.674 84.092 349.76 82.4633 350.393 80.4727C351.027 78.4821 351.298 76.582 351.569 74.7724C351.841 72.9628 351.931 71.4246 351.931 70.0674C352.022 68.7102 352.022 67.6244 351.931 66.81C352.022 66.0862 352.022 65.6338 352.022 65.6338Z" fill="#455A64"/>
<path d="M246.171 110.15L268.517 132.771C271.503 132.047 307.51 110.512 307.51 110.512L313.21 138.29C313.21 138.29 276.298 155.301 266.074 153.219C264.446 152.858 261.641 152.677 260.013 150.505C251.871 140.1 236.4 118.022 236.4 118.022L246.171 110.15Z" fill="#FFBE9D"/>
<path d="M275.483 317.714L286.521 341.692L304.344 333.458L292.944 303.78L275.483 317.714Z" fill="#FFBE9D"/>
<path d="M284.44 340.063L290.864 352.369C290.864 352.369 274.398 369.47 275.936 373.27L314.748 354.631L304.072 329.929L284.44 340.063Z" fill="#455A64"/>
<path d="M302.082 344.949C302.896 344.768 303.891 345.402 304.072 346.216C304.253 347.03 303.62 348.025 302.806 348.206C301.991 348.387 300.815 347.663 300.725 346.849C300.634 346.035 301.358 344.949 302.263 344.949" fill="#E0E0E0"/>
<g opacity="0.6">
<g opacity="0.6">
<g opacity="0.6">
<g opacity="0.6">
<g opacity="0.6">
<g opacity="0.6">
<g opacity="0.6">
<g opacity="0.6">
<g opacity="0.6">
<g opacity="0.6">
<g opacity="0.6">
<path opacity="0.6" d="M314.748 354.631L313.119 351.554L276.479 370.555C276.479 370.555 275.121 372.094 275.845 373.27L314.748 354.631Z" fill="white"/>
</g>
</g>
</g>
</g>
</g>
</g>
</g>
</g>
</g>
</g>
</g>
<path d="M290.14 352.459C290.23 352.64 291.225 352.278 292.492 352.459C293.758 352.55 294.573 353.183 294.754 353.002C294.935 352.911 294.12 351.916 292.582 351.735C291.044 351.554 290.049 352.278 290.14 352.459Z" fill="#263238"/>
<path d="M286.883 356.079C286.883 356.259 287.878 356.169 288.963 356.712C290.049 357.164 290.592 357.978 290.773 357.888C290.954 357.797 290.592 356.621 289.235 356.079C287.968 355.445 286.792 355.898 286.883 356.079Z" fill="#263238"/>
<path d="M286.973 362.05C287.154 362.05 286.973 360.964 285.978 360.15C284.983 359.336 283.897 359.336 283.897 359.517C283.897 359.698 284.711 359.969 285.525 360.693C286.249 361.417 286.702 362.14 286.973 362.05Z" fill="#263238"/>
<path d="M288.33 347.754C288.511 347.844 289.235 347.211 290.321 346.759C291.406 346.306 292.401 346.216 292.401 346.035C292.401 345.854 291.316 345.492 289.959 346.035C288.783 346.578 288.149 347.664 288.33 347.754Z" fill="#263238"/>
<path d="M274.578 330.744L247.075 256.006C247.075 256.006 247.709 243.61 250.061 239.629C252.323 235.738 321.714 212.847 321.714 212.847C321.714 212.847 339.355 208.594 351.117 212.847C362.878 217.099 374.82 222.347 373.644 230.581C373.463 231.757 373.191 233.024 372.739 234.291C368.849 246.234 357.631 254.287 345.055 254.649L335.918 255.644L289.235 264.602C287.154 264.964 285.887 267.135 286.43 269.126L301.539 319.434C301.448 319.434 284.983 327.486 274.578 330.744Z" fill="#263238"/>
<path d="M250.332 278.988L249.699 305.409L269.331 305.861L272.136 274.283L250.332 278.988Z" fill="#FFBE9D"/>
<path d="M249.699 301.88L248.885 316.9C248.885 316.9 226.539 324.953 226.267 329.025L269.331 329.477L270.688 302.604L249.699 301.88Z" fill="#455A64"/>
<path d="M248.704 308.394C248.704 308.394 248.614 308.123 248.704 307.58C248.794 307.127 248.975 306.404 249.609 305.589C249.79 305.409 249.88 305.228 250.152 305.047C250.332 304.866 250.785 304.685 251.147 304.866C251.328 304.956 251.509 305.047 251.599 305.228C251.69 305.409 251.599 305.589 251.599 305.77C251.509 306.042 251.328 306.313 251.147 306.585C250.785 307.127 250.513 307.58 250.061 308.213C249.88 308.485 249.337 308.756 248.885 308.665C248.433 308.575 248.071 308.394 247.799 308.213C247.166 307.851 246.623 307.308 246.171 306.856C245.899 306.585 245.718 306.404 245.538 306.132C245.357 305.861 245.176 305.589 245.085 305.228C244.995 304.866 245.176 304.413 245.538 304.323C245.99 304.142 246.352 304.413 246.533 304.504C246.985 304.866 247.347 305.228 247.618 305.589C248.161 306.313 248.523 306.947 248.704 307.489C248.885 307.942 248.885 308.213 248.885 308.213C248.794 308.213 248.523 307.127 247.347 305.77C247.076 305.409 246.714 305.047 246.261 304.775C246.08 304.685 245.809 304.594 245.628 304.594C245.447 304.685 245.357 304.866 245.447 305.047C245.538 305.228 245.718 305.499 245.899 305.77C246.08 306.042 246.261 306.223 246.533 306.494C246.985 306.947 247.528 307.399 248.071 307.761C248.342 307.942 248.614 308.123 248.975 308.123C249.247 308.123 249.518 308.032 249.699 307.851C250.061 307.399 250.423 306.766 250.694 306.313C250.875 306.042 251.056 305.861 251.147 305.589C251.237 305.409 251.147 305.228 251.056 305.137C250.694 304.956 250.242 305.409 250.061 305.77C248.794 307.308 248.794 308.485 248.704 308.394Z" fill="#263238"/>
<path d="M262.184 315.181C262.998 315.452 263.541 316.357 263.36 317.171C263.179 317.985 262.184 318.619 261.37 318.347C260.555 318.166 259.832 316.99 260.103 316.176C260.374 315.362 261.551 314.729 262.274 315.181" fill="#E0E0E0"/>
<g opacity="0.6">
<g opacity="0.6">
<g opacity="0.6">
<g opacity="0.6">
<g opacity="0.6">
<g opacity="0.6">
<g opacity="0.6">
<g opacity="0.6">
<g opacity="0.6">
<g opacity="0.6">
<g opacity="0.6">
<path opacity="0.6" d="M269.241 329.477L269.15 325.948L227.896 326.853C227.896 326.853 225.996 327.667 226.177 329.024L269.241 329.477Z" fill="white"/>
</g>
</g>
</g>
</g>
</g>
</g>
</g>
</g>
</g>
</g>
</g>
<path d="M248.161 316.719C248.161 316.9 249.247 316.99 250.242 317.714C251.328 318.348 251.78 319.252 251.961 319.252C252.142 319.252 251.87 317.986 250.604 317.171C249.428 316.267 248.161 316.448 248.161 316.719Z" fill="#263238"/>
<path d="M243.638 318.529C243.547 318.71 244.452 319.072 245.176 319.976C245.899 320.881 246.08 321.786 246.261 321.786C246.442 321.786 246.623 320.61 245.718 319.524C244.904 318.438 243.638 318.257 243.638 318.529Z" fill="#263238"/>
<path d="M241.014 323.867C241.195 323.957 241.466 322.872 241.014 321.695C240.471 320.519 239.476 320.067 239.385 320.248C239.295 320.429 239.928 321.062 240.29 321.967C240.743 322.962 240.833 323.867 241.014 323.867Z" fill="#263238"/>
<path d="M248.613 311.652C248.704 311.833 249.699 311.562 250.875 311.652C252.051 311.743 252.956 312.104 253.137 311.923C253.227 311.743 252.323 311.019 250.965 310.928C249.518 310.747 248.523 311.471 248.613 311.652Z" fill="#263238"/>
<path d="M261.822 205.88C261.822 205.88 250.061 204.975 248.794 217.733C247.528 230.491 241.376 289.575 241.376 289.575L273.674 292.289L277.926 231.486L321.714 212.847C321.714 212.756 269.603 204.251 261.822 205.88Z" fill="#263238"/>
<path d="M310.224 188.688C310.224 188.688 303.077 208.685 304.434 210.947C305.791 213.209 324.156 222.347 324.156 222.347L370.025 239.991C370.025 239.991 374.73 232.481 374.73 220.99C374.73 209.499 358.807 188.779 358.807 188.779H310.224V188.688Z" fill="#263238"/>
<path d="M323.885 211.761C323.885 211.761 323.795 211.851 323.704 211.851C323.523 211.942 323.342 212.032 323.071 212.123C322.438 212.394 321.623 212.756 320.538 213.209C318.276 214.204 315.019 215.561 311.038 217.371C302.896 220.899 291.406 225.876 278.107 231.576L278.288 231.395C277.836 237.367 277.383 243.882 276.931 250.577C275.845 266.231 274.76 280.708 273.945 292.199V292.38H273.764C265.441 291.656 258.565 291.022 253.77 290.66C251.418 290.48 249.518 290.299 248.252 290.118C247.618 290.027 247.166 290.027 246.804 289.937C246.442 289.937 246.352 289.846 246.352 289.846C246.352 289.846 246.533 289.846 246.804 289.846C247.166 289.846 247.618 289.937 248.252 289.937C249.518 290.027 251.418 290.208 253.77 290.299C258.565 290.661 265.441 291.203 273.764 291.837L273.583 292.018C274.398 280.527 275.393 266.14 276.479 250.396C276.931 243.701 277.383 237.186 277.836 231.214V231.033L278.017 230.943C291.316 225.333 302.806 220.447 311.038 216.918C315.11 215.199 318.366 213.842 320.628 212.937C321.714 212.485 322.619 212.123 323.161 211.851C323.433 211.761 323.614 211.67 323.795 211.58C323.795 211.761 323.795 211.761 323.885 211.761Z" fill="#455A64"/>
<path d="M360.345 213.751C360.345 213.751 359.892 213.66 359.078 213.389C358.173 213.118 356.997 212.756 355.64 212.303C352.745 211.399 348.674 210.132 344.06 209.408C339.446 208.685 335.194 208.956 332.208 209.589C329.223 210.223 327.504 211.037 327.504 210.946C327.504 210.946 327.866 210.675 328.68 210.313C329.494 209.951 330.67 209.589 332.118 209.227C335.103 208.504 339.446 208.232 344.151 208.956C348.855 209.68 352.836 211.037 355.731 212.032C357.178 212.575 358.354 213.027 359.169 213.299C359.892 213.57 360.345 213.751 360.345 213.751Z" fill="#455A64"/>
<path d="M353.831 203.256C353.831 203.346 352.293 203.075 349.85 203.256C348.584 203.346 347.136 203.527 345.508 203.708C343.879 203.889 342.07 204.16 340.26 204.432C336.551 205.065 333.294 206.422 331.304 207.779C329.223 209.136 328.228 210.403 328.228 210.312C328.228 210.312 328.409 209.95 328.861 209.408C329.313 208.865 330.037 208.141 331.123 207.417C333.204 205.97 336.461 204.522 340.26 203.889C342.16 203.527 343.97 203.346 345.598 203.165C347.227 202.984 348.765 202.803 349.941 202.803C351.207 202.803 352.203 202.803 352.926 202.894C353.469 203.075 353.831 203.165 353.831 203.256Z" fill="#455A64"/>
<path d="M287.154 345.311C287.154 345.311 286.973 345.039 286.792 344.496C286.611 343.954 286.521 343.139 286.611 342.144C286.611 341.873 286.702 341.601 286.792 341.33C286.883 341.058 287.154 340.787 287.606 340.697C287.787 340.697 288.059 340.697 288.149 340.878C288.33 341.058 288.33 341.239 288.421 341.42C288.421 341.782 288.421 342.054 288.421 342.416C288.33 343.049 288.33 343.682 288.24 344.496C288.149 344.858 287.878 345.311 287.426 345.492C286.973 345.672 286.611 345.582 286.249 345.582C285.526 345.492 284.802 345.22 284.078 344.949C283.716 344.768 283.445 344.677 283.173 344.496C282.902 344.315 282.54 344.134 282.269 343.863C281.997 343.592 281.907 343.049 282.269 342.687C282.631 342.325 282.992 342.416 283.264 342.416C283.897 342.596 284.35 342.777 284.802 343.049C285.707 343.501 286.249 344.044 286.702 344.406C287.064 344.768 287.245 345.039 287.245 345.039C287.154 345.13 286.34 344.134 284.621 343.32C284.169 343.139 283.716 342.868 283.173 342.777C282.902 342.777 282.631 342.777 282.54 342.868C282.45 342.958 282.45 343.23 282.631 343.411C282.812 343.592 283.083 343.773 283.354 343.954C283.626 344.134 283.988 344.225 284.259 344.406C284.892 344.677 285.526 344.858 286.249 344.949C286.611 345.039 286.973 345.039 287.245 344.949C287.516 344.858 287.697 344.677 287.697 344.315C287.787 343.682 287.787 342.958 287.878 342.325C287.878 341.963 287.968 341.692 287.878 341.42C287.878 341.149 287.697 341.058 287.516 341.058C287.064 341.058 286.973 341.692 286.883 342.144C286.702 344.134 287.245 345.22 287.154 345.311Z" fill="#263238"/>
<path d="M309.139 109.879C309.139 109.879 304.434 111.417 301.539 116.484C298.644 121.551 299.458 124.084 300.182 127.07C300.906 130.056 302.263 136.028 302.353 135.666C302.353 135.213 309.139 109.879 309.139 109.879Z" fill="#FFBE9D"/>
<path d="M357.45 118.927C357.45 118.927 353.741 109.879 352.926 109.065L339.084 105.536L330.399 109.788C327.866 111.055 325.152 111.689 322.347 111.417C319.271 111.146 316.557 109.879 315.2 107.617L309.772 109.065C309.772 109.065 301.177 134.942 301.358 142.09C301.539 149.238 304.525 169.597 304.163 173.668C303.801 177.649 305.248 188.779 310.134 188.779C315.019 188.779 358.717 188.779 358.717 188.779C358.717 188.779 369.664 185.702 370.206 179.188C370.749 172.492 357.45 118.927 357.45 118.927Z" fill="#FF725E"/>
<path d="M341.979 158.195C341.979 158.195 341.708 158.467 341.165 158.919C340.622 159.281 339.808 159.824 338.632 160.367C337.546 160.91 336.099 161.362 334.47 161.633C332.842 161.905 331.032 161.814 329.133 161.362C325.423 160.457 322.619 158.286 320.9 156.567C319.995 155.662 319.452 154.938 319 154.396C318.638 153.853 318.367 153.491 318.457 153.491C318.547 153.4 319.452 154.667 321.171 156.296C322.89 157.924 325.695 160.005 329.313 160.819C332.932 161.724 336.28 160.91 338.541 160.005C340.713 159.1 341.979 158.105 341.979 158.195Z" fill="#263238"/>
<g opacity="0.3">
<g opacity="0.3">
<g opacity="0.3">
<g opacity="0.3">
<g opacity="0.3">
<path opacity="0.3" d="M319.362 154.577C319.724 158.286 321.443 161.815 324.338 164.168C327.233 166.52 331.213 167.425 334.742 166.43C338.27 165.434 341.256 162.358 341.798 158.739C339.265 159.915 336.732 161.001 334.018 161.453C328.228 162.358 322.076 159.372 319.09 154.396C319.181 154.577 319.362 154.667 319.452 154.848" fill="black"/>
</g>
</g>
</g>
</g>
</g>
<g opacity="0.3">
<path opacity="0.3" d="M360.254 162.449C355.098 152.496 349.669 142.181 340.713 135.485C342.703 142.271 344.513 148.695 346.684 155.391C347.317 157.291 348.312 159.553 350.303 159.825C351.026 159.915 351.75 159.734 352.474 159.915C353.741 160.186 354.555 161.272 355.279 162.358C355.912 163.444 356.636 164.62 357.721 165.163C358.897 165.706 360.616 165.163 360.707 163.896C360.707 163.444 360.435 162.991 360.254 162.449Z" fill="black"/>
</g>
<path d="M374.82 143.538L350.303 155.029C350.303 155.029 339.446 133.313 338.632 130.327C337.818 127.341 335.918 122.184 338.723 115.85C341.527 109.517 348.765 107.617 353.379 109.245C364.145 112.955 374.82 143.538 374.82 143.538Z" fill="#FF725E"/>
<path d="M303.801 143.447C302.625 143.447 289.506 150.324 289.506 150.324L280.821 125.17C292.13 119.017 304.615 110.422 311.129 108.702L305.429 128.427L303.801 143.447Z" fill="#FF725E"/>
<path d="M352.655 153.4C357.269 161.001 360.526 165.434 360.526 165.434L318.91 190.769L323.795 201.989L374.368 181.178C377.806 179.73 380.43 176.835 381.334 173.306C381.696 171.768 381.787 170.049 381.244 168.239L372.649 144.533L352.655 153.4Z" fill="#FFBE9D"/>
<path d="M370.659 169.325C370.568 169.415 368.578 167.787 365.683 166.701C362.788 165.615 360.255 165.615 360.255 165.434C360.255 165.344 362.878 165.073 365.864 166.249C368.94 167.334 370.749 169.234 370.659 169.325Z" fill="#EB996E"/>
<path d="M305.339 121.008C305.339 121.008 305.067 121.37 304.615 122.184C304.253 122.999 303.71 124.085 303.258 125.532C302.263 128.428 301.539 132.499 301.177 137.023C300.815 141.547 300.996 145.71 301.358 148.695C301.539 150.143 301.72 151.41 301.901 152.224C302.082 153.039 302.172 153.491 302.263 153.491C302.263 153.491 302.263 153.039 302.172 152.224C302.082 151.41 301.901 150.234 301.81 148.695C301.539 145.71 301.539 141.638 301.81 137.114C302.172 132.59 302.805 128.518 303.71 125.623C304.072 124.175 304.524 122.999 304.886 122.275C305.158 121.461 305.339 121.008 305.339 121.008Z" fill="#263238"/>
<path d="M286.702 198.46L297.106 193.484L317.371 191.855L319 190.679L323.885 201.899C323.885 201.899 318.548 204.432 315.833 204.703L298.825 204.161L289.959 205.065L286.702 198.46Z" fill="#FFBE9D"/>
<path d="M374.82 143.538C374.82 143.538 374.639 143.538 374.368 143.719C374.006 143.9 373.554 144.081 373.011 144.262C371.744 144.805 370.116 145.529 368.035 146.433C363.783 148.334 358.083 150.957 351.75 153.853C351.027 154.124 350.393 154.486 349.76 154.758L350.031 154.848C347.227 149.057 344.694 143.809 342.975 140.1C342.16 138.29 341.437 136.752 340.894 135.666C340.713 135.214 340.532 134.761 340.351 134.49C340.261 134.218 340.17 134.037 340.17 134.037C340.17 134.037 340.17 134.218 340.261 134.49C340.351 134.761 340.532 135.214 340.713 135.757C341.165 136.842 341.799 138.381 342.613 140.281C344.332 144.081 346.684 149.329 349.579 155.12L349.669 155.301L349.85 155.21C350.484 154.939 351.117 154.577 351.841 154.305C358.174 151.41 363.873 148.695 368.035 146.795C370.025 145.8 371.744 145.076 372.92 144.443C373.463 144.171 373.916 143.99 374.278 143.809C374.639 143.628 374.82 143.538 374.82 143.538Z" fill="#263238"/>
<path d="M352.293 109.155C352.293 109.245 351.117 109.245 349.398 109.607C347.679 110.059 345.237 110.964 343.246 112.864C341.165 114.765 339.989 117.027 339.446 118.746C338.904 120.465 338.813 121.641 338.723 121.641C338.723 121.641 338.723 121.37 338.723 120.827C338.723 120.284 338.904 119.56 339.175 118.655C339.627 116.846 340.894 114.493 342.975 112.502C345.056 110.602 347.589 109.607 349.398 109.245C350.303 109.064 351.027 108.974 351.57 109.064C351.931 109.064 352.293 109.155 352.293 109.155Z" fill="#263238"/>
<path d="M366.316 124.899C366.316 124.899 366.226 125.261 365.954 125.985C365.773 126.708 365.231 127.613 364.597 128.79C364.416 129.061 364.145 129.332 363.964 129.604C363.873 129.785 363.693 129.875 363.602 130.056C363.512 130.147 363.331 130.328 363.15 130.418C362.878 130.69 362.607 130.961 362.245 131.233C361.883 131.504 361.521 131.685 361.159 131.956C359.712 132.861 357.902 133.676 356.003 134.218C352.203 135.304 348.584 135.757 346.141 136.571C343.699 137.295 342.251 138.109 342.251 138.019C342.251 138.019 342.613 137.747 343.246 137.385C343.518 137.204 343.97 137.023 344.422 136.842C344.694 136.752 344.965 136.661 345.146 136.48C345.417 136.39 345.689 136.3 346.051 136.209C348.493 135.395 352.112 134.761 355.912 133.766C357.812 133.223 359.531 132.499 360.978 131.594C361.34 131.323 361.702 131.142 361.974 130.961C362.245 130.69 362.607 130.418 362.878 130.237C363.059 130.147 363.15 129.966 363.331 129.875C363.421 129.694 363.602 129.604 363.693 129.513C363.873 129.242 364.145 128.971 364.326 128.79C365.05 127.704 365.592 126.799 365.773 126.166C366.135 125.261 366.316 124.899 366.316 124.899Z" fill="white"/>
<path d="M363.059 119.199C363.059 119.289 362.697 119.199 362.064 119.47C361.431 119.741 360.707 120.375 360.074 121.37C359.712 121.913 359.44 122.456 358.988 123.089C358.536 123.723 357.993 124.265 357.359 124.808C356.093 125.894 354.374 126.618 352.564 127.161C350.755 127.704 348.946 128.066 347.408 128.428C345.87 128.79 344.422 129.242 343.336 129.785C341.075 130.78 340.079 132.047 339.989 131.956C339.989 131.956 339.989 131.866 340.17 131.685C340.26 131.504 340.441 131.323 340.713 131.142C341.256 130.69 342.07 130.056 343.155 129.513C344.241 128.971 345.689 128.428 347.227 128.066C348.855 127.613 350.574 127.342 352.384 126.799C354.193 126.256 355.821 125.532 357.088 124.537C357.721 124.085 358.264 123.542 358.716 122.908C359.169 122.365 359.531 121.732 359.802 121.28C360.526 120.194 361.34 119.56 362.064 119.379C362.426 119.289 362.697 119.289 362.878 119.289C362.969 119.108 363.059 119.108 363.059 119.199Z" fill="white"/>
<path d="M343.337 140.914C343.337 140.914 343.246 141.005 342.975 141.095C342.703 141.276 342.251 141.457 341.799 141.638C340.803 142.09 339.356 142.724 337.547 143.447C335.737 144.171 333.475 144.895 330.942 145.528C328.409 146.071 325.514 146.433 322.528 145.98C319.543 145.619 316.829 144.533 314.386 143.628C311.943 142.724 309.772 142.09 307.782 141.819C305.882 141.547 304.253 141.728 303.168 141.909C302.082 142.181 301.539 142.362 301.539 142.362C301.539 142.362 301.63 142.271 301.901 142.181C302.173 142.09 302.534 141.909 303.077 141.728C304.163 141.457 305.791 141.276 307.691 141.457C309.682 141.638 311.943 142.362 314.386 143.176C316.829 143.99 319.452 145.076 322.438 145.438C325.333 145.8 328.228 145.528 330.761 144.985C333.294 144.442 335.466 143.719 337.366 143.085C339.175 142.452 340.713 141.819 341.708 141.457C342.161 141.276 342.522 141.095 342.884 141.005C343.246 140.914 343.337 140.914 343.337 140.914Z" fill="white"/>
<path d="M303.168 132.59C303.168 132.59 303.258 132.499 303.53 132.318C303.711 132.137 304.072 131.956 304.525 131.775C305.429 131.414 306.967 131.142 308.777 131.323C310.586 131.504 312.667 132.318 314.748 133.494C316.829 134.58 319 136.118 321.533 137.023C324.066 137.927 326.69 138.199 328.952 138.108C331.304 138.018 333.385 137.746 335.104 137.385C336.823 137.023 338.27 136.751 339.266 136.48C340.261 136.299 340.804 136.118 340.804 136.208C340.804 136.208 340.261 136.389 339.356 136.661C338.361 136.932 337.004 137.294 335.285 137.746C333.566 138.108 331.395 138.47 329.042 138.561C326.69 138.651 323.976 138.38 321.443 137.475C318.819 136.48 316.738 134.942 314.657 133.856C312.667 132.68 310.677 131.956 308.867 131.685C307.148 131.414 305.701 131.594 304.796 131.956C303.711 132.318 303.258 132.59 303.168 132.59Z" fill="white"/>
<path d="M298.554 145.438C298.554 145.438 298.463 145.438 298.282 145.438C298.101 145.438 297.83 145.348 297.468 145.167C296.835 144.895 295.93 144.352 295.116 143.448C294.301 142.543 293.578 141.185 293.125 139.557C292.673 137.928 292.582 136.119 292.492 134.218C292.402 132.318 292.402 130.509 292.04 128.971C291.768 127.432 291.225 125.985 290.592 124.989C289.326 122.908 287.697 122.365 287.788 122.275C287.788 122.275 287.878 122.275 288.059 122.365C288.24 122.456 288.511 122.546 288.783 122.727C289.416 123.089 290.14 123.723 290.864 124.808C291.587 125.894 292.13 127.251 292.492 128.88C292.854 130.509 292.854 132.318 292.944 134.218C293.035 136.119 293.125 137.928 293.578 139.466C294.03 141.005 294.663 142.362 295.478 143.267C296.201 144.171 297.106 144.805 297.649 145.076C298.192 145.348 298.554 145.438 298.554 145.438Z" fill="white"/>
<path d="M300.996 139.014C300.906 139.014 300.453 137.928 299.73 136.028C298.915 134.038 297.83 131.595 296.654 128.88C295.477 126.075 294.301 123.632 293.487 121.823C292.673 120.013 292.04 118.927 292.13 118.927C292.13 118.927 292.311 119.199 292.673 119.651C292.944 120.104 293.397 120.827 293.849 121.732C294.754 123.451 295.93 125.985 297.196 128.79C298.373 131.595 299.458 134.128 300.092 136.028C300.453 136.933 300.725 137.747 300.906 138.29C300.996 138.743 301.087 139.014 300.996 139.014Z" fill="white"/>
<path d="M228.439 158.467L286.792 158.92C288.692 158.92 290.502 159.825 290.773 161.725L297.106 204.251H327.142C328.137 204.251 328.861 205.065 328.861 205.97C328.861 206.965 328.047 207.689 327.142 207.689H297.649H292.04H231.243L224.729 162.811C224.277 160.639 226.087 158.467 228.439 158.467Z" fill="#E0E0E0"/>
<path d="M228.439 158.467C228.439 158.467 228.077 158.467 227.534 158.558C226.991 158.739 225.996 159.01 225.272 160.006C224.91 160.458 224.639 161.091 224.549 161.906C224.458 162.63 224.639 163.444 224.73 164.349C225.001 166.068 225.272 168.058 225.544 170.23C226.81 179.188 228.71 192.036 230.972 207.78V207.961H231.153C255.942 207.961 288.602 207.961 324.247 208.051C325.062 208.051 325.876 208.051 326.78 208.051C327.142 208.051 327.685 208.051 328.138 207.78C328.59 207.508 328.861 207.146 329.042 206.694C329.404 205.789 328.952 204.703 328.138 204.251C327.776 203.979 327.233 203.979 326.78 203.979H325.514C322.257 203.979 319 203.979 315.743 203.979C309.32 203.979 303.077 203.979 297.016 203.979L297.197 204.16C294.935 188.96 292.763 174.754 290.864 161.996C290.773 161.182 290.411 160.277 289.778 159.734C289.145 159.191 288.33 158.829 287.516 158.739C286.702 158.648 285.888 158.648 285.164 158.648C284.35 158.648 283.626 158.648 282.902 158.648C279.917 158.648 276.931 158.648 274.127 158.558C268.517 158.558 263.27 158.467 258.475 158.467C248.976 158.377 241.467 158.377 236.219 158.377C233.596 158.377 231.605 158.377 230.248 158.377C229.615 158.377 229.072 158.377 228.71 158.377C228.62 158.467 228.439 158.467 228.439 158.467C228.439 158.467 228.62 158.467 228.982 158.467C229.344 158.467 229.886 158.467 230.52 158.467C231.877 158.467 233.867 158.558 236.491 158.558C241.648 158.648 249.247 158.739 258.747 158.829C263.451 158.92 268.698 158.92 274.398 159.01C277.203 159.01 280.188 159.101 283.174 159.101C283.897 159.101 284.712 159.101 285.435 159.101C286.159 159.101 286.973 159.101 287.697 159.191C288.421 159.282 289.145 159.553 289.688 160.096C290.23 160.639 290.592 161.272 290.592 162.087C292.492 174.845 294.573 189.05 296.925 204.251V204.432H297.106C303.168 204.432 309.41 204.432 315.834 204.432C319 204.432 322.257 204.432 325.604 204.432H326.871C327.323 204.432 327.595 204.432 327.957 204.613C328.59 204.975 328.952 205.789 328.68 206.422C328.59 206.784 328.318 207.056 327.957 207.237C327.595 207.418 327.323 207.418 326.871 207.418C326.057 207.418 325.242 207.418 324.338 207.418C288.692 207.418 256.032 207.418 231.243 207.508L231.424 207.689C229.072 191.945 227.172 179.097 225.815 170.14C225.453 167.877 225.182 165.977 224.91 164.258C224.82 163.444 224.549 162.63 224.639 161.906C224.73 161.182 225.001 160.548 225.272 160.096C225.996 159.101 226.901 158.739 227.444 158.648C228.077 158.467 228.439 158.558 228.439 158.467Z" fill="#263238"/>
<path d="M257.48 186.244C259.478 186.244 261.098 184.624 261.098 182.625C261.098 180.627 259.478 179.007 257.48 179.007C255.481 179.007 253.861 180.627 253.861 182.625C253.861 184.624 255.481 186.244 257.48 186.244Z" fill="white"/>
<path d="M294.754 207.418C294.663 207.418 292.854 196.56 290.592 183.259C288.421 169.868 286.702 159.01 286.702 159.01C286.792 159.01 288.602 169.777 290.864 183.169C293.125 196.56 294.844 207.418 294.754 207.418Z" fill="#263238"/>
<path d="M3.07605 394.081C3.07605 393.99 90.5612 393.809 198.493 393.809C306.424 393.809 394 393.9 394 394.081C394 394.171 306.515 394.352 198.493 394.352C90.5612 394.262 3.07605 394.171 3.07605 394.081Z" fill="#263238"/>
</svg>
