<svg width="553" height="550" viewBox="0 0 553 550" fill="none" xmlns="http://www.w3.org/2000/svg">
<path d="M168.278 15.8927V105.625H39.4248L34.7793 16.504L168.278 15.8927Z" fill="#E0E0E0"/>
<path d="M34.7932 16.5354L34.7932 105.412L163.646 105.412V16.5354L34.7932 16.5354Z" fill="white"/>
<path d="M164.243 106.114H34.168V15.8927H164.243V106.114ZM35.3905 104.892H163.021V17.1152H35.3905V104.892Z" fill="#E0E0E0"/>
<path d="M149.696 27.6288H48.7161V94.5002H149.696V27.6288Z" fill="white"/>
<path d="M149.695 27.6287C149.695 27.6287 149.573 27.6287 149.206 27.6287C148.84 27.6287 148.351 27.6287 147.739 27.6287C146.517 27.6287 144.561 27.6287 142.238 27.6287C137.348 27.6287 130.38 27.6287 121.455 27.751C103.607 27.751 78.4229 27.8732 48.8381 27.8732L49.0826 27.6287C49.0826 48.0447 49.0826 70.6611 49.0826 94.3779L48.7159 94.1334C86.736 94.1334 121.944 94.1334 149.695 94.2556L149.451 94.5001C149.451 74.2064 149.573 57.458 149.573 45.8442C149.573 40.0983 149.573 35.4528 149.695 32.3965C149.695 30.8073 149.695 29.707 149.695 28.8512C149.695 27.9955 149.695 27.6287 149.695 27.6287C149.695 27.6287 149.695 27.9955 149.695 28.8512C149.695 29.707 149.695 30.8073 149.695 32.3965C149.695 35.4528 149.695 39.9761 149.818 45.7219C149.818 57.3358 149.94 74.0842 149.94 94.5001V94.7446H149.695C121.944 94.7446 86.8583 94.7446 48.7159 94.8669H48.3491V94.5001C48.3491 70.7834 48.3491 48.1669 48.3491 27.751V27.5065H48.5936C78.3007 27.5065 103.607 27.6287 121.455 27.6287C130.38 27.6287 137.348 27.6287 142.238 27.751C144.561 27.751 146.517 27.751 147.739 27.751C148.351 27.751 148.84 27.751 149.084 27.751C149.573 27.6287 149.695 27.6287 149.695 27.6287Z" fill="#E0E0E0"/>
<path d="M34.7793 16.2594C34.7793 16.1371 35.6351 16.7484 36.9798 17.7264C38.3246 18.7044 40.0361 20.0492 41.9921 21.6385C43.9481 23.2277 45.6596 24.6947 46.8822 25.795C48.1047 26.8953 48.8382 27.6288 48.7159 27.6288C48.5937 27.751 45.5374 25.1837 41.6254 22.1275C37.8356 18.9489 34.657 16.5039 34.7793 16.2594Z" fill="#E0E0E0"/>
<path d="M163.632 16.504C163.754 16.6263 160.698 19.1936 156.908 22.2498C152.996 25.3061 149.817 27.6289 149.695 27.5066C149.573 27.3844 152.629 24.8171 156.419 21.7608C160.331 18.8268 163.51 16.3818 163.632 16.504Z" fill="#E0E0E0"/>
<path d="M163.51 105.502C158.742 101.59 153.974 97.6778 149.084 93.8881L163.51 105.502Z" fill="white"/>
<path d="M149.206 93.8889C149.328 93.7667 152.629 96.2117 156.541 99.5125C160.453 102.691 163.631 105.503 163.509 105.625C163.387 105.747 160.086 103.302 156.174 100.001C152.262 96.7007 149.083 94.0112 149.206 93.8889Z" fill="#E0E0E0"/>
<path d="M34.7792 105.503C34.6569 105.381 37.7132 102.813 41.503 99.757C45.2928 96.7007 48.4713 94.378 48.5936 94.5002C48.7158 94.6225 45.6595 97.1897 41.8698 100.246C38.08 103.302 34.9014 105.625 34.7792 105.503Z" fill="#E0E0E0"/>
<path d="M69.2754 48.4534V70.8253H132.846V48.4534H69.2754Z" fill="#E0E0E0"/>
<path d="M299.82 98.1676H229.77V199.636H299.82V98.1676Z" fill="#E0E0E0"/>
<path d="M296.274 98.1677H226.224V199.636H296.274V98.1677Z" fill="#F5F5F5"/>
<path d="M287.472 109.17H234.904V188.634H287.472V109.17Z" fill="white"/>
<path d="M287.595 188.634C287.595 188.634 287.595 188.511 287.595 188.267C287.595 188.022 287.595 187.656 287.595 187.167C287.595 186.189 287.595 184.722 287.595 182.766C287.595 178.976 287.595 173.352 287.595 166.384C287.595 152.325 287.595 132.52 287.472 109.17L287.595 109.293C271.58 109.293 253.731 109.293 235.027 109.293L235.271 109.048C235.271 139 235.271 166.751 235.271 188.511L235.149 188.389C251.164 188.389 264.367 188.389 273.413 188.511C277.937 188.511 281.604 188.511 284.049 188.511C285.272 188.511 286.25 188.511 286.861 188.511C287.228 188.634 287.595 188.634 287.595 188.634C287.595 188.634 287.228 188.634 286.617 188.634C286.005 188.634 285.027 188.634 283.927 188.634C281.482 188.634 277.937 188.634 273.413 188.634C264.245 188.634 251.041 188.634 235.027 188.756H234.904V188.634C234.904 166.751 234.904 139.122 234.904 109.17V108.926H235.149C253.853 108.926 271.702 108.926 287.717 108.926H287.839V109.048C287.839 132.52 287.717 152.325 287.717 166.384C287.717 173.352 287.717 178.976 287.717 182.766C287.717 184.599 287.717 186.066 287.717 187.044C287.717 187.533 287.717 187.9 287.717 188.145C287.595 188.511 287.595 188.634 287.595 188.634Z" fill="#E0E0E0"/>
<path d="M296.519 98.1676C296.519 98.1676 296.03 98.9011 295.296 100.001C294.44 101.102 293.34 102.569 291.995 104.158C290.651 105.747 289.428 107.214 288.572 108.192C287.717 109.17 287.105 109.781 286.983 109.781C286.983 109.781 287.472 109.048 288.328 108.07C289.306 106.97 290.406 105.503 291.751 104.036C292.973 102.446 294.196 101.102 295.174 100.001C295.907 98.7789 296.397 98.1676 296.519 98.1676Z" fill="#E0E0E0"/>
<path d="M287.839 188.389C290.406 192.546 293.585 196.458 297.008 199.881L287.839 188.389Z" fill="white"/>
<path d="M297.008 199.881C297.008 199.881 296.397 199.392 295.419 198.414C294.441 197.436 293.218 196.091 291.996 194.502C290.773 192.912 289.673 191.445 288.939 190.223C288.206 189.123 287.839 188.389 287.839 188.389C287.839 188.389 288.328 189 289.184 190.101C289.917 191.201 291.018 192.668 292.362 194.257C293.585 195.846 294.807 197.191 295.663 198.169C296.519 199.27 297.008 199.881 297.008 199.881Z" fill="#E0E0E0"/>
<path d="M226.224 199.636C229.281 195.846 232.337 192.057 235.393 188.267L226.224 199.636Z" fill="white"/>
<path d="M235.393 188.267C235.515 188.389 233.437 190.956 230.992 194.013C228.425 197.191 226.347 199.636 226.224 199.514C226.102 199.392 228.18 196.824 230.625 193.768C233.193 190.712 235.393 188.267 235.393 188.267Z" fill="#E0E0E0"/>
<path d="M226.224 98.1677C226.347 98.0455 228.303 100.49 230.625 103.547C232.948 106.603 234.904 109.048 234.782 109.048C234.66 109.17 232.704 106.725 230.381 103.669C228.058 100.735 226.224 98.29 226.224 98.1677Z" fill="#E0E0E0"/>
<path d="M271.213 125.307H253.609V175.308H271.213V125.307Z" fill="#E0E0E0"/>
<path d="M290.895 291.692H165.221V529.348H290.895V291.692Z" fill="#E0E0E0"/>
<path d="M253.609 291.692H127.935V529.348H253.609V291.692Z" fill="#F5F5F5"/>
<path d="M244.318 340.592H136.37V302.939H244.318V340.592ZM137.837 339.247H243.095V304.283H137.837V339.247Z" fill="#E0E0E0"/>
<path d="M205.564 311.129H176.713C173.412 311.129 170.722 308.44 170.722 305.139V303.672H211.677V305.139C211.677 308.44 208.865 311.129 205.564 311.129Z" fill="#EBEBEB"/>
<path d="M244.318 388.514H136.37V350.861H244.318V388.514ZM137.837 387.17H243.095V352.083H137.837V387.17Z" fill="#E0E0E0"/>
<path d="M205.564 358.929H176.713C173.412 358.929 170.722 356.24 170.722 352.939V351.472H211.677V352.939C211.677 356.24 208.865 358.929 205.564 358.929Z" fill="#EBEBEB"/>
<path d="M244.318 436.315H136.37V398.661H244.318V436.315ZM137.837 434.97H243.095V400.006H137.837V434.97Z" fill="#E0E0E0"/>
<path d="M205.564 406.852H176.713C173.412 406.852 170.722 404.163 170.722 400.862V399.395H211.677V400.862C211.677 404.04 208.865 406.852 205.564 406.852Z" fill="#EBEBEB"/>
<path d="M244.318 484.115H136.37V446.461H244.318V484.115ZM137.837 482.892H243.095V447.928H137.837V482.892Z" fill="#E0E0E0"/>
<path d="M205.564 454.652H176.713C173.412 454.652 170.722 451.963 170.722 448.662V447.195H211.677V448.662C211.677 451.963 208.865 454.652 205.564 454.652Z" fill="#EBEBEB"/>
<path d="M258.865 282.767H122.311V294.625H258.865V282.767Z" fill="#EBEBEB"/>
<path d="M299.942 282.767H258.865V294.625H299.942V282.767Z" fill="#E0E0E0"/>
<path d="M134.536 529.348H127.935V541.451H134.536V529.348Z" fill="#E0E0E0"/>
<path d="M175.368 529.348H168.766V541.451H175.368V529.348Z" fill="#E0E0E0"/>
<path d="M249.941 529.348H243.34V541.451H249.941V529.348Z" fill="#E0E0E0"/>
<path d="M287.228 529.348H280.626V541.451H287.228V529.348Z" fill="#E0E0E0"/>
<path d="M244.318 251.226L257.032 283.745H249.085L242.728 263.696L244.318 251.226Z" fill="#E0E0E0"/>
<path d="M200.918 221.152L196.517 283.501L241.628 284.479L246.763 221.152H200.918Z" fill="#EBEBEB"/>
<path d="M205.319 226.165L201.774 277.999L235.271 279.589L240.039 225.798L205.319 226.165Z" fill="#FAFAFA"/>
<path d="M212.777 233.5L209.965 269.931H228.547L231.848 233.5H212.777Z" fill="#E0E0E0"/>
<path d="M527.207 8.0686H361.434V305.873H527.207V8.0686Z" fill="#EBEBEB"/>
<path d="M518.894 16.7484H368.036V297.07H518.894V16.7484Z" fill="#FAFAFA"/>
<path d="M518.894 20.0492L368.036 211.984V16.7484H518.894V20.0492Z" fill="#F5F5F5"/>
<path d="M522.195 97.4342H368.036V100.368H522.195V97.4342Z" fill="#EBEBEB"/>
<path d="M522.195 164.183H368.036V167.117H522.195V164.183Z" fill="#EBEBEB"/>
<path d="M522.195 230.933H368.036V233.867H522.195V230.933Z" fill="#EBEBEB"/>
<path d="M439.701 98.9563V305.072H447.28V98.9563H439.701Z" fill="#EBEBEB"/>
<path d="M400.555 16.7484H397.132V98.9012H400.555V16.7484Z" fill="#EBEBEB"/>
<path d="M430.384 16.7484H426.961V98.9012H430.384V16.7484Z" fill="#EBEBEB"/>
<path d="M460.091 16.7484H456.668V98.9012H460.091V16.7484Z" fill="#EBEBEB"/>
<path d="M489.92 16.7484H486.497V98.9012H489.92V16.7484Z" fill="#EBEBEB"/>
<path d="M361.434 3.05627H354.466V307.829H361.434V3.05627Z" fill="#F5F5F5"/>
<path d="M534.298 308.684L527.207 305.995V3.05627H534.298V308.684Z" fill="#E0E0E0"/>
<path d="M534.298 0H354.466V8.06858H534.298V0Z" fill="#E0E0E0"/>
<path d="M538.943 309.662H349.454V317.242H538.943V309.662Z" fill="#E0E0E0"/>
<path d="M527.207 305.995L539.065 309.662H349.454L361.434 305.995H527.207Z" fill="#EBEBEB"/>
<path d="M30.0113 330.689C21.3315 330.934 16.0746 340.836 15.5856 349.516C15.0966 358.196 17.5417 367.12 15.3411 375.556C12.6516 386.314 3.11602 394.382 0.670999 405.14C-2.26303 417.855 5.31654 430.569 6.29455 443.527C6.78356 449.884 5.6833 456.364 7.15031 462.476C9.59534 472.868 20.1089 480.814 30.7448 480.325C41.3806 479.958 51.283 471.156 52.8723 460.642C54.4615 450.74 49.5715 440.593 51.772 430.935C53.3613 423.723 58.6181 417.366 58.6181 410.03C58.7403 401.228 51.5275 394.016 49.9382 385.458C48.2267 376.9 52.261 368.098 52.5055 359.418C52.8723 343.526 45.7817 331.545 30.0113 330.689Z" fill="#EBEBEB"/>
<path d="M34.4123 371.766C34.4123 371.766 34.4123 372.255 34.4123 373.111C34.2901 374.089 34.2901 375.433 34.1678 377.145C33.9233 380.69 33.5566 385.702 33.0675 391.815C32.0895 404.162 30.867 421.4 29.6445 440.227C28.422 459.175 27.3217 476.291 26.5882 488.76C26.2215 494.873 25.8547 499.885 25.7325 503.43C25.6102 505.142 25.488 506.487 25.488 507.465C25.3657 508.32 25.3657 508.809 25.3657 508.809C25.3657 508.809 25.3657 508.32 25.3657 507.465C25.3657 506.487 25.488 505.142 25.488 503.43C25.6102 499.885 25.8547 494.873 26.0992 488.76C26.7105 476.291 27.6885 459.175 28.911 440.227C30.1335 421.278 31.6005 404.162 32.5785 391.815C33.1898 385.702 33.5566 380.69 33.9233 377.145C34.0456 375.433 34.2901 374.089 34.2901 373.111C34.2901 372.255 34.2901 371.766 34.4123 371.766Z" fill="#E0E0E0"/>
<path d="M19.0087 541.206H37.4686C47.7377 541.206 56.0508 532.893 56.0508 522.624V485.582H0.426514V522.624C0.426514 532.893 8.7396 541.206 19.0087 541.206Z" fill="#E0E0E0"/>
<path d="M0.426514 499.396C0.426514 499.396 0.793267 499.641 1.28227 500.007C1.89353 500.496 2.74929 501.108 3.7273 501.963C5.80557 503.675 8.7396 506.12 12.2849 508.932H11.9181C16.5637 506.12 22.065 502.697 27.933 499.152L28.0553 499.029L28.1775 499.152C33.6788 502.697 38.8134 506.12 43.0922 508.932H42.7254C46.5152 506.12 49.816 503.675 52.1388 501.963C53.239 501.23 54.0948 500.496 54.8283 500.007C55.4396 499.518 55.8063 499.396 55.8063 499.396C55.8063 499.396 55.5618 499.641 54.9506 500.13C54.3393 500.619 53.4835 501.352 52.3833 502.208C50.0605 504.042 46.882 506.487 43.0922 509.421L42.9699 509.543L42.8477 509.421C38.5689 506.609 33.4343 503.308 27.933 499.641H28.2998C22.3095 503.186 16.8082 506.609 12.1626 509.298L12.0404 509.421L11.9181 509.298C8.49509 506.364 5.56106 503.919 3.48279 502.086C2.50478 501.23 1.77128 500.619 1.16002 500.007C0.671016 499.641 0.426514 499.396 0.426514 499.396Z" fill="white"/>
<path d="M0.426514 493.773C0.426514 493.773 0.793267 494.017 1.28227 494.384C1.89353 494.873 2.74929 495.484 3.7273 496.34C5.80557 498.051 8.7396 500.496 12.2849 503.308H11.9181C16.5637 500.496 22.065 497.073 27.933 493.528L28.0553 493.406L28.1775 493.528C33.6788 497.073 38.8134 500.496 43.0922 503.308H42.7254C46.5152 500.496 49.816 498.051 52.1388 496.34C53.239 495.606 54.0948 494.873 54.8283 494.384C55.4396 493.895 55.8063 493.773 55.8063 493.773C55.8063 493.773 55.5618 494.017 54.9506 494.506C54.3393 494.995 53.4835 495.729 52.3833 496.584C50.0605 498.418 46.882 500.863 43.0922 503.797L42.9699 503.919L42.8477 503.797C38.5689 500.985 33.4343 497.685 27.933 494.017H28.2998C22.3095 497.562 16.8082 500.985 12.1626 503.675L12.0404 503.797L11.9181 503.675C8.49509 500.741 5.56106 498.296 3.48279 496.462C2.50478 495.606 1.77128 494.995 1.16002 494.384C0.671016 494.017 0.426514 493.773 0.426514 493.773Z" fill="white"/>
<path d="M0.426514 505.02C0.426514 505.02 0.793267 505.264 1.28227 505.631C1.89353 506.12 2.74929 506.731 3.7273 507.587C5.80557 509.298 8.7396 511.743 12.2849 514.555H11.9181C16.5637 511.743 22.065 508.32 27.933 504.775L28.0553 504.653L28.1775 504.775C33.6788 508.32 38.8134 511.743 43.0922 514.555H42.7254C46.5152 511.743 49.816 509.298 52.1388 507.587C53.239 506.853 54.0948 506.12 54.8283 505.631C55.4396 505.142 55.8063 505.02 55.8063 505.02C55.8063 505.02 55.5618 505.264 54.9506 505.753C54.3393 506.242 53.4835 506.976 52.3833 507.831C50.0605 509.665 46.882 512.11 43.0922 515.044L42.9699 515.166L42.8477 515.044C38.5689 512.232 33.4343 508.932 27.933 505.264H28.2998C22.3095 508.809 16.8082 512.232 12.1626 514.922L12.0404 515.044L11.9181 514.922C8.49509 511.988 5.56106 509.543 3.48279 507.709C2.50478 506.853 1.77128 506.242 1.16002 505.631C0.671016 505.264 0.426514 505.02 0.426514 505.02Z" fill="white"/>
<path d="M545.422 539.739C545.422 539.861 427.083 540.106 280.993 540.106C134.903 540.106 16.5637 539.984 16.5637 539.739C16.5637 539.495 134.903 539.372 280.993 539.372C426.961 539.372 545.422 539.495 545.422 539.739Z" fill="#263238"/>
<path d="M302.51 48.9005C302.632 49.0227 299.209 51.2232 294.808 53.7905C290.529 56.3578 286.862 58.3138 286.862 58.0693C286.739 57.947 290.162 55.7465 294.563 53.1792C298.842 50.7342 302.387 48.7782 302.51 48.9005Z" fill="#263238"/>
<path d="M282.949 28.4845C283.071 28.6067 280.504 33.4968 277.203 39.3648C273.903 45.3551 270.968 50.1229 270.846 50.0007C270.724 49.8784 273.291 44.9884 276.592 39.1203C280.015 33.13 282.827 28.3622 282.949 28.4845Z" fill="#263238"/>
<path d="M257.888 22.1274C258.01 22.1274 258.01 27.3842 257.888 33.8636C257.643 40.3429 257.399 45.5997 257.154 45.5997C257.032 45.5997 257.032 40.3429 257.154 33.8636C257.399 27.262 257.643 22.1274 257.888 22.1274Z" fill="#263238"/>
<path d="M238.083 47.4335C237.961 47.5557 235.393 45.4775 232.337 42.6657C229.281 39.9762 226.836 37.6534 226.958 37.5311C227.08 37.4089 229.648 39.4871 232.704 42.2989C235.76 44.9884 238.083 47.3112 238.083 47.4335Z" fill="#263238"/>
<path d="M224.88 60.6366C224.88 60.7588 224.024 60.6366 222.557 60.2698C221.212 59.9031 219.256 59.1696 217.423 58.1916C215.467 57.2135 213.877 55.991 212.777 55.013C211.677 54.035 211.066 53.4238 211.188 53.3015C211.31 53.1793 213.877 55.502 217.667 57.5803C221.457 59.6586 224.88 60.5143 224.88 60.6366Z" fill="#263238"/>
<path d="M460.58 307.217L469.626 316.264C469.626 316.264 473.538 326.289 475.005 328.978C478.062 334.602 478.551 334.357 479.162 333.868C480.751 332.646 474.272 323.721 476.717 324.822C479.162 325.922 483.441 336.558 485.03 335.213C487.108 333.379 480.14 324.21 479.651 323.477C479.162 322.621 480.262 321.887 480.751 322.621C481.363 323.721 488.331 335.091 490.409 333.379C491.509 332.401 489.676 330.445 489.676 330.445C489.676 330.445 482.341 320.298 483.441 319.442C484.419 318.709 488.942 324.455 490.287 326.533C491.632 328.611 493.221 328.734 493.588 327.389C493.832 326.411 489.798 320.054 488.453 317.975C487.108 315.897 483.074 310.518 487.231 311.618C491.387 312.719 494.932 311.985 495.788 311.129C496.644 310.274 495.666 308.807 494.443 309.051C493.343 309.173 491.509 308.929 490.165 308.684C489.064 308.44 487.964 308.073 486.864 307.584C485.641 306.973 484.663 306.362 483.93 305.75L470.115 292.18" fill="#936754"/>
<path d="M366.936 101.102C360.334 103.547 354.466 114.183 354.221 121.762C354.099 126.163 354.833 131.298 351.654 134.354C348.842 137.044 344.319 136.677 340.774 138.266C336.862 139.978 334.295 144.256 334.417 148.535C334.539 150.858 335.395 153.181 335.028 155.503C334.05 160.638 327.448 162.35 324.148 166.506C321.214 170.296 321.58 175.919 324.025 180.076C326.47 184.233 330.749 187.044 335.15 189C341.874 192.057 349.454 193.524 356.911 193.157C362.29 192.912 367.914 191.568 371.459 187.533C376.104 182.521 376.104 174.941 375.982 168.095C375.738 146.824 377.205 125.674 380.505 104.647" fill="#263238"/>
<path d="M274.514 89.6101L266.567 79.5855C266.567 79.5855 263.755 69.1941 262.655 66.3823C260.332 60.392 259.721 60.6365 259.11 61.0033C257.398 62.1036 262.9 71.6391 260.455 70.2944C258.132 68.9496 255.076 57.8248 253.364 59.0473C251.041 60.6365 257.032 70.4166 257.398 71.3946C257.765 72.2504 256.543 72.9839 256.176 72.1282C255.687 70.9056 250.063 58.8028 247.741 60.392C246.518 61.2478 248.107 63.3261 248.107 63.3261C248.107 63.3261 254.22 74.2064 253.12 74.9399C252.019 75.6734 248.23 69.3164 247.007 67.1159C245.907 64.9153 244.44 64.5486 243.828 65.8933C243.462 66.7491 246.763 73.5952 247.985 75.7957C249.208 77.9962 252.508 83.8643 248.474 82.275C244.44 80.6857 240.772 81.0525 239.916 81.786C238.938 82.5195 239.672 84.1088 241.017 84.1088C242.117 83.9865 243.951 84.4755 245.296 84.8423C246.396 85.209 247.496 85.698 248.474 86.3093C249.574 87.0428 250.43 87.7763 251.286 88.3876L263.266 103.547" fill="#936754"/>
<path d="M475.128 286.557C472.561 280.2 418.892 188.511 418.892 188.511C417.303 183.744 387.718 168.34 387.718 168.34C387.718 168.34 337.84 146.212 332.461 139.122C327.082 132.154 300.798 99.8792 295.419 96.7007C290.04 93.5222 283.805 93.1554 283.805 93.1554L270.846 81.1748L254.342 94.7447C255.932 95.8449 262.9 109.293 262.9 109.293C262.9 109.293 264.245 117.972 268.034 123.84C271.824 129.709 329.649 185.333 329.649 185.333C329.649 185.333 327.693 233.989 329.282 244.258C331.605 259.417 342.363 265.53 342.363 265.53C343.097 267.241 398.232 262.962 398.232 262.962C398.232 262.962 408.257 261.862 408.257 252.449L408.99 241.446C415.225 253.794 434.296 291.447 437.719 295.848C441.876 301.105 456.179 306.239 456.179 306.239L464.981 312.23L479.285 301.349C479.162 301.349 477.573 292.669 475.128 286.557Z" fill="#E8505B"/>
<path d="M344.564 220.052C343.341 221.275 340.774 220.663 338.818 218.707C336.862 216.751 336.373 214.184 337.595 212.962C338.818 211.739 341.385 212.35 343.341 214.306C345.297 216.262 345.786 218.83 344.564 220.052Z" fill="#FAFAFA"/>
<path d="M355.689 198.047C354.099 197.436 353.61 194.624 354.711 191.812C355.811 189 358.011 187.289 359.601 188.022C361.19 188.634 361.679 191.445 360.579 194.257C359.601 196.947 357.278 198.658 355.689 198.047Z" fill="#FAFAFA"/>
<path d="M345.542 174.33C344.075 175.308 341.874 174.575 340.407 172.741C339.062 170.785 339.062 168.462 340.407 167.362C341.874 166.384 344.075 167.117 345.542 168.951C347.009 170.907 347.009 173.352 345.542 174.33Z" fill="#FAFAFA"/>
<path d="M322.681 151.592C323.047 153.303 321.825 155.137 319.747 155.626C317.668 156.115 315.712 155.137 315.346 153.425C314.979 151.714 316.201 149.88 318.28 149.391C320.358 148.902 322.314 149.88 322.681 151.592Z" fill="#FAFAFA"/>
<path d="M314.245 132.154C312.534 132.031 311.189 130.32 311.311 128.119C311.434 125.919 312.901 124.33 314.734 124.452C316.446 124.574 317.791 126.286 317.668 128.486C317.546 130.564 315.957 132.154 314.245 132.154Z" fill="#FAFAFA"/>
<path d="M293.585 134.232C293.34 135.943 290.895 137.044 288.206 136.677C285.516 136.31 283.56 134.476 283.805 132.765C284.049 131.053 286.494 129.953 289.184 130.32C291.995 130.809 293.951 132.52 293.585 134.232Z" fill="#FAFAFA"/>
<path d="M284.661 107.703C282.949 107.459 281.726 105.869 281.849 104.158C282.093 102.446 283.683 101.224 285.394 101.468C287.106 101.713 288.328 103.302 288.206 105.014C288.084 106.725 286.494 107.948 284.661 107.703Z" fill="#FAFAFA"/>
<path d="M268.034 102.569C266.445 103.425 264.489 102.813 263.633 101.224C262.778 99.6348 263.267 97.6788 264.856 96.8231C266.445 95.9673 268.401 96.5786 269.257 98.1678C270.113 99.7571 269.502 101.713 268.034 102.569Z" fill="#FAFAFA"/>
<path d="M364.246 164.183C363.268 165.65 361.434 166.139 360.089 165.284C358.745 164.428 358.378 162.472 359.234 161.005C360.212 159.538 362.045 159.049 363.39 159.905C364.857 160.76 365.224 162.716 364.246 164.183Z" fill="#FAFAFA"/>
<path d="M386.007 216.14C384.54 217.118 382.461 216.385 381.361 214.673C380.261 212.962 380.628 210.761 382.095 209.905C383.562 208.927 385.64 209.661 386.74 211.372C387.84 212.962 387.474 215.162 386.007 216.14Z" fill="#FAFAFA"/>
<path d="M399.699 231.299C398.599 232.644 396.276 232.644 394.32 231.177C392.486 229.71 391.875 227.387 392.975 226.043C394.075 224.698 396.398 224.698 398.354 226.165C400.188 227.632 400.799 229.955 399.699 231.299Z" fill="#FAFAFA"/>
<path d="M357.645 260.517C355.933 260.762 354.344 259.295 354.099 257.339C353.855 255.383 355.077 253.671 356.911 253.549C358.623 253.304 360.212 254.772 360.456 256.728C360.701 258.561 359.478 260.273 357.645 260.517Z" fill="#FAFAFA"/>
<path d="M367.302 237.656C366.08 238.879 363.268 238.145 361.19 236.067C358.989 233.867 358.378 231.177 359.6 229.955C360.823 228.732 363.635 229.466 365.713 231.544C367.791 233.622 368.525 236.312 367.302 237.656Z" fill="#FAFAFA"/>
<path d="M340.162 251.226C338.451 251.349 336.862 249.148 336.739 246.459C336.617 243.769 337.962 241.569 339.673 241.446C341.385 241.324 342.974 243.525 343.096 246.214C343.219 248.904 341.874 251.104 340.162 251.226Z" fill="#FAFAFA"/>
<path d="M396.398 259.295C394.931 260.395 392.486 259.295 390.652 256.972C388.941 254.649 388.696 251.837 390.041 250.859C391.508 249.759 393.953 250.86 395.787 253.182C397.498 255.505 397.743 258.317 396.398 259.295Z" fill="#FAFAFA"/>
<path d="M421.949 236.067C420.848 237.412 418.403 237.167 416.447 235.578C414.491 233.989 413.88 231.544 414.98 230.199C416.081 228.854 418.526 229.099 420.482 230.688C422.438 232.277 423.049 234.722 421.949 236.067Z" fill="#FAFAFA"/>
<path d="M435.274 237.656C433.562 237.29 432.707 234.845 433.318 232.4C433.929 229.955 435.763 228.243 437.474 228.732C439.186 229.099 440.042 231.544 439.43 233.989C438.819 236.434 436.985 238.023 435.274 237.656Z" fill="#FAFAFA"/>
<path d="M450.311 284.968C448.722 284.356 448.355 281.422 449.455 278.366C450.678 275.31 452.878 273.476 454.59 274.087C456.179 274.698 456.546 277.633 455.445 280.689C454.223 283.623 451.9 285.579 450.311 284.968Z" fill="#FAFAFA"/>
<path d="M470.849 300.004C470.238 300.616 469.382 300.86 468.526 300.983C467.671 300.983 466.815 300.86 466.081 300.494C465.348 300.127 464.736 299.393 464.37 298.66C464.003 297.926 463.881 297.07 464.125 296.215C464.37 295.359 464.981 294.748 465.959 294.503C466.937 294.259 468.16 294.381 469.26 294.992C470.36 295.603 471.094 296.581 471.338 297.559C471.705 298.537 471.46 299.393 470.849 300.004Z" fill="#FAFAFA"/>
<path d="M413.147 197.558C414.858 197.069 417.059 199.147 418.037 202.448C419.015 205.627 418.526 208.683 416.814 209.172C415.103 209.661 412.902 207.583 411.924 204.282C410.946 201.103 411.435 198.169 413.147 197.558Z" fill="#FAFAFA"/>
<path d="M462.902 305.995C464.247 307.706 465.959 309.051 467.915 310.151L462.902 305.995Z" fill="#455A64"/>
<path d="M467.915 310.151C467.793 310.274 466.448 309.785 464.981 308.562C463.514 307.34 462.781 306.117 462.903 305.995C463.025 305.873 464.003 306.973 465.348 308.073C466.693 309.173 467.915 310.029 467.915 310.151Z" fill="#263238"/>
<path d="M471.827 306.851C471.705 306.973 470.727 306.362 469.627 305.261C468.526 304.161 467.793 303.183 467.915 303.061C468.037 302.938 469.015 303.794 469.993 304.772C471.094 305.873 471.949 306.728 471.827 306.851Z" fill="#263238"/>
<path d="M475.739 304.039C475.617 304.161 474.761 303.427 474.028 302.449C473.294 301.349 472.805 300.371 472.927 300.371C473.05 300.249 473.783 301.105 474.517 302.083C475.25 303.061 475.861 303.916 475.739 304.039Z" fill="#263238"/>
<path d="M407.89 215.407C408.012 215.407 408.257 216.996 408.501 219.441C408.746 222.008 408.99 225.431 409.112 229.343C409.235 233.255 409.235 236.801 409.112 239.246C408.99 241.813 408.868 243.402 408.745 243.402C408.623 243.402 408.623 241.813 408.623 239.246C408.623 236.678 408.623 233.255 408.501 229.343C408.379 225.431 408.134 222.008 408.012 219.441C407.89 216.996 407.767 215.529 407.89 215.407Z" fill="#263238"/>
<path d="M371.581 265.407C371.581 265.53 370.848 265.163 369.87 264.552C368.892 263.94 367.792 262.84 366.814 261.251C365.836 259.784 365.347 258.195 365.102 257.094C364.858 255.994 364.98 255.261 364.98 255.261C365.224 255.261 365.469 258.072 367.303 260.884C369.259 263.818 371.704 265.285 371.581 265.407Z" fill="#263238"/>
<path d="M377.571 257.339C377.694 257.339 377.938 259.05 377.571 261.129C377.205 263.207 376.471 264.796 376.227 264.674C376.104 264.552 376.593 262.962 376.96 261.006C377.327 259.05 377.449 257.339 377.571 257.339Z" fill="#263238"/>
<path d="M263.022 102.447C262.9 102.569 261.31 100.491 259.599 97.801C257.887 95.1115 256.542 92.9109 256.665 92.7887C256.787 92.6664 258.376 94.7447 260.088 97.4342C261.799 100.002 263.144 102.324 263.022 102.447Z" fill="#263238"/>
<path d="M267.912 97.312C267.79 97.4342 266.2 95.6004 264.489 93.2777C262.777 90.9549 261.433 88.9989 261.555 88.8766C261.677 88.7544 263.266 90.5881 264.978 92.9109C266.689 95.2337 268.034 97.1897 267.912 97.312Z" fill="#263238"/>
<path d="M273.291 90.3438C273.169 90.466 271.702 89.3657 269.99 87.7765C268.279 86.1872 267.056 84.8425 267.179 84.7202C267.301 84.5979 268.768 85.6982 270.479 87.2875C272.069 88.8767 273.413 90.2215 273.291 90.3438Z" fill="#263238"/>
<path d="M362.168 532.159L361.923 517.978L388.574 517.367L389.185 538.15L387.596 538.272C380.261 538.883 350.187 540.717 345.297 539.372C339.674 537.783 362.168 532.159 362.168 532.159Z" fill="#E8505B"/>
<g opacity="0.4">
<g opacity="0.4">
<path opacity="0.4" d="M379.405 538.028C379.772 535.827 380.872 533.749 382.706 532.282C384.417 530.815 386.618 530.081 388.941 530.203L389.185 537.661L379.405 538.028Z" fill="black"/>
</g>
</g>
<path opacity="0.4" d="M351.165 535.216C351.165 535.216 343.341 537.661 344.319 539.005C345.297 540.228 375.737 539.495 389.185 538.027V537.416L353.732 538.639C353.61 538.639 352.754 535.338 351.165 535.216Z" fill="black"/>
<path d="M389.43 537.416C389.43 537.416 389.307 537.416 388.941 537.539C388.574 537.539 388.085 537.661 387.596 537.661C386.251 537.783 384.662 537.905 382.706 538.028C378.672 538.272 372.926 538.517 366.691 538.761C360.456 538.883 354.833 539.006 350.676 538.883C348.72 538.883 347.131 538.883 345.786 538.761C345.297 538.761 344.808 538.761 344.441 538.761C344.197 538.761 343.952 538.761 343.952 538.761C343.952 538.761 344.074 538.761 344.441 538.761C344.808 538.761 345.297 538.761 345.786 538.761C347.131 538.761 348.72 538.761 350.676 538.761C354.71 538.761 360.456 538.639 366.691 538.517C372.926 538.394 378.549 538.15 382.706 537.905C384.662 537.783 386.251 537.783 387.596 537.661C388.085 537.661 388.574 537.661 388.941 537.661C389.307 537.416 389.43 537.416 389.43 537.416Z" fill="#263238"/>
<path d="M353.61 539.006C353.488 539.006 353.365 537.905 352.632 536.683C351.898 535.46 350.92 534.971 350.92 534.849C350.92 534.727 352.143 535.216 352.876 536.438C353.732 537.783 353.732 539.128 353.61 539.006Z" fill="#263238"/>
<path d="M361.312 534.849C361.19 534.849 360.823 534.482 360.456 533.871C360.089 533.26 359.845 532.771 359.845 532.648C359.967 532.648 360.334 533.015 360.7 533.626C361.19 534.238 361.434 534.849 361.312 534.849Z" fill="#263238"/>
<path d="M363.512 533.626C363.512 533.749 363.023 533.382 362.534 533.015C362.045 532.648 361.679 532.282 361.801 532.159C361.801 532.037 362.29 532.404 362.779 532.771C363.268 533.26 363.512 533.626 363.512 533.626Z" fill="#263238"/>
<path d="M364.735 531.181C364.735 531.304 364.124 531.426 363.39 531.426C362.657 531.426 362.045 531.426 362.045 531.304C362.045 531.181 362.657 531.059 363.39 531.059C364.124 530.937 364.735 531.059 364.735 531.181Z" fill="#263238"/>
<path d="M365.224 529.348C365.224 529.47 364.613 529.714 363.635 529.837C362.779 529.959 362.045 529.714 362.045 529.714C362.045 529.592 362.779 529.714 363.635 529.592C364.49 529.47 365.224 529.225 365.224 529.348Z" fill="#263238"/>
<path d="M360.456 532.526C360.456 532.526 359.845 532.648 358.744 532.526C358.255 532.526 357.644 532.404 356.911 532.159C356.544 532.037 356.177 531.915 355.81 531.793C355.688 531.67 355.444 531.548 355.321 531.304C355.199 531.059 355.321 530.815 355.566 530.57C357.155 529.714 358.867 530.57 359.478 531.426C359.845 531.793 359.967 532.282 360.089 532.526C360.211 532.771 360.211 533.015 360.089 533.015C360.089 533.015 359.967 532.404 359.233 531.548C358.867 531.181 358.378 530.815 357.766 530.692C357.155 530.57 356.299 530.448 355.688 530.937C355.444 531.181 355.566 531.426 355.81 531.67C356.055 531.793 356.422 531.915 356.788 532.037C357.4 532.282 358.011 532.404 358.622 532.404C359.722 532.526 360.456 532.526 360.456 532.526Z" fill="#263238"/>
<path d="M359.967 532.648C359.967 532.648 359.722 532.282 359.722 531.426C359.722 531.059 359.845 530.57 360.211 530.203C360.456 529.837 360.823 529.225 361.556 529.348C361.923 529.348 362.167 529.837 362.045 530.081C362.045 530.326 361.923 530.692 361.801 530.815C361.556 531.304 361.312 531.548 361.067 531.915C360.578 532.404 360.089 532.648 360.089 532.648C360.089 532.648 360.456 532.282 360.823 531.793C361.067 531.548 361.312 531.181 361.556 530.692C361.801 530.326 361.923 529.714 361.434 529.592C360.945 529.592 360.578 529.959 360.334 530.326C360.089 530.692 359.967 531.059 359.845 531.426C359.845 532.159 359.967 532.648 359.967 532.648Z" fill="#263238"/>
<path d="M388.696 530.081C388.696 530.081 387.963 530.081 386.74 530.203C385.518 530.326 383.928 530.937 382.461 532.037C380.994 533.26 380.261 534.727 379.894 535.949C379.527 537.049 379.527 537.905 379.405 537.905C379.405 537.905 379.405 537.661 379.405 537.416C379.405 537.049 379.527 536.56 379.65 535.949C380.016 534.727 380.75 533.137 382.217 531.915C383.684 530.692 385.395 530.203 386.618 530.081C387.229 530.081 387.718 530.081 388.085 530.081C388.574 530.081 388.696 530.081 388.696 530.081Z" fill="#263238"/>
<path d="M385.762 519.079C385.884 519.079 386.007 521.524 386.129 524.58C386.251 527.636 386.251 530.081 386.129 530.081C386.007 530.081 385.884 527.636 385.762 524.58C385.64 521.524 385.64 519.079 385.762 519.079Z" fill="#263238"/>
<path d="M375.982 535.582C375.982 535.705 374.27 535.949 372.07 536.071C369.869 536.194 368.158 535.949 368.158 535.827C368.158 535.705 369.869 535.827 372.07 535.705C374.27 535.583 375.982 535.46 375.982 535.582Z" fill="#263238"/>
<path d="M381.239 535.46C381.361 535.582 381.117 535.827 380.994 536.194C380.872 536.56 380.75 536.927 380.628 536.927C380.505 536.927 380.505 536.56 380.628 536.071C380.872 535.582 381.239 535.338 381.239 535.46Z" fill="#263238"/>
<path d="M383.195 532.893C383.317 532.893 383.073 533.26 382.828 533.504C382.584 533.749 382.339 533.993 382.217 533.871C382.095 533.871 382.339 533.504 382.584 533.26C382.828 533.015 383.073 532.893 383.195 532.893Z" fill="#263238"/>
<path d="M386.006 531.67C386.006 531.793 385.64 531.793 385.273 531.915C384.906 532.037 384.662 532.282 384.539 532.159C384.417 532.159 384.662 531.67 385.151 531.548C385.517 531.426 386.006 531.67 386.006 531.67Z" fill="#263238"/>
<path d="M387.963 531.181C387.963 531.304 387.84 531.426 387.596 531.548C387.351 531.67 387.229 531.67 387.107 531.548C387.107 531.426 387.229 531.304 387.474 531.181C387.718 531.059 387.963 531.059 387.963 531.181Z" fill="#263238"/>
<path d="M425.249 531.181L423.171 517.123L449.455 513.088L452.756 533.626L451.167 533.993C443.954 535.582 414.491 541.328 409.357 540.595C403.611 539.739 425.249 531.181 425.249 531.181Z" fill="#E8505B"/>
<g opacity="0.4">
<g opacity="0.4">
<path opacity="0.4" d="M443.098 534.849C443.098 532.648 444.076 530.326 445.543 528.736C447.132 527.147 449.088 526.047 451.411 525.925L452.511 533.26L443.098 534.849Z" fill="black"/>
</g>
</g>
<path opacity="0.4" d="M414.735 535.705C414.735 535.705 407.278 539.128 408.378 540.35C409.601 541.451 439.675 536.805 452.633 533.627L452.511 533.015L417.547 538.761C417.547 538.761 416.325 535.583 414.735 535.705Z" fill="black"/>
<path d="M453 532.893C453 532.893 452.878 532.893 452.511 533.015C452.144 533.137 451.655 533.137 451.166 533.26C449.822 533.504 448.232 533.871 446.399 534.238C442.364 534.971 436.863 536.071 430.628 536.927C424.516 537.905 418.892 538.639 414.736 539.128C412.78 539.372 411.19 539.494 409.968 539.617C409.479 539.617 408.99 539.739 408.623 539.739C408.379 539.739 408.134 539.739 408.134 539.739C408.134 539.739 408.256 539.739 408.623 539.617C408.99 539.617 409.479 539.495 409.968 539.372C411.313 539.25 412.902 539.005 414.736 538.761C418.77 538.272 424.393 537.416 430.506 536.438C436.619 535.46 442.242 534.482 446.276 533.749C448.11 533.382 449.699 533.137 451.044 532.893C451.533 532.771 451.9 532.771 452.389 532.648C452.878 532.893 453 532.893 453 532.893Z" fill="#263238"/>
<path d="M417.67 539.25C417.547 539.25 417.303 538.15 416.447 537.049C415.591 535.949 414.491 535.582 414.491 535.46C414.491 535.338 415.713 535.705 416.691 536.805C417.669 537.905 417.792 539.25 417.67 539.25Z" fill="#263238"/>
<path d="M424.76 533.993C424.638 533.993 424.271 533.626 423.782 533.137C423.293 532.648 422.926 532.159 423.049 532.037C423.171 532.037 423.538 532.404 424.027 532.893C424.516 533.504 424.882 533.993 424.76 533.993Z" fill="#263238"/>
<path d="M426.716 532.526C426.716 532.649 426.227 532.404 425.738 532.037C425.249 531.671 424.882 531.426 424.882 531.304C424.882 531.182 425.371 531.426 425.86 531.793C426.472 532.16 426.838 532.526 426.716 532.526Z" fill="#263238"/>
<path d="M427.694 529.837C427.694 529.959 427.083 530.081 426.349 530.203C425.616 530.326 425.005 530.326 425.005 530.326C425.005 530.203 425.616 530.081 426.349 529.959C427.083 529.837 427.694 529.837 427.694 529.837Z" fill="#263238"/>
<path d="M427.939 528.125C427.939 528.247 427.327 528.614 426.472 528.859C425.616 529.103 424.882 528.981 424.882 528.859C424.882 528.736 425.616 528.736 426.472 528.492C427.205 528.247 427.816 528.003 427.939 528.125Z" fill="#263238"/>
<path d="M423.538 531.915C423.538 531.915 422.926 532.159 421.826 532.159C421.337 532.159 420.604 532.159 419.992 532.037C419.626 531.915 419.259 531.915 418.892 531.793C418.648 531.67 418.525 531.548 418.403 531.304C418.281 531.059 418.403 530.815 418.525 530.57C419.992 529.47 421.826 530.081 422.56 530.937C422.926 531.304 423.171 531.67 423.293 532.037C423.415 532.282 423.415 532.526 423.415 532.526C423.415 532.526 423.171 531.915 422.437 531.181C422.071 530.815 421.459 530.57 420.848 530.448C420.237 530.326 419.381 530.448 418.892 530.937C418.648 531.181 418.77 531.426 419.137 531.548C419.503 531.67 419.87 531.793 420.115 531.793C420.848 531.915 421.459 531.915 421.948 531.915C422.926 531.915 423.538 531.793 423.538 531.915Z" fill="#263238"/>
<path d="M423.171 532.037C423.171 532.037 422.804 531.67 422.804 530.937C422.804 530.57 422.804 530.081 423.049 529.592C423.293 529.225 423.538 528.614 424.271 528.492C424.638 528.492 424.882 528.859 424.882 529.225C424.882 529.47 424.76 529.837 424.76 530.081C424.516 530.57 424.393 530.937 424.149 531.181C423.66 531.793 423.293 532.037 423.293 532.037C423.293 532.037 423.538 531.67 424.027 531.059C424.271 530.815 424.393 530.326 424.516 529.959C424.638 529.592 424.76 528.859 424.271 528.859C423.782 528.859 423.415 529.348 423.293 529.714C423.049 530.081 423.049 530.57 422.926 530.937C422.926 531.548 423.171 532.037 423.171 532.037Z" fill="#263238"/>
<path d="M451.411 525.802C451.411 525.802 450.677 525.802 449.455 526.169C448.355 526.536 446.765 527.269 445.543 528.614C444.32 529.959 443.709 531.548 443.465 532.771C443.22 533.993 443.342 534.727 443.22 534.727C443.22 534.727 443.22 534.482 443.098 534.238C443.098 533.871 443.098 533.382 443.22 532.771C443.342 531.548 443.954 529.837 445.298 528.37C446.643 526.903 448.232 526.169 449.455 525.925C450.066 525.802 450.555 525.68 450.922 525.68C451.166 525.802 451.411 525.802 451.411 525.802Z" fill="#263238"/>
<path d="M446.887 515.289C447.01 515.289 447.499 517.734 447.988 520.668C448.477 523.602 448.843 526.047 448.721 526.047C448.599 526.047 448.11 523.602 447.621 520.668C447.132 517.734 446.887 515.289 446.887 515.289Z" fill="#263238"/>
<path d="M439.43 532.771C439.43 532.893 437.841 533.382 435.641 533.749C433.562 534.115 431.729 534.115 431.729 533.993C431.729 533.871 433.44 533.749 435.518 533.382C437.719 533.137 439.43 532.771 439.43 532.771Z" fill="#263238"/>
<path d="M444.565 532.037C444.687 532.037 444.442 532.404 444.32 532.893C444.198 533.26 444.198 533.626 444.076 533.749C443.953 533.749 443.831 533.382 443.953 532.893C444.198 532.282 444.565 531.915 444.565 532.037Z" fill="#263238"/>
<path d="M446.154 529.348C446.276 529.348 446.154 529.714 445.91 529.959C445.665 530.326 445.421 530.448 445.421 530.448C445.298 530.448 445.421 530.081 445.665 529.837C445.91 529.47 446.154 529.225 446.154 529.348Z" fill="#263238"/>
<path d="M448.721 527.758C448.721 527.881 448.355 527.881 447.988 528.125C447.621 528.37 447.377 528.614 447.254 528.492C447.132 528.492 447.377 528.003 447.743 527.758C448.355 527.514 448.844 527.636 448.721 527.758Z" fill="#263238"/>
<path d="M450.677 526.903C450.677 527.025 450.555 527.147 450.433 527.269C450.188 527.392 450.066 527.392 449.944 527.392C449.944 527.269 450.066 527.147 450.188 527.025C450.433 526.903 450.677 526.903 450.677 526.903Z" fill="#263238"/>
<path d="M434.785 266.752C433.562 268.097 431.24 267.852 429.406 266.263C427.572 264.674 427.083 262.229 428.183 261.006C429.406 259.662 431.729 259.906 433.562 261.495C435.396 262.962 436.007 265.407 434.785 266.752Z" fill="#FAFAFA"/>
<path d="M398.11 262.962C398.11 262.962 412.046 284.967 414.002 293.403C415.958 301.838 453.123 524.213 453.123 524.213L419.014 526.291L372.681 308.806L391.263 524.702L357.767 527.514C357.767 527.514 331.116 299.026 333.439 292.914C335.761 286.801 342.118 265.652 342.118 265.652L398.11 262.962Z" fill="#455A64"/>
<path d="M372.559 307.217C372.559 307.217 372.559 307.462 372.314 307.584C372.07 307.706 371.459 307.828 370.97 307.462C370.481 307.095 370.236 306.361 370.114 305.506C369.992 304.65 369.869 303.794 369.625 302.816C369.014 298.904 368.158 293.403 367.18 287.412C366.324 281.422 365.468 275.921 364.979 272.009C364.735 270.175 364.49 268.586 364.368 267.363C364.246 266.263 364.246 265.652 364.246 265.652C364.246 265.652 364.368 266.263 364.613 267.363C364.857 268.586 365.102 270.175 365.468 272.009C366.08 275.921 366.935 281.422 367.913 287.412C368.769 293.403 369.625 298.904 370.114 302.816C370.236 303.794 370.358 304.65 370.481 305.506C370.603 306.239 370.725 306.973 371.092 307.339C371.459 307.706 371.948 307.706 372.192 307.584C372.437 307.462 372.437 307.217 372.559 307.217Z" fill="#263238"/>
<path d="M369.014 270.053C369.014 270.053 369.014 269.808 369.381 269.686C369.625 269.564 370.114 269.319 370.725 269.442C371.337 269.564 372.07 270.053 372.192 270.909C372.315 271.764 371.948 272.742 371.092 273.231C370.236 273.72 369.136 273.354 368.647 272.865C368.036 272.253 367.914 271.52 368.036 270.909C368.28 269.686 369.136 269.442 369.136 269.564C369.258 269.686 368.525 270.053 368.403 271.031C368.403 271.52 368.525 272.131 368.892 272.498C369.381 272.865 370.114 273.109 370.725 272.742C371.337 272.498 371.581 271.764 371.581 271.153C371.459 270.542 371.092 270.175 370.603 270.053C369.625 269.686 369.014 270.175 369.014 270.053Z" fill="#263238"/>
<path d="M398.476 124.819C399.821 114.183 392.119 104.525 381.361 103.547C371.214 102.569 362.29 110.148 360.701 120.173C359.356 128.975 358.256 137.899 358.256 141.078C358.378 150.858 364.124 154.648 366.446 155.748C366.935 155.993 368.402 156.359 369.014 156.359C369.014 156.359 369.014 156.359 369.014 156.482L366.813 167.729C365.835 175.064 369.869 181.543 377.205 182.643C384.54 183.744 390.285 178.12 391.386 170.785L398.476 124.819Z" fill="#936754"/>
<path d="M363.023 125.063C362.901 125.919 363.39 126.652 364.246 126.774C365.102 126.897 365.835 126.408 366.08 125.674C366.202 124.818 365.713 124.085 364.857 123.963C364.001 123.718 363.268 124.207 363.023 125.063Z" fill="#263238"/>
<path d="M363.023 122.862C363.145 123.107 364.49 122.373 366.079 122.618C367.791 122.862 368.769 123.84 369.013 123.718C369.135 123.596 369.013 123.229 368.524 122.74C368.035 122.251 367.179 121.762 366.201 121.64C365.223 121.518 364.245 121.762 363.756 122.007C363.145 122.373 363.023 122.74 363.023 122.862Z" fill="#263238"/>
<path d="M378.672 127.63C378.549 128.486 379.038 129.22 379.894 129.342C380.75 129.464 381.483 128.975 381.728 128.242C381.85 127.386 381.361 126.652 380.505 126.53C379.65 126.286 378.794 126.775 378.672 127.63Z" fill="#263238"/>
<path d="M379.283 125.552C379.405 125.797 380.75 125.063 382.339 125.308C383.929 125.552 385.029 126.53 385.273 126.408C385.396 126.286 385.273 125.919 384.784 125.43C384.295 124.941 383.44 124.452 382.462 124.33C381.483 124.207 380.505 124.452 380.016 124.696C379.405 125.063 379.161 125.43 379.283 125.552Z" fill="#263238"/>
<path d="M371.459 136.921C371.459 136.799 370.481 136.555 368.892 136.066C368.525 135.943 368.036 135.821 368.036 135.577C368.036 135.21 368.28 134.843 368.525 134.354C369.014 133.376 369.625 132.398 370.236 131.298C372.681 127.019 374.393 123.352 374.271 123.352C374.148 123.229 372.07 126.652 369.625 130.931C369.014 132.031 368.525 133.009 367.914 133.987C367.669 134.476 367.302 134.965 367.425 135.577C367.547 135.943 367.791 136.188 368.036 136.31C368.28 136.432 368.525 136.432 368.769 136.555C370.359 136.799 371.459 136.921 371.459 136.921Z" fill="#263238"/>
<path d="M369.136 156.482C369.136 156.482 375.371 157.949 384.051 154.281C384.051 154.281 380.261 162.35 368.525 159.416L369.136 156.482Z" fill="#7C5142"/>
<path d="M371.581 140.956C372.315 140.222 373.415 139.978 374.393 140.222C375.127 140.344 375.738 140.833 376.105 141.445C376.471 142.056 376.471 142.912 375.982 143.401C375.493 144.012 374.515 144.012 373.782 143.645C373.048 143.278 372.437 142.667 371.826 142.056C371.703 141.934 371.459 141.689 371.459 141.445C371.337 141.445 371.337 141.2 371.581 140.956Z" fill="#7C5142"/>
<path d="M376.104 138.755C375.86 138.755 375.615 140.467 373.904 141.567C372.192 142.667 370.359 142.178 370.236 142.423C370.236 142.545 370.603 142.789 371.459 142.912C372.192 143.034 373.415 142.912 374.515 142.3C375.615 141.689 376.104 140.711 376.227 139.978C376.349 139.244 376.227 138.755 376.104 138.755Z" fill="#263238"/>
<path d="M378.916 122.496C379.038 122.985 380.75 122.985 382.584 123.474C384.54 123.963 386.007 124.696 386.251 124.33C386.373 124.207 386.129 123.718 385.64 123.107C385.029 122.618 384.173 122.007 382.95 121.762C381.85 121.518 380.75 121.518 380.016 121.64C379.283 122.007 378.916 122.251 378.916 122.496Z" fill="#263238"/>
<path d="M364.124 119.562C364.368 119.929 365.591 119.806 366.935 119.929C368.28 120.051 369.38 120.54 369.747 120.173C369.869 120.051 369.747 119.562 369.258 119.195C368.769 118.828 368.036 118.339 367.058 118.217C366.08 118.095 365.224 118.339 364.735 118.706C364.246 118.95 364.001 119.317 364.124 119.562Z" fill="#263238"/>
<path d="M414.98 174.941C413.513 172.252 410.701 170.296 409.479 167.362C407.523 162.35 410.946 156.848 411.924 151.591C412.535 150.247 413.024 148.902 413.391 148.046C414.491 144.745 414.491 139.489 412.902 136.432C411.435 133.498 407.767 130.687 406.667 127.875C405.078 123.596 406.178 122.496 404.956 113.449C404.222 108.315 397.498 101.346 390.285 102.447C388.085 99.8792 384.906 98.5345 381.728 97.9232C374.026 96.4562 365.591 99.5125 361.067 106.481C358.989 109.659 357.644 114.06 358.867 117.85C360.823 120.906 367.302 119.073 371.092 116.872C375.126 119.562 380.872 118.339 383.684 114.305C384.54 115.283 385.64 115.894 386.74 116.016C386.862 117.117 386.985 118.095 387.107 118.706C387.474 121.518 391.752 125.552 391.752 128.364C391.875 133.743 387.718 133.987 386.618 139.122C385.762 143.034 388.696 145.357 389.307 149.269C389.43 149.88 389.063 150.858 388.696 151.836C386.985 155.015 385.64 158.438 386.007 161.983C386.373 165.284 388.085 168.462 388.329 171.763C388.574 177.631 383.928 182.521 381.239 187.656C378.794 192.423 377.816 198.047 378.672 203.426C389.552 205.382 400.554 206.482 411.557 206.849C412.291 206.849 413.146 206.849 413.758 206.36C414.369 205.871 414.491 204.893 414.613 204.037C415.102 198.047 415.714 191.934 416.203 185.944C416.569 182.399 416.814 178.242 414.98 174.941Z" fill="#263238"/>
<path d="M331.605 283.99C324.881 286.679 320.847 293.403 317.302 299.638C312.901 307.217 308.5 314.919 304.221 322.499C302.509 325.555 300.675 328.856 300.92 332.279C301.164 335.579 303.365 338.514 306.055 340.347C308.744 342.303 311.923 343.281 315.101 344.259C319.013 345.482 323.047 346.582 327.204 346.215C331.238 345.849 335.395 343.77 337.229 340.103C338.696 337.047 338.451 333.379 338.084 329.956C336.862 317.853 335.517 305.75 334.295 293.647C333.928 290.469 333.683 287.413 333.317 284.234" fill="#263238"/>
<path d="M308.011 316.264C308.011 316.264 308.255 316.875 309.233 317.242C310.089 317.609 311.8 317.731 313.267 316.63C314.734 315.53 315.712 313.574 316.935 311.374C318.158 309.173 319.502 306.85 320.847 304.283C323.659 299.271 326.226 294.748 328.06 291.569C328.916 290.102 329.771 288.757 330.26 287.779C330.749 286.923 331.116 286.434 331.116 286.434C331.116 286.434 330.872 286.923 330.383 287.901C329.771 288.879 329.16 290.224 328.304 291.813C326.471 295.114 324.026 299.638 321.214 304.65C319.869 307.095 318.524 309.54 317.302 311.618C316.079 313.696 314.979 315.897 313.39 316.997C311.8 318.22 309.967 317.975 308.989 317.486C308.5 317.242 308.255 316.875 308.011 316.63C308.011 316.508 307.888 316.386 308.011 316.264Z" fill="#455A64"/>
<path d="M315.957 345.971C315.835 345.971 319.258 332.034 323.781 315.041C328.304 298.048 331.972 284.234 332.216 284.234C332.461 284.234 328.915 298.171 324.392 315.164C319.869 332.279 316.079 346.093 315.957 345.971Z" fill="#455A64"/>
<path d="M307.766 316.753C308.866 315.408 308.622 313.207 307.155 312.229C305.688 311.251 303.487 311.74 302.631 313.33C301.776 314.797 302.631 316.997 304.221 317.731C305.81 318.342 307.888 317.364 308.377 315.775" fill="#E8505B"/>
<path d="M404.222 178.731C404.222 178.731 403.978 179.098 403.489 179.831C402.878 180.565 402.144 181.543 401.044 182.888C398.966 185.577 395.909 189.367 392.12 194.135C388.33 198.903 384.051 204.648 379.283 211.128C374.638 217.607 369.503 224.82 364.368 232.522C359.234 240.224 354.588 247.681 350.432 254.527C346.275 261.373 342.608 267.608 339.674 272.865C336.74 278.121 334.295 282.4 332.705 285.457C331.85 286.924 331.238 288.024 330.749 288.88C330.26 289.613 330.016 290.102 330.016 289.98C330.016 289.98 330.138 289.491 330.505 288.757C330.872 287.902 331.483 286.679 332.216 285.212C333.683 282.156 335.884 277.755 338.818 272.376C341.63 266.997 345.297 260.762 349.332 253.793C353.488 246.947 358.134 239.368 363.268 231.666C368.403 223.964 373.537 216.751 378.305 210.272C383.073 203.793 387.474 198.047 391.386 193.401C395.176 188.634 398.354 184.966 400.677 182.399C401.777 181.176 402.633 180.198 403.244 179.465C403.856 178.976 404.222 178.731 404.222 178.731Z" fill="#263238"/>
<path d="M117.054 121.762C115.221 119.073 111.675 117.728 108.497 118.584C105.318 119.439 102.873 122.373 102.751 125.674C102.629 127.263 102.996 128.853 102.629 130.32C102.018 132.398 99.9393 133.865 97.7388 133.62C98.4723 134.721 99.5725 135.454 100.795 135.943C100.184 135.576 99.328 136.065 99.2058 136.799C99.0835 137.532 99.6948 138.144 100.306 138.51C100.917 138.877 101.773 138.877 102.384 138.877C105.93 138.877 109.719 138.51 112.409 136.188C115.343 133.743 116.076 129.586 116.81 125.919" fill="#263238"/>
<path d="M148.595 106.97C152.263 106.725 155.686 108.926 158.253 111.615C160.82 114.305 162.776 117.483 165.344 120.051C167.3 122.007 169.745 123.596 170.845 126.163C172.679 130.075 171.212 135.21 173.535 138.877C174.879 140.956 177.202 142.178 178.669 144.134C180.381 146.701 180.258 150.002 179.892 153.058C179.647 155.137 179.158 157.46 177.691 159.049C176.591 160.271 174.879 160.883 173.29 161.494C161.309 165.528 148.106 165.895 136.003 162.35" fill="#263238"/>
<path d="M123.289 131.542C121.945 120.906 129.647 111.248 140.405 110.27C150.551 109.292 159.476 116.872 161.065 126.897C162.41 135.699 163.51 144.623 163.51 147.802C163.388 157.582 157.642 161.371 155.319 162.472C154.83 162.716 153.363 163.083 152.752 163.083C152.752 163.083 152.752 163.083 152.752 163.205L154.952 174.452C155.931 181.787 151.896 188.267 144.561 189.367C137.226 190.467 131.48 184.844 130.38 177.509L123.289 131.542Z" fill="#FFBE9D"/>
<path d="M159.231 132.642C159.109 132.887 157.764 132.153 156.175 132.398C154.586 132.642 153.485 133.62 153.241 133.498C153.119 133.376 153.241 133.009 153.73 132.52C154.219 132.031 155.075 131.542 156.053 131.42C157.031 131.298 158.009 131.542 158.498 131.787C159.109 132.153 159.353 132.52 159.231 132.642Z" fill="#263238"/>
<path d="M144.561 135.821C144.439 136.066 143.094 135.332 141.505 135.577C139.916 135.821 138.815 136.799 138.571 136.677C138.449 136.555 138.571 136.188 139.06 135.699C139.549 135.21 140.405 134.721 141.383 134.599C142.361 134.476 143.339 134.721 143.828 134.965C144.439 135.332 144.684 135.699 144.561 135.821Z" fill="#263238"/>
<path d="M150.307 143.645C150.307 143.523 151.285 143.278 152.874 142.789C153.241 142.667 153.73 142.545 153.73 142.3C153.73 141.934 153.485 141.567 153.241 141.078C152.752 140.1 152.141 139.122 151.529 138.022C149.084 133.743 147.373 130.075 147.495 130.075C147.617 129.953 149.696 133.376 152.141 137.655C152.752 138.755 153.241 139.733 153.852 140.711C154.097 141.2 154.463 141.689 154.341 142.3C154.219 142.667 153.974 142.912 153.73 143.034C153.485 143.156 153.241 143.156 152.996 143.278C151.407 143.523 150.307 143.645 150.307 143.645Z" fill="#263238"/>
<path d="M152.63 163.205C152.63 163.205 146.395 164.672 137.715 161.005C137.715 161.005 141.505 169.073 153.241 166.139L152.63 163.205Z" fill="#EB996E"/>
<path d="M150.185 147.679C149.451 146.946 148.351 146.701 147.373 146.946C146.64 147.068 146.028 147.557 145.662 148.168C145.295 148.78 145.295 149.635 145.784 150.124C146.273 150.736 147.251 150.736 147.984 150.369C148.718 150.002 149.329 149.391 149.94 148.78C150.063 148.657 150.307 148.413 150.307 148.168C150.429 148.168 150.429 147.802 150.185 147.679Z" fill="#EB996E"/>
<path d="M145.661 145.479C145.906 145.479 146.15 147.19 147.862 148.291C149.573 149.391 151.407 148.902 151.529 149.146C151.529 149.269 151.163 149.513 150.307 149.635C149.573 149.758 148.351 149.635 147.251 149.024C146.15 148.413 145.661 147.435 145.539 146.701C145.417 145.968 145.539 145.479 145.661 145.479Z" fill="#263238"/>
<path d="M143.461 130.442C143.339 130.931 141.627 130.931 139.793 131.42C137.837 131.909 136.37 132.642 136.126 132.276C136.004 132.153 136.248 131.664 136.737 131.053C137.348 130.564 138.204 129.953 139.427 129.708C140.527 129.464 141.627 129.464 142.361 129.586C143.094 129.953 143.461 130.197 143.461 130.442Z" fill="#263238"/>
<path d="M157.642 127.508C157.398 127.875 156.175 127.752 154.83 127.875C153.485 127.997 152.385 128.486 152.018 128.119C151.896 127.997 152.018 127.508 152.507 127.141C152.996 126.774 153.73 126.285 154.708 126.163C155.686 126.041 156.542 126.285 157.031 126.652C157.52 127.019 157.764 127.263 157.642 127.508Z" fill="#263238"/>
<path d="M162.899 124.696C160.943 127.752 154.463 125.919 150.674 123.718C146.639 126.408 140.894 125.185 138.082 121.151C135.881 123.963 131.358 122.985 129.769 119.806C128.179 116.628 129.035 112.226 131.358 109.537C133.558 106.725 136.859 105.38 140.16 104.769C147.862 103.302 156.297 106.358 160.82 113.327C162.899 116.505 164.121 120.906 162.899 124.696Z" fill="#263238"/>
<path d="M131.847 109.415C124.634 108.07 117.544 115.283 116.932 120.417C115.71 129.342 116.932 130.564 115.221 134.843C114.121 137.655 110.453 140.467 108.986 143.401C107.397 146.457 107.397 151.714 108.497 155.014C109.475 157.826 113.143 165.528 113.143 165.528C113.143 165.528 123.901 165.161 129.402 163.817C130.747 163.45 132.214 162.961 133.314 161.983C134.414 161.005 132.214 157.704 132.336 156.359C132.947 152.325 135.881 150.124 135.026 146.212C133.925 140.956 129.769 140.711 129.891 135.454C129.891 132.643 134.17 128.608 134.537 125.796C135.026 122.74 136.615 112.96 131.847 109.415Z" fill="#263238"/>
<path d="M116.566 128.364C116.688 128.364 116.321 126.53 116.443 124.452C116.443 122.251 116.932 120.54 116.688 120.54C116.566 120.54 115.832 122.251 115.832 124.452C115.71 126.652 116.443 128.364 116.566 128.364Z" fill="#E8505B"/>
<path d="M116.81 125.308C116.81 125.308 117.055 125.43 117.544 125.43C118.033 125.43 118.766 125.552 119.744 125.308C120.6 125.185 121.7 124.819 122.8 124.085C123.901 123.474 124.879 122.373 125.612 121.273C126.346 120.051 127.079 118.95 127.813 118.217C128.668 117.361 129.524 116.872 130.38 116.505C131.969 115.772 133.192 115.772 133.069 115.65C133.069 115.65 132.825 115.527 132.214 115.65C131.725 115.65 130.991 115.772 130.135 116.139C129.28 116.505 128.302 116.994 127.446 117.85C126.468 118.706 125.857 119.928 125.123 121.029C123.778 123.351 121.456 124.574 119.744 125.063C117.91 125.308 116.81 125.185 116.81 125.308Z" fill="#455A64"/>
<path d="M99.0837 136.432C99.0837 136.432 99.3282 136.677 100.062 136.799C100.673 136.921 101.651 136.677 102.629 136.066C103.607 135.454 104.463 134.232 104.952 132.887C105.441 131.542 105.685 129.831 106.174 128.241C106.663 126.652 107.397 125.185 108.497 124.452C109.597 123.718 110.942 123.474 112.042 123.596C114.243 123.84 115.099 125.185 115.221 125.063C115.221 125.063 115.099 124.696 114.61 124.329C114.121 123.963 113.265 123.474 112.165 123.229C111.064 122.985 109.597 123.107 108.253 123.963C106.908 124.818 106.052 126.408 105.563 127.997C105.074 129.708 104.83 131.175 104.341 132.52C103.852 133.865 103.118 134.965 102.262 135.577C101.407 136.188 100.551 136.432 99.9395 136.432C99.4505 136.432 99.0837 136.31 99.0837 136.432Z" fill="#455A64"/>
<path d="M116.565 124.207C116.565 124.207 116.932 124.33 117.421 124.207C118.032 124.085 118.766 123.718 119.499 122.985C120.233 122.251 120.844 121.151 121.333 119.928C121.822 118.706 122.311 117.361 123.167 116.139C124.879 113.694 127.568 112.716 129.524 112.471C131.48 112.227 132.703 112.716 132.703 112.593C132.703 112.593 132.458 112.471 131.847 112.227C131.358 112.104 130.502 111.86 129.402 111.982C127.446 111.982 124.389 113.082 122.556 115.65C121.7 116.994 121.211 118.461 120.722 119.562C120.233 120.784 119.744 121.762 119.01 122.496C117.91 124.085 116.565 124.085 116.565 124.207Z" fill="#455A64"/>
<path d="M119.5 165.773C119.5 165.773 119.011 165.161 118.033 164.061C117.177 162.961 115.832 161.249 114.854 158.927C113.754 156.604 112.898 153.67 113.265 150.247C113.509 146.946 114.976 143.278 118.033 140.833C119.5 139.611 121.211 138.755 122.678 137.533C124.145 136.31 125.245 134.721 125.734 133.009C126.223 131.298 126.468 129.709 126.59 128.242C126.835 126.775 126.957 125.308 127.446 124.207C128.179 121.762 129.891 120.295 131.113 119.806C132.458 119.195 133.314 119.439 133.192 119.317C133.192 119.317 132.947 119.195 132.58 119.195C132.214 119.195 131.602 119.195 130.869 119.439C129.524 119.928 127.69 121.395 126.835 123.963C126.346 125.185 126.101 126.652 125.857 128.119C125.612 129.586 125.49 131.176 124.879 132.765C124.39 134.354 123.412 135.821 122.067 136.921C120.722 138.022 119.011 139 117.421 140.222C114.243 142.789 112.776 146.579 112.409 150.002C112.042 153.425 113.02 156.604 114.121 158.927C115.221 161.249 116.566 162.961 117.544 163.939C118.033 164.428 118.399 164.917 118.766 165.161C119.377 165.65 119.5 165.895 119.5 165.773Z" fill="#455A64"/>
<path d="M172.312 161.127C172.312 161.127 172.434 161.005 172.556 160.76C172.679 160.516 172.923 160.027 173.168 159.538C173.657 158.438 174.146 156.726 174.146 154.648C174.146 152.569 173.657 150.002 172.067 147.557C171.334 146.335 170.234 145.234 169.378 144.134C168.4 143.034 167.544 141.689 167.177 140.222C166.566 137.166 167.544 134.11 167.3 131.298C167.177 128.486 166.444 126.041 165.344 124.207C164.243 122.373 162.899 121.151 161.921 120.54C161.432 120.173 161.065 119.928 160.82 119.806C160.576 119.684 160.454 119.562 160.331 119.562C160.331 119.562 160.82 119.928 161.798 120.662C162.654 121.395 163.877 122.618 164.977 124.329C165.955 126.163 166.688 128.486 166.811 131.298C166.811 132.643 166.688 134.11 166.566 135.577C166.444 137.044 166.322 138.633 166.688 140.344C167.055 141.934 168.033 143.401 169.011 144.501C169.989 145.601 170.967 146.701 171.701 147.802C173.168 150.124 173.779 152.569 173.779 154.648C173.779 156.726 173.412 158.315 173.045 159.416C172.556 160.516 172.19 161.127 172.312 161.127Z" fill="#455A64"/>
<path d="M141.627 105.869C141.627 105.992 143.461 105.625 146.273 106.114C149.084 106.603 152.996 108.07 155.931 111.371C158.742 114.672 160.087 118.584 160.576 121.395C161.065 124.207 160.698 126.041 160.821 126.041C160.821 126.041 160.943 125.552 161.065 124.818C161.187 123.963 161.187 122.74 161.065 121.273C160.698 118.339 159.476 114.305 156.42 110.882C153.363 107.459 149.207 105.992 146.273 105.625C144.806 105.38 143.583 105.503 142.727 105.625C141.994 105.747 141.505 105.869 141.627 105.869Z" fill="#455A64"/>
<path d="M152.018 120.173C152.018 120.173 152.141 119.806 152.141 119.073C152.141 118.339 152.141 117.361 151.774 116.016C151.285 113.571 149.451 110.148 146.028 108.07C142.605 105.992 138.693 106.114 136.248 106.847C135.025 107.214 134.047 107.703 133.436 108.07C132.825 108.437 132.58 108.681 132.58 108.681C132.703 108.803 133.925 107.825 136.37 107.214C138.693 106.603 142.36 106.603 145.661 108.559C148.962 110.515 150.673 113.694 151.285 116.016C152.018 118.584 151.896 120.173 152.018 120.173Z" fill="#455A64"/>
<path d="M87.8364 316.63C87.5919 317.608 87.2251 318.709 86.9806 320.053C86.7361 321.154 86.7361 322.376 86.8584 323.477C86.9806 324.821 87.3474 326.777 87.8364 327.633C88.4476 328.856 87.2251 330.078 86.2471 329.589C85.1469 328.978 83.4353 325.799 83.3131 321.521C83.1908 317.242 79.0343 322.621 77.5673 324.577C76.1003 326.533 71.088 332.279 70.11 332.279C68.6429 332.279 68.3984 330.812 69.9877 328.856C71.577 326.9 75.8558 320.909 74.7555 320.176C73.6552 319.442 66.0757 329.345 66.0757 329.345C66.0757 329.345 64.8532 331.79 63.5084 330.934C61.1856 329.467 70.11 319.442 70.9657 318.464C71.577 317.853 70.4767 316.997 69.8655 317.731C69.2542 318.464 62.5304 327.878 60.2076 326.288C58.3738 325.188 67.4204 317.975 67.7872 315.286C68.1539 312.596 61.5524 321.398 59.8409 320.176C59.2296 319.687 58.8628 319.32 63.3861 314.797C65.5867 312.596 74.022 305.995 74.022 305.995L91.1372 246.214H113.631L87.8364 316.63Z" fill="#FFBE9D"/>
<path d="M272.069 74.0841C270.357 72.9839 264.245 82.1527 264.367 79.3409C264.611 76.6514 273.169 69.0718 271.335 67.9716C268.89 66.6268 262.655 76.2847 262.044 77.0182C261.433 77.7517 260.333 77.0182 260.822 76.2847C261.677 75.3067 269.991 64.9153 267.668 63.5705C266.323 62.837 265.223 65.2821 265.223 65.2821C265.223 65.2821 258.132 75.5512 257.032 74.9399C255.932 74.2064 259.966 68.0938 261.433 66.0156C262.9 64.0595 262.533 62.5925 261.188 62.5925C260.21 62.5925 255.565 68.5828 254.098 70.6611C252.631 72.6171 248.841 78.2407 248.474 73.9619C248.108 69.6831 246.274 66.5046 245.174 66.0156C244.073 65.5266 242.973 66.8713 243.584 67.9716C244.073 68.9496 244.562 70.7834 244.807 72.1281C245.051 73.2284 245.051 74.4509 244.807 75.5512C244.562 76.8959 244.318 77.9962 244.073 78.9742L241.139 83.742C241.139 83.742 219.99 121.151 216.445 126.408C212.899 131.787 186.615 154.036 186.615 154.036L188.694 183.377L231.481 145.479L258.01 90.3436L258.621 88.9988C258.621 88.9988 266.69 81.9082 268.768 79.7077C273.169 74.9399 272.68 74.4509 272.069 74.0841Z" fill="#FFBE9D"/>
<path d="M180.992 201.348L213.877 167.117L200.796 138.877L155.808 170.907L154.952 168.462L128.79 171.763V176.408L128.057 176.531C128.057 176.531 103.118 181.054 98.1054 199.758C94.6823 212.717 87.4695 236.678 83.313 250.37L113.265 252.938L120.844 227.876C120.844 227.876 125.612 238.757 125.367 243.891C125.123 249.026 120.111 265.774 120.111 265.774L178.547 271.275L177.691 222.008L180.992 201.348Z" fill="#E8505B"/>
<path d="M178.669 206.238C178.669 206.36 160.331 206.605 137.837 206.605C115.22 206.605 97.0049 206.482 97.0049 206.238C97.0049 206.116 115.343 205.871 137.837 205.871C160.331 205.871 178.669 205.993 178.669 206.238Z" fill="#F5F5F5"/>
<path d="M180.258 201.225C180.258 201.348 161.92 201.592 139.426 201.592C116.81 201.592 98.5942 201.47 98.5942 201.225C98.5942 201.103 116.932 200.859 139.426 200.859C162.043 200.981 180.258 201.103 180.258 201.225Z" fill="#F5F5F5"/>
<path d="M77.3227 495.729L71.0879 524.091L59.7186 544.996C58.8628 546.463 59.4741 548.419 61.0633 549.152C61.9191 549.519 62.8971 549.519 63.7529 549.03C69.0097 545.974 88.5698 534.605 88.8143 532.526C89.1811 530.081 97.3719 503.064 97.3719 503.064L77.3227 495.729Z" fill="#E8505B"/>
<path opacity="0.6" d="M60.9409 549.152L89.3032 530.57L89.0587 531.793C88.8142 532.771 88.2029 533.749 87.3472 534.36C85.0244 536.072 78.5451 540.473 63.8749 549.03C62.8969 549.519 61.9189 549.519 60.9409 549.152Z" fill="white"/>
<g opacity="0.6">
<path opacity="0.6" d="M85.7582 520.057C84.9024 520.423 84.4134 521.401 84.7802 522.257C85.0247 523.113 86.1249 523.602 86.8585 523.357C87.7142 523.113 88.3255 521.89 87.9587 521.035C87.592 520.179 86.3694 519.69 85.6359 520.179" fill="white"/>
</g>
<path d="M70.4767 538.394C70.3544 538.394 69.9876 536.805 68.5206 535.583C67.0536 534.36 65.4644 534.36 65.4644 534.116C65.4644 533.993 65.8311 533.871 66.5646 533.993C67.2981 534.116 68.1539 534.36 69.0096 535.094C69.8654 535.827 70.3544 536.683 70.4767 537.294C70.5989 537.905 70.4767 538.394 70.4767 538.394Z" fill="#263238"/>
<path d="M67.5426 541.695C67.4204 541.817 66.6869 540.595 65.3421 539.861C63.9974 539.006 62.6526 539.006 62.6526 538.883C62.6526 538.761 64.1196 538.394 65.5866 539.372C67.1759 540.228 67.6649 541.573 67.5426 541.695Z" fill="#263238"/>
<path d="M75.3665 534.482C75.2442 534.604 74.144 532.771 72.1879 531.426C70.2319 529.959 68.1536 529.592 68.2759 529.47C68.2759 529.348 70.4764 529.47 72.5547 530.937C74.633 532.404 75.4887 534.482 75.3665 534.482Z" fill="#263238"/>
<path d="M77.9339 526.047C77.8117 526.169 76.4669 525.191 74.3887 524.58C72.4326 523.969 70.5989 524.091 70.5989 523.969C70.5989 523.846 72.4326 523.357 74.5109 523.969C76.8337 524.58 78.0562 525.925 77.9339 526.047Z" fill="#263238"/>
<path d="M80.0122 517.734C79.8899 517.856 78.5452 516.511 76.3447 516.145C74.1441 515.656 72.4326 516.389 72.4326 516.145C72.4326 516.022 72.7994 515.778 73.5329 515.533C74.2664 515.289 75.3666 515.167 76.4669 515.411C77.5672 515.656 78.5452 516.145 79.1564 516.634C79.8899 517.245 80.1344 517.734 80.0122 517.734Z" fill="#263238"/>
<path d="M76.8337 514.555C76.8337 514.555 76.8337 514.189 77.0782 513.455C77.3227 512.844 77.8117 511.866 78.6675 510.888C79.1565 510.399 79.5233 509.788 80.5013 509.665C80.9903 509.543 81.4793 509.788 81.7238 510.277C81.9683 510.766 81.9683 511.255 81.846 511.621C81.357 513.455 79.401 514.8 77.3227 514.555C75.2445 514.311 73.6552 512.722 73.2884 510.888C73.1662 510.399 73.1662 509.91 73.5329 509.543C73.8997 509.176 74.511 509.054 74.8777 509.176C75.7335 509.543 76.1002 510.154 76.467 510.643C77.2005 511.621 77.6895 512.599 77.8117 513.333C78.0562 514.066 78.0562 514.433 78.0562 514.433C77.934 514.433 77.6895 512.844 76.1002 511.01C75.7335 510.521 75.2445 510.032 74.6332 509.788C74.3887 509.665 74.022 509.788 73.8997 509.91C73.7775 510.154 73.6552 510.521 73.7775 510.888C74.1442 512.355 75.6112 513.822 77.3227 513.944C79.0343 514.189 80.7458 512.966 81.2348 511.499C81.357 511.132 81.357 510.766 81.2348 510.521C81.1125 510.277 80.868 510.154 80.5013 510.154C79.89 510.277 79.401 510.766 78.912 511.132C77.2005 512.966 76.956 514.678 76.8337 514.555Z" fill="#263238"/>
<path d="M168.033 504.653L166.322 527.269C166.322 527.269 188.694 536.56 188.816 540.839L144.805 539.128L146.028 503.797L168.033 504.653Z" fill="#E8505B"/>
<g opacity="0.6">
<path opacity="0.6" d="M152.874 524.824C152.018 525.069 151.407 525.925 151.529 526.78C151.652 527.636 152.63 528.247 153.486 528.125C154.341 527.881 155.075 526.903 154.83 526.047C154.586 525.191 153.363 524.458 152.63 524.947" fill="white"/>
</g>
<path opacity="0.6" d="M144.928 539.128L145.172 535.583L187.227 538.517C187.227 538.517 189.183 539.495 188.816 540.839L144.928 539.128Z" fill="white"/>
<path d="M167.055 527.025C167.055 527.269 165.955 527.269 164.855 528.003C163.755 528.614 163.143 529.592 163.021 529.47C162.777 529.47 163.143 528.125 164.488 527.392C165.833 526.536 167.178 526.903 167.055 527.025Z" fill="#263238"/>
<path d="M171.579 529.103C171.579 529.348 170.723 529.592 169.867 530.57C169.134 531.426 168.889 532.404 168.645 532.404C168.4 532.404 168.4 531.181 169.256 530.081C170.356 528.981 171.579 528.981 171.579 529.103Z" fill="#263238"/>
<path d="M174.024 534.727C173.779 534.727 173.535 533.626 174.146 532.526C174.757 531.426 175.735 530.937 175.857 531.181C175.98 531.304 175.246 531.915 174.879 532.893C174.39 533.871 174.268 534.727 174.024 534.727Z" fill="#263238"/>
<path d="M166.933 521.89C166.811 522.135 165.833 521.768 164.61 521.768C163.388 521.768 162.41 522.135 162.287 522.013C162.165 521.89 163.143 521.035 164.61 521.035C166.077 521.035 167.055 521.646 166.933 521.89Z" fill="#263238"/>
<path opacity="0.3" d="M167.667 509.176L167.422 513.21L145.784 512.11L145.906 508.443L167.667 509.176Z" fill="black"/>
<path d="M167.177 517.245C167.177 517.367 166.322 517.489 164.977 517.123C164.366 517 163.51 516.756 162.654 516.267C162.287 516.022 161.798 515.778 161.432 515.533C161.187 515.411 160.943 515.289 160.82 515.044C160.576 514.8 160.454 514.189 160.82 513.944C161.065 513.577 161.432 513.455 161.798 513.455C162.165 513.455 162.41 513.577 162.654 513.577C163.143 513.7 163.632 513.944 163.999 514.066C164.855 514.433 165.466 515.044 165.955 515.533C166.933 516.511 167.3 517.367 167.177 517.367C167.055 517.489 166.566 516.756 165.588 515.9C165.099 515.533 164.488 515.044 163.632 514.678C163.265 514.555 162.776 514.311 162.41 514.189C161.921 514.066 161.554 514.066 161.432 514.189C161.432 514.311 161.432 514.311 161.432 514.433C161.554 514.555 161.676 514.678 161.921 514.8C162.287 515.044 162.654 515.289 163.021 515.533C163.754 515.9 164.488 516.267 165.099 516.389C166.322 517.123 167.177 517.123 167.177 517.245Z" fill="#263238"/>
<path d="M166.811 517.612C166.689 517.612 166.322 516.878 166.322 515.411C166.322 514.678 166.444 513.944 166.689 512.966C166.811 512.477 167.055 512.11 167.3 511.621C167.544 511.254 167.911 510.643 168.767 510.521C169.256 510.521 169.5 510.888 169.623 511.132C169.745 511.377 169.745 511.743 169.867 511.988C169.867 512.477 169.867 512.966 169.867 513.455C169.745 514.433 169.256 515.167 168.889 515.656C168.033 516.756 167.055 517 167.055 516.878C166.933 516.756 167.789 516.389 168.4 515.289C168.767 514.8 169.011 514.066 169.134 513.211C169.134 512.844 169.256 512.355 169.134 511.988C169.134 511.499 168.889 511.132 168.767 511.132C168.522 511.132 168.156 511.499 167.911 511.866C167.667 512.233 167.422 512.599 167.3 513.088C166.933 513.822 166.811 514.678 166.811 515.289C166.811 516.756 166.933 517.612 166.811 517.612Z" fill="#263238"/>
<path d="M122.556 257.339C122.556 257.339 108.619 279.344 106.663 287.779C104.829 295.359 74.3887 459.175 68.1539 493.161C67.5426 496.707 69.6209 500.007 73.0439 501.108L100.55 509.421C104.462 510.643 108.497 508.198 109.353 504.164L143.338 345.36L133.314 502.575C133.069 507.342 136.859 511.255 141.627 511.132L168.644 510.276C172.801 510.154 176.224 506.853 176.468 502.697C178.791 464.799 189.305 292.425 187.227 287.046C184.904 280.933 178.547 259.784 178.547 259.784L122.556 257.339Z" fill="#263238"/>
<path d="M111.553 496.34C111.553 496.34 110.942 496.34 109.842 496.095C108.741 495.973 107.152 495.606 105.318 495.24C101.528 494.506 96.2717 493.161 90.5259 491.572C84.7801 489.86 79.6455 488.149 76.1002 486.682C74.2665 485.948 72.7995 485.337 71.8214 484.97C70.8434 484.481 70.2322 484.237 70.2322 484.237C70.2322 484.237 70.8434 484.359 71.8214 484.726C72.9217 485.093 74.3887 485.582 76.2225 486.193C79.89 487.415 85.0246 489.127 90.7704 490.838C96.5162 492.55 101.651 493.773 105.441 494.751C107.274 495.117 108.741 495.484 109.964 495.851C111.064 496.095 111.553 496.218 111.553 496.34Z" fill="#455A64"/>
<path d="M77.445 486.315C77.3228 486.438 76.1003 485.215 75.7335 483.259C75.2445 481.303 75.8558 479.714 75.978 479.836C76.2225 479.836 75.978 481.425 76.3448 483.137C76.7115 484.848 77.5673 486.193 77.445 486.315Z" fill="#455A64"/>
<path d="M80.8681 480.447C80.9904 480.447 81.1127 481.914 80.5014 483.748C80.0124 485.46 79.1566 486.682 79.0344 486.682C78.9121 486.56 79.4011 485.337 79.8901 483.626C80.3791 481.792 80.6236 480.447 80.8681 480.447Z" fill="#455A64"/>
<path d="M167.177 488.76C167.299 488.76 167.666 489.983 167.911 491.572C168.155 493.161 168.277 494.506 168.033 494.506C167.911 494.506 167.544 493.284 167.299 491.694C167.177 490.105 167.055 488.76 167.177 488.76Z" fill="#455A64"/>
<path d="M170.478 487.171C170.6 487.171 170.723 488.516 170.723 490.227C170.723 491.939 170.478 493.284 170.356 493.284C170.234 493.284 170.111 491.939 170.111 490.227C170.111 488.516 170.356 487.171 170.478 487.171Z" fill="#455A64"/>
<path d="M155.319 264.918C155.319 264.918 155.319 265.163 155.319 265.774C155.319 266.385 155.319 267.241 155.197 268.219C155.074 270.42 154.952 273.476 154.585 277.266C153.974 284.968 152.996 295.481 151.285 307.095C149.573 318.709 147.617 329.222 146.028 336.68C145.294 340.47 144.561 343.526 144.072 345.604C143.827 346.582 143.705 347.438 143.461 348.049C143.338 348.538 143.216 348.905 143.216 348.905C143.216 348.905 143.216 348.66 143.338 348.049C143.461 347.438 143.583 346.582 143.827 345.604C144.194 343.404 144.805 340.347 145.539 336.68C147.006 329.1 148.962 318.709 150.673 307.095C152.385 295.481 153.485 284.968 154.219 277.266C154.585 273.476 154.83 270.42 154.952 268.219C155.074 267.241 155.074 266.385 155.197 265.774C155.319 265.285 155.319 264.918 155.319 264.918Z" fill="#455A64"/>
<path d="M179.891 265.774C179.891 265.774 179.647 265.774 179.28 265.896C178.791 265.896 178.18 265.896 177.569 266.019C175.979 266.141 173.779 266.141 171.089 266.141C165.588 266.263 158.008 266.263 149.573 266.019C141.138 265.774 133.558 265.407 128.179 264.918C125.49 264.674 123.167 264.552 121.7 264.429C120.966 264.307 120.355 264.307 119.988 264.185C119.621 264.185 119.377 264.063 119.377 264.063C119.377 264.063 119.621 264.063 119.988 264.063C120.477 264.063 121.088 264.063 121.7 264.185C123.289 264.307 125.49 264.429 128.179 264.552C133.68 264.796 141.26 265.163 149.573 265.407C157.886 265.652 165.588 265.774 170.967 265.774C173.656 265.774 175.857 265.774 177.446 265.774C178.18 265.774 178.791 265.774 179.158 265.774C179.647 265.774 179.891 265.774 179.891 265.774Z" fill="#455A64"/>
<path d="M159.964 264.674C159.964 264.674 159.964 265.407 159.964 266.752C159.964 268.219 159.842 270.053 159.72 272.376C159.475 277.143 159.231 283.745 158.864 291.08C158.62 294.748 158.497 298.171 158.253 301.349C158.008 304.528 157.275 307.339 156.175 309.54C154.952 311.618 153.485 312.963 152.263 313.697C151.651 314.063 151.162 314.186 150.796 314.308C150.429 314.43 150.307 314.43 150.307 314.43C150.307 314.308 151.04 314.186 152.14 313.452C153.241 312.719 154.708 311.374 155.808 309.296C156.908 307.217 157.519 304.405 157.764 301.349C158.008 298.171 158.131 294.748 158.253 291.08C158.62 283.745 158.986 277.143 159.231 272.376C159.353 270.053 159.475 268.219 159.598 266.752C159.842 265.407 159.964 264.674 159.964 264.674Z" fill="#455A64"/>
<path d="M128.546 278.244C128.546 278.244 128.546 278.733 128.546 279.711C128.424 280.566 128.301 281.911 127.812 283.5C126.957 286.679 125.001 290.958 121.333 294.381C117.665 297.804 113.264 299.515 110.086 300.127C108.497 300.493 107.152 300.493 106.296 300.493C105.44 300.493 104.829 300.493 104.829 300.371C104.829 300.249 106.907 300.371 109.964 299.638C113.02 298.904 117.299 297.193 120.844 293.892C124.389 290.591 126.468 286.434 127.323 283.378C128.424 280.2 128.424 278.244 128.546 278.244Z" fill="#455A64"/>
<path d="M186.982 301.227C186.982 301.227 186.615 301.227 186.004 300.982C185.393 300.738 184.537 300.493 183.559 299.882C182.581 299.393 181.358 298.66 180.258 297.682C179.035 296.704 177.935 295.481 176.835 294.136C175.735 292.792 174.879 291.325 174.268 289.858C173.656 288.513 173.167 287.168 172.923 286.068C172.678 284.968 172.556 283.99 172.556 283.378C172.556 282.767 172.556 282.4 172.556 282.4C172.678 282.4 172.801 283.745 173.412 285.946C173.656 287.046 174.145 288.268 174.757 289.613C175.368 290.958 176.224 292.303 177.324 293.647C178.424 294.992 179.524 296.092 180.625 297.07C181.725 298.048 182.825 298.782 183.803 299.393C185.637 300.738 186.982 301.105 186.982 301.227Z" fill="#455A64"/>
<path d="M137.959 282.278C137.959 282.278 137.959 282.523 137.959 282.767C137.959 283.134 137.837 283.745 137.715 284.356C137.47 285.823 137.226 287.902 136.859 290.469C136.126 295.848 135.025 303.55 133.436 313.085C130.38 332.157 125.856 358.441 119.866 387.292C113.876 416.143 107.763 442.06 102.996 460.765C100.55 470.056 98.5945 477.635 97.1275 482.892C96.394 485.46 95.9049 487.538 95.4159 488.883C95.1714 489.494 95.0492 490.105 94.9269 490.472C94.8047 490.839 94.8047 490.961 94.8047 490.961C94.8047 490.961 94.8047 490.716 94.9269 490.472C95.0492 490.105 95.1714 489.616 95.2937 488.883C95.6604 487.416 96.1494 485.46 96.883 482.892C98.2277 477.635 100.184 470.056 102.507 460.765C107.152 442.06 113.265 416.143 119.255 387.292C125.245 358.441 129.891 332.157 132.947 313.208C134.536 303.672 135.759 295.97 136.492 290.591C136.859 287.902 137.226 285.946 137.47 284.479C137.593 283.745 137.715 283.256 137.715 282.889C137.959 282.4 137.959 282.278 137.959 282.278Z" fill="#455A64"/>
<path d="M160.331 496.218C160.331 496.218 160.331 496.095 160.331 495.729C160.331 495.362 160.453 494.873 160.453 494.262C160.576 492.917 160.698 490.961 160.942 488.393C161.431 483.259 162.043 475.924 162.898 467C164.488 448.906 167.055 423.967 168.889 396.216C169.867 382.402 170.478 369.199 170.722 357.218C170.967 345.237 170.967 334.357 170.722 325.31C170.478 316.264 169.989 308.929 169.622 303.794C169.5 301.227 169.255 299.271 169.255 297.926C169.255 297.315 169.133 296.826 169.133 296.459C169.133 296.092 169.133 295.97 169.133 295.97C169.133 295.97 169.133 296.092 169.255 296.459C169.255 296.826 169.378 297.315 169.378 297.926C169.5 299.271 169.744 301.227 169.867 303.794C170.356 308.806 170.722 316.142 171.089 325.31C171.334 334.357 171.456 345.237 171.211 357.218C170.967 369.199 170.356 382.402 169.378 396.338C167.422 423.967 164.854 449.029 163.143 467.122C162.287 476.168 161.554 483.503 161.065 488.516C160.82 490.961 160.576 492.917 160.453 494.384C160.331 494.995 160.331 495.484 160.331 495.851C160.331 495.973 160.331 496.218 160.331 496.218Z" fill="#455A64"/>
<path d="M177.08 493.284C177.08 493.406 167.422 494.628 155.441 495.973C143.461 497.318 133.803 498.174 133.681 498.051C133.681 497.929 143.339 496.707 155.319 495.362C167.3 494.017 177.08 493.161 177.08 493.284Z" fill="#455A64"/>
<path d="M516.449 508.565C516.449 508.565 516.327 508.443 516.204 508.076C516.082 507.709 515.838 507.22 515.471 506.609C514.86 505.264 514.126 503.308 513.393 500.619C512.048 495.362 511.559 487.171 513.515 477.513C514.493 472.623 515.96 467.489 517.794 461.987C519.628 456.486 521.706 450.618 523.417 444.383C525.129 438.026 526.474 431.302 526.229 424.089C525.985 416.877 523.784 409.786 521.461 402.573C519.139 395.483 516.693 388.392 515.96 381.424C515.104 374.455 516.693 367.487 519.872 361.864C522.928 356.118 526.84 351.228 529.774 346.215C532.708 341.203 534.542 335.946 535.765 331.178C537.965 321.521 537.232 313.33 536.131 307.951C535.031 302.572 533.686 299.76 533.686 299.76C533.686 299.76 533.686 300.004 533.809 300.249C533.931 300.616 534.053 301.105 534.298 301.838C534.787 303.183 535.276 305.261 535.765 307.951C536.743 313.33 537.476 321.398 535.153 331.056C533.931 335.824 532.097 340.959 529.163 345.849C526.229 350.861 522.317 355.751 519.139 361.497C515.838 367.243 514.248 374.333 515.104 381.424C515.838 388.514 518.283 395.605 520.606 402.695C522.928 409.786 525.007 416.877 525.251 423.967C525.496 431.058 524.151 437.782 522.562 444.016C520.85 450.251 518.772 456.119 516.938 461.62C515.104 467.122 513.637 472.379 512.781 477.269C510.825 487.049 511.437 495.24 512.781 500.496C513.515 503.186 514.371 505.142 514.982 506.487C515.349 507.098 515.593 507.587 515.715 507.954C516.327 508.443 516.449 508.565 516.449 508.565Z" fill="#263238"/>
<path d="M525.984 351.228C525.984 351.228 531.852 332.279 521.339 321.276C520.972 320.909 520.361 321.032 520.239 321.643C519.627 324.577 518.894 334.112 525.984 351.228Z" fill="#E8505B"/>
<path d="M522.439 327.511C522.317 327.511 522.561 328.856 522.806 331.056C523.173 333.501 523.662 336.313 524.151 339.369C524.64 342.548 525.129 345.36 525.495 347.682C525.862 349.761 525.984 351.105 526.107 351.105C526.229 351.105 526.229 349.761 525.984 347.56C525.74 345.36 525.373 342.426 524.884 339.125C524.395 335.824 523.784 332.89 523.295 330.812C522.928 328.733 522.561 327.511 522.439 327.511Z" fill="#263238"/>
<path d="M519.016 395.849C519.016 395.849 515.349 376.411 500.801 371.521C500.312 371.399 499.823 371.766 499.945 372.377C501.045 375.311 504.835 384.113 519.016 395.849Z" fill="#E8505B"/>
<path d="M504.835 376.534C504.713 376.656 505.569 377.756 506.791 379.468C508.258 381.424 509.97 383.746 511.926 386.192C513.882 388.759 515.593 390.959 517.06 392.915C518.405 394.627 519.139 395.727 519.261 395.727C519.383 395.727 518.649 394.505 517.549 392.671C516.327 390.837 514.615 388.392 512.659 385.825C510.703 383.135 508.747 380.812 507.402 379.223C505.813 377.389 504.957 376.411 504.835 376.534Z" fill="#263238"/>
<path d="M523.05 444.75C523.05 444.75 525.251 425.067 512.659 416.143C512.17 415.776 511.559 416.143 511.559 416.632C511.681 419.811 512.781 429.346 523.05 444.75Z" fill="#E8505B"/>
<path d="M514.982 422.133C514.86 422.133 515.349 423.478 516.082 425.434C516.938 427.757 517.916 430.446 519.016 433.38C520.116 436.314 521.094 439.004 521.95 441.327C522.684 443.405 523.173 444.628 523.173 444.628C523.295 444.628 523.05 443.283 522.439 441.204C521.828 439.126 520.85 436.314 519.75 433.136C518.649 430.08 517.427 427.268 516.571 425.312C515.715 423.356 515.104 422.133 514.982 422.133Z" fill="#263238"/>
<path d="M512.048 493.895C512.048 493.895 513.515 474.09 500.679 465.777C500.19 465.533 499.578 465.777 499.701 466.388C499.823 469.445 501.29 478.858 512.048 493.895Z" fill="#E8505B"/>
<path d="M503.246 471.645C503.124 471.645 503.613 472.99 504.468 474.946C505.446 477.146 506.424 479.836 507.647 482.77C508.869 485.704 509.847 488.394 510.825 490.594C511.681 492.55 512.17 493.895 512.17 493.773C512.292 493.773 511.926 492.428 511.314 490.35C510.581 488.271 509.603 485.46 508.38 482.403C507.158 479.347 505.935 476.657 504.957 474.701C503.979 472.745 503.368 471.523 503.246 471.645Z" fill="#263238"/>
<path d="M534.542 334.601C534.542 334.601 552.146 325.433 552.513 310.029C552.513 309.54 551.902 309.173 551.535 309.418C548.846 311.251 541.511 317.486 534.542 334.601Z" fill="#E8505B"/>
<path d="M548.845 315.286C548.723 315.286 547.99 316.264 546.645 317.975C545.178 319.931 543.589 322.254 541.633 324.821C539.799 327.389 538.087 329.711 536.62 331.667C535.276 333.379 534.542 334.479 534.664 334.601C534.787 334.724 535.642 333.746 537.109 332.034C538.454 330.323 540.288 328 542.244 325.31C544.2 322.621 545.911 320.176 547.012 318.342C548.234 316.508 548.845 315.408 548.845 315.286Z" fill="#263238"/>
<path d="M515.593 375.189C515.593 375.189 533.686 367.12 534.909 351.839C534.909 351.35 534.42 350.983 533.931 351.228C531.364 352.817 523.662 358.563 515.593 375.189Z" fill="#E8505B"/>
<path d="M531.119 356.851C530.997 356.729 530.141 357.829 528.796 359.419C527.207 361.252 525.496 363.453 523.417 365.898C521.461 368.343 519.627 370.543 518.038 372.377C516.693 374.089 515.838 375.067 515.838 375.189C515.96 375.311 516.938 374.333 518.405 372.744C519.872 371.155 521.828 368.954 523.906 366.387C525.985 363.82 527.818 361.497 529.163 359.663C530.386 358.074 531.119 356.851 531.119 356.851Z" fill="#263238"/>
<path d="M526.107 420.544C526.107 420.544 538.577 405.14 532.709 390.959C532.464 390.47 531.853 390.348 531.486 390.837C529.774 393.527 525.74 402.084 526.107 420.544Z" fill="#E8505B"/>
<path d="M531.486 397.194C531.364 397.194 530.997 398.417 530.63 400.617C530.141 402.94 529.53 405.752 528.796 408.93C528.063 411.986 527.452 414.798 526.963 417.243C526.474 419.322 526.229 420.666 526.229 420.666C526.351 420.666 526.84 419.444 527.452 417.366C528.063 415.287 528.796 412.353 529.53 409.175C530.263 405.996 530.752 402.94 531.119 400.862C531.364 398.539 531.486 397.194 531.486 397.194Z" fill="#263238"/>
<path d="M513.76 473.846C513.76 473.846 531.73 465.41 532.708 450.129C532.708 449.64 532.219 449.273 531.73 449.518C529.041 451.229 521.584 457.097 513.76 473.846Z" fill="#E8505B"/>
<path d="M528.796 455.264C528.674 455.264 527.818 456.242 526.474 457.953C525.007 459.909 523.173 462.11 521.217 464.555C519.261 467 517.427 469.2 515.96 471.156C514.615 472.868 513.759 473.846 513.882 473.968C514.004 474.09 514.982 473.112 516.449 471.523C517.916 469.934 519.872 467.611 521.95 465.044C524.029 462.476 525.74 460.031 527.085 458.32C528.185 456.486 528.919 455.386 528.796 455.264Z" fill="#263238"/>
<path d="M477.94 395.972C477.94 395.972 477.94 396.094 477.94 396.461C477.94 396.827 477.94 397.194 477.94 397.683C477.94 398.906 478.062 400.495 478.184 402.451C478.429 406.73 478.796 412.598 479.162 419.566C480.385 426.779 484.053 434.725 489.065 442.427C492.61 448.173 496.4 453.307 499.701 458.075C503.001 462.843 505.691 467.366 507.647 471.278C509.603 475.19 510.703 478.613 511.315 480.936C511.681 482.159 511.926 483.014 512.048 483.626C512.17 484.237 512.293 484.604 512.293 484.604C512.293 484.604 512.293 484.237 512.17 483.626C512.048 483.014 511.926 482.036 511.559 480.814C510.948 478.369 509.97 474.946 508.014 471.034C506.18 467 503.368 462.476 500.19 457.708C497.011 452.818 493.221 447.684 489.676 442.06C484.786 434.358 481.118 426.534 479.774 419.444C479.285 412.353 478.918 406.485 478.551 402.329C478.429 400.373 478.307 398.661 478.184 397.561C478.184 397.072 478.062 396.583 478.062 396.338C478.062 396.094 477.94 395.972 477.94 395.972Z" fill="#263238"/>
<path d="M488.698 440.96C488.698 440.96 481.118 422.622 490.654 410.642C491.021 410.275 491.632 410.397 491.754 410.886C492.61 413.943 494.199 423.356 488.698 440.96Z" fill="#E8505B"/>
<path d="M490.043 417.121C489.92 417.121 489.676 418.466 489.431 420.544C489.187 422.745 488.82 425.679 488.576 428.979C488.331 432.28 488.209 435.336 488.209 437.415C488.209 439.615 488.331 440.96 488.453 440.96C488.576 440.96 488.575 439.615 488.82 437.415C488.942 434.97 489.187 432.158 489.431 428.979C489.676 425.801 489.798 422.989 490.043 420.544C490.165 418.466 490.165 417.121 490.043 417.121Z" fill="#263238"/>
<g opacity="0.3">
<g opacity="0.3">
<g opacity="0.3">
<g opacity="0.3">
<path opacity="0.3" d="M488.698 440.96C488.698 440.96 481.118 422.622 490.654 410.642C491.021 410.275 491.632 410.397 491.754 410.886C492.61 413.943 494.199 423.356 488.698 440.96Z" fill="black"/>
</g>
</g>
</g>
</g>
<path d="M512.17 485.093C512.17 485.093 506.058 466.266 516.571 455.019C516.938 454.652 517.549 454.774 517.671 455.386C518.405 458.564 519.138 467.977 512.17 485.093Z" fill="#E8505B"/>
<path d="M515.593 461.376C515.471 461.376 515.104 462.599 514.737 464.799C514.248 466.877 513.759 469.811 513.27 473.112C512.781 476.413 512.415 479.347 512.292 481.547C512.17 483.748 512.17 485.093 512.17 485.093C512.292 485.093 512.415 483.748 512.781 481.67C513.148 479.225 513.515 476.413 514.004 473.357C514.493 470.178 514.86 467.366 515.226 465.044C515.471 462.721 515.593 461.376 515.593 461.376Z" fill="#263238"/>
<g opacity="0.3">
<g opacity="0.3">
<g opacity="0.3">
<g opacity="0.3">
<path opacity="0.3" d="M512.17 485.093C512.17 485.093 506.058 466.266 516.571 455.019C516.938 454.652 517.549 454.774 517.671 455.386C518.405 458.564 519.138 467.977 512.17 485.093Z" fill="black"/>
</g>
</g>
</g>
</g>
<path d="M479.04 418.588C479.04 418.588 462.781 407.219 464.492 391.937C464.492 391.448 465.226 391.204 465.592 391.448C467.793 393.649 474.15 400.862 479.04 418.588Z" fill="#E8505B"/>
<g opacity="0.3">
<g opacity="0.3">
<g opacity="0.3">
<g opacity="0.3">
<path opacity="0.3" d="M479.04 418.588C479.04 418.588 462.781 407.219 464.492 391.937C464.492 391.448 465.226 391.204 465.592 391.448C467.793 393.649 474.15 400.862 479.04 418.588Z" fill="black"/>
</g>
</g>
</g>
</g>
<path d="M467.304 397.683C467.182 397.683 467.671 399.028 468.649 400.984C469.627 402.94 470.972 405.629 472.439 408.563C474.028 411.498 475.495 414.065 476.717 415.899C477.94 417.732 478.673 418.833 478.796 418.71C478.918 418.71 478.184 417.488 477.206 415.532C475.984 413.454 474.639 410.886 473.172 408.074C471.705 405.263 470.36 402.818 469.138 400.617C468.038 398.783 467.426 397.683 467.304 397.683Z" fill="#263238"/>
<path d="M505.691 466.388C505.691 466.388 486.13 463.332 480.874 448.906C480.629 448.417 481.118 447.928 481.607 448.051C484.663 448.906 493.588 452.574 505.691 466.388Z" fill="#E8505B"/>
<g opacity="0.3">
<g opacity="0.3">
<g opacity="0.3">
<g opacity="0.3">
<path opacity="0.3" d="M505.691 466.388C505.691 466.388 486.13 463.332 480.874 448.906C480.629 448.417 481.118 447.928 481.607 448.051C484.663 448.906 493.588 452.574 505.691 466.388Z" fill="black"/>
</g>
</g>
</g>
</g>
<path d="M486.008 452.818C485.886 452.941 486.986 453.796 488.698 455.141C490.409 456.486 492.732 458.32 495.422 460.276C498.111 462.232 500.556 463.821 502.512 465.043C504.346 466.144 505.568 466.755 505.568 466.633C505.568 466.511 504.468 465.777 502.757 464.554C500.801 463.21 498.478 461.498 495.911 459.664C493.343 457.831 491.021 456.119 489.065 454.774C487.109 453.43 486.008 452.696 486.008 452.818Z" fill="#263238"/>
<path d="M528.919 502.452L523.295 539.372L500.801 539.25L493.221 502.452H528.919Z" fill="#455A64"/>
<path d="M508.38 514.311C508.992 513.455 509.358 512.355 509.481 511.254C509.603 510.154 509.114 508.809 508.014 508.076C506.913 507.465 505.324 507.709 504.224 508.443C503.124 509.176 502.39 510.521 502.023 511.866C501.657 513.21 501.657 514.555 501.779 516.022C501.901 517.489 502.146 518.834 502.635 520.301C503.124 521.646 504.102 522.991 505.202 523.969C506.424 524.947 507.891 525.68 509.481 525.802C511.07 525.925 512.659 525.313 514.004 524.458C515.349 523.602 516.449 522.624 517.305 521.401C518.283 520.179 518.894 518.834 519.016 517.367C519.138 515.9 518.527 514.433 517.427 513.455C516.204 512.477 514.615 512.599 513.393 513.21C512.17 513.822 511.314 514.922 511.07 516.267C510.581 518.834 512.17 521.035 513.882 522.135C515.715 523.235 517.671 523.235 519.261 522.868C520.85 522.502 522.195 521.89 523.173 521.401C524.151 520.79 524.884 520.301 525.373 519.934C525.862 519.568 526.107 519.323 526.107 519.323C526.107 519.323 525.862 519.445 525.373 519.812C524.884 520.179 524.151 520.668 523.173 521.157C522.195 521.646 520.972 522.257 519.383 522.502C517.794 522.746 515.96 522.624 514.248 521.646C512.659 520.668 511.314 518.467 511.681 516.267C511.926 515.166 512.659 514.189 513.759 513.7C514.86 513.088 516.204 513.088 517.182 513.944C518.16 514.677 518.649 516.022 518.527 517.367C518.405 518.712 517.794 519.934 516.938 521.035C516.082 522.135 514.982 523.113 513.759 523.969C512.537 524.702 511.07 525.191 509.603 525.191C508.136 525.069 506.791 524.458 505.691 523.48C504.591 522.502 503.735 521.279 503.246 520.057C502.757 518.712 502.512 517.367 502.39 516.022C502.268 514.678 502.39 513.333 502.635 511.988C502.879 510.765 503.49 509.543 504.591 508.932C505.569 508.32 506.913 508.076 507.769 508.565C508.747 509.054 509.114 510.276 509.114 511.254C509.114 512.355 508.747 513.333 508.136 514.066C507.036 515.656 505.446 516.634 503.979 517.245C502.512 517.734 501.045 517.856 499.945 517.734C497.745 517.489 496.644 516.634 496.644 516.756C496.644 516.756 496.644 516.756 496.889 516.878C497.011 517 497.256 517.123 497.5 517.245C497.989 517.489 498.845 517.856 500.067 517.978C501.168 518.101 502.635 518.101 504.224 517.612C505.446 517 507.158 516.022 508.38 514.311Z" fill="#263238"/>
</svg>
