<svg width="494" height="404" viewBox="0 0 494 404" fill="none" xmlns="http://www.w3.org/2000/svg">
<path d="M85.2924 183.253L49.2578 287.076L203.19 340.54L239.225 236.717L85.2924 183.253Z" fill="#EBEBEB"/>
<path d="M239.216 236.689C239.216 236.689 238.617 237.089 237.317 237.589C235.917 238.189 234.018 238.889 231.719 239.889C226.721 241.889 219.623 244.589 211.026 247.989C193.332 254.789 169.241 263.989 142.45 274.189L141.85 274.389L141.55 273.889C141.351 273.489 141.051 273.089 140.751 272.689C125.356 248.089 111.461 225.889 101.264 209.589C96.3662 201.589 92.2676 195.089 89.4686 190.389C88.1691 188.189 87.0695 186.489 86.2697 185.089C85.57 183.889 85.1701 183.189 85.2701 183.189C85.2701 183.189 85.7699 183.789 86.5696 184.889C87.4693 186.189 88.5689 187.889 89.9684 189.989C92.9674 194.589 97.066 200.989 102.164 208.889C112.461 225.089 126.556 247.289 142.05 271.689C142.35 272.089 142.55 272.489 142.85 272.889L141.95 272.589C168.741 262.489 192.932 253.389 210.626 246.789C219.323 243.589 226.421 240.989 231.419 239.089C233.818 238.289 235.718 237.589 237.117 237.089C238.517 236.889 239.216 236.689 239.216 236.689Z" fill="#E0E0E0"/>
<path d="M49.283 286.989C49.0831 286.589 65.5774 276.389 86.1702 264.189C106.763 251.989 123.557 242.289 123.757 242.689C123.957 243.089 107.463 253.289 86.8699 265.489C66.2771 277.789 49.483 287.389 49.283 286.989Z" fill="#E0E0E0"/>
<path d="M175.339 259.189C175.738 259.089 182.236 277.189 189.933 299.589C197.631 322.089 203.529 340.389 203.129 340.489C202.729 340.589 196.231 322.489 188.534 300.089C180.937 277.589 175.039 259.289 175.339 259.189Z" fill="#E0E0E0"/>
<path d="M470.268 171.002L318 196.819L335.406 299.55L487.674 273.733L470.268 171.002Z" fill="#E0E0E0"/>
<path d="M470.369 171C470.369 171 469.969 171.6 469.169 172.6C468.27 173.7 467.07 175.2 465.571 177C462.272 180.9 457.673 186.4 452.075 193.2C440.479 206.9 424.585 225.6 407.091 246.3L406.691 246.7L406.191 246.4C405.791 246.2 405.392 246 404.992 245.7C381 232.3 359.308 220.2 343.413 211.3C335.616 206.9 329.318 203.3 324.82 200.7C322.72 199.5 321.021 198.5 319.821 197.8C318.722 197.1 318.122 196.7 318.122 196.7C318.122 196.7 318.822 197 319.921 197.6C321.221 198.3 322.92 199.2 325.02 200.3C329.618 202.8 336.016 206.2 343.813 210.5C359.708 219.3 381.5 231.3 405.592 244.5C405.991 244.7 406.391 245 406.791 245.2L405.891 245.4C423.585 224.8 439.58 206.2 451.176 192.6C456.974 186 461.672 180.6 464.971 176.7C466.57 174.9 467.87 173.5 468.769 172.4C469.869 171.5 470.269 171 470.369 171Z" fill="#EBEBEB"/>
<path d="M335.416 299.5C335.116 299.3 344.113 283.3 355.709 263.7C367.205 244.1 376.802 228.4 377.201 228.6C377.501 228.8 368.504 244.8 356.908 264.4C345.412 284 335.816 299.7 335.416 299.5Z" fill="#EBEBEB"/>
<path d="M427.584 218.8C427.883 218.5 441.479 230.6 458.173 245.7C474.767 260.9 488.062 273.4 487.763 273.7C487.463 274 473.867 261.9 457.173 246.8C440.579 231.6 427.284 219.1 427.584 218.8Z" fill="#EBEBEB"/>
<path d="M362.358 2.49535e-05L339 59.4271L427.159 94.1022L450.517 34.6751L362.358 2.49535e-05Z" fill="#EBEBEB"/>
<path d="M450.525 35.496C450.525 35.496 450.184 35.6663 449.418 35.9217C448.567 36.2623 447.461 36.6029 446.099 37.1138C443.12 38.1355 438.949 39.583 433.927 41.2859C423.543 44.7769 409.244 49.6301 393.498 54.9091L393.157 54.9943L392.987 54.6537C392.817 54.3983 392.732 54.1428 392.561 53.8874C384.22 39.2424 376.645 26.0449 371.112 16.3384C368.474 11.5702 366.261 7.65354 364.729 4.92889C364.048 3.65171 363.452 2.62997 363.026 1.77852C362.686 1.09736 362.43 0.671631 362.516 0.671631C362.516 0.671631 362.771 1.01221 363.196 1.69337C363.622 2.45968 364.303 3.48142 365.069 4.7586C366.686 7.48325 368.984 11.3148 371.708 16.0829C377.326 25.7043 384.986 38.9018 393.412 53.5468C393.583 53.8022 393.668 54.0577 393.838 54.3131L393.327 54.1428C409.159 48.949 423.373 44.1808 433.842 40.775C438.949 39.1573 443.12 37.7949 446.099 36.8583C447.461 36.4326 448.567 36.092 449.418 35.8366C450.099 35.5812 450.525 35.496 450.525 35.496Z" fill="#E0E0E0"/>
<path d="M339.024 60.2733C338.939 60.1031 348.727 54.4835 360.984 47.9273C373.24 41.286 383.199 36.0921 383.369 36.3475C383.454 36.5178 373.666 42.0523 361.409 48.6936C349.153 55.2498 339.109 60.4436 339.024 60.2733Z" fill="#E0E0E0"/>
<path d="M412.904 47.0758C413.159 46.9907 416.479 57.6338 420.394 70.9165C424.309 84.114 427.288 94.9274 427.118 95.0126C426.863 95.0977 423.543 84.4546 419.628 71.1719C415.713 57.8893 412.734 47.0758 412.904 47.0758Z" fill="#E0E0E0"/>
<path d="M494 403.5C494 403.667 383.427 404 247 404C110.573 403.833 0 403.667 0 403.5C0 403.333 110.573 403 247 403C383.341 403 494 403.167 494 403.5Z" fill="#263238"/>
<path d="M28.2904 130.489L42.5854 125.389L36.4876 117.189C36.3876 116.689 36.0877 114.789 36.0877 111.689C36.0877 110.789 36.2876 109.789 36.5875 108.889C36.9874 107.789 37.4872 106.389 38.087 105.689C38.7868 104.889 38.087 103.589 37.0874 103.889C36.0877 104.189 34.1884 106.389 33.3887 109.789C32.489 113.189 30.1898 108.189 29.39 106.389C28.4904 104.589 25.5914 99.1888 24.7916 98.9888C23.692 98.7888 23.1922 99.8888 24.0919 101.689C24.9916 103.489 27.3907 108.989 26.3911 109.389C25.3914 109.789 21.0929 100.589 21.0929 100.589C21.0929 100.589 20.4931 98.4888 19.3935 98.8888C17.2943 99.6888 22.6924 109.189 23.1922 109.989C23.5921 110.589 22.4925 111.089 22.1926 110.389C21.7927 109.689 18.094 101.089 15.9947 101.889C14.3953 102.489 20.2932 109.689 20.0933 111.889C19.8934 114.089 16.1947 105.989 14.6952 106.589C14.0954 106.789 13.6955 107.089 16.5945 111.489C17.5942 112.989 19.2936 115.089 21.0929 117.389L28.2904 130.489Z" fill="#FFBE9D"/>
<path d="M156.946 147.989C156.946 147.989 149.848 131.489 145.05 123.489C140.451 115.989 134.354 114.689 131.155 114.489C128.755 113.789 127.056 113.689 127.056 113.689L100.565 113.489C100.565 113.489 92.3682 113.089 84.7708 119.289C83.5712 120.289 74.3744 130.889 62.2787 145.989L40.9861 122.989L28.2905 130.489C28.2905 130.489 42.0857 177.989 59.2797 174.689C69.4762 172.789 77.4734 165.589 77.4734 165.589L90.9687 154.889L91.2685 156.689C91.5684 158.889 92.2682 162.389 92.768 164.589C94.3675 171.389 95.2672 180.289 91.7684 186.189C91.7684 186.189 86.9701 189.889 90.7687 193.889H140.551C140.551 193.889 147.649 189.089 141.151 183.789L137.153 173.689L139.752 161.389L140.751 156.489L145.15 163.989C145.15 163.989 153.847 174.889 162.844 173.589C173.74 171.989 179.938 152.189 170.141 126.089L158.345 129.689L156.946 147.989Z" fill="#E8505B"/>
<g opacity="0.4">
<path opacity="0.4" d="M28.2905 130.489L29.4901 134.489L43.5852 125.889L40.8861 123.089L28.2905 130.489Z" fill="black"/>
</g>
<g opacity="0.2">
<g opacity="0.2">
<path opacity="0.2" d="M91.7683 186.189C96.0668 185.589 99.6655 183.189 102.265 179.689C104.864 176.189 105.963 171.689 105.264 167.489C105.064 165.989 104.464 164.389 103.164 163.589C101.565 162.589 99.4656 163.089 97.7662 162.189C96.4666 161.489 95.7669 159.989 94.7672 158.789C93.8675 157.589 92.568 155.689 91.1685 156.289C91.1685 156.289 92.8679 165.089 93.5676 168.989C94.2674 172.889 94.5673 178.489 93.1678 182.689C92.8679 183.989 92.368 185.189 91.7683 186.189Z" fill="black"/>
</g>
</g>
<path d="M60.1794 154.089C59.9794 154.089 60.2794 152.189 60.8794 149.989C61.4794 147.789 61.9794 145.989 62.1794 145.989C62.3794 145.989 62.0794 147.889 61.4794 150.089C60.7794 152.389 60.2794 154.189 60.1794 154.089Z" fill="#263238"/>
<path d="M63.3787 151.889C63.2787 151.889 62.8787 150.589 62.4787 148.989C62.1787 147.389 61.9787 145.989 62.1787 145.989C62.2787 145.989 62.6786 147.289 63.0786 148.889C63.3786 150.589 63.4787 151.889 63.3787 151.889Z" fill="#263238"/>
<path d="M158.345 93.6888L140.251 123.089L154.546 126.989L170.341 102.689L158.345 93.6888Z" fill="#455A64"/>
<path d="M157.245 118.689L157.845 122.989L160.344 126.189L160.644 128.889L169.741 126.089L166.042 113.089C166.042 113.089 166.642 109.289 166.442 107.789L163.943 111.089L163.243 105.689L158.145 101.589C157.545 101.189 156.845 101.289 156.445 101.889C156.045 102.389 156.145 103.089 156.545 103.489L160.644 107.089L160.944 111.589L157.945 108.789C157.645 108.489 157.245 108.289 156.945 108.289L152.846 107.489C152.247 107.389 151.647 107.789 151.547 108.389C151.447 108.889 151.847 109.389 152.347 109.489L156.145 110.689L159.944 114.489L156.245 113.089L151.247 113.789C150.747 113.889 150.447 114.289 150.447 114.789C150.447 115.389 150.947 115.789 151.447 115.789L154.646 115.589L156.545 116.189L152.247 117.289C151.847 117.389 151.547 117.789 151.547 118.189C151.547 118.689 152.047 119.089 152.447 118.989L157.245 118.689Z" fill="#FFBE9D"/>
<g opacity="0.4">
<path opacity="0.4" d="M158.445 129.589L158.045 134.389L171.84 130.589L170.241 125.989L158.445 129.589Z" fill="black"/>
</g>
<path d="M140.252 123.089C140.252 123.089 139.052 121.389 139.152 121.189C139.252 120.889 156.346 92.6888 156.346 92.6888L158.345 93.7888L140.252 123.089Z" fill="#263238"/>
<path d="M162.844 101.089C163.144 100.789 163.744 100.989 163.844 101.389C163.944 101.789 163.544 102.289 163.144 102.189C162.744 102.089 162.544 101.489 162.844 101.089Z" fill="#263238"/>
<path d="M151.547 137.289C151.547 137.289 151.447 137.589 151.047 137.989C150.647 138.389 149.948 138.889 148.848 139.189C147.748 139.489 146.349 139.489 144.849 139.189C143.35 138.989 141.551 138.489 139.751 138.989C137.852 139.389 136.152 140.589 134.353 141.989C132.554 143.389 130.654 145.089 128.155 145.889C126.856 146.289 125.556 146.389 124.157 146.189C122.757 145.989 121.458 145.589 120.158 145.089C117.559 144.089 115.06 142.589 112.261 141.589C110.861 141.089 109.462 140.789 108.062 140.689C106.663 140.589 105.263 140.789 103.864 141.089C101.165 141.689 98.6655 142.589 96.0664 143.089C90.9682 144.189 86.1699 143.089 82.6711 141.289C79.1723 139.489 76.9731 137.089 75.6735 135.289C74.374 133.489 73.9741 132.389 73.9741 132.389C74.0741 132.389 74.4739 133.489 75.7735 135.189C77.073 136.889 79.2723 139.189 82.7711 140.989C86.1699 142.689 90.8682 143.789 95.8665 142.689C98.3656 142.189 100.865 141.189 103.664 140.589C105.063 140.289 106.463 140.089 107.962 140.189C109.462 140.289 110.861 140.689 112.261 141.189C115.06 142.189 117.559 143.689 120.158 144.689C121.458 145.189 122.757 145.589 124.057 145.789C125.356 145.989 126.656 145.889 127.855 145.489C130.254 144.789 132.154 143.089 133.953 141.789C135.753 140.389 137.552 139.189 139.551 138.789C141.551 138.389 143.35 138.889 144.849 139.089C146.349 139.389 147.648 139.389 148.748 139.189C149.848 138.989 150.547 138.489 150.947 138.189C151.347 137.489 151.547 137.289 151.547 137.289Z" fill="#FAFAFA"/>
<path d="M157.246 156.289C157.146 156.289 156.946 154.289 156.846 151.889C156.746 149.389 156.846 147.489 156.946 147.389C157.046 147.389 157.246 149.389 157.346 151.789C157.446 154.289 157.346 156.289 157.246 156.289Z" fill="#263238"/>
<path d="M126.056 340.189C126.456 341.889 136.652 399.089 136.652 399.089L152.247 397.889L149.348 339.489L126.056 340.189Z" fill="#FFBE9D"/>
<path d="M152.747 398.889V397.289L136.053 397.589L136.153 402.989H137.152C141.751 403.189 160.444 403.489 163.443 402.489C166.942 401.489 152.747 398.889 152.747 398.889Z" fill="#E8505B"/>
<g opacity="0.3">
<g opacity="0.3">
<g opacity="0.3">
<g opacity="0.3">
<path opacity="0.3" d="M142.151 402.789C141.851 401.489 141.051 400.289 139.951 399.589C138.852 398.789 137.452 398.389 136.053 398.589L136.153 402.889L142.151 402.789Z" fill="black"/>
</g>
</g>
</g>
</g>
<g opacity="0.3">
<g opacity="0.3">
<path opacity="0.3" d="M159.645 400.389C159.645 400.389 164.643 401.589 164.043 402.389C163.443 403.189 144.55 403.489 136.153 402.989V402.689L158.245 402.489C158.245 402.389 158.745 400.489 159.645 400.389Z" fill="black"/>
</g>
</g>
<path d="M135.953 402.589C135.953 402.589 136.053 402.589 136.253 402.589C136.452 402.589 136.752 402.589 137.052 402.589C137.852 402.589 138.852 402.589 140.051 402.689C142.55 402.689 146.149 402.689 150.048 402.689C153.946 402.589 157.445 402.489 159.944 402.389C161.144 402.289 162.143 402.289 162.943 402.189C163.243 402.189 163.543 402.189 163.743 402.089C163.943 402.089 164.043 402.089 164.043 402.089C164.043 402.089 163.943 402.089 163.743 402.089C163.543 402.089 163.243 402.089 162.943 402.089C162.143 402.089 161.144 402.189 159.944 402.189C157.445 402.289 153.846 402.389 150.048 402.489C146.149 402.589 142.65 402.589 140.151 402.589C138.952 402.589 137.952 402.589 137.152 402.589C136.852 402.589 136.552 402.589 136.352 402.589C136.053 402.589 135.953 402.589 135.953 402.589Z" fill="#263238"/>
<path d="M158.245 402.689C158.345 402.689 158.345 401.989 158.745 401.389C159.145 400.689 159.745 400.389 159.745 400.289C159.745 400.289 159.045 400.589 158.545 401.289C158.145 401.889 158.245 402.689 158.245 402.689Z" fill="#263238"/>
<path d="M153.346 400.389C153.346 400.389 153.646 400.189 153.846 399.789C154.046 399.389 154.246 399.089 154.146 399.089C154.146 399.089 153.846 399.289 153.646 399.689C153.446 400.089 153.246 400.389 153.346 400.389Z" fill="#263238"/>
<path d="M151.947 399.789C151.947 399.789 152.247 399.689 152.547 399.389C152.847 399.189 153.047 398.889 152.947 398.889C152.947 398.889 152.647 398.989 152.347 399.289C152.147 399.489 151.947 399.789 151.947 399.789Z" fill="#263238"/>
<path d="M151.047 398.389C151.047 398.489 151.447 398.489 151.947 398.489C152.447 398.489 152.847 398.489 152.847 398.389C152.847 398.289 152.447 398.289 151.947 398.289C151.447 398.289 151.047 398.289 151.047 398.389Z" fill="#263238"/>
<path d="M150.747 397.289C150.747 397.289 151.147 397.489 151.747 397.489C152.347 397.489 152.747 397.389 152.747 397.389C152.747 397.289 152.347 397.389 151.747 397.389C151.247 397.389 150.747 397.289 150.747 397.289Z" fill="#263238"/>
<path d="M153.846 399.089C153.846 399.089 154.246 399.189 154.946 399.089C155.246 399.089 155.646 398.989 156.045 398.789C156.245 398.689 156.445 398.689 156.645 398.489C156.745 398.389 156.845 398.289 156.945 398.189C156.945 398.089 156.945 397.889 156.745 397.789C155.746 397.289 154.746 397.889 154.346 398.389C154.146 398.689 154.046 398.889 154.046 399.089C154.046 399.289 154.046 399.389 154.046 399.389C154.046 399.389 154.146 398.989 154.546 398.489C154.746 398.289 155.046 398.089 155.446 397.889C155.845 397.789 156.345 397.789 156.745 397.989C156.945 398.089 156.845 398.289 156.645 398.389C156.445 398.489 156.245 398.589 156.045 398.589C155.646 398.689 155.246 398.789 154.946 398.889C154.246 398.989 153.846 399.089 153.846 399.089Z" fill="#263238"/>
<path d="M154.147 399.089C154.147 399.089 154.347 398.889 154.247 398.389C154.247 398.189 154.147 397.889 153.947 397.689C153.747 397.489 153.547 397.189 153.047 397.189C152.847 397.189 152.647 397.489 152.747 397.689C152.747 397.889 152.847 397.989 152.947 398.089C153.147 398.289 153.247 398.489 153.447 398.689C153.747 398.989 154.047 399.089 154.147 399.089C154.047 399.089 153.847 398.889 153.547 398.589C153.447 398.389 153.247 398.189 153.047 397.989C152.847 397.789 152.747 397.389 153.047 397.389C153.347 397.389 153.547 397.589 153.747 397.789C153.947 397.989 154.047 398.189 154.047 398.389C154.147 398.889 154.047 399.089 154.147 399.089Z" fill="#263238"/>
<path d="M136.153 398.389C136.153 398.389 136.653 398.289 137.352 398.389C138.052 398.489 139.152 398.689 140.051 399.389C140.951 399.989 141.551 400.889 141.751 401.589C142.051 402.289 142.051 402.689 142.051 402.689C142.051 402.689 142.051 402.589 142.051 402.389C142.051 402.189 141.951 401.889 141.851 401.589C141.651 400.889 141.051 399.989 140.151 399.289C139.152 398.589 138.152 398.389 137.352 398.289C136.953 398.289 136.653 398.289 136.453 398.289C136.253 398.389 136.153 398.389 136.153 398.389Z" fill="#263238"/>
<path d="M144.25 401.189C144.25 401.189 145.349 401.389 146.649 401.389C147.948 401.389 149.048 401.189 149.048 401.189C149.048 401.089 147.948 401.189 146.649 401.189C145.349 401.189 144.25 401.189 144.25 401.189Z" fill="#263238"/>
<path d="M140.951 401.289C140.951 401.289 141.051 401.489 141.151 401.689C141.251 401.889 141.351 402.089 141.351 402.089C141.451 402.089 141.451 401.889 141.251 401.589C141.251 401.389 141.051 401.189 140.951 401.289Z" fill="#263238"/>
<path d="M139.751 399.889C139.751 399.889 139.851 400.089 139.951 400.289C140.151 400.489 140.251 400.589 140.351 400.489C140.351 400.489 140.251 400.289 140.151 400.089C139.951 399.889 139.751 399.789 139.751 399.889Z" fill="#263238"/>
<path d="M137.953 399.289C137.953 399.389 138.153 399.289 138.453 399.389C138.653 399.489 138.853 399.589 138.953 399.589C138.953 399.589 138.853 399.389 138.553 399.289C138.153 399.089 137.953 399.189 137.953 399.289Z" fill="#263238"/>
<path d="M136.752 398.989C136.752 398.989 136.852 399.089 136.952 399.189C137.052 399.189 137.252 399.189 137.252 399.189C137.252 399.189 137.152 399.089 137.052 398.989C136.852 398.889 136.752 398.889 136.752 398.989Z" fill="#263238"/>
<path d="M86.2706 335.389C86.1706 337.189 79.6729 392.889 79.6729 392.889L94.9675 396.289L109.063 339.589L86.2706 335.389Z" fill="#FFBE9D"/>
<path d="M95.6667 397.789L95.9666 396.189L79.6722 392.589L78.4727 397.889L79.4723 398.189C83.8708 399.389 101.964 404.189 105.163 403.989C108.762 403.789 95.6667 397.789 95.6667 397.789Z" fill="#E8505B"/>
<g opacity="0.3">
<g opacity="0.3">
<g opacity="0.3">
<g opacity="0.3">
<path opacity="0.3" d="M84.4708 398.989C84.4708 397.689 84.071 396.389 83.0713 395.289C82.1716 394.289 80.8721 393.589 79.5725 393.389L78.6729 397.589L84.4708 398.989Z" fill="black"/>
</g>
</g>
</g>
</g>
<g opacity="0.3">
<g opacity="0.3">
<path opacity="0.3" d="M102.065 400.889C102.065 400.889 106.563 403.289 105.863 403.889C105.064 404.489 86.6701 400.289 78.6729 397.789L78.7728 397.489L100.265 402.489C100.165 402.489 101.065 400.789 102.065 400.889Z" fill="black"/>
</g>
</g>
<path d="M78.4727 397.389C78.4727 397.389 78.5726 397.389 78.7726 397.489C78.9725 397.589 79.2724 397.589 79.5723 397.689C80.372 397.889 81.3716 398.189 82.4713 398.489C84.9704 399.089 88.3692 399.989 92.1679 400.889C95.9665 401.789 99.3654 402.489 101.864 402.889C103.064 403.089 104.064 403.289 104.863 403.489C105.163 403.589 105.463 403.589 105.663 403.589C105.863 403.589 105.963 403.589 105.963 403.589C105.963 403.589 105.863 403.589 105.663 403.489C105.463 403.389 105.163 403.389 104.863 403.289C104.064 403.089 103.064 402.889 101.864 402.689C99.3654 402.189 95.9665 401.489 92.1679 400.589C88.3692 399.689 84.9704 398.889 82.4713 398.289C81.2717 397.989 80.372 397.789 79.5723 397.589C79.2724 397.489 78.9725 397.489 78.7726 397.389C78.5726 397.489 78.4727 397.389 78.4727 397.389Z" fill="#263238"/>
<path d="M100.165 402.789C100.265 402.789 100.365 402.189 100.965 401.589C101.565 400.989 102.265 400.789 102.165 400.789C102.165 400.789 101.365 400.889 100.765 401.489C100.165 402.089 100.065 402.789 100.165 402.789Z" fill="#263238"/>
<path d="M95.8662 399.389C95.8662 399.389 96.1662 399.189 96.4662 398.889C96.7662 398.589 96.9662 398.289 96.9662 398.289C96.9662 398.289 96.6662 398.489 96.3662 398.789C96.0662 399.089 95.8662 399.389 95.8662 399.389Z" fill="#263238"/>
<path d="M94.667 398.489C94.667 398.489 94.967 398.389 95.267 398.289C95.567 398.089 95.867 397.989 95.767 397.889C95.767 397.889 95.467 397.989 95.167 398.089C94.967 398.289 94.667 398.489 94.667 398.489Z" fill="#263238"/>
<path d="M94.1675 396.889C94.1675 396.989 94.5675 397.089 94.9675 397.189C95.4675 397.289 95.8675 397.389 95.8675 397.289C95.8675 397.189 95.4675 397.089 95.0675 396.989C94.5675 396.889 94.1675 396.789 94.1675 396.889Z" fill="#263238"/>
<path d="M94.1675 395.789C94.1675 395.789 94.4675 396.089 95.0675 396.289C95.5675 396.489 96.0675 396.389 96.0675 396.389C96.0675 396.289 95.6675 396.289 95.1675 396.089C94.5675 395.989 94.1675 395.789 94.1675 395.789Z" fill="#263238"/>
<path d="M96.6665 398.289C96.6665 398.289 97.0664 398.489 97.6662 398.489C97.9661 398.489 98.3659 398.589 98.8657 398.489C99.0657 398.489 99.2656 398.489 99.5655 398.389C99.6655 398.389 99.8654 398.289 99.8654 398.189C99.9654 398.089 99.8654 397.889 99.7654 397.789C98.8657 397.089 97.7661 397.389 97.2663 397.789C96.9664 397.989 96.8664 398.189 96.7665 398.389C96.6665 398.589 96.6665 398.689 96.6665 398.689C96.6665 398.689 96.8664 398.289 97.3663 397.989C97.5662 397.789 97.9661 397.689 98.3659 397.689C98.7658 397.689 99.2656 397.789 99.5655 398.089C99.6655 398.289 99.5655 398.389 99.3656 398.489C99.1656 398.589 98.9657 398.589 98.7658 398.589C98.3659 398.589 97.9661 398.589 97.6662 398.589C97.1663 398.289 96.7665 398.189 96.6665 398.289Z" fill="#263238"/>
<path d="M96.9663 398.389C96.9663 398.389 97.1663 398.189 97.2663 397.789C97.2663 397.589 97.2663 397.289 97.1663 396.989C97.0663 396.689 96.8663 396.389 96.3663 396.289C96.1663 396.289 95.9663 396.489 95.9663 396.689C95.9663 396.889 95.9663 396.989 96.0663 397.189C96.1663 397.489 96.2663 397.689 96.4663 397.889C96.6663 398.189 96.8663 398.289 96.9663 398.389C96.8663 398.289 96.6663 398.089 96.4663 397.789C96.3663 397.589 96.2663 397.389 96.1663 397.089C96.0663 396.889 96.0663 396.489 96.3663 396.489C96.6663 396.489 96.8663 396.789 96.9663 397.089C97.0663 397.289 97.1663 397.589 97.1663 397.789C97.0663 398.089 96.9663 398.289 96.9663 398.389Z" fill="#263238"/>
<path d="M79.6729 393.389C79.6729 393.389 80.1727 393.489 80.8724 393.689C81.5722 393.889 82.5718 394.389 83.2716 395.289C83.9714 396.089 84.3712 397.089 84.4712 397.789C84.5711 398.489 84.4712 398.889 84.5711 398.889C84.5711 398.889 84.5711 398.789 84.6711 398.589C84.6711 398.389 84.6711 398.089 84.6711 397.689C84.5711 396.989 84.2712 395.989 83.5715 395.089C82.7718 394.189 81.7721 393.689 81.0724 393.489C80.6725 393.389 80.3726 393.289 80.1727 393.289C79.7728 393.389 79.6729 393.389 79.6729 393.389Z" fill="#263238"/>
<path d="M86.8696 397.989C86.8696 397.989 87.8693 398.389 89.1688 398.789C90.4684 399.089 91.568 399.189 91.568 399.189C91.568 399.089 90.4684 398.989 89.1688 398.689C87.8693 398.289 86.8696 397.989 86.8696 397.989Z" fill="#263238"/>
<path d="M83.6709 397.289C83.6709 397.289 83.6709 397.489 83.7709 397.789C83.8709 397.989 83.8709 398.289 83.8709 398.289C83.9709 398.289 83.9709 398.089 83.9709 397.789C83.8709 397.489 83.7709 397.289 83.6709 397.289Z" fill="#263238"/>
<path d="M82.771 395.689C82.771 395.689 82.771 395.889 82.971 396.089C83.071 396.289 83.271 396.389 83.271 396.389C83.271 396.389 83.271 396.189 83.071 395.989C82.971 395.789 82.871 395.589 82.771 395.689Z" fill="#263238"/>
<path d="M81.2715 394.589C81.2715 394.689 81.4715 394.689 81.6715 394.789C81.8715 394.889 82.0715 395.089 82.0715 395.089C82.0715 395.089 82.0715 394.789 81.7715 394.689C81.4715 394.589 81.2715 394.589 81.2715 394.589Z" fill="#263238"/>
<path d="M80.0728 394.089C80.0728 394.089 80.0728 394.189 80.2728 394.289C80.3728 394.389 80.4728 394.389 80.5728 394.389C80.5728 394.389 80.5728 394.289 80.3728 394.189C80.2728 394.089 80.0728 393.989 80.0728 394.089Z" fill="#263238"/>
<path d="M143.65 87.3888C143.25 86.1888 142.25 85.2888 141.75 84.1888C141.051 82.4888 141.551 80.4888 141.75 78.5888C141.95 76.6888 141.551 74.4888 139.851 73.6888C139.151 73.3888 138.352 73.3888 137.652 72.9888C136.352 72.1888 136.352 70.2888 136.252 68.6888C136.152 67.6888 135.952 66.5888 135.453 65.6888C135.553 65.6888 135.653 65.5888 135.753 65.5888C137.952 64.9888 140.251 66.2888 140.851 68.0888C141.151 68.9888 141.151 69.9888 140.651 70.5888C140.151 71.2888 139.251 71.4888 138.751 71.1888C138.152 70.8888 137.852 70.1888 138.052 69.6888C138.152 69.1888 138.751 68.9888 139.151 69.0888C139.551 69.0888 139.851 69.3888 139.951 69.4888C140.051 69.6888 140.051 69.7888 140.151 69.7888C140.151 69.7888 140.151 69.6888 140.151 69.3888C140.051 69.1888 139.751 68.8888 139.351 68.7888C139.151 68.7888 138.851 68.7888 138.552 68.8888C138.252 68.9888 137.952 69.1888 137.852 69.5888C137.652 70.2888 137.952 71.1888 138.652 71.5888C139.451 71.9888 140.551 71.6888 141.151 70.8888C141.85 70.0888 141.85 68.8888 141.451 67.8888C140.751 65.9888 138.552 64.5888 136.152 64.8888C136.652 64.0888 136.752 63.0888 136.452 62.1888C136.052 60.9888 135.153 60.2888 134.153 59.8888C133.153 59.4888 132.154 59.4888 131.254 59.6888C130.354 59.8888 129.555 60.2888 128.955 60.6888C128.355 61.0888 127.855 61.5888 127.355 61.8888C126.856 62.1888 126.456 62.3888 126.056 62.3888C125.256 62.4888 124.856 62.0888 124.856 62.0888C124.856 62.0888 125.156 62.5888 126.056 62.5888C126.456 62.5888 127.056 62.3888 127.555 62.0888C128.055 61.7888 128.655 61.2888 129.255 60.9888C130.454 60.2888 132.254 59.5888 134.053 60.2888C134.953 60.5888 135.753 61.2888 135.952 62.2888C136.252 63.1888 136.052 64.2888 135.253 64.9888C134.753 64.0888 134.053 63.2888 133.053 62.7888C131.054 61.6888 128.055 62.1888 127.056 64.2888L110.661 58.6888C108.662 56.8888 105.663 56.3888 103.164 57.1888C103.064 57.1888 102.964 57.1888 102.864 57.0888C102.064 56.9888 101.065 57.0888 100.065 57.5888C99.0653 58.0888 98.1657 58.9888 97.266 59.9888C96.7661 60.4888 96.2663 60.9888 95.6665 61.2888C95.5666 61.3888 95.4666 61.3888 95.3666 61.3888C94.6669 61.4888 93.8672 61.4888 93.1674 61.4888C91.7679 61.1888 90.3684 60.3888 88.669 60.1888C87.7693 60.0888 86.7696 60.0888 85.8699 60.3888C84.9703 60.6888 84.0706 61.1888 83.3708 61.9888C82.6711 62.7888 82.2712 63.7888 82.2712 64.8888C82.2712 65.6888 82.4711 66.3888 82.6711 67.1888C82.2712 68.1888 82.1712 69.1888 82.1712 70.2888C82.2712 71.6888 82.6711 73.0888 82.6711 74.4888C82.2712 74.7888 81.8713 74.9888 81.3715 75.1888C80.4718 75.4888 79.5721 75.5888 78.6725 75.8888C76.8731 76.5888 75.6735 78.0888 75.1737 79.6888C74.6739 81.0888 74.7738 82.7888 75.5735 83.7888C75.1737 85.5888 75.5735 87.5888 76.7731 89.0888C77.5728 90.0888 78.6725 90.7888 79.3722 91.8888C80.4718 93.5888 80.2719 95.6888 80.5718 97.6888C80.8717 99.6888 81.9713 101.889 83.9706 101.989C85.5701 102.089 86.9696 100.789 88.569 100.889C90.7682 101.089 91.7679 103.789 93.0674 105.589C94.6669 107.889 97.6658 109.189 100.465 108.789C102.464 108.489 104.563 107.389 106.563 107.989C109.062 108.589 110.561 111.589 113.16 111.889C115.06 112.189 116.859 110.889 118.259 109.589C119.658 108.289 121.158 106.789 123.057 106.489C125.356 106.089 127.555 107.489 129.855 107.789C132.854 108.189 135.952 106.589 137.452 103.989C138.751 101.689 138.751 98.8888 139.851 96.5888C140.651 94.9888 141.95 93.7888 142.85 92.2888C143.55 90.8888 144.25 89.0888 143.65 87.3888ZM77.8727 79.9888C77.4729 79.8888 77.2729 79.9888 77.2729 79.9888C77.2729 79.9888 77.4729 79.9888 77.6728 80.0888C77.5728 80.1888 77.4729 80.1888 77.3729 80.2888C76.4732 81.0888 75.7735 82.0888 75.4736 83.2888C74.9737 82.3888 74.9738 81.0888 75.3736 79.8888C75.8734 78.4888 77.073 77.0888 78.6725 76.4888C79.4722 76.1888 80.3719 76.0888 81.2716 75.7888C81.6714 75.6888 82.0713 75.4888 82.3712 75.2888C82.2712 75.7888 82.1712 76.3888 81.8713 76.7888C81.1716 78.3888 79.3722 78.9888 77.8727 79.9888ZM89.0688 61.5888C86.3698 61.9888 84.0706 63.8888 82.871 66.2888C82.771 65.7888 82.6711 65.3888 82.6711 64.8888C82.6711 63.8888 82.971 62.9888 83.5707 62.3888C84.7703 60.9888 86.7696 60.4888 88.469 60.7888C89.3687 60.8888 90.2684 61.1888 91.1681 61.4888C90.5683 61.4888 89.7686 61.4888 89.0688 61.5888ZM97.3659 60.8888C97.166 60.9888 96.9661 61.0888 96.7661 61.0888C97.066 60.7888 97.3659 60.4888 97.5659 60.2888C98.4655 59.2888 99.2653 58.2888 100.165 57.8888C101.065 57.4888 101.864 57.3888 102.564 57.3888C102.164 57.5888 101.764 57.7888 101.365 57.9888C99.965 58.8888 98.8654 60.1888 97.3659 60.8888Z" fill="#263238"/>
<path d="M132.853 95.2888C133.653 90.3888 133.353 82.2888 132.953 75.6888C132.554 69.7888 127.355 65.2888 121.457 65.8888L104.263 67.6888C102.464 67.8888 101.065 69.3888 101.165 71.1888L102.964 113.389C100.565 113.389 98.9653 113.389 98.9653 113.389V120.989C98.9653 129.689 106.063 136.789 114.76 136.789C123.457 136.789 130.554 129.689 130.554 120.989V114.389C130.554 114.389 126.456 113.089 123.957 113.189C123.857 113.189 123.557 113.189 123.357 113.189C123.357 109.289 123.657 106.289 123.657 106.289C123.657 106.289 131.354 105.189 132.853 95.2888Z" fill="#FFBE9D"/>
<path d="M130.456 82.0887C130.456 82.7887 129.956 83.2887 129.256 83.3887C128.556 83.3887 127.956 82.8887 127.956 82.2887C127.956 81.5887 128.456 81.0887 129.156 80.9887C129.856 80.8887 130.456 81.3887 130.456 82.0887Z" fill="#263238"/>
<path d="M131.254 79.8887C131.054 80.0887 130.155 79.3887 128.755 79.3887C127.356 79.3887 126.356 80.0887 126.256 79.8887C126.156 79.7887 126.356 79.4887 126.756 79.1887C127.156 78.8887 127.955 78.5887 128.755 78.5887C129.655 78.5887 130.355 78.8887 130.754 79.1887C131.154 79.4887 131.354 79.7887 131.254 79.8887Z" fill="#263238"/>
<path d="M117.061 82.0888C117.061 82.7888 116.561 83.2888 115.861 83.3888C115.161 83.3888 114.561 82.8888 114.561 82.2888C114.561 81.5888 115.061 81.0888 115.761 80.9888C116.461 80.8888 117.061 81.3888 117.061 82.0888Z" fill="#263238"/>
<path d="M117.859 80.0888C117.659 80.2888 116.759 79.5888 115.36 79.5888C113.96 79.5888 112.96 80.2888 112.86 80.0888C112.76 79.9888 112.96 79.6888 113.36 79.3888C113.76 79.0888 114.56 78.7888 115.36 78.7888C116.259 78.7888 116.959 79.0888 117.359 79.3888C117.759 79.7888 117.859 80.0888 117.859 80.0888Z" fill="#263238"/>
<path d="M122.757 90.2888C122.757 90.1888 123.557 90.0888 124.956 89.8888C125.256 89.8888 125.656 89.7888 125.656 89.5888C125.756 89.2888 125.556 88.9888 125.456 88.5888C125.156 87.7888 124.756 86.8888 124.457 85.8888C123.057 82.0888 121.957 78.9888 122.157 78.8888C122.357 78.7888 123.557 81.8888 125.056 85.6888C125.356 86.5888 125.756 87.4888 126.056 88.3888C126.156 88.7888 126.456 89.1888 126.256 89.7888C126.156 90.0888 125.856 90.2888 125.656 90.2888C125.456 90.3888 125.256 90.3888 125.056 90.3888C123.657 90.3888 122.757 90.3888 122.757 90.2888Z" fill="#263238"/>
<path d="M123.757 106.489C123.757 106.489 117.059 106.889 110.461 102.989C110.461 102.989 113.66 109.789 123.557 108.889L123.757 106.489Z" fill="#EB996E"/>
<path d="M122.157 93.5888C121.657 92.8888 120.758 92.5888 119.958 92.6888C119.358 92.7888 118.759 92.9888 118.359 93.4888C117.959 93.9888 117.959 94.6888 118.259 95.0888C118.659 95.5888 119.358 95.6888 120.058 95.5888C120.758 95.3888 121.258 94.9888 121.757 94.5888C121.857 94.4888 122.057 94.3888 122.157 94.1888C122.357 93.9888 122.357 93.7888 122.157 93.5888Z" fill="#EB996E"/>
<path d="M118.758 91.1888C118.958 91.1888 118.958 92.6888 120.258 93.6888C121.557 94.7888 123.157 94.5888 123.157 94.7888C123.157 94.8888 122.757 95.0888 122.157 95.0888C121.457 95.0888 120.558 94.8888 119.758 94.2888C118.958 93.6888 118.658 92.7888 118.558 92.1888C118.459 91.5888 118.658 91.1888 118.758 91.1888Z" fill="#263238"/>
<path d="M118.459 77.6887C118.359 78.0887 116.959 77.8887 115.36 78.0887C113.76 78.2887 112.461 78.6887 112.261 78.3887C112.161 78.1887 112.361 77.8887 112.961 77.4887C113.46 77.0887 114.26 76.7887 115.26 76.6887C116.259 76.5887 117.059 76.6887 117.659 76.9887C118.159 77.2887 118.459 77.5887 118.459 77.6887Z" fill="#263238"/>
<path d="M130.754 77.0888C130.554 77.3888 129.555 77.0888 128.455 77.0888C127.355 76.9888 126.356 77.2888 126.156 76.9888C126.056 76.7888 126.256 76.4888 126.656 76.1888C127.056 75.8888 127.755 75.6888 128.555 75.6888C129.355 75.6888 130.054 75.9888 130.354 76.2888C130.754 76.5888 130.854 76.8888 130.754 77.0888Z" fill="#263238"/>
<path d="M136.652 66.7888C135.953 64.1888 133.953 61.6888 131.254 61.1888C129.555 60.8888 127.756 61.3888 125.956 61.2888C124.457 61.1888 123.957 59.9888 122.557 59.5888C120.258 58.7888 118.459 56.2888 113.461 56.7888C112.161 56.8888 110.362 58.4888 109.162 60.2888C107.263 59.4888 104.764 60.3888 103.364 60.9888C100.465 62.2888 98.6657 65.4888 98.1658 68.7888C97.5661 72.0888 98.0659 75.4888 98.5657 78.6888C98.7656 80.1888 98.9656 81.6888 99.1655 83.1888C99.2655 84.1888 99.4654 85.1888 99.9652 86.0888L97.666 107.289C102.164 108.989 107.862 105.889 108.862 101.089C109.762 96.8888 107.463 92.6888 107.762 88.3888C107.962 85.8888 109.362 83.4888 109.362 80.9888C109.362 80.1888 109.262 79.3888 108.962 78.4888C112.961 75.1888 114.06 72.5888 113.86 69.4888C115.06 70.2888 116.559 70.8888 118.059 70.8888C120.158 70.8888 122.357 70.0888 124.357 70.8888C125.756 71.3888 126.756 72.6888 127.855 73.7888C128.955 74.8888 130.355 75.8888 131.854 75.6888C132.554 75.5888 133.254 75.1888 133.953 74.9888C134.653 74.6888 135.453 74.5888 136.053 74.9888C136.952 72.2888 137.352 69.4888 136.652 66.7888Z" fill="#263238"/>
<path d="M77.4736 88.4888C77.4736 88.3888 78.4733 89.3888 80.7725 90.3888C81.8721 90.8888 83.3716 91.2888 85.071 91.2888C86.7704 91.2888 88.7697 90.8888 90.5691 89.6888C92.2685 88.4888 93.8679 86.3888 94.0678 83.8888C94.1678 82.6888 93.9679 81.2888 93.3681 80.1888C92.7683 79.0888 91.4687 78.1888 90.1692 78.1888C89.4694 78.1888 88.8697 78.3888 88.2699 78.7888C87.77 79.1888 87.3702 79.7888 87.0703 80.4888C86.6704 81.8888 86.8704 83.4888 87.87 84.5888C88.7697 85.7888 90.2692 86.4888 91.7686 86.8888C93.2681 87.2888 94.9675 87.2888 96.567 86.9888C98.1664 86.6888 99.6659 85.9888 100.965 84.9888C102.265 83.9888 103.165 82.6888 103.664 81.2888C104.164 79.8888 104.264 78.2888 104.064 76.8888C103.964 76.1888 103.664 75.4888 103.365 74.8888C102.965 74.2888 102.565 73.6888 102.065 73.2888C101.565 72.8888 100.865 72.5888 100.266 72.5888C99.6659 72.5888 99.0661 72.8888 98.7662 73.4888C98.4663 73.9888 98.3663 74.6888 98.5663 75.2888C98.7662 75.8888 99.0661 76.3888 99.5659 76.7888C101.465 78.4888 103.964 78.9888 106.064 78.7888C108.263 78.5888 110.062 77.5888 111.162 76.3888C112.361 75.1888 112.961 73.7888 113.361 72.5888C113.961 70.1888 113.561 68.7888 113.661 68.8888C113.661 68.8888 113.761 69.1888 113.861 69.8888C113.961 70.4888 113.861 71.4888 113.561 72.6888C113.261 73.8888 112.561 75.2888 111.362 76.5888C110.162 77.8888 108.263 78.9888 106.064 79.1888C103.864 79.4888 101.265 78.9888 99.266 77.0888C98.7662 76.5888 98.3663 76.0888 98.1664 75.3888C97.9665 74.6888 98.0664 73.8888 98.3663 73.1888C98.7662 72.4888 99.5659 72.0888 100.266 72.0888C101.065 72.0888 101.765 72.3888 102.365 72.8888C102.965 73.2888 103.465 73.9888 103.864 74.5888C104.264 75.2888 104.464 75.9888 104.664 76.7888C104.964 78.2888 104.864 79.9888 104.264 81.4888C103.764 82.9888 102.665 84.3888 101.365 85.4888C100.066 86.4888 98.4663 87.1888 96.7669 87.5888C95.0675 87.8888 93.3681 87.8888 91.7686 87.4888C90.1692 87.0888 88.5698 86.2888 87.5701 84.9888C87.0703 84.3888 86.6704 83.5888 86.5705 82.7888C86.4705 81.9888 86.4705 81.1888 86.7704 80.3888C87.0703 79.5888 87.4701 78.8888 88.0699 78.3888C88.6697 77.8888 89.4694 77.5888 90.2692 77.6888C91.8686 77.6888 93.1682 78.6888 93.8679 79.9888C94.5677 81.2888 94.7676 82.6888 94.6676 83.9888C94.3677 86.6888 92.6683 88.7888 90.869 90.0888C89.0696 91.3888 86.9703 91.7888 85.1709 91.6888C83.3716 91.5888 81.8721 91.1888 80.7725 90.6888C79.6729 90.1888 78.8731 89.6888 78.2734 89.2888C77.9735 89.0888 77.8735 88.8888 77.6736 88.7888C77.5736 88.5888 77.4736 88.5888 77.4736 88.4888Z" fill="#455A64"/>
<path d="M137.252 71.2888C137.252 71.2888 137.152 71.3888 136.752 71.5888C136.452 71.7888 135.853 71.9888 135.153 72.1888C134.453 72.2888 133.553 72.3888 132.454 72.1888C131.454 71.9888 130.355 71.3888 129.355 70.5888C128.355 69.6888 127.456 68.5888 126.856 67.0888C126.556 66.3888 126.356 65.4888 126.756 64.5888C126.956 64.1888 127.256 63.7888 127.655 63.5888C128.055 63.3888 128.655 63.3888 129.055 63.5888C129.955 64.0888 130.355 65.1888 130.055 66.0888C129.755 67.0888 128.955 67.7888 128.055 68.1888C126.256 69.0888 124.157 68.9888 122.257 68.2888C121.358 67.9888 120.458 67.4888 119.558 66.9888C118.759 66.4888 117.959 65.9888 117.259 65.1888C116.659 64.4888 116.359 63.1888 117.059 62.3888C117.359 61.9888 117.959 61.7888 118.459 61.8888C118.959 61.9888 119.358 62.2888 119.658 62.6888C119.958 63.0888 120.158 63.5888 120.058 64.0888C119.958 64.5888 119.758 64.9888 119.458 65.2888C118.859 65.9888 118.059 66.2888 117.259 66.3888C116.459 66.4888 115.66 66.2888 115.06 66.0888C114.36 65.8888 113.76 65.5888 113.161 65.3888C111.961 64.8888 110.961 64.0888 110.362 63.2888C109.762 62.3888 109.562 61.4888 109.662 60.6888C109.762 59.9888 109.962 59.3888 110.262 59.0888C110.561 58.7888 110.661 58.6888 110.661 58.6888C110.761 58.6888 109.962 59.1888 109.862 60.6888C109.862 61.3888 110.062 62.2888 110.661 63.0888C111.261 63.8888 112.161 64.5888 113.36 65.0888C114.56 65.5888 115.86 66.1888 117.259 65.9888C117.959 65.8888 118.659 65.5888 119.158 64.9888C119.658 64.3888 119.758 63.5888 119.258 62.9888C118.859 62.3888 117.859 62.0888 117.359 62.7888C117.159 63.0888 117.059 63.4888 117.059 63.8888C117.059 64.2888 117.259 64.6888 117.559 64.9888C118.059 65.6888 118.959 66.1888 119.658 66.6888C120.458 67.1888 121.358 67.5888 122.257 67.8888C124.057 68.4888 126.056 68.5888 127.655 67.8888C128.455 67.4888 129.155 66.8888 129.355 66.0888C129.655 65.3888 129.255 64.4888 128.555 64.0888C127.955 63.6888 127.156 64.1888 126.856 64.7888C126.556 65.3888 126.656 66.1888 126.956 66.8888C127.456 68.2888 128.355 69.3888 129.255 70.2888C130.155 71.0888 131.254 71.6888 132.154 71.8888C133.154 72.0888 134.053 72.0888 134.753 71.9888C136.552 71.7888 137.252 71.2888 137.252 71.2888Z" fill="#455A64"/>
<path d="M108.362 94.5887C108.362 94.5887 108.262 94.6887 107.962 94.8887C107.662 95.0887 107.163 95.2887 106.463 95.4887C105.763 95.5887 104.963 95.6887 103.964 95.2887C103.064 94.9887 101.964 94.3887 101.465 93.0887C101.265 92.4887 101.265 91.6887 101.864 91.0887C102.464 90.5887 103.364 90.5887 104.064 91.0887C105.363 91.9887 105.863 93.6887 105.563 95.3887C105.363 96.9887 104.364 98.6887 102.664 99.4887C100.965 100.289 98.9655 100.089 97.2661 99.0887C96.4664 98.5887 95.7666 97.9887 95.1668 97.1887C94.667 96.3887 94.467 95.3887 94.667 94.4887C94.7669 93.9887 94.9669 93.5887 95.3667 93.2887C95.6666 92.9887 96.1665 92.7887 96.6663 92.7887C97.6659 92.7887 98.3657 93.4887 98.7655 94.1887C99.1654 94.9887 99.3653 95.7887 99.3653 96.4887C99.3653 97.2887 99.3653 97.9887 99.1654 98.6887C98.7655 100.089 98.0658 101.289 97.1661 102.189C96.2664 103.089 95.1668 103.489 94.1671 103.489C93.1675 103.589 92.3678 103.389 91.668 103.089C91.0682 102.789 90.6684 102.489 90.3685 102.189C90.1685 101.889 89.9686 101.789 90.0686 101.789C90.0686 101.689 90.5684 102.389 91.768 102.889C92.3678 103.089 93.1675 103.289 94.0672 103.189C94.9669 103.089 95.9665 102.689 96.8662 101.889C97.6659 101.089 98.3657 99.8887 98.6656 98.5887C98.8655 97.8887 98.8655 97.1887 98.8655 96.4887C98.8655 95.7887 98.6656 94.9887 98.3657 94.3887C98.0658 93.7887 97.366 93.2887 96.6663 93.1887C95.9665 93.1887 95.3667 93.7887 95.1668 94.5887C94.9669 95.3887 95.1668 96.1887 95.5667 96.8887C95.9665 97.5887 96.6663 98.1887 97.466 98.5887C98.9655 99.4887 100.865 99.6887 102.364 98.9887C103.864 98.2887 104.763 96.7887 104.963 95.2887C105.163 93.7887 104.763 92.2887 103.664 91.4887C103.164 91.0887 102.464 91.0887 102.064 91.4887C101.665 91.7887 101.565 92.4887 101.765 92.9887C102.164 94.0887 103.164 94.6887 103.964 94.9887C104.863 95.2887 105.663 95.2887 106.263 95.1887C107.762 95.0887 108.362 94.4887 108.362 94.5887Z" fill="#455A64"/>
<path d="M67.0767 337.689C67.0767 337.689 73.7743 350.689 91.1682 344.389C91.1682 344.389 108.262 353.689 124.557 343.289C124.557 343.289 145.749 346.089 157.245 340.589L142.45 212.989L140.551 193.389H93.9673C93.9673 193.389 80.0721 199.689 77.8729 230.489C75.6737 261.289 70.7754 303.589 70.7754 303.589L67.0767 337.689Z" fill="#263238"/>
<path d="M123.657 343.589C123.657 343.589 123.657 343.489 123.557 343.189C123.557 342.889 123.457 342.489 123.457 342.089C123.357 341.089 123.257 339.589 123.157 337.689C122.857 333.889 122.457 328.389 122.057 321.689C121.258 308.189 120.358 289.389 119.958 268.689C119.558 247.989 119.558 229.189 119.758 215.689C119.858 208.889 119.958 203.389 120.158 199.589C120.258 197.689 120.258 196.289 120.258 195.189C120.258 194.689 120.258 194.289 120.358 194.089C120.358 193.789 120.358 193.689 120.358 193.689C120.358 193.689 120.358 193.789 120.358 194.089C120.358 194.389 120.358 194.789 120.358 195.189C120.358 196.189 120.358 197.689 120.258 199.589C120.258 203.389 120.158 208.889 120.058 215.689C119.958 229.289 119.958 247.989 120.358 268.689C120.858 289.389 121.658 308.089 122.357 321.689C122.757 328.489 123.057 333.889 123.257 337.689C123.357 339.589 123.457 340.989 123.457 342.089C123.457 342.589 123.457 342.989 123.457 343.189C123.657 343.489 123.657 343.589 123.657 343.589Z" fill="#455A64"/>
<path d="M127.755 307.089C127.755 307.089 127.855 306.989 128.155 306.889C128.455 306.789 128.855 306.789 129.255 306.989C129.655 307.189 130.155 307.589 130.355 308.289C130.554 308.989 130.055 309.789 129.355 310.189C128.655 310.589 127.755 310.589 127.256 310.089C126.756 309.589 126.556 308.989 126.656 308.489C126.656 307.989 126.956 307.589 127.156 307.489C127.356 307.289 127.456 307.289 127.556 307.289C127.656 307.389 127.056 307.689 127.056 308.589C127.056 308.989 127.256 309.489 127.656 309.789C128.055 310.089 128.655 310.089 129.155 309.789C129.655 309.489 129.955 308.889 129.955 308.489C129.855 307.989 129.555 307.589 129.155 307.389C128.355 306.889 127.755 307.189 127.755 307.089Z" fill="#455A64"/>
<path d="M126.656 269.189C126.656 269.189 126.756 269.089 127.056 268.989C127.356 268.889 127.755 268.889 128.155 269.089C128.555 269.289 129.055 269.689 129.255 270.389C129.455 271.089 128.955 271.889 128.255 272.289C127.556 272.689 126.656 272.689 126.156 272.189C125.656 271.689 125.456 271.089 125.556 270.589C125.556 270.089 125.856 269.689 126.056 269.589C126.256 269.389 126.356 269.389 126.456 269.389C126.556 269.489 125.956 269.789 125.956 270.689C125.956 271.089 126.156 271.589 126.556 271.889C126.956 272.189 127.556 272.189 128.055 271.889C128.555 271.589 128.855 270.989 128.855 270.589C128.755 270.089 128.455 269.689 128.055 269.489C127.256 268.989 126.756 269.289 126.656 269.189Z" fill="#455A64"/>
<path d="M126.056 235.689C126.056 235.689 126.156 235.589 126.456 235.489C126.756 235.389 127.156 235.389 127.556 235.589C127.956 235.789 128.455 236.189 128.655 236.889C128.855 237.589 128.355 238.389 127.656 238.789C126.956 239.189 126.056 239.189 125.556 238.689C125.057 238.189 124.857 237.589 124.957 237.089C124.957 236.589 125.257 236.189 125.456 236.089C125.656 235.889 125.756 235.889 125.856 235.889C125.956 235.989 125.356 236.289 125.356 237.189C125.356 237.589 125.556 238.089 125.956 238.389C126.356 238.689 126.956 238.689 127.456 238.389C127.956 238.089 128.255 237.489 128.255 237.089C128.156 236.589 127.856 236.189 127.456 235.989C126.656 235.489 126.056 235.789 126.056 235.689Z" fill="#455A64"/>
<path d="M124.857 199.789C124.857 199.789 124.957 199.689 125.256 199.589C125.556 199.489 125.956 199.489 126.356 199.689C126.756 199.889 127.256 200.289 127.456 200.989C127.656 201.689 127.156 202.489 126.456 202.889C125.756 203.289 124.857 203.289 124.357 202.789C123.857 202.289 123.657 201.689 123.757 201.189C123.757 200.689 124.057 200.289 124.257 200.189C124.457 199.989 124.557 199.989 124.657 199.989C124.757 200.089 124.157 200.389 124.157 201.289C124.157 201.689 124.357 202.189 124.757 202.489C125.156 202.789 125.756 202.789 126.256 202.489C126.756 202.189 127.056 201.589 127.056 201.189C126.956 200.689 126.656 200.289 126.256 200.089C125.456 199.589 124.957 199.889 124.857 199.789Z" fill="#455A64"/>
<path d="M185.735 160.989L421.553 159.289L428.151 319.589L183.936 317.389L185.735 160.989Z" fill="#E8505B"/>
<path d="M185.736 160.989L297.297 70.6888C301.996 66.8888 308.793 66.8888 313.492 70.7888L421.454 159.389" fill="#E8505B"/>
<g opacity="0.3">
<g opacity="0.3">
<g opacity="0.3">
<path opacity="0.3" d="M185.736 160.989L297.297 70.6888C301.996 66.8888 308.793 66.8888 313.492 70.7888L421.454 159.389" fill="black"/>
</g>
</g>
</g>
<path d="M183.936 317.389C183.636 317.089 202.53 296.489 226.121 271.389C249.713 246.189 269.006 226.089 269.306 226.389C269.606 226.689 250.713 247.289 227.121 272.389C203.629 297.489 184.236 317.689 183.936 317.389Z" fill="#263238"/>
<path d="M428.151 319.589C427.851 319.889 409.457 299.689 387.065 274.489C364.673 249.289 346.779 228.689 347.079 228.389C347.379 228.089 365.772 248.289 388.165 273.489C410.557 298.689 428.45 319.389 428.151 319.589Z" fill="#263238"/>
<g opacity="0.5">
<g opacity="0.5">
<g opacity="0.5">
<path opacity="0.5" d="M421.554 159.289L303.095 253.889L185.736 160.989" fill="black"/>
</g>
</g>
</g>
<path d="M197.631 169.789L197.231 96.0887L403.759 93.5887L406.059 171.189L303.095 252.689L197.631 169.789Z" fill="#FAFAFA"/>
<path d="M197.631 169.789C197.631 169.789 198.331 170.289 199.531 171.289C200.83 172.289 202.729 173.789 205.129 175.689C210.027 179.489 217.224 185.189 226.421 192.389C244.815 206.789 271.205 227.489 303.194 252.589H302.894C332.684 228.989 367.772 201.089 405.858 170.989L405.759 171.189C405.359 156.389 404.859 140.889 404.359 125.089C404.059 114.489 403.759 103.989 403.459 93.6888L403.759 93.9888C320.588 94.8888 247.114 95.7888 197.331 96.2888L197.531 96.0888C197.631 119.289 197.631 137.689 197.731 150.289C197.731 156.589 197.731 161.489 197.731 164.789C197.731 166.389 197.731 167.689 197.731 168.489C197.631 169.289 197.631 169.789 197.631 169.789C197.631 169.789 197.631 169.389 197.631 168.489C197.631 167.689 197.631 166.389 197.631 164.789C197.631 161.489 197.531 156.689 197.531 150.389C197.431 137.789 197.331 119.289 197.131 96.0888V95.8888H197.331C247.214 95.2888 320.588 94.3888 403.759 93.3888H404.059V93.6888C404.359 103.989 404.659 114.489 404.959 125.089C405.459 140.889 405.858 156.389 406.358 171.189V171.289L406.258 171.389C368.172 201.489 332.984 229.389 303.294 252.889L303.194 252.989L303.094 252.889C271.106 227.689 244.715 206.889 226.321 192.489C217.124 185.289 210.027 179.589 205.129 175.789C202.729 173.889 200.83 172.389 199.63 171.389C198.231 170.289 197.631 169.789 197.631 169.789Z" fill="#263238"/>
<path d="M371.07 130.689C371.07 130.789 339.481 131.189 300.595 131.389C261.609 131.589 230.12 131.689 230.12 131.589C230.12 131.489 261.709 131.089 300.595 130.889C339.481 130.689 371.07 130.589 371.07 130.689Z" fill="#263238"/>
<path d="M371.07 151.489C371.07 151.589 339.481 151.989 300.595 152.189C261.609 152.389 230.12 152.489 230.12 152.389C230.12 152.289 261.709 151.889 300.595 151.689C339.481 151.489 371.07 151.389 371.07 151.489Z" fill="#263238"/>
<path d="M371.07 175.489C371.07 175.589 339.481 175.989 300.595 176.189C261.609 176.389 230.12 176.489 230.12 176.389C230.12 176.289 261.709 175.889 300.595 175.689C339.481 175.489 371.07 175.389 371.07 175.489Z" fill="#263238"/>
<path d="M371.071 199.489C371.071 199.589 340.981 199.889 303.794 200.189C266.607 200.389 236.518 200.489 236.518 200.289C236.518 200.189 266.607 199.889 303.794 199.589C340.981 199.389 371.071 199.389 371.071 199.489Z" fill="#263238"/>
<path d="M344.68 220.589C344.68 220.589 344.38 220.589 343.88 220.689C343.28 220.689 342.48 220.689 341.481 220.789C339.382 220.789 336.383 220.889 332.784 220.889C325.386 220.989 315.19 221.189 303.994 221.289C292.798 221.489 282.601 221.589 275.204 221.589C271.605 221.589 268.606 221.589 266.507 221.589C265.507 221.589 264.708 221.589 264.108 221.589C263.608 221.589 263.308 221.589 263.308 221.589C263.308 221.589 263.608 221.589 264.108 221.489C264.708 221.489 265.507 221.489 266.507 221.389C268.606 221.389 271.605 221.289 275.204 221.289C282.601 221.189 292.798 220.989 303.994 220.889C315.19 220.689 325.386 220.589 332.784 220.589C336.383 220.589 339.382 220.589 341.481 220.589C342.48 220.589 343.28 220.589 343.88 220.589C344.38 220.489 344.68 220.489 344.68 220.589Z" fill="#263238"/>
<path d="M318.089 240.789C318.089 240.889 311.391 241.089 303.094 241.089C294.797 241.089 288.1 240.989 288.1 240.789C288.1 240.689 294.797 240.489 303.094 240.489C311.391 240.489 318.089 240.689 318.089 240.789Z" fill="#263238"/>
<path d="M387.565 224.389C401.312 224.389 412.456 213.241 412.456 199.489C412.456 185.737 401.312 174.589 387.565 174.589C373.818 174.589 362.674 185.737 362.674 199.489C362.674 213.241 373.818 224.389 387.565 224.389Z" fill="#263238"/>
<path d="M381.067 224.389C394.814 224.389 405.958 213.241 405.958 199.489C405.958 185.737 394.814 174.589 381.067 174.589C367.32 174.589 356.176 185.737 356.176 199.489C356.176 213.241 367.32 224.389 381.067 224.389Z" fill="#455A64"/>
<path d="M384.266 187.889V208.589H380.367V191.089H375.969V187.889H384.266Z" fill="#EBEBEB"/>
<path d="M199.23 62.3887H222.023L218.924 58.8887V50.3887C218.924 45.7887 215.225 42.0887 210.626 42.0887C206.028 42.0887 202.329 45.7887 202.329 50.3887V58.4887L199.23 62.3887Z" fill="#E8505B"/>
<path d="M207.428 61.2887C207.528 62.5887 208.327 63.8887 209.627 64.3887C210.827 64.8887 212.326 64.6887 213.326 63.7887C214.325 62.8887 214.725 61.3887 214.325 60.0887" fill="#E8505B"/>
<path d="M211.826 38.5887H209.626V43.3887H211.826V38.5887Z" fill="#E8505B"/>
<path d="M243.915 46.7887C243.915 46.7887 243.815 46.5887 243.715 46.1887C243.615 45.7887 243.515 45.1887 243.315 44.3887C243.215 43.5887 242.915 42.6887 242.516 41.5887C242.316 41.0887 242.216 40.3887 241.916 39.7887C241.616 39.1887 241.316 38.4887 241.116 37.8887C239.816 35.1887 237.917 31.9887 235.118 28.9887C232.219 25.8887 228.42 23.0887 223.622 21.0887C221.223 19.9887 218.624 19.3887 215.925 18.8887C213.126 18.5887 210.227 18.3887 207.228 18.7887C205.728 18.8887 204.229 19.2887 202.729 19.5887C201.93 19.7887 201.23 20.0887 200.53 20.2887C199.73 20.4887 199.031 20.7887 198.331 21.0887C195.332 22.1887 192.533 23.9887 189.834 26.1887C184.536 30.4887 180.337 36.8887 178.538 44.2887C177.638 47.9887 177.438 51.9887 177.838 55.8887C178.238 59.8887 179.438 63.7887 181.237 67.3887L181.837 68.4887L181.937 68.5887V68.6887C180.137 74.7887 178.238 80.6887 176.539 86.3887L176.039 85.9887C180.937 83.3887 185.735 80.8887 190.334 78.5887L190.534 78.4887L190.734 78.5887C195.332 82.0887 200.63 84.2887 205.728 85.0887C210.927 85.8887 216.025 85.3887 220.523 84.0887C225.022 82.7887 229.02 80.4887 232.219 77.7887C235.418 75.0887 237.917 72.0887 239.717 68.9887C241.516 65.8887 242.616 62.8887 243.315 60.0887C243.915 57.2887 244.215 54.8887 244.315 52.8887C244.315 51.8887 244.315 50.9887 244.315 50.2887C244.215 49.5887 244.215 48.8887 244.115 48.3887C244.115 47.8887 244.015 47.4887 244.015 47.1887C243.915 46.9887 243.915 46.7887 243.915 46.7887C243.915 46.7887 243.915 46.8887 244.015 47.1887C244.015 47.4887 244.115 47.8887 244.115 48.3887C244.215 48.8887 244.215 49.5887 244.315 50.2887C244.315 51.0887 244.315 51.9887 244.315 52.8887C244.315 54.8887 244.015 57.2887 243.415 60.0887C242.715 62.8887 241.616 65.9887 239.816 69.0887C238.017 72.1887 235.518 75.2887 232.219 78.0887C229.02 80.7887 225.022 83.0887 220.423 84.4887C215.825 85.8887 210.727 86.3887 205.428 85.5887C200.13 84.7887 194.832 82.5887 190.134 78.9887H190.434C185.835 81.3887 181.037 83.8887 176.139 86.4887L175.439 86.8887L175.639 86.0887C177.338 80.2887 179.238 74.3887 181.037 68.3887V68.6887L180.437 67.5887C178.538 63.8887 177.338 59.8887 176.938 55.8887C176.439 51.8887 176.639 47.7887 177.638 43.9887C179.538 36.3887 183.736 29.8887 189.234 25.5887C191.933 23.3887 194.832 21.5887 197.831 20.4887C198.531 20.0887 199.331 19.8887 200.13 19.6887C200.93 19.4887 201.63 19.1887 202.43 18.9887C203.929 18.6887 205.429 18.2887 207.028 18.1887C210.027 17.7887 213.026 17.9887 215.825 18.3887C218.624 18.8887 221.323 19.5887 223.622 20.6887C228.42 22.6887 232.319 25.6887 235.218 28.7887C238.117 31.8887 240.016 35.1887 241.216 37.8887C241.516 38.5887 241.816 39.2887 242.016 39.8887C242.316 40.4887 242.416 41.0887 242.616 41.6887C242.915 42.7887 243.215 43.7887 243.415 44.4887C243.515 45.2887 243.715 45.7887 243.715 46.2887C243.915 46.5887 243.915 46.7887 243.915 46.7887Z" fill="#263238"/>
<path d="M396.597 284.289C399.896 295.389 397.397 309.589 393.398 320.389C389.4 331.189 381.902 340.689 372.306 347.089C371.206 347.789 369.806 348.489 368.707 347.889C367.807 347.389 367.407 346.189 367.207 345.189C364.908 333.389 366.508 320.789 371.706 309.889C377.004 298.889 385.901 289.889 396.597 284.289Z" fill="#B4C17D"/>
<path d="M347.515 231.789C354.412 231.589 358.911 239.289 359.61 246.089C360.31 252.989 358.811 260.089 360.81 266.689C363.409 275.089 371.206 281.089 373.506 289.489C376.305 299.389 370.807 309.689 370.607 320.089C370.507 325.089 371.606 330.189 370.707 335.089C369.107 343.389 361.21 350.089 352.713 350.189C344.216 350.289 336.219 343.789 334.419 335.489C332.82 327.789 336.219 319.589 334.219 311.889C332.72 306.289 328.321 301.489 328.021 295.689C327.622 288.789 332.92 282.789 333.919 275.889C334.919 268.989 331.42 262.289 330.921 255.389C329.921 242.889 335.119 233.189 347.515 231.789Z" fill="#D3E09D"/>
<path d="M362.61 373.289C362.61 373.289 362.71 373.089 362.809 372.589C362.909 372.089 363.109 371.389 363.309 370.589C363.709 368.889 364.209 366.389 365.009 363.289C366.508 357.089 368.907 348.689 372.106 339.489C375.405 330.389 378.904 322.289 381.603 316.589C383.002 313.689 384.102 311.389 384.902 309.789C385.302 309.089 385.602 308.389 385.801 307.989C386.001 307.589 386.101 307.289 386.101 307.289C386.101 307.289 385.901 307.489 385.701 307.889C385.402 308.389 385.102 308.989 384.702 309.689C383.802 311.189 382.603 313.489 381.203 316.389C378.304 322.089 374.705 330.089 371.506 339.289C368.208 348.489 366.008 356.989 364.609 363.189C363.909 366.289 363.409 368.789 363.109 370.589C363.009 371.389 362.909 372.089 362.809 372.589C362.61 373.089 362.51 373.289 362.61 373.289Z" fill="#263238"/>
<path d="M347.814 265.689C347.814 265.689 347.814 266.089 347.914 266.789C348.014 267.589 348.114 268.589 348.314 269.889C348.714 272.689 349.213 276.589 349.813 281.389C351.113 291.089 352.912 304.589 354.712 319.489C356.611 334.389 358.21 347.889 359.31 357.589C359.91 362.389 360.31 366.389 360.709 369.189C360.909 370.489 361.009 371.589 361.109 372.289C361.209 372.989 361.309 373.389 361.309 373.389C361.309 373.389 361.309 372.989 361.209 372.289C361.109 371.489 361.009 370.489 360.909 369.089C360.61 366.289 360.21 362.389 359.71 357.489C358.71 347.689 357.111 334.189 355.311 319.289C353.412 304.389 351.613 290.889 350.213 281.189C349.513 276.389 348.914 272.489 348.514 269.689C348.314 268.389 348.114 267.289 348.014 266.589C347.814 266.089 347.814 265.689 347.814 265.689Z" fill="#263238"/>
<path d="M386.601 359.789H334.319V365.889H386.601V359.789Z" fill="#263238"/>
<path d="M339.217 365.889L345.315 402.889H377.703L382.002 365.889H339.217Z" fill="#263238"/>
<path d="M382.102 365.589C382.102 365.689 372.406 365.989 360.51 366.089C348.614 366.189 338.917 366.289 338.917 366.089C338.917 365.989 348.514 365.689 360.51 365.589C372.506 365.489 382.102 365.489 382.102 365.589Z" fill="#455A64"/>
<path d="M380.303 384.189C380.303 384.189 380.203 384.189 380.003 384.189C379.803 384.189 379.503 384.189 379.103 384.189C378.303 384.189 377.204 384.189 375.804 384.089C374.405 383.889 372.605 383.489 370.906 382.189C370.106 381.589 369.307 380.689 368.707 379.689C368.207 378.589 368.007 377.289 368.407 375.989C368.807 374.689 370.106 373.589 371.706 373.589C372.505 373.589 373.205 373.989 373.705 374.589C374.205 375.189 374.505 375.889 374.705 376.689C375.305 379.889 373.105 383.389 369.706 384.489C366.308 385.689 362.109 383.689 360.41 380.289C360.01 379.389 359.71 378.489 359.61 377.489C359.61 376.489 359.81 375.489 360.41 374.589C361.01 373.789 361.909 373.089 363.009 372.989C364.108 372.889 365.208 373.489 365.708 374.389C366.308 375.289 366.608 376.289 366.608 377.289C366.608 378.289 366.308 379.289 365.908 380.189C365.008 381.989 363.409 383.289 361.709 384.089C360.01 384.889 358.211 385.389 356.411 385.589C354.612 385.789 352.812 385.689 351.113 385.089C349.414 384.489 348.014 383.389 347.114 381.989C346.215 380.589 346.015 378.789 346.615 377.289C347.114 375.789 348.414 374.589 349.913 374.389C351.413 374.189 352.912 374.789 353.712 375.789C354.612 376.889 354.512 378.389 354.012 379.489C353.512 380.589 352.712 381.389 351.813 381.989C350.913 382.589 350.013 382.889 349.214 383.289C348.414 383.589 347.614 383.889 346.914 384.089C345.515 384.489 344.415 384.689 343.616 384.789C343.216 384.889 342.916 384.889 342.716 384.889C342.516 384.889 342.416 384.889 342.416 384.889C342.416 384.889 342.516 384.889 342.716 384.789C342.916 384.789 343.216 384.689 343.516 384.589C344.215 384.389 345.315 384.189 346.715 383.789C347.414 383.589 348.114 383.289 349.014 382.989C349.813 382.689 350.713 382.289 351.513 381.689C352.313 381.089 353.112 380.389 353.612 379.289C354.012 378.289 354.112 376.889 353.312 375.989C352.512 375.089 351.213 374.489 349.813 374.689C348.514 374.889 347.314 375.989 346.914 377.389C346.415 378.789 346.615 380.389 347.414 381.689C348.214 382.989 349.613 384.089 351.113 384.589C352.712 385.189 354.412 385.189 356.211 384.989C357.911 384.789 359.71 384.289 361.409 383.489C363.009 382.689 364.508 381.389 365.308 379.789C366.208 378.189 366.308 375.989 365.208 374.489C364.708 373.689 363.809 373.289 362.909 373.389C362.009 373.489 361.209 373.989 360.71 374.689C360.21 375.389 360.01 376.389 360.01 377.289C360.01 378.189 360.31 379.089 360.71 379.889C362.309 383.089 366.208 384.989 369.407 383.889C372.605 382.889 374.705 379.589 374.105 376.689C374.005 375.989 373.705 375.289 373.205 374.789C372.805 374.289 372.106 373.889 371.506 373.889C370.206 373.789 369.007 374.789 368.607 375.989C368.207 377.189 368.407 378.389 368.907 379.489C369.407 380.489 370.106 381.289 370.906 381.989C372.506 383.189 374.305 383.689 375.704 383.889C377.104 384.089 378.303 384.089 379.003 384.089C379.403 384.089 379.603 384.089 379.903 384.089C380.203 384.189 380.303 384.189 380.303 384.189Z" fill="#455A64"/>
</svg>
