<svg width="453" height="497" viewBox="0 0 453 497" fill="none" xmlns="http://www.w3.org/2000/svg">
<path d="M225.579 227.989V228L225.6 228.02L225.579 227.989Z" fill="#F5F5F5"/>
<path d="M225.704 228.165L225.652 228.217H225.776L225.704 228.165Z" fill="#F5F5F5"/>
<path d="M225.786 228.217H225.859L225.807 228.196L225.786 228.217Z" fill="#F5F5F5"/>
<path d="M225.549 228.186L225.538 228.113L225.207 228.02L225.507 228.217L225.549 228.186Z" fill="#F5F5F5"/>
<path d="M225.559 228.124L225.549 228.176L225.601 228.155L225.559 228.124Z" fill="#F5F5F5"/>
<path d="M225.848 228.144L225.828 228.165L225.859 228.175L225.848 228.144Z" fill="#F5F5F5"/>
<path d="M225.796 228.186H225.776L225.786 228.206L225.796 228.186Z" fill="#F5F5F5"/>
<path d="M225.6 228.144L225.621 228.134H225.59L225.6 228.144Z" fill="#F5F5F5"/>
<path d="M225.828 228.124L225.786 228.134L225.807 228.155L225.828 228.124Z" fill="#F5F5F5"/>
<path d="M212.021 131.277L225.693 227.121L239.242 131.256H239.459L257.589 2.13053C236.187 -0.813784 214.476 -0.705836 193.104 2.45115L211.628 131.349L212.021 131.277Z" fill="#F5F5F5"/>
<path d="M266.287 139.189L225.952 227.917L374.697 55.1977C358.255 40.96 339.85 29.1624 320.048 20.1678L266.07 139.106L266.287 139.189Z" fill="#F5F5F5"/>
<path d="M132.042 200.737L224.969 227.948H224.607L225.507 228.217H225.58H225.652H225.528L225.59 228.279H225.642H225.59L225.962 228.444L225.652 228.238L319.127 255.604C319.105 255.671 319.088 255.74 319.075 255.811L443.02 292.247C449.422 271.406 452.783 249.749 453 227.948H323.337V228.113L225.931 228.217V228.124L226.355 228L226.004 228.227L226.872 227.969H226.448L444.137 163.483C438.074 142.517 428.995 122.544 417.184 104.19L226.355 227.948H226.024L226.159 227.782L225.91 227.948L226.004 227.42L225.817 227.813V227.948L225.704 228.031V227.948H225.621V227.813L225.466 227.534L225.528 227.969L225.331 227.845L225.435 227.958H225.104L34.9886 105.493C23.3797 123.82 14.4794 143.728 8.56357 164.6L132.042 200.747V200.737ZM225.652 228.186V228.258L225.352 228.072L225.652 228.186Z" fill="#F5F5F5"/>
<path d="M161.704 154.279L225.466 227.865L185.016 139.241L130.977 21.0883C111.345 30.2356 93.1255 42.1507 76.8755 56.4699L161.684 154.289L161.704 154.279Z" fill="#F5F5F5"/>
<path d="M415.829 350.827L307.854 281.119L307.792 281.201L226.086 228.6L289.786 302.031L289.63 302.166L373.363 398.95C389.724 384.999 404.022 368.796 415.829 350.827Z" fill="#F5F5F5"/>
<path d="M225.838 228.433V228.423L225.828 228.413L225.838 228.433Z" fill="#F5F5F5"/>
<path d="M225.611 228.248L225.6 228.269L225.559 228.248L225.569 228.32L225.58 228.31V228.32L225.642 228.3L225.611 228.279L225.631 228.248L225.652 228.258L225.642 228.238L225.652 228.217H225.559L225.611 228.248Z" fill="#F5F5F5"/>
<path d="M225.145 228.444L225.528 228.331L225.538 228.238L225.517 228.217L225.145 228.444Z" fill="#F5F5F5"/>
<path d="M225.3 228.631L143.812 281.501L143.626 281.201L36.8295 350.32C48.5428 368.219 62.7165 384.381 78.9337 398.33L174.157 288.027L225.3 228.631Z" fill="#F5F5F5"/>
<path d="M132.094 255.883L225.466 228.217L0 228.465C0.169842 250.006 3.40856 271.413 9.61849 292.04L132.073 255.904L132.094 255.883Z" fill="#F5F5F5"/>
<path d="M132.725 432.729C152.223 441.606 172.889 447.652 194.097 450.683L225.466 228.962L132.725 432.729Z" fill="#F5F5F5"/>
<path d="M225.859 228.31V228.269L225.838 228.289L225.859 228.31Z" fill="#F5F5F5"/>
<path d="M257.62 450.859C278.88 447.944 299.613 442.003 319.189 433.215L225.962 228.941L257.62 450.859Z" fill="#F5F5F5"/>
<path d="M225.611 228.589L225.714 229.323L225.817 228.62L225.704 228.382L225.611 228.589Z" fill="#F5F5F5"/>
<path d="M225.817 228.3H225.807L225.827 228.31L225.817 228.3Z" fill="#F5F5F5"/>
<path d="M453 487.44C453 487.585 351.582 487.709 226.5 487.709C101.418 487.709 0 487.585 0 487.44C0 487.296 101.356 487.13 226.5 487.13C351.644 487.13 453 487.285 453 487.44Z" fill="#263238"/>
<path d="M285.783 113.219C285.783 113.219 318.61 183.548 293.902 249.057C269.194 314.566 178.428 408.527 168.365 413.471C168.365 413.471 191.656 376.89 149.149 377.19C106.641 377.49 85.2943 367.158 80.7229 352.233C76.1516 337.309 101.408 289.206 78.1787 277.633C54.9495 266.06 26.7146 269.535 7.75685 253.494C7.75685 253.494 51.9709 249.812 84.6014 246.492C118.876 243.048 221.846 171.271 230.161 118.514" fill="#E8505B"/>
<g opacity="0.4">
<path opacity="0.4" d="M285.783 113.219C285.783 113.219 318.61 183.548 293.902 249.057C269.194 314.566 178.428 408.527 168.365 413.471C168.365 413.471 191.656 376.89 149.149 377.19C106.641 377.49 85.2943 367.158 80.7229 352.233C76.1516 337.309 101.408 289.206 78.1787 277.633C54.9495 266.06 26.7146 269.535 7.75685 253.494C7.75685 253.494 51.9709 249.812 84.6014 246.492C118.876 243.048 221.846 171.271 230.161 118.514" fill="black"/>
</g>
<path d="M166.338 234.319C166.159 234.484 165.965 234.633 165.759 234.764L164.032 235.922C162.542 236.956 160.339 238.342 157.578 240.059C152.076 243.441 144.298 247.826 135.414 252.098C126.53 256.369 118.225 259.658 112.143 261.83C109.103 262.916 106.62 263.753 104.904 264.291L102.918 264.891C102.684 264.969 102.446 265.031 102.204 265.077C102.419 264.962 102.644 264.869 102.877 264.798L104.831 264.084C106.538 263.495 108.968 262.606 112.009 261.478C118.049 259.213 126.302 255.852 135.186 251.611C144.071 247.371 151.838 243.027 157.392 239.738C160.163 238.094 162.387 236.739 163.918 235.777L165.697 234.743C165.895 234.579 166.11 234.437 166.338 234.319Z" fill="#263238"/>
<path d="M194.263 273.31C194.049 273.517 193.817 273.704 193.57 273.868L191.501 275.378C189.691 276.682 187.106 278.585 183.93 280.963C177.59 285.721 168.965 292.506 159.853 300.469C150.741 308.433 142.85 316.066 137.276 321.723C134.493 324.547 132.259 326.894 130.729 328.466L128.95 330.297C128.754 330.522 128.54 330.73 128.309 330.918C128.484 330.675 128.674 330.444 128.877 330.225L130.574 328.322C132.053 326.667 134.245 324.319 137.007 321.454C142.509 315.735 150.359 308.009 159.491 300.066C168.624 292.123 177.291 285.349 183.703 280.653C186.909 278.316 189.536 276.454 191.377 275.213L193.445 273.775C193.706 273.6 193.979 273.444 194.263 273.31Z" fill="#263238"/>
<path d="M190.498 284.842C190.407 284.979 190.304 285.108 190.188 285.224L189.215 286.259C188.378 287.159 187.147 288.431 185.565 289.972C182.462 293.074 178.015 297.211 172.916 301.607C167.817 306.002 163.028 309.726 159.47 312.342C157.702 313.656 156.254 314.69 155.24 315.383L154.072 316.179C153.803 316.355 153.648 316.448 153.637 316.428C153.743 316.299 153.869 316.187 154.01 316.097L155.116 315.218L159.253 312.042C162.728 309.343 167.465 305.558 172.554 301.193C177.642 296.829 182.1 292.723 185.296 289.703L189.06 286.114L190.095 285.152C190.301 284.935 190.477 284.821 190.498 284.842Z" fill="#263238"/>
<path d="M184.965 450.932L179.669 474.874L170.02 492.601C169.854 492.903 169.752 493.237 169.72 493.58C169.689 493.924 169.729 494.27 169.838 494.597C169.946 494.924 170.122 495.226 170.352 495.482C170.583 495.738 170.864 495.944 171.178 496.087C171.541 496.257 171.939 496.336 172.339 496.318C172.739 496.3 173.128 496.185 173.474 495.983C177.963 493.398 194.428 483.769 194.718 481.99C195.059 479.921 201.957 457.106 201.957 457.106L184.965 450.932Z" fill="#263238"/>
<path d="M195.473 479.59C195.197 479.859 194.892 480.095 194.562 480.294L191.967 482.062L183.372 487.813L174.788 493.584L172.171 495.311C171.851 495.546 171.504 495.74 171.137 495.89C171.397 495.602 171.692 495.349 172.016 495.135C172.605 494.69 173.464 494.049 174.539 493.274C176.68 491.712 179.711 489.612 183.041 487.368C186.371 485.124 189.474 483.138 191.729 481.742C192.856 481.038 193.797 480.49 194.418 480.118C194.745 479.898 195.1 479.72 195.473 479.59Z" fill="#455A64"/>
<path d="M291.151 456.599L289.723 475.753C289.723 475.753 308.692 483.634 308.774 487.203H271.541L272.576 455.855L291.151 456.599Z" fill="#263238"/>
<path d="M307.606 485.91C307.131 485.952 306.653 485.952 306.178 485.91L302.29 485.786C299.011 485.682 294.471 485.548 289.465 485.475C284.459 485.403 279.929 485.413 276.64 485.475H272.752C272.275 485.508 271.796 485.487 271.324 485.413C271.795 485.325 272.273 485.277 272.752 485.269C273.662 485.206 274.996 485.144 276.64 485.082C279.919 484.969 284.459 484.896 289.475 484.969C294.491 485.041 299.021 485.238 302.3 485.444C303.944 485.537 305.268 485.641 306.189 485.734C306.666 485.743 307.141 485.802 307.606 485.91Z" fill="#455A64"/>
<path d="M207.79 263.991L174.912 467.024L205.101 468.855L251.715 263.991H207.79Z" fill="#E8505B"/>
<path d="M252.263 255.149L267.425 468.855H295.846V242.572L252.263 255.149Z" fill="#E8505B"/>
<path d="M285.566 455.493C285.411 455.493 283.125 413.171 280.446 360.962C277.768 308.754 275.709 266.412 275.865 266.401C276.02 266.391 278.305 308.712 280.984 360.942C283.663 413.171 285.711 455.482 285.566 455.493Z" fill="#263238"/>
<path d="M295.846 455.493L295.629 455.555C295.443 455.606 295.153 455.658 294.781 455.72C294.047 455.834 292.981 455.989 291.678 456.144C289.031 456.465 285.38 456.847 281.336 457.178C273.258 457.913 266.66 458.213 266.67 457.84C266.67 457.84 266.763 457.84 266.96 457.84H267.808L270.911 457.602L281.253 456.692L291.595 455.782C294.233 455.596 295.96 455.472 295.846 455.493Z" fill="#263238"/>
<path d="M225.693 268.78C225.693 268.78 225.693 268.935 225.642 269.256C225.59 269.576 225.528 270.052 225.445 270.652C225.259 271.903 224.98 273.703 224.628 276.009C223.914 280.664 222.839 287.386 221.463 295.66C218.722 312.27 214.73 335.189 209.89 360.425C205.05 385.66 200.251 408.434 196.652 424.879C194.842 433.101 193.352 439.751 192.297 444.343L191.067 449.618L190.736 450.994C190.653 451.294 190.601 451.449 190.601 451.449C190.601 451.449 190.601 451.294 190.684 450.973C190.767 450.652 190.839 450.187 190.963 449.597C191.222 448.356 191.605 446.577 192.091 444.292C193.125 439.669 194.511 433.008 196.279 424.796C199.785 408.331 204.553 385.557 209.363 360.321C214.172 335.086 218.247 312.187 221.091 295.598C222.497 287.324 223.635 280.601 224.421 275.947C224.814 273.641 225.124 271.81 225.342 270.6C225.445 270.011 225.528 269.566 225.59 269.214C225.652 268.863 225.693 268.78 225.693 268.78Z" fill="#263238"/>
<path d="M208.142 455.492C207.737 455.537 207.327 455.537 206.922 455.492L203.571 455.41L192.556 455.068L181.541 454.551L178.201 454.386C177.793 454.385 177.385 454.36 176.98 454.313C178.495 454.102 180.027 454.054 181.552 454.169C184.375 454.169 188.274 454.334 192.577 454.531C196.879 454.727 200.778 454.934 203.591 455.12C204.998 455.213 206.146 455.306 206.932 455.379C207.339 455.367 207.745 455.405 208.142 455.492Z" fill="#263238"/>
<g opacity="0.3">
<path opacity="0.3" d="M206.198 273.879L206.849 269.845L250.929 267.353L249.264 274.706L206.198 273.879Z" fill="black"/>
</g>
<g opacity="0.3">
<path opacity="0.3" d="M253.515 274.706L252.263 267.311L295.846 265.16L295.826 275.616L253.515 274.706Z" fill="black"/>
</g>
<path d="M210.614 113.891L241.393 107.044L267.249 108.12L289.796 115.277L276.971 179.597L227.886 183.941L210.614 113.891Z" fill="#263238"/>
<path d="M236.718 108.12L204.346 115.277L220.532 201.988C220.532 201.988 206.053 237.153 204.346 269.845L252.263 267.322C252.263 267.322 255.562 224.225 254.435 207.635C253.308 191.046 252.542 162.025 252.542 162.025L236.718 108.12Z" fill="#E8505B"/>
<path d="M144.153 157.857C144.153 157.857 155.137 146.718 166.596 140.73C175.046 136.314 191.594 130.77 198.172 123.655C200.577 121.128 202.661 118.314 204.377 115.277L212.021 156.171L179.535 161.343C179.535 161.343 184.365 163.98 181.355 165.862L201.709 189.65L187.757 215.951C187.757 215.951 142.261 176.711 144.153 157.857Z" fill="#E8505B"/>
<path d="M267.249 108.12C271.183 108.605 275.071 109.411 278.874 110.53C285.762 112.816 297.408 115.277 297.408 115.277L280.86 203.116C280.86 203.116 303.355 230.916 297.408 264.943C297.408 264.943 266.329 267.394 252.263 267.322L252.077 160.432C252.077 160.432 263.857 145.436 265.367 130.739C266.877 116.042 267.249 108.12 267.249 108.12Z" fill="#E8505B"/>
<path d="M297.408 115.277C297.408 115.277 315.952 134.452 326.16 141.692C336.368 148.932 349.213 159.801 349.213 165.562C349.009 169.174 348.274 172.735 347.031 176.132C346.317 178.266 345.27 180.273 343.928 182.079C339.243 188.285 326.832 204.491 318.631 212.165L297.946 190.384L317.596 168.665C317.596 168.665 291.223 157.795 289.92 154.827C288.617 151.858 297.408 115.277 297.408 115.277Z" fill="#E8505B"/>
<path d="M251.88 172.026C251.707 171.898 251.548 171.753 251.405 171.592L250.112 170.299L245.365 165.407L229.272 148.59L229.179 148.487V148.342L231.309 139.416C231.63 138.082 231.94 136.758 232.25 135.466L232.509 135.797H222.249H221.908L222.011 135.466C224.514 127.885 226.655 121.39 228.217 116.735C228.982 114.47 229.592 112.661 230.037 111.368L230.534 109.94C230.584 109.771 230.654 109.608 230.74 109.454C230.716 109.627 230.674 109.797 230.616 109.961C230.513 110.333 230.368 110.82 230.192 111.419C229.789 112.723 229.22 114.522 228.506 116.829L222.518 135.621L222.27 135.29H232.871L232.788 135.621C232.488 136.914 232.168 138.237 231.847 139.572C231.113 142.674 230.399 145.643 229.706 148.497L229.644 148.259L245.603 165.2L250.236 170.206L251.467 171.561C251.617 171.704 251.755 171.86 251.88 172.026Z" fill="#263238"/>
<path d="M252.263 267.322C252.118 267.322 251.922 243.203 251.818 213.469C251.715 183.734 251.818 159.615 251.922 159.615C252.025 159.615 252.263 183.724 252.356 213.469C252.449 243.213 252.408 267.322 252.263 267.322Z" fill="#263238"/>
<path d="M272.214 108.896C272.282 109.086 272.327 109.284 272.348 109.485C272.431 109.92 272.534 110.52 272.658 111.181C272.927 112.712 273.289 114.853 273.693 117.511L277.188 139.158L277.24 139.51H276.889L271.179 138.744L271.459 138.361L272.627 140.74C273.413 142.343 274.189 143.926 274.934 145.425L275.006 145.581L274.903 145.715C268.935 153.162 263.66 159.76 259.834 164.549C257.941 166.865 256.421 168.748 255.324 170.103L254.083 171.581C253.944 171.758 253.792 171.924 253.628 172.078C253.735 171.878 253.863 171.691 254.011 171.519L255.169 169.978L259.555 164.321L274.479 145.384V145.663C273.744 144.164 272.969 142.561 272.172 140.978L270.973 138.589L270.745 138.134L271.252 138.206L276.961 138.982L276.661 139.282C275.347 130.625 274.189 123.065 273.362 117.563C272.979 114.894 272.669 112.754 272.441 111.202C272.348 110.499 272.276 109.93 272.214 109.496C272.191 109.296 272.191 109.095 272.214 108.896Z" fill="#263238"/>
<path d="M247.764 232.385C246.668 231.04 244.527 230.265 243.493 231.661C242.971 232.091 242.593 232.67 242.408 233.32C242.223 233.97 242.241 234.661 242.458 235.301C242.634 235.693 242.887 236.045 243.201 236.337C243.515 236.629 243.885 236.855 244.288 237.001C244.691 237.148 245.119 237.212 245.548 237.19C245.976 237.168 246.396 237.061 246.782 236.874C247.157 236.658 247.483 236.366 247.738 236.017C247.994 235.668 248.174 235.269 248.267 234.847C248.359 234.424 248.362 233.987 248.276 233.563C248.189 233.139 248.015 232.738 247.764 232.385Z" fill="#263238"/>
<path d="M248.343 204.46C247.247 203.116 245.106 202.34 244.072 203.736C243.55 204.164 243.171 204.741 242.986 205.389C242.802 206.038 242.819 206.728 243.038 207.366C243.213 207.758 243.466 208.11 243.78 208.402C244.094 208.694 244.463 208.921 244.866 209.068C245.269 209.216 245.697 209.281 246.125 209.261C246.554 209.24 246.974 209.134 247.361 208.949C247.736 208.733 248.062 208.442 248.318 208.093C248.573 207.743 248.753 207.345 248.846 206.922C248.938 206.499 248.942 206.062 248.855 205.638C248.768 205.214 248.594 204.813 248.343 204.46Z" fill="#263238"/>
<path d="M322.199 202.164C321.165 200.82 318.962 200.044 317.938 201.44C317.416 201.87 317.038 202.449 316.853 203.099C316.668 203.75 316.686 204.441 316.903 205.081C317.078 205.473 317.33 205.826 317.644 206.119C317.958 206.412 318.328 206.638 318.731 206.785C319.135 206.932 319.564 206.996 319.992 206.973C320.421 206.95 320.841 206.841 321.227 206.653C321.601 206.436 321.926 206.144 322.181 205.795C322.435 205.445 322.614 205.046 322.706 204.624C322.797 204.201 322.8 203.764 322.712 203.34C322.625 202.917 322.45 202.516 322.199 202.164Z" fill="#263238"/>
<path d="M187.519 204.781C186.423 203.436 184.282 202.661 183.248 204.057C182.726 204.484 182.347 205.061 182.162 205.71C181.978 206.359 181.995 207.049 182.214 207.687C182.389 208.078 182.642 208.43 182.956 208.723C183.27 209.015 183.639 209.242 184.042 209.389C184.445 209.536 184.873 209.602 185.301 209.581C185.73 209.561 186.15 209.455 186.537 209.269C186.912 209.054 187.238 208.762 187.494 208.413C187.749 208.064 187.929 207.665 188.022 207.243C188.114 206.82 188.117 206.383 188.031 205.959C187.944 205.535 187.77 205.133 187.519 204.781Z" fill="#263238"/>
<path d="M181.614 166.183C179.024 164.99 176.264 164.208 173.433 163.866C170.585 163.714 167.73 164.007 164.973 164.735C165.712 164.308 166.515 164.005 167.351 163.835C169.352 163.319 171.426 163.147 173.485 163.328C175.54 163.51 177.55 164.034 179.431 164.88C180.227 165.189 180.964 165.629 181.614 166.183Z" fill="#263238"/>
<path d="M164.973 161.27C165.609 160.862 166.308 160.562 167.041 160.381C168.81 159.856 170.647 159.595 172.492 159.605C174.342 159.619 176.179 159.912 177.942 160.474C178.682 160.653 179.382 160.965 180.011 161.394C177.561 160.673 175.033 160.253 172.481 160.143C169.943 160.22 167.422 160.599 164.973 161.27Z" fill="#263238"/>
<path d="M212.951 161.394C212.761 160.83 212.612 160.253 212.507 159.667C212.238 158.457 211.876 156.864 211.472 154.93L207.759 139.344C206.312 133.252 205.164 127.688 204.522 123.634C204.191 121.565 203.964 119.962 203.85 118.814C203.761 118.225 203.713 117.631 203.705 117.035C203.873 117.607 203.991 118.192 204.057 118.783C204.233 119.921 204.522 121.555 204.895 123.561C205.629 127.595 206.839 133.128 208.287 139.22C209.735 145.312 211.028 150.824 211.845 154.847C212.258 156.854 212.569 158.488 212.745 159.626C212.862 160.208 212.932 160.8 212.951 161.394Z" fill="#263238"/>
<path d="M296.26 117.263C296.238 117.875 296.162 118.484 296.032 119.083C295.836 120.335 295.567 122 295.236 124.006C294.543 128.247 293.612 133.945 292.578 140.244C291.544 146.542 290.51 152.324 289.775 156.461C289.382 158.529 289.051 160.205 288.803 161.353C288.705 161.956 288.56 162.551 288.369 163.132C288.392 162.532 288.455 161.934 288.555 161.342C288.762 160.101 289.031 158.436 289.351 156.419L292.009 140.182C293.043 133.842 294.078 128.112 294.822 123.975C295.215 121.907 295.536 120.231 295.784 119.073C295.902 118.46 296.061 117.855 296.26 117.263Z" fill="#263238"/>
<path d="M331.538 158.033C331.538 158.126 330.39 158.033 328.57 158.126C326.206 158.154 323.918 158.965 322.064 160.432C320.377 162.096 319.123 164.149 318.413 166.41C318.131 167.363 317.786 168.296 317.379 169.203C317.491 168.207 317.72 167.228 318.062 166.286C318.686 163.905 319.953 161.74 321.723 160.029C322.756 159.132 323.985 158.49 325.312 158.157C326.373 157.884 327.464 157.745 328.559 157.743C329.296 157.736 330.032 157.777 330.762 157.867C331.028 157.88 331.29 157.935 331.538 158.033Z" fill="#263238"/>
<path d="M336.471 162.863C336.471 162.956 335.334 162.863 333.514 162.987C331.146 163.143 328.808 163.594 326.553 164.331C324.306 165.091 322.165 166.134 320.182 167.434C318.662 168.468 317.803 169.172 317.741 169.099C317.679 169.027 317.907 168.861 318.279 168.51C318.81 168.012 319.374 167.549 319.965 167.124C323.902 164.264 328.627 162.692 333.493 162.625C334.225 162.61 334.957 162.641 335.685 162.718C335.953 162.73 336.217 162.779 336.471 162.863Z" fill="#263238"/>
<path d="M228.279 204.46C227.076 204.172 225.905 203.763 224.783 203.24C223.599 202.892 222.45 202.435 221.349 201.875C222.601 201.92 223.831 202.212 224.969 202.733C226.172 203.095 227.294 203.681 228.279 204.46Z" fill="#263238"/>
<path d="M229.603 194.066C229.685 194.2 227.265 195.855 224.545 198.203C221.825 200.551 219.819 202.692 219.705 202.588C222.357 199.073 225.732 196.167 229.603 194.066Z" fill="#263238"/>
<path d="M297.408 264.943C297.408 265.088 276.589 266.308 250.867 267.663C225.145 269.018 204.326 269.99 204.326 269.845C204.326 269.7 225.135 268.48 250.867 267.125C276.599 265.77 297.398 264.767 297.408 264.943Z" fill="#263238"/>
<g opacity="0.3">
<path opacity="0.3" d="M316.593 168.137C315.948 166.14 315.953 163.99 316.607 161.996C317.261 160.002 318.531 158.267 320.234 157.04C320.936 156.468 321.834 156.194 322.737 156.275C322.957 156.306 323.167 156.385 323.355 156.504C323.543 156.623 323.703 156.781 323.825 156.966C323.947 157.152 324.028 157.362 324.064 157.581C324.099 157.801 324.087 158.025 324.029 158.24C323.725 158.729 323.282 159.118 322.757 159.357C321.189 160.432 320.005 161.979 319.375 163.773C318.749 165.556 318.313 167.4 318.072 169.275" fill="black"/>
</g>
<g opacity="0.3">
<path opacity="0.3" d="M222.28 135.486C222.477 136.034 226.179 136.458 226.872 137.989C227.441 139.588 227.463 141.331 226.934 142.943C226.399 144.539 226.144 146.215 226.179 147.897C226.49 150.897 228.951 153.162 231.247 155.137C237.66 160.618 245.468 166.514 251.88 172.006C246.151 165.221 238.683 158.24 232.375 151.931C231.371 151.087 230.571 150.026 230.037 148.828C229.659 147.207 229.76 145.511 230.327 143.946C230.865 141.83 231.409 139.709 231.961 137.586C232.095 137.038 232.406 136.117 232.478 135.817C231.713 135.683 230.938 135.617 230.161 135.621C227.539 135.421 224.905 135.403 222.28 135.569" fill="black"/>
</g>
<path d="M186.671 207.222C186.736 206.92 186.848 206.63 187.002 206.363C187.24 205.836 187.623 205.081 188.129 204.16C189.449 201.775 190.932 199.484 192.566 197.303C194.205 195.112 195.995 193.039 197.924 191.098C198.668 190.363 199.289 189.784 199.734 189.412C199.945 189.19 200.189 189.002 200.458 188.853C199.756 189.735 199.003 190.574 198.203 191.367C196.796 192.897 194.904 195.069 193.032 197.572C191.16 200.075 189.567 202.516 188.491 204.295C187.941 205.304 187.333 206.281 186.671 207.222Z" fill="#263238"/>
<path d="M194.335 181.603C194.397 181.665 193.208 182.813 191.429 184.799C186.781 189.978 183.018 195.887 180.29 202.288C179.256 204.739 178.697 206.311 178.614 206.28C178.662 205.892 178.756 205.51 178.894 205.143C179.1 204.429 179.452 203.395 179.928 202.143C182.486 195.61 186.295 189.637 191.139 184.561C192.07 183.599 192.846 182.844 193.414 182.348C193.69 182.063 193.999 181.813 194.335 181.603Z" fill="#263238"/>
<path d="M327.639 202.505C327.331 202.256 327.053 201.971 326.812 201.657L324.66 199.279C322.84 197.283 320.275 194.573 317.348 191.646C314.421 188.719 311.712 186.175 309.705 184.354L307.316 182.214C306.999 181.975 306.714 181.697 306.468 181.386C306.815 181.576 307.144 181.798 307.45 182.048C308.05 182.513 308.919 183.196 309.953 184.117C312.022 185.854 314.794 188.388 317.731 191.356C320.668 194.325 323.202 197.045 324.971 199.113C325.85 200.147 326.532 201.006 327.039 201.616C327.272 201.889 327.474 202.187 327.639 202.505Z" fill="#263238"/>
<path d="M198.761 195.08L205.536 198.73L220.563 203.002C220.563 203.002 217.461 223.563 215.506 225.311C213.551 227.059 191.594 208.597 191.594 208.597L198.761 195.08Z" fill="#FFBE9D"/>
<path d="M301.204 193.849L296.312 197.655L282.205 204.367C282.205 204.367 288.731 224.121 290.923 225.528C293.116 226.934 311.712 205.06 311.712 205.06L301.204 193.849Z" fill="#FFBE9D"/>
<path d="M231.806 45.5068C231.609 50.7918 224.566 53.998 224.649 59.2933C224.649 61.5687 226.097 63.6062 226.376 65.8608C226.738 68.8912 225.052 71.756 224.421 74.745C223.139 80.9505 226.717 87.3938 232.033 90.7655C237.349 94.1371 244.01 94.768 250.288 93.9096" fill="#263238"/>
<path d="M274.396 44.183C274.179 47.0272 276.061 49.5611 277.943 51.6916C279.826 53.8222 281.946 56.0458 282.349 58.859C283.073 63.8544 278.212 68.4982 279.195 73.4419C279.733 76.0895 281.905 78.2201 282.298 80.8988C282.691 83.5775 281.263 86.07 279.567 87.9937C277.871 89.9174 275.854 89.6795 274.334 91.7997C272.565 94.1939 270.318 96.1944 267.735 97.6742C262.254 100.674 255.676 96.3297 253.028 95.6058" fill="#263238"/>
<path d="M230.74 48.5269C230.668 45.9516 233.047 43.9658 235.446 43.0247C237.846 42.0835 240.514 41.7215 242.686 40.2839C244.579 39.0118 245.851 37.0157 247.454 35.3919C249.429 33.3899 251.9 31.9487 254.615 31.216C257.33 30.4833 260.191 30.4853 262.905 31.2219C265.619 31.9585 268.088 33.4032 270.06 35.4081C272.032 37.413 273.435 39.9059 274.127 42.6317C275.048 46.3032 274.427 50.6367 271.531 53.0775C268.18 55.901 263.195 55.2805 258.903 54.4014C254.611 53.5223 249.729 52.6432 246.14 55.1771C243.979 56.6974 242.738 59.1693 241.414 61.4653C240.09 63.7613 238.425 66.0987 235.922 66.9571C233.419 67.8156 230.027 66.3366 229.923 63.6889" fill="#263238"/>
<path d="M240.897 49.0543C239.824 49.1729 238.834 49.6887 238.122 50.5002C237.41 51.3117 237.027 52.3602 237.049 53.4395L239.625 111.699C239.728 118.576 249.781 122.434 257.134 122.269C264.571 122.093 264.808 118.452 264.902 111.926C265.057 101.005 265.046 96.8986 265.046 96.9606C265.046 97.0227 274.437 95.3782 276.361 83.1224C277.313 77.0203 276.982 67.0295 276.454 58.8693C275.968 51.4434 271.086 42.4041 263.733 43.2212L240.897 49.0543Z" fill="#FFBE9D"/>
<path d="M272.565 65.7988C272.568 66.2097 272.411 66.6057 272.128 66.903C271.844 67.2002 271.456 67.3754 271.045 67.3915C270.845 67.4056 270.645 67.38 270.455 67.3164C270.265 67.2527 270.09 67.1521 269.939 67.0205C269.788 66.8888 269.664 66.7286 269.576 66.5492C269.487 66.3697 269.434 66.1744 269.421 65.9746C269.418 65.5585 269.58 65.158 269.87 64.8599C270.16 64.5618 270.557 64.39 270.973 64.3819C271.372 64.3593 271.763 64.4957 272.062 64.7613C272.36 65.0269 272.541 65.3999 272.565 65.7988Z" fill="#263238"/>
<path d="M274.293 63.9992C274.106 64.2061 272.907 63.327 271.19 63.3373C269.473 63.3476 268.263 64.1854 268.087 63.9785C267.911 63.7717 268.19 63.5235 268.728 63.1304C269.46 62.6224 270.33 62.3517 271.221 62.3548C272.102 62.3435 272.962 62.6195 273.672 63.1408C274.22 63.5338 274.396 63.9061 274.293 63.9992Z" fill="#263238"/>
<path d="M256.152 65.7988C256.158 66.2088 256.003 66.6047 255.721 66.9023C255.439 67.1998 255.052 67.3754 254.642 67.3915C254.442 67.4056 254.242 67.38 254.052 67.3164C253.862 67.2527 253.686 67.1521 253.536 67.0205C253.385 66.8888 253.261 66.7286 253.172 66.5492C253.084 66.3697 253.031 66.1744 253.018 65.9746C253.015 65.5654 253.171 65.1709 253.452 64.8739C253.734 64.5769 254.119 64.4006 254.528 64.3819C254.728 64.365 254.93 64.3885 255.121 64.4511C255.312 64.5137 255.489 64.6141 255.64 64.7463C255.792 64.8785 255.915 65.0397 256.003 65.2206C256.091 65.4014 256.141 65.598 256.152 65.7988Z" fill="#263238"/>
<path d="M257.672 64.3508C257.476 64.5577 256.286 63.6786 254.569 63.6889C252.853 63.6993 251.643 64.537 251.467 64.3301C251.291 64.1233 251.581 63.8751 252.118 63.4821C252.849 62.9728 253.72 62.7019 254.611 62.7064C255.491 62.7011 256.349 62.9764 257.062 63.4924C257.589 63.8854 257.765 64.2577 257.672 64.3508Z" fill="#263238"/>
<path d="M263.836 76.8756C264.729 76.5969 265.653 76.4301 266.587 76.3791C267.011 76.3791 267.425 76.2447 267.498 75.9447C267.533 75.5011 267.432 75.0572 267.208 74.6726C266.794 73.6384 266.37 72.5317 265.925 71.3837C264.136 66.7089 262.823 62.8615 263.03 62.7891C263.236 62.7167 264.819 66.4504 266.608 71.1355C267.032 72.2835 267.446 73.3902 267.839 74.4347C268.111 74.9561 268.191 75.5563 268.066 76.1309C268.007 76.2856 267.911 76.4236 267.787 76.5334C267.662 76.6432 267.514 76.7215 267.353 76.7618C267.115 76.8332 266.867 76.868 266.618 76.8652C265.696 76.9954 264.76 76.9988 263.836 76.8756Z" fill="#263238"/>
<path d="M265.046 96.8882C259.279 96.988 253.596 95.4842 248.633 92.5444C248.767 92.5444 253.153 101.067 264.891 99.7841L265.046 96.8882Z" fill="#EB996E"/>
<path d="M263.133 80.9608C262.813 80.5548 262.393 80.2379 261.915 80.0406C261.437 79.8432 260.916 79.7719 260.403 79.8335C260.028 79.8654 259.665 79.9737 259.334 80.1515C259.003 80.3294 258.712 80.5732 258.479 80.8678C258.24 81.1542 258.1 81.5095 258.077 81.8816C258.055 82.2538 258.152 82.6233 258.355 82.9362C258.629 83.2344 258.986 83.4454 259.379 83.5428C259.773 83.6403 260.186 83.62 260.568 83.4844C261.362 83.185 262.087 82.7276 262.699 82.1399C262.885 82.0035 263.046 81.8355 263.174 81.6434C263.238 81.5505 263.272 81.4406 263.272 81.328C263.272 81.2154 263.238 81.1055 263.174 81.0125" fill="#E8505B"/>
<path d="M258.862 78.0546C259.141 78.0546 259.151 79.8749 260.723 81.1574C262.295 82.4398 264.25 82.2537 264.26 82.5122C264.271 82.7708 263.826 82.8639 262.999 82.8845C261.925 82.8957 260.882 82.5297 260.051 81.8503C259.254 81.1931 258.737 80.2579 258.603 79.2337C258.562 78.4993 258.737 78.0443 258.862 78.0546Z" fill="#263238"/>
<path d="M258.427 61.3825C258.262 61.848 256.576 61.6308 254.59 61.879C252.604 62.1272 251.001 62.665 250.743 62.2513C250.619 62.0548 250.898 61.6204 251.539 61.2171C252.403 60.6715 253.38 60.3286 254.395 60.214C255.411 60.0994 256.439 60.216 257.403 60.5551C258.127 60.8137 258.5 61.1654 258.427 61.3825Z" fill="#263238"/>
<path d="M273.662 59.1072C273.372 59.4899 272.203 59.1072 270.797 59.1072C269.39 59.1072 268.211 59.3761 267.942 58.9728C267.818 58.7762 268.004 58.3936 268.521 58.0316C269.216 57.5918 270.025 57.3687 270.847 57.3908C271.668 57.4129 272.465 57.6792 273.134 58.1557C273.631 58.5177 273.796 58.9521 273.662 59.1072Z" fill="#263238"/>
<path d="M235.715 90.0518C239.076 90.7345 239.376 89.0176 241.921 86.6802C243.169 85.498 244.124 84.0412 244.711 82.4255C245.298 80.8098 245.501 79.0796 245.303 77.372C244.93 74.3623 243.307 71.301 244.351 68.4568C245.727 64.6818 251.001 63.5234 252.408 59.7691C253.225 57.5868 252.491 55.0323 253.442 52.8914C254.394 50.7505 256.431 49.7162 258.489 48.9716C260.547 48.2269 262.761 47.7098 264.498 46.3653C266.236 45.0208 267.301 42.4765 266.184 40.5942C257.032 41.6946 248.044 43.8784 239.407 47.0996C237.411 47.8442 235.27 48.744 234.122 50.5229C232.974 52.3018 232.933 54.8358 233.088 57.0904C233.605 68.1224 234.119 79.1268 234.629 90.1036" fill="#263238"/>
<path d="M228 65.0541C227.807 63.0152 226.954 61.0949 225.57 59.5853C224.186 58.0756 222.347 57.0592 220.333 56.6904C218.318 56.3217 216.238 56.6209 214.409 57.5425C212.581 58.4641 211.103 59.9577 210.2 61.7962C208.504 65.2609 209.094 69.4703 210.676 72.9868C212.569 77.1238 216.437 80.9815 221.018 80.7746C225.331 80.5781 228.796 76.7928 230.037 72.6662C231.278 68.5395 230.782 64.1026 230.265 59.8208" fill="#263238"/>
<path d="M225.6 81.8399C225.341 81.6474 225.123 81.4047 224.959 81.1263C224.476 80.3877 224.165 79.55 224.049 78.6751C223.869 77.3889 223.904 76.0819 224.152 74.8071C224.411 73.3591 224.897 71.8491 225.249 70.246C225.64 68.7692 225.732 67.2288 225.517 65.716C225.259 64.3508 224.618 63.1925 224.338 62.1065C224.063 61.2594 224.038 60.3509 224.266 59.4899C224.463 58.89 224.721 58.6314 224.742 58.6521C224.762 58.6728 224.587 58.9624 224.473 59.5416C224.338 60.3681 224.416 61.2154 224.7 62.0031C225.209 63.1816 225.644 64.3906 226.004 65.6229C226.257 67.1902 226.179 68.7932 225.776 70.3288C225.414 71.9732 224.907 73.4315 224.649 74.8588C224.384 76.0882 224.311 77.351 224.432 78.6027C224.57 79.7567 224.969 80.8639 225.6 81.8399Z" fill="#455A64"/>
<path d="M225.466 67.1226C224.981 67.8672 224.339 68.4958 223.583 68.9636C221.82 70.2131 219.721 70.9013 217.56 70.9382C215.399 70.9751 213.277 70.359 211.472 69.1704C210.702 68.7308 210.038 68.127 209.528 67.4019C209.6 67.3295 210.304 68.0534 211.669 68.8498C213.449 69.901 215.485 70.4382 217.552 70.4017C219.619 70.3652 221.635 69.7564 223.377 68.643C224.68 67.8052 225.362 67.0606 225.466 67.1226Z" fill="#455A64"/>
<path d="M224.814 69.0463C224.598 69.7489 224.247 70.4024 223.78 70.97C222.726 72.4031 221.398 73.6127 219.873 74.5288C218.348 75.4449 216.656 76.0492 214.896 76.3067C214.175 76.443 213.435 76.443 212.713 76.3067C213.412 76.137 214.12 76.0058 214.834 75.9137C216.513 75.5537 218.123 74.9251 219.602 74.0521C221.069 73.1596 222.38 72.0309 223.48 70.7115C223.895 70.1331 224.34 69.5773 224.814 69.0463Z" fill="#455A64"/>
<path d="M227.907 85.9459C227.852 85.9031 227.807 85.8505 227.772 85.7908C227.645 85.6383 227.531 85.4757 227.431 85.3047C227.036 84.6411 226.763 83.9127 226.624 83.1534C226.393 81.9489 226.46 80.706 226.821 79.5336C227.286 77.9585 228.298 76.6014 229.675 75.7069C231.123 74.6726 233.016 73.959 234.226 72.3352C234.529 71.9257 234.744 71.458 234.858 70.9615C234.972 70.465 234.982 69.9503 234.888 69.4497C234.652 68.3588 234.306 67.2949 233.854 66.2745C233.372 65.1113 233.138 63.8608 233.164 62.6022C233.191 61.3436 233.478 60.1042 234.009 58.9624C234.565 57.7376 235.418 56.6711 236.491 55.8597C237.623 55.0814 238.905 54.5494 240.255 54.298C241.579 53.998 242.903 53.8222 244.134 53.4499C245.335 53.1495 246.441 52.552 247.35 51.7123C248.168 50.829 248.664 49.6958 248.757 48.4958C248.877 47.2991 249.07 46.111 249.336 44.938C249.885 42.7365 251.03 40.7289 252.646 39.1359C254.066 37.7695 255.871 36.8708 257.817 36.5606C259.432 36.2921 261.09 36.5419 262.554 37.2743C263.648 37.8261 264.59 38.6397 265.295 39.6427C265.737 40.2689 266.062 40.9696 266.256 41.7112C266.326 41.9715 266.367 42.2385 266.381 42.5076C266.142 41.5194 265.717 40.5857 265.129 39.7565C264.419 38.8071 263.489 38.0441 262.419 37.5328C261.007 36.8587 259.419 36.6453 257.879 36.9226C256.011 37.2439 254.283 38.1237 252.925 39.4462C251.397 40.9951 250.323 42.9342 249.822 45.0518C249.559 46.2099 249.376 47.3849 249.274 48.5682C249.16 49.8747 248.619 51.1071 247.733 52.0743C246.753 52.9952 245.559 53.6565 244.258 53.998C242.965 54.3807 241.641 54.5565 240.338 54.8565C239.062 55.088 237.849 55.5886 236.78 56.3251C235.776 57.0732 234.976 58.0619 234.453 59.2003C233.95 60.2798 233.676 61.4518 233.647 62.6425C233.619 63.8333 233.837 65.017 234.288 66.1194C234.745 67.1772 235.092 68.2793 235.322 69.4083C235.42 69.9674 235.401 70.5405 235.268 71.092C235.134 71.6436 234.889 72.1618 234.546 72.6145C233.212 74.3727 231.268 75.0553 229.851 76.0378C228.543 76.8784 227.573 78.1526 227.11 79.637C226.737 80.7628 226.642 81.962 226.831 83.1328C227.009 84.1299 227.374 85.0845 227.907 85.9459Z" fill="#455A64"/>
<path d="M228.724 51.7124C228.633 51.5393 228.58 51.3489 228.568 51.1539C228.525 50.5786 228.67 50.0048 228.982 49.5198C229.467 48.7448 230.194 48.152 231.051 47.8339C232.189 47.4671 233.406 47.4241 234.567 47.7098C235.85 47.958 237.184 48.4648 238.642 48.7441C239.388 48.948 240.168 48.9907 240.931 48.8695C241.694 48.7482 242.423 48.4657 243.069 48.0408C244.372 47.0582 245.034 45.3414 245.696 43.6349C246.364 41.8118 247.321 40.1077 248.529 38.5878C250.872 35.6008 254.15 33.488 257.838 32.5891C259.452 32.2136 261.136 32.2563 262.73 32.7132C264.121 33.1297 265.366 33.9332 266.318 35.03C267.078 35.948 267.533 37.0791 267.622 38.2671C267.701 39.1625 267.563 40.0639 267.218 40.8941C267.004 41.4175 266.692 41.895 266.298 42.3007C266.168 42.447 266.014 42.5695 265.843 42.6627C266.351 42.131 266.751 41.5059 267.022 40.8217C267.364 39.8885 267.449 38.8802 267.267 37.9028C267.085 36.9255 266.643 36.0153 265.988 35.2678C265.071 34.2478 263.884 33.509 262.564 33.1373C261.041 32.7135 259.435 32.6886 257.9 33.0649C254.353 33.9749 251.205 36.0287 248.943 38.9084C247.754 40.3965 246.811 42.0656 246.151 43.8521C245.468 45.5379 244.796 47.3478 243.327 48.4648C242.622 48.988 241.783 49.3001 240.907 49.3646C240.107 49.4256 239.302 49.3699 238.518 49.1991C236.998 48.8889 235.694 48.3511 234.443 48.0925C233.354 47.7891 232.202 47.7891 231.113 48.0925C230.314 48.39 229.629 48.9331 229.158 49.6439C228.849 50.0866 228.682 50.6137 228.682 51.1539C228.682 51.5262 228.755 51.7124 228.724 51.7124Z" fill="#455A64"/>
<path d="M399.105 461.14C399.152 460.997 399.211 460.859 399.281 460.726C399.416 460.426 399.602 460.023 399.85 459.516C400.537 457.951 401.094 456.332 401.515 454.675C402.841 448.518 402.792 442.144 401.37 436.007C400.489 431.755 399.332 427.564 397.906 423.462C396.437 419.004 394.741 414.288 393.345 409.179C391.772 403.849 391.012 398.312 391.09 392.755C391.307 386.953 393.024 381.151 394.917 375.38C396.809 369.609 398.754 363.951 399.343 358.273C400.004 352.81 398.918 347.278 396.24 342.47C393.738 337.857 390.594 333.917 388.235 329.832C386.034 326.043 384.41 321.947 383.416 317.679C382.001 311.491 381.899 305.075 383.116 298.846C383.551 296.573 384.209 294.349 385.081 292.206C385.054 292.353 385.016 292.498 384.967 292.64C384.864 292.961 384.729 293.385 384.564 293.923C384.071 295.558 383.664 297.219 383.343 298.897C382.221 305.091 382.386 311.449 383.83 317.576C384.838 321.791 386.466 325.834 388.659 329.573C391.018 333.617 394.172 337.537 396.727 342.212C399.481 347.11 400.614 352.754 399.964 358.335C399.374 364.107 397.409 369.795 395.527 375.566C393.645 381.337 391.938 387.077 391.721 392.786C391.636 398.282 392.379 403.759 393.924 409.034C395.289 414.112 397.027 418.839 398.423 423.307C399.833 427.433 400.97 431.648 401.825 435.925C403.408 443.785 402.963 450.404 401.774 454.738C401.333 456.4 400.738 458.017 399.995 459.567L399.374 460.747C399.299 460.887 399.209 461.019 399.105 461.14Z" fill="#263238"/>
<path d="M391.39 333.855C391.39 333.855 386.612 318.558 395.196 309.591C395.263 309.518 395.349 309.465 395.444 309.439C395.539 309.412 395.64 309.413 395.735 309.441C395.83 309.469 395.915 309.523 395.981 309.597C396.046 309.671 396.09 309.763 396.106 309.86C396.561 312.342 397.151 320.079 391.39 333.855Z" fill="#E8505B"/>
<path d="M394.265 314.69C394.243 315.64 394.132 316.585 393.934 317.514C393.624 319.458 393.252 321.744 392.848 324.267L391.814 331.021C391.736 331.966 391.566 332.901 391.307 333.813C391.23 332.865 391.261 331.911 391.4 330.969C391.555 329.221 391.866 326.832 392.3 324.174C392.734 321.516 393.189 319.158 393.562 317.441C393.691 316.501 393.927 315.578 394.265 314.69Z" fill="#263238"/>
<path d="M397.016 369.95C397.016 369.95 399.943 354.188 411.723 350.299C411.816 350.268 411.916 350.262 412.011 350.284C412.107 350.306 412.194 350.354 412.264 350.423C412.334 350.491 412.383 350.578 412.406 350.673C412.429 350.768 412.426 350.868 412.395 350.961C411.63 353.381 408.527 360.456 397.016 369.95Z" fill="#E8505B"/>
<path d="M408.527 354.354C408.078 355.191 407.54 355.978 406.924 356.701L402.787 362.152C401.246 364.22 399.86 366.041 398.65 367.613C398.138 368.413 397.55 369.161 396.892 369.847C397.263 368.971 397.735 368.141 398.299 367.375C399.261 365.906 400.657 363.92 402.281 361.79C403.904 359.659 405.383 357.777 406.542 356.432C407.124 355.668 407.791 354.971 408.527 354.354Z" fill="#263238"/>
<path d="M393.831 409.5C393.831 409.5 392.052 393.562 402.187 386.405C402.268 386.348 402.362 386.315 402.46 386.308C402.558 386.301 402.656 386.321 402.743 386.366C402.83 386.41 402.904 386.478 402.955 386.562C403.007 386.645 403.035 386.741 403.036 386.839C403.004 389.404 402.094 397.068 393.831 409.5Z" fill="#E8505B"/>
<path d="M400.305 391.235C400.105 392.163 399.817 393.07 399.447 393.945L397.089 400.357C396.209 402.756 395.423 404.928 394.751 406.78C394.486 407.691 394.14 408.577 393.717 409.427C393.819 408.479 394.03 407.545 394.348 406.645C394.834 404.959 395.599 402.663 396.53 400.15C397.461 397.637 398.361 395.392 399.054 393.789C399.37 392.892 399.79 392.034 400.305 391.235Z" fill="#263238"/>
<path d="M402.705 449.277C402.705 449.277 401.494 433.287 411.889 426.523C411.97 426.47 412.064 426.44 412.162 426.437C412.259 426.433 412.355 426.457 412.44 426.505C412.524 426.554 412.594 426.624 412.641 426.71C412.688 426.795 412.71 426.892 412.706 426.989C412.582 429.523 411.403 437.155 402.705 449.277Z" fill="#E8505B"/>
<path d="M409.82 431.281C409.601 432.205 409.282 433.104 408.869 433.96C408.124 435.79 407.255 437.931 406.283 440.289C405.311 442.647 404.452 444.798 403.718 446.629C403.425 447.531 403.047 448.404 402.591 449.235C402.725 448.293 402.968 447.37 403.315 446.484C403.873 444.809 404.711 442.533 405.735 440.062C406.759 437.59 407.731 435.376 408.486 433.794C408.838 432.91 409.286 432.068 409.82 431.281Z" fill="#263238"/>
<path d="M384.512 320.41C384.512 320.41 370.302 312.994 370.033 300.583C370.029 300.485 370.052 300.388 370.1 300.302C370.149 300.217 370.22 300.147 370.306 300.099C370.392 300.052 370.489 300.03 370.587 300.035C370.685 300.04 370.779 300.072 370.86 300.128C372.97 301.586 378.824 306.623 384.512 320.41Z" fill="#E8505B"/>
<path d="M372.98 304.844C373.638 305.528 374.23 306.273 374.749 307.068C375.897 308.671 377.262 310.543 378.751 312.611L382.775 318.134C383.384 318.864 383.927 319.646 384.398 320.472C383.663 319.866 383.007 319.171 382.444 318.403C381.316 317.059 379.827 315.145 378.307 312.973C376.786 310.801 375.39 308.836 374.439 307.316C373.854 306.554 373.364 305.724 372.98 304.844Z" fill="#263238"/>
<path d="M399.778 353.278C399.778 353.278 385.143 346.731 384.109 334.362C384.102 334.265 384.122 334.169 384.166 334.083C384.209 333.997 384.275 333.924 384.357 333.872C384.438 333.82 384.532 333.791 384.629 333.788C384.725 333.785 384.821 333.808 384.905 333.855C387.108 335.189 393.252 339.853 399.778 353.278Z" fill="#E8505B"/>
<path d="M387.315 338.437C388.011 339.067 388.648 339.759 389.218 340.505L393.551 345.8L397.895 351.065C398.555 351.749 399.144 352.497 399.654 353.299C398.892 352.732 398.198 352.079 397.585 351.354C396.375 350.072 394.782 348.252 393.086 346.183C391.39 344.115 389.911 342.232 388.877 340.815C388.268 340.084 387.744 339.286 387.315 338.437Z" fill="#263238"/>
<path d="M391.359 389.911C391.359 389.911 381.306 377.417 386.022 365.947C386.057 365.855 386.117 365.775 386.195 365.715C386.273 365.655 386.366 365.618 386.464 365.609C386.562 365.599 386.66 365.617 386.749 365.66C386.837 365.704 386.911 365.771 386.963 365.854C388.318 368.057 391.659 375.018 391.359 389.911Z" fill="#E8505B"/>
<path d="M387.015 371.046C387.353 371.936 387.599 372.858 387.749 373.797C388.163 375.721 388.66 377.934 389.197 380.479C389.735 383.023 390.232 385.226 390.676 387.15C390.94 388.059 391.124 388.99 391.224 389.932C390.797 389.081 390.474 388.182 390.263 387.253C389.766 385.567 389.228 383.219 388.618 380.603C388.008 377.986 387.584 375.607 387.336 373.88C387.124 372.95 387.017 372 387.015 371.046Z" fill="#263238"/>
<path d="M401.288 433.07C401.288 433.07 386.808 426.285 385.939 413.906C385.93 413.807 385.948 413.708 385.992 413.62C386.036 413.532 386.104 413.458 386.188 413.406C386.272 413.354 386.369 413.327 386.467 413.328C386.566 413.328 386.663 413.356 386.746 413.409C388.949 414.733 395.01 419.542 401.288 433.07Z" fill="#E8505B"/>
<path d="M389.094 418.032C389.793 418.676 390.421 419.394 390.966 420.173L395.206 425.53L399.467 430.877C400.113 431.573 400.691 432.328 401.195 433.132C400.424 432.56 399.729 431.893 399.126 431.146C397.947 429.854 396.375 428.044 394.72 425.903C393.065 423.762 391.617 421.859 390.583 420.432C390.003 419.687 389.503 418.883 389.094 418.032Z" fill="#263238"/>
<path d="M430.247 370.033C430.247 370.033 430.247 370.157 430.247 370.384C430.247 370.612 430.247 371.005 430.247 371.419C430.247 372.381 430.143 373.673 430.071 375.297L429.316 389.187C428.282 394.989 425.324 401.422 421.352 407.659C418.446 412.261 415.395 416.439 412.757 420.328C410.369 423.728 408.216 427.287 406.314 430.981C405.073 433.489 404.065 436.107 403.304 438.8C403.046 439.762 402.86 440.506 402.746 441.013C402.699 441.278 402.626 441.538 402.529 441.789C402.539 441.521 402.57 441.255 402.622 440.992C402.694 440.475 402.86 439.71 403.077 438.738C403.756 436 404.713 433.339 405.931 430.795C407.794 427.055 409.924 423.453 412.302 420.018C414.919 416.108 417.949 411.92 420.845 407.338C424.796 401.133 427.733 394.793 428.809 389.094C429.212 383.395 429.543 378.638 429.781 375.225C429.916 373.601 430.019 372.298 430.102 371.346C430.102 370.933 430.174 370.602 430.195 370.312C430.204 370.218 430.222 370.124 430.247 370.033Z" fill="#263238"/>
<path d="M421.59 406.459C421.59 406.459 427.744 391.648 420.008 381.947C419.946 381.872 419.865 381.815 419.773 381.782C419.681 381.749 419.582 381.742 419.486 381.761C419.391 381.78 419.302 381.825 419.23 381.89C419.158 381.956 419.105 382.04 419.077 382.133C418.394 384.647 417.122 392.259 421.59 406.459Z" fill="#E8505B"/>
<path d="M420.473 387.16C420.729 388.057 420.885 388.98 420.938 389.911C421.156 391.659 421.404 394.048 421.59 396.737C421.776 399.426 421.869 401.825 421.869 403.584C421.925 404.532 421.87 405.483 421.704 406.418C421.524 405.487 421.437 404.541 421.445 403.594C421.321 401.629 421.166 399.323 420.99 396.778C420.814 394.234 420.659 391.917 420.514 389.952C420.409 389.025 420.395 388.09 420.473 387.16Z" fill="#263238"/>
<g opacity="0.3">
<path opacity="0.3" d="M421.59 406.459C421.59 406.459 427.744 391.648 420.008 381.947C419.946 381.872 419.865 381.815 419.773 381.782C419.681 381.749 419.582 381.742 419.486 381.761C419.391 381.78 419.302 381.825 419.23 381.89C419.158 381.956 419.105 382.04 419.077 382.133C418.394 384.647 417.122 392.259 421.59 406.459Z" fill="black"/>
</g>
<path d="M402.539 442.182C402.539 442.182 407.472 426.927 398.971 417.887C398.906 417.814 398.821 417.761 398.727 417.733C398.633 417.706 398.534 417.705 398.439 417.73C398.345 417.756 398.259 417.808 398.192 417.879C398.126 417.951 398.08 418.04 398.061 418.136C397.575 420.659 396.933 428.354 402.539 442.182Z" fill="#E8505B"/>
<path d="M399.85 423.007C400.192 423.897 400.432 424.824 400.564 425.768C400.926 427.485 401.36 429.905 401.774 432.501C402.187 435.097 402.467 437.559 402.611 439.307C402.746 440.249 402.764 441.204 402.663 442.151C402.424 441.235 402.265 440.301 402.187 439.358C401.898 437.414 401.557 435.118 401.153 432.594C400.75 430.071 400.429 427.785 400.119 425.841C399.943 424.906 399.853 423.958 399.85 423.007Z" fill="#263238"/>
<g opacity="0.3">
<path opacity="0.3" d="M402.539 442.182C402.539 442.182 407.472 426.927 398.971 417.887C398.906 417.814 398.821 417.761 398.727 417.733C398.633 417.706 398.534 417.705 398.439 417.73C398.345 417.756 398.259 417.808 398.192 417.879C398.126 417.951 398.08 418.04 398.061 418.136C397.575 420.659 396.933 428.354 402.539 442.182Z" fill="black"/>
</g>
<path d="M429.43 388.401C429.43 388.401 442.564 379.207 441.241 366.868C441.229 366.77 441.191 366.678 441.131 366.6C441.071 366.523 440.991 366.463 440.899 366.428C440.807 366.393 440.708 366.384 440.611 366.401C440.515 366.418 440.425 366.462 440.351 366.527C438.448 368.244 433.349 373.994 429.43 388.401Z" fill="#E8505B"/>
<g opacity="0.3">
<path opacity="0.3" d="M429.43 388.401C429.43 388.401 442.564 379.207 441.241 366.868C441.229 366.77 441.191 366.678 441.131 366.6C441.071 366.523 440.991 366.463 440.899 366.428C440.807 366.393 440.708 366.384 440.611 366.401C440.515 366.418 440.425 366.462 440.351 366.527C438.448 368.244 433.349 373.994 429.43 388.401Z" fill="black"/>
</g>
<path d="M438.862 371.481C438.595 372.394 438.227 373.275 437.766 374.108C437.021 375.69 435.935 377.852 434.663 380.21C433.391 382.568 432.17 384.657 431.229 386.136C430.762 386.967 430.2 387.741 429.554 388.442C429.909 387.562 430.345 386.718 430.857 385.919L434.135 379.92C435.345 377.676 436.452 375.649 437.393 373.911C437.8 373.054 438.292 372.24 438.862 371.481Z" fill="#263238"/>
<path d="M407.834 427.051C407.834 427.051 423.679 424.589 427.919 412.923C427.953 412.832 427.961 412.734 427.943 412.639C427.924 412.544 427.88 412.456 427.815 412.384C427.75 412.313 427.666 412.261 427.573 412.233C427.481 412.206 427.382 412.205 427.289 412.23C424.817 412.933 417.66 415.819 407.834 427.051Z" fill="#E8505B"/>
<g opacity="0.3">
<path opacity="0.3" d="M407.834 427.051C407.834 427.051 423.679 424.589 427.919 412.923C427.953 412.832 427.961 412.734 427.943 412.639C427.924 412.544 427.88 412.456 427.815 412.384C427.75 412.313 427.666 412.261 427.573 412.233C427.481 412.206 427.382 412.205 427.289 412.23C424.817 412.933 417.66 415.819 407.834 427.051Z" fill="black"/>
</g>
<path d="M423.762 416.015C423.121 416.718 422.403 417.346 421.621 417.887C420.256 418.984 418.322 420.452 416.15 422.024C413.978 423.596 411.951 424.92 410.451 425.83C409.671 426.376 408.827 426.825 407.938 427.164C408.645 426.536 409.406 425.972 410.213 425.479L415.798 421.538C417.867 420.049 419.759 418.715 421.373 417.577C422.111 416.973 422.912 416.45 423.762 416.015Z" fill="#263238"/>
<path d="M392.724 456.206L388.101 487.316H416.905L413.171 456.206H392.724Z" fill="#455A64"/>
<path d="M414.319 465.845C410.455 466.145 406.579 466.245 402.705 466.145C398.83 466.245 394.954 466.145 391.09 465.845C394.954 465.546 398.83 465.446 402.705 465.545C406.579 465.446 410.455 465.546 414.319 465.845Z" fill="#263238"/>
<path d="M414.888 468.317C414.888 468.493 409.52 468.617 402.901 468.617C396.282 468.617 390.945 468.514 390.945 468.317C390.945 468.121 396.313 468.017 402.942 468.017C409.572 468.017 414.888 468.152 414.888 468.317Z" fill="#263238"/>
<path d="M49.7266 430.536C51.1821 430.784 52.5729 431.322 53.8166 432.118C55.0602 432.914 56.1313 433.952 56.9663 435.17C58.6122 437.631 59.6735 440.437 60.0691 443.371C61.0102 448.997 59.4899 455.389 57.4007 460.705C51.7123 458.016 48.6096 451.325 47.3064 447.829C45.1862 442.316 44.7208 431.064 49.7266 430.536Z" fill="#E8505B"/>
<path d="M65.9022 468.628C65.0378 467.218 64.5624 465.604 64.5242 463.951C64.4861 462.298 64.8866 460.664 65.685 459.216C66.5037 457.781 67.6005 456.525 68.9112 455.519C70.2218 454.514 71.72 453.781 73.3177 453.362C74.0325 453.091 74.7975 452.979 75.5599 453.032C76.3223 453.086 77.0641 453.304 77.734 453.672C78.2897 454.121 78.7173 454.708 78.9734 455.374C79.2294 456.041 79.3049 456.763 79.1923 457.468C78.9345 458.874 78.3101 460.187 77.3823 461.274C74.3933 465.142 70.7838 468.328 65.9022 468.617" fill="#E8505B"/>
<path d="M64.4542 486.468C64.3357 486.082 64.2696 485.682 64.2577 485.279C64.1853 484.513 64.0819 483.407 64.0095 482.031C63.7482 478.429 63.9673 474.809 64.6611 471.265C65.4012 467.691 67.0912 464.382 69.5531 461.688C70.3128 460.896 71.1674 460.201 72.0973 459.619C72.4113 459.386 72.7604 459.205 73.1316 459.081C71.959 459.968 70.8592 460.947 69.8427 462.008C67.5487 464.716 65.9699 467.955 65.2506 471.43C64.5707 474.921 64.2931 478.478 64.4232 482.031C64.5219 483.508 64.5323 484.99 64.4542 486.468Z" fill="#263238"/>
<path d="M51.0608 439.079C51.354 439.671 51.5963 440.287 51.7847 440.92C52.2088 442.12 52.819 443.868 53.5016 446.029C54.9185 450.352 56.7698 456.372 58.6728 463.032C60.5758 469.693 62.1065 475.805 63.1614 480.232C63.6889 482.445 64.0923 484.245 64.3612 485.486C64.5273 486.127 64.6415 486.781 64.7025 487.44C64.4549 486.827 64.2577 486.194 64.113 485.548C63.7613 484.214 63.2856 482.445 62.7271 480.377C61.5584 475.981 59.9346 469.92 58.0626 463.239C56.1906 456.558 54.391 450.549 53.0982 446.195L51.5675 441.023C51.3447 440.391 51.1752 439.74 51.0608 439.079Z" fill="#263238"/>
<path d="M58.2591 473.985C56.8245 470.808 54.6543 468.018 51.9279 465.845C49.2015 463.673 45.9973 462.18 42.5799 461.491C40.8424 461.16 38.7015 461.212 37.7293 462.691C36.7571 464.17 37.5949 466.166 38.6395 467.604C40.8705 470.561 43.9279 472.79 47.4254 474.011C50.9229 475.231 54.7037 475.388 58.2901 474.461" fill="#E8505B"/>
<path d="M44.4726 466.497C44.8553 466.482 45.2381 466.52 45.6103 466.611C46.0576 466.673 46.5 466.766 46.9341 466.89C47.5125 467.029 48.0823 467.202 48.6406 467.407C50.1099 467.918 51.5237 468.576 52.8603 469.372C54.4927 470.366 56.0147 471.531 57.4007 472.847C58.7626 474.185 59.9762 475.666 61.0205 477.263C61.8443 478.571 62.5371 479.957 63.089 481.4C63.3476 482.011 63.4924 482.59 63.6579 483.097C63.7931 483.524 63.9002 483.959 63.9785 484.4C64.0798 484.771 64.132 485.153 64.1336 485.537C64.0095 485.537 63.6992 483.965 62.665 481.566C62.0609 480.17 61.3341 478.831 60.4931 477.563C59.4424 476.026 58.2476 474.592 56.9249 473.282C55.5732 472.002 54.1012 470.855 52.5294 469.858C51.2348 469.05 49.8711 468.358 48.4544 467.79C46.0757 466.88 44.4726 466.621 44.4726 466.497Z" fill="#263238"/>
<path d="M343.163 90.3725C343.163 90.6724 345.407 90.9206 348.169 90.9206C350.93 90.9206 353.175 90.6724 353.175 90.3725C353.175 90.0726 350.93 89.814 348.169 89.814C345.407 89.814 343.163 90.0622 343.163 90.3725Z" fill="#E8505B"/>
<path d="M337.847 76.7411C337.537 76.7411 337.289 79.0165 337.289 81.8296C337.289 84.6428 337.537 86.9078 337.847 86.9078C338.157 86.9078 338.395 84.6324 338.395 81.8296C338.395 79.0268 338.199 76.7411 337.847 76.7411Z" fill="#E8505B"/>
<path d="M332.179 90.0415C332.179 89.7313 329.935 89.483 327.174 89.483C324.412 89.483 322.157 89.7313 322.157 90.0415C322.157 90.3518 324.402 90.6 327.174 90.6C329.945 90.6 332.179 90.3518 332.179 90.0415Z" fill="#E8505B"/>
<path d="M337.495 103.663C337.806 103.663 338.054 101.387 338.054 98.5844C338.054 95.7816 337.806 93.5063 337.495 93.5063C337.185 93.5063 336.947 95.7816 336.947 98.5844C336.947 101.387 337.164 103.663 337.495 103.663Z" fill="#E8505B"/>
<path d="M329.397 97.8191C329.635 98.0156 330.628 97.2192 331.611 96.0402C332.593 94.8611 333.193 93.7545 332.965 93.558C332.738 93.3614 331.745 94.1578 330.752 95.3369C329.759 96.5159 329.17 97.6225 329.397 97.8191Z" fill="#E8505B"/>
<path d="M329.925 82.3674C329.707 82.5846 330.359 83.5982 331.373 84.6221C332.386 85.646 333.441 86.3182 333.617 86.1011C333.793 85.8839 333.183 84.8806 332.159 83.8464C331.135 82.8121 330.09 82.1606 329.925 82.3674Z" fill="#E8505B"/>
<path d="M341.353 86.3079C341.55 86.5458 342.491 86.0804 343.422 85.2737C344.352 84.467 345.025 83.6189 344.828 83.381C344.632 83.1431 343.69 83.6085 342.76 84.4153C341.829 85.222 341.157 86.07 341.353 86.3079Z" fill="#E8505B"/>
<path d="M341.798 93.0822C341.57 93.2891 342.139 94.2819 343.07 95.3058C344.001 96.3298 344.932 96.971 345.138 96.7641C345.345 96.5573 344.797 95.5747 343.866 94.5508C342.936 93.5269 342.025 92.9064 341.798 93.0822Z" fill="#E8505B"/>
<path d="M95.6575 209.807C96.5707 210.121 97.5416 210.23 98.5016 210.128C99.4617 210.23 100.433 210.121 101.346 209.807C100.43 209.506 99.461 209.401 98.5016 209.497C97.5423 209.401 96.5734 209.506 95.6575 209.807Z" fill="#E8505B"/>
<path d="M92.6375 202.081C92.2239 203.979 92.2239 205.944 92.6375 207.842C93.0511 205.944 93.0511 203.979 92.6375 202.081Z" fill="#E8505B"/>
<path d="M89.421 209.631C88.5078 209.318 87.5369 209.208 86.5768 209.311C85.6167 209.208 84.6458 209.318 83.7326 209.631C84.6486 209.933 85.6175 210.038 86.5768 209.942C87.5361 210.038 88.505 209.933 89.421 209.631Z" fill="#E8505B"/>
<path d="M92.4409 217.357C92.8548 215.456 92.8548 213.488 92.4409 211.586C92.0271 213.488 92.0271 215.456 92.4409 217.357Z" fill="#E8505B"/>
<path d="M87.8489 214.089C87.9833 214.192 88.5418 213.748 89.1003 213.055C89.6588 212.362 90.0001 211.752 89.8657 211.648C89.7312 211.545 89.1727 211.979 88.6142 212.682C88.0557 213.386 87.7144 213.934 87.8489 214.089Z" fill="#E8505B"/>
<path d="M88.1075 205.277C87.9834 205.391 88.3557 205.97 88.9349 206.549C89.5141 207.129 90.0829 207.511 90.207 207.387C90.3311 207.263 89.9588 206.694 89.3796 206.105C88.8004 205.515 88.2316 205.153 88.1075 205.277Z" fill="#E8505B"/>
<path d="M94.6232 207.511C94.737 207.635 95.2748 207.377 95.8333 206.922C96.3918 206.467 96.7331 205.981 96.6296 205.887C96.5262 205.794 95.9781 206.012 95.4299 206.477C94.8818 206.942 94.5198 207.377 94.6232 207.511Z" fill="#E8505B"/>
<path d="M94.8818 211.369C94.7577 211.493 95.0783 212.052 95.6057 212.631C96.1332 213.21 96.64 213.582 96.7848 213.468C96.9296 213.355 96.5986 212.786 96.0711 212.207C95.5437 211.628 95.0162 211.255 94.8818 211.369Z" fill="#E8505B"/>
<path d="M348.324 271.117C350.198 271.531 352.139 271.531 354.012 271.117C352.139 270.704 350.198 270.704 348.324 271.117Z" fill="#E8505B"/>
<path d="M345.304 263.381C344.89 265.283 344.89 267.251 345.304 269.152C345.718 267.251 345.718 265.283 345.304 263.381Z" fill="#E8505B"/>
<path d="M342.087 270.973C340.214 270.559 338.273 270.559 336.399 270.973C338.271 271.4 340.215 271.4 342.087 270.973Z" fill="#E8505B"/>
<path d="M345.107 278.667C345.521 276.766 345.521 274.798 345.107 272.896C344.694 274.798 344.694 276.766 345.107 278.667Z" fill="#E8505B"/>
<path d="M340.515 275.347C340.65 275.461 341.208 275.006 341.767 274.313C342.325 273.62 342.667 273.01 342.532 272.896C342.398 272.782 341.839 273.238 341.281 273.931C340.722 274.623 340.381 275.234 340.515 275.347Z" fill="#E8505B"/>
<path d="M340.774 266.577C340.65 266.701 341.022 267.27 341.601 267.86C342.181 268.449 342.749 268.821 342.873 268.697C342.998 268.573 342.625 268.004 342.046 267.415C341.467 266.825 340.898 266.453 340.774 266.577Z" fill="#E8505B"/>
<path d="M347.3 268.811C347.403 268.946 347.941 268.687 348.5 268.222C349.058 267.756 349.41 267.28 349.296 267.187C349.182 267.094 348.645 267.322 348.096 267.777C347.548 268.232 347.186 268.677 347.3 268.811Z" fill="#E8505B"/>
<path d="M347.507 272.679C347.383 272.793 347.703 273.362 348.231 273.941C348.758 274.52 349.265 274.882 349.41 274.768C349.555 274.655 349.224 274.086 348.696 273.517C348.169 272.948 347.683 272.565 347.507 272.679Z" fill="#E8505B"/>
<path d="M139.148 431.281C141.02 431.708 142.964 431.708 144.836 431.281C142.962 430.867 141.021 430.867 139.148 431.281Z" fill="#E8505B"/>
<path d="M136.128 423.545C135.714 425.443 135.714 427.407 136.128 429.305C136.555 427.409 136.555 425.441 136.128 423.545Z" fill="#E8505B"/>
<path d="M132.921 431.084C132.005 430.784 131.036 430.679 130.077 430.774C129.118 430.678 128.149 430.783 127.233 431.084C128.146 431.398 129.117 431.507 130.077 431.405C131.037 431.506 132.008 431.397 132.921 431.084Z" fill="#E8505B"/>
<path d="M135.931 438.82C136.359 436.921 136.359 434.949 135.931 433.049C135.517 434.951 135.517 436.919 135.931 438.82Z" fill="#E8505B"/>
<path d="M131.349 435.511C131.484 435.614 132.042 435.17 132.601 434.477C133.159 433.784 133.501 433.174 133.376 433.06C133.252 432.946 132.673 433.401 132.125 434.094C131.577 434.787 131.204 435.418 131.349 435.511Z" fill="#E8505B"/>
<path d="M131.608 426.73C131.484 426.854 131.856 427.433 132.435 428.013C133.014 428.592 133.583 428.974 133.707 428.85C133.832 428.726 133.459 428.157 132.88 427.568C132.301 426.978 131.732 426.616 131.608 426.73Z" fill="#E8505B"/>
<path d="M138.124 428.974C138.237 429.099 138.775 428.84 139.323 428.385C139.872 427.93 140.234 427.444 140.12 427.351C140.006 427.258 139.479 427.475 138.92 427.94C138.362 428.406 138.01 428.84 138.124 428.974Z" fill="#E8505B"/>
<path d="M138.382 432.832C138.248 432.956 138.568 433.515 139.096 434.094C139.623 434.673 140.13 435.045 140.285 434.921C140.44 434.797 140.089 434.249 139.561 433.67C139.034 433.091 138.506 432.718 138.382 432.832Z" fill="#E8505B"/>
<path d="M135.021 167.889L134.69 168.675C134.407 169.353 133.992 169.968 133.47 170.484C132.949 171.001 132.33 171.409 131.649 171.685L130.801 172.037L131.618 172.368C132.321 172.644 132.959 173.062 133.493 173.596C134.027 174.129 134.445 174.768 134.721 175.47L134.949 176.049L135.3 175.326C135.926 174.017 137.04 173.007 138.403 172.512L139.137 172.243L138.175 171.778C136.952 171.187 135.987 170.168 135.466 168.913L135.021 167.889Z" fill="#E8505B"/>
<path d="M98.5326 154.216L98.3672 154.599C98.2287 154.94 98.0226 155.25 97.7613 155.51C97.5 155.769 97.189 155.973 96.8468 156.109L96.4228 156.285L96.8365 156.45C97.181 156.59 97.4939 156.798 97.7568 157.061C98.0197 157.324 98.2273 157.637 98.3672 157.981L98.4809 158.271L98.6568 157.909C98.9685 157.258 99.5211 156.753 100.198 156.502L100.57 156.368L100.084 156.13C99.4752 155.836 98.9963 155.328 98.7395 154.703L98.5326 154.216Z" fill="#E8505B"/>
<path d="M381.503 98.0156L381.337 98.4086C381.048 99.0921 380.502 99.6346 379.817 99.9186L379.393 100.084L379.796 100.25C380.142 100.39 380.456 100.598 380.719 100.863C380.982 101.128 381.189 101.444 381.327 101.791L381.44 102.07L381.616 101.718C381.929 101.064 382.486 100.559 383.168 100.312L383.54 100.177L383.054 99.9393C382.447 99.6399 381.966 99.1338 381.699 98.512L381.503 98.0156Z" fill="#E8505B"/>
<path d="M365.937 308.578L365.782 308.971C365.493 309.652 364.947 310.191 364.262 310.47L363.838 310.646L364.241 310.812C364.585 310.953 364.897 311.161 365.159 311.424C365.422 311.687 365.63 311.999 365.772 312.342L365.885 312.632L366.061 312.27C366.377 311.618 366.933 311.114 367.613 310.863L367.985 310.729L367.499 310.501C366.887 310.204 366.405 309.693 366.144 309.064L365.937 308.578Z" fill="#E8505B"/>
<path d="M147.897 400.822L147.742 401.215C147.453 401.896 146.907 402.435 146.222 402.715L145.798 402.891L146.201 403.056C146.546 403.195 146.86 403.402 147.123 403.665C147.386 403.928 147.593 404.242 147.732 404.587L147.846 404.877L148.021 404.515C148.334 403.86 148.891 403.355 149.573 403.108L149.945 402.974L149.459 402.736C148.846 402.445 148.363 401.936 148.104 401.308L147.897 400.822Z" fill="#E8505B"/>
<path d="M311.763 57.2145L311.598 57.6076C311.458 57.9478 311.251 58.2567 310.99 58.516C310.729 58.7753 310.419 58.9799 310.077 59.1176L309.653 59.2934L310.067 59.4589C310.415 59.6023 310.729 59.8146 310.992 60.083C311.255 60.3514 311.461 60.6704 311.598 61.0206L311.712 61.3102L311.877 60.9482C312.196 60.2984 312.751 59.7952 313.428 59.5416L313.801 59.4071L313.315 59.1693C312.708 58.8724 312.23 58.3652 311.97 57.742L311.763 57.2145Z" fill="#E8505B"/>
<path d="M336.471 332.396L336.14 333.182C335.857 333.86 335.443 334.475 334.921 334.991C334.399 335.508 333.78 335.916 333.1 336.192L332.252 336.533L333.069 336.864C333.77 337.143 334.407 337.562 334.94 338.096C335.474 338.629 335.893 339.266 336.172 339.967L336.399 340.536L336.751 339.822C337.376 338.514 338.491 337.504 339.853 337.009L340.588 336.74L339.626 336.265C338.405 335.675 337.441 334.66 336.916 333.41L336.471 332.396Z" fill="#E8505B"/>
</svg>
