<svg width="451" height="420" viewBox="0 0 451 420" fill="none" xmlns="http://www.w3.org/2000/svg">
<path d="M66.4749 226.502L17.2888 237.029C13.8486 237.765 11.6567 241.151 12.3929 244.591L22.9196 293.777C23.6558 297.217 27.0414 299.409 30.4816 298.673L79.6678 288.146C83.1079 287.41 85.2999 284.024 84.5636 280.584L74.037 231.398C73.3007 227.958 69.9151 225.766 66.4749 226.502Z" fill="#EBEBEB"/>
<path d="M70.79 268.52C70.7396 268.058 70.6111 267.609 70.41 267.19C70.41 267.06 70.3 266.93 70.24 266.76C69.1312 264.805 67.4584 263.229 65.44 262.24C63.6232 261.251 61.6875 260.498 59.68 260L59.43 259.94C59.351 259.919 59.2675 259.925 59.1919 259.956C59.1163 259.986 59.0525 260.04 59.01 260.11L55.11 266.8L40.76 257.59L44.67 250.37C44.6895 250.324 44.6996 250.275 44.6996 250.225C44.6996 250.175 44.6895 250.126 44.67 250.08C44.6555 250.031 44.63 249.985 44.5953 249.947C44.5607 249.909 44.5178 249.879 44.47 249.86L41.18 248.28C40.64 248.03 40.3 247.87 40.08 247.8L39.76 247.62L39.57 247.53C39.3325 247.403 39.085 247.296 38.83 247.21C37.5751 246.756 36.2433 246.552 34.91 246.61C32.769 246.71 30.7159 247.491 29.05 248.84C27.9309 249.728 27.0314 250.862 26.4209 252.154C25.8105 253.446 25.5057 254.861 25.53 256.29C25.566 257.149 25.7718 257.993 26.1357 258.772C26.4996 259.551 27.0143 260.251 27.65 260.83C28.2929 261.405 28.9894 261.918 29.73 262.36L51.57 276.36L52.38 276.88C53 277.28 53.65 277.7 54.38 278.07C55.4101 278.598 56.5066 278.985 57.64 279.22C58.4234 279.379 59.2207 279.459 60.02 279.46C61.6099 279.454 63.1807 279.114 64.63 278.46C66.8344 277.475 68.637 275.768 69.74 273.62C70.0232 273.102 70.2511 272.556 70.42 271.99L70.51 271.7C70.689 271.236 70.7904 270.747 70.81 270.25L70.88 269.31L70.79 268.52ZM43.44 250.52L39.33 257.75C39.286 257.834 39.2739 257.931 39.2959 258.023C39.318 258.115 39.3728 258.195 39.45 258.25L55.25 268.61C55.2912 268.64 55.3388 268.66 55.3891 268.669C55.4394 268.678 55.4911 268.675 55.54 268.66C55.5879 268.649 55.6331 268.628 55.6726 268.599C55.7122 268.57 55.7453 268.533 55.77 268.49L59.85 261.6C61.5491 262.074 63.187 262.745 64.73 263.6C66.459 264.455 67.9037 265.792 68.89 267.45C68.89 267.59 68.99 267.73 69.05 267.87C69.1954 268.164 69.2836 268.483 69.31 268.81L69.42 269.46L69.35 270.26C69.3282 270.63 69.2507 270.994 69.12 271.34L69.02 271.65C68.8752 272.13 68.6774 272.593 68.43 273.03C67.461 274.857 65.8985 276.3 64 277.12C62.0876 277.955 59.963 278.175 57.92 277.75C56.9184 277.551 55.9492 277.215 55.04 276.75C54.397 276.414 53.7727 276.044 53.17 275.64C52.9 275.46 52.62 275.28 52.35 275.12L30.5 261.25C29.82 260.857 29.1803 260.398 28.59 259.88C28.0748 259.421 27.655 258.865 27.3547 258.244C27.0544 257.623 26.8795 256.949 26.84 256.26C26.8182 255.021 27.0768 253.792 27.5962 252.667C28.1157 251.541 28.8827 250.548 29.84 249.76C31.3029 248.547 33.1054 247.817 35 247.67H35.67C36.9824 247.654 38.2837 247.913 39.49 248.43C39.5956 248.481 39.7062 248.521 39.82 248.55C40.02 248.69 40.34 248.86 40.82 249.12L43.44 250.52Z" fill="white"/>
<path d="M50.17 252.68C51.6499 252.566 53.1181 252.332 54.56 251.98C55.4 256.2 55.71 256.65 56.02 256.65H56.14C56.49 256.58 56.77 256.52 55.87 251.72C60.75 250.72 60.71 250.39 60.65 250.04C60.6248 249.936 60.5602 249.847 60.47 249.79C60.19 249.6 58.55 249.79 55.61 250.43C55.04 247.58 54.61 246.02 54.33 245.84C54.2448 245.783 54.1419 245.758 54.04 245.77C53.9363 245.795 53.8443 245.855 53.78 245.94C53.59 246.22 53.78 247.83 54.31 250.7C49.82 251.7 49.63 252 49.57 252.12C49.5301 252.226 49.5301 252.344 49.57 252.45C49.59 252.55 49.64 252.68 50.17 252.68Z" fill="white"/>
<path d="M439.08 17.22H329.87V197.99H439.08V17.22Z" fill="#E0E0E0"/>
<path d="M435.45 17.22H326.24V197.99H435.45V17.22Z" fill="#EBEBEB"/>
<path d="M430.8 20.89H330.89V194.33H430.8V20.89Z" fill="#FAFAFA"/>
<path d="M411.34 43.42H349.91V171.78H411.34V43.42Z" fill="#EBEBEB"/>
<path d="M349.91 126.36C349.77 114.36 360.55 102.67 372.42 100.99C378.08 100.2 384.1 101.32 389.42 99.15C398.86 95.28 401.87 82.73 411.37 79.01L411.81 171.79H349.91V126.36Z" fill="#E0E0E0"/>
<path d="M298.67 16.88H214.67V104.45H298.67V16.88Z" fill="#E0E0E0"/>
<path d="M292.98 16.88H208.98V104.45H292.98V16.88Z" fill="#FAFAFA"/>
<path d="M293 104.47H209V16.85H293V104.47ZM209 104.47H293V16.9H209V104.47Z" fill="#E0E0E0"/>
<path d="M281.69 28.65H220.27V92.67H281.69V28.65Z" fill="#FAFAFA"/>
<path d="M220.27 93.1C219.84 93.7461 219.333 94.3371 218.76 94.86C217.76 95.86 216.4 97.3 214.85 98.86C213.3 100.42 211.85 101.74 210.85 102.7C210.317 103.261 209.719 103.758 209.07 104.18C209.503 103.536 210.01 102.946 210.58 102.42C211.58 101.42 212.94 99.98 214.49 98.42C216.04 96.86 217.49 95.53 218.49 94.57C219.022 94.0098 219.619 93.5162 220.27 93.1Z" fill="#E0E0E0"/>
<path d="M281.69 92.94C282.334 93.3756 282.925 93.8858 283.45 94.46C284.45 95.46 285.89 96.82 287.45 98.36C289.01 99.9 290.33 101.36 291.29 102.36C291.849 102.896 292.345 103.493 292.77 104.14C292.129 103.704 291.538 103.198 291.01 102.63C290.01 101.63 288.57 100.27 287.01 98.72C285.45 97.17 284.12 95.72 283.16 94.72C282.6 94.1883 282.106 93.5906 281.69 92.94Z" fill="#E0E0E0"/>
<path d="M281.52 28.82C281.943 28.1777 282.44 27.587 283 27.06C284 26.06 285.36 24.62 286.9 23.06C288.44 21.5 289.9 20.18 290.9 19.22C291.436 18.6615 292.033 18.165 292.68 17.74C292.247 18.3837 291.74 18.9744 291.17 19.5C290.17 20.5 288.81 21.94 287.26 23.5C285.71 25.06 284.26 26.39 283.26 27.35C282.741 27.9077 282.157 28.4012 281.52 28.82Z" fill="#E0E0E0"/>
<path d="M220.1 29C219.46 28.5583 218.87 28.0487 218.34 27.48C217.34 26.48 215.91 25.12 214.34 23.58C212.77 22.04 211.46 20.58 210.5 19.58C209.941 19.0441 209.445 18.447 209.02 17.8C209.664 18.2327 210.254 18.7395 210.78 19.31C211.78 20.31 213.22 21.67 214.78 23.22C216.34 24.77 217.67 26.22 218.63 27.22C219.19 27.7517 219.684 28.3494 220.1 29Z" fill="#E0E0E0"/>
<path d="M281.52 92.67C281.52 92.67 281.52 92.56 281.52 92.36C281.52 92.16 281.52 91.85 281.52 91.47C281.52 90.67 281.52 89.47 281.52 88.01C281.52 85.01 281.52 80.57 281.45 74.96C281.45 63.75 281.38 47.78 281.33 28.65L281.57 28.89H220.33L220.6 28.62C220.6 52.12 220.6 74.1 220.6 92.62L220.36 92.39L264.71 92.51L277.17 92.57H280.46H281.61C281.52 92.5796 281.43 92.5796 281.34 92.57H280.51H277.26L264.86 92.63L220.36 92.75H220V92.51C220 73.97 220 51.99 220 28.51V28.24H220.28H281.52H281.76V28.48C281.71 47.67 281.67 63.7 281.64 74.95C281.64 80.53 281.59 84.95 281.58 87.95C281.58 89.43 281.58 90.57 281.58 91.36C281.58 91.73 281.58 92.02 281.58 92.23C281.59 92.3792 281.57 92.5289 281.52 92.67Z" fill="#E0E0E0"/>
<path d="M261.22 50.41H240.73V70.9H261.22V50.41Z" fill="#EBEBEB"/>
<path d="M437.2 385.6L433.96 418.89H416.77L413.38 385.6H437.2Z" fill="#E0E0E0"/>
<path d="M411.36 385.6H439.78V383.16H411.36V385.6Z" fill="#EBEBEB"/>
<path d="M434.36 378.97L437.2 383.7H414.6L415.69 378.97H434.36Z" fill="#EBEBEB"/>
<path d="M436.11 396.81L434.95 408.69H415.73L414.52 396.81H436.11Z" fill="#F5F5F5"/>
<path d="M422.85 406.09C422.86 405.045 423.169 404.025 423.74 403.15C424.22 402.41 424.8 401.76 425.27 401.15C425.706 400.588 426.045 399.955 426.27 399.28C426.353 399.01 426.403 398.732 426.42 398.45L426.55 398.52C426.885 398.751 427.169 399.047 427.385 399.391C427.602 399.734 427.746 400.119 427.81 400.52C427.944 401.312 427.906 402.124 427.7 402.9C427.526 403.84 427.093 404.713 426.45 405.42C426.06 405.803 425.585 406.087 425.063 406.249C424.541 406.41 423.988 406.445 423.45 406.35C423.241 406.285 423.04 406.197 422.85 406.09Z" fill="#FAFAFA"/>
<path d="M421.39 403.48C421.426 402.414 421.632 401.361 422 400.36C422.187 399.855 422.491 399.401 422.888 399.036C423.284 398.671 423.761 398.405 424.28 398.26C424.823 398.106 425.402 398.13 425.93 398.33C425.895 398.617 425.828 398.898 425.73 399.17C425.49 399.805 425.153 400.399 424.73 400.93C424.26 401.55 423.67 402.18 423.17 402.93C422.683 403.667 422.381 404.511 422.29 405.39C422.29 405.57 422.29 405.74 422.29 405.92C422.025 405.754 421.802 405.528 421.64 405.26C421.392 404.702 421.305 404.085 421.39 403.48Z" fill="#FAFAFA"/>
<path d="M282.24 367.58C297.75 352.05 297.68 328.36 293.3 307.83C292.57 304.41 292.3 300.7 290.12 297.97C287.94 295.24 283.75 293.85 280.92 295.86C278.58 297.52 277.99 300.69 277 303.41C275.672 307.035 273.346 310.211 270.29 312.57C268.29 314.1 265.71 315.28 263.29 314.47C260.02 313.36 258.94 309.32 258.35 305.89L255.05 286.7C254.47 283.26 253.85 279.76 252.21 276.7C250.57 273.64 247.67 271.03 244.21 270.7C240.75 270.37 237.09 272.96 237 276.44C237.121 277.883 237.342 279.317 237.66 280.73C237.82 282.17 237.44 283.86 236.16 284.5C234.88 285.14 233.31 284.42 232.16 283.6C228.01 280.76 224.81 276.73 221.78 272.7C218.75 268.67 215.78 264.51 211.87 261.31C207.96 258.11 203.01 255.9 198.06 256.5C193.11 257.1 188.4 261.06 188.06 266.1C187.72 271.14 191.37 275.56 195.14 278.92C200.721 283.919 207.001 288.079 213.78 291.27C215.061 291.715 216.169 292.551 216.95 293.66C218.1 295.82 216.34 298.47 214.22 299.66C211.82 300.97 209 301.2 206.38 301.99C203.76 302.78 201.08 304.48 200.51 307.18C199.73 310.94 203.32 314.09 206.63 315.98C213.265 319.772 220.504 322.391 228.03 323.72C230.71 324.2 233.51 324.53 235.86 325.94C238.21 327.35 239.99 330.22 239.19 332.85C238.39 335.48 235.37 336.85 232.64 336.8C229.91 336.75 227.3 335.8 224.64 335.27C219.64 334.33 213.59 335.74 211.29 340.35C209.79 343.35 210.29 347.13 211.85 350.15C213.557 353.086 215.835 355.65 218.55 357.69C227.614 365.334 238.548 370.432 250.23 372.46C261.83 374.3 272.14 373.53 282.29 367.62" fill="#F5F5F5"/>
<path d="M274.61 355.58C269.176 344.942 263.136 334.626 256.52 324.68L251.36 316.82C249.67 314.25 247.98 311.7 246.18 309.3C242.704 304.704 238.971 300.307 235 296.13C231.25 292.13 227.55 288.43 224.06 285.02C220.57 281.61 217.25 278.5 214.11 275.79C209.166 271.49 203.89 267.588 198.33 264.12C196.33 262.89 194.81 261.99 193.75 261.39L192.54 260.72L192.12 260.51C192.239 260.615 192.37 260.706 192.51 260.78L193.69 261.51C194.69 262.14 196.26 263.08 198.2 264.33C203.69 267.872 208.908 271.82 213.81 276.14C216.93 278.86 220.22 281.98 223.69 285.4C227.16 288.82 230.84 292.52 234.57 296.53C238.497 300.708 242.192 305.098 245.64 309.68C247.43 312.07 249.09 314.6 250.79 317.18L256 325C262.601 334.927 268.641 345.217 274.09 355.82" fill="#E0E0E0"/>
<path d="M246 309.31C246.072 308.807 246.096 308.298 246.07 307.79C246.07 306.79 246.07 305.39 245.99 303.64C245.86 300.14 245.53 295.31 245.14 289.99C244.75 284.67 244.48 279.85 244.41 276.36C244.41 274.61 244.41 273.2 244.41 272.22C244.443 271.712 244.416 271.202 244.33 270.7C244.222 271.196 244.165 271.702 244.16 272.21C244.08 273.21 244.03 274.61 244.01 276.36C243.96 279.86 244.16 284.71 244.55 290.03C244.94 295.35 245.31 300.03 245.55 303.66C245.67 305.3 245.76 306.66 245.84 307.79C245.832 308.301 245.886 308.812 246 309.31Z" fill="#E0E0E0"/>
<path d="M200.45 308.92C201.049 308.949 201.648 308.916 202.24 308.82C203.39 308.72 205.06 308.56 207.11 308.44C211.23 308.15 216.93 307.96 223.22 308.02C229.51 308.08 235.22 308.41 239.33 308.75C241.39 308.91 243.05 309.08 244.2 309.19C244.795 309.284 245.398 309.324 246 309.31C245.423 309.132 244.83 309.008 244.23 308.94C243.09 308.75 241.43 308.51 239.37 308.29C235.25 307.83 229.54 307.45 223.23 307.38C217.84 307.301 212.449 307.502 207.08 307.98C205.02 308.17 203.36 308.39 202.21 308.57C201.614 308.631 201.024 308.748 200.45 308.92Z" fill="#E0E0E0"/>
<path d="M273.92 354.87C274.012 354.682 274.083 354.484 274.13 354.28C274.25 353.81 274.41 353.28 274.6 352.55C275 351.05 275.52 348.85 276.13 346.14C277.36 340.71 278.82 333.14 280.32 324.81C281.82 316.48 283.2 308.89 284.32 303.45C284.87 300.8 285.32 298.62 285.66 297C285.8 296.3 285.92 295.72 286.01 295.24C286.067 295.038 286.098 294.83 286.1 294.62C285.997 294.803 285.926 295.003 285.89 295.21L285.42 296.94C285.02 298.44 284.49 300.63 283.88 303.35C282.65 308.78 281.2 316.35 279.7 324.69C278.2 333.03 276.81 340.6 275.7 346.04C275.15 348.69 274.7 350.87 274.36 352.49C274.22 353.19 274.11 353.77 274.01 354.25C273.955 354.452 273.925 354.66 273.92 354.87Z" fill="#E0E0E0"/>
<path d="M212 346.42C212.202 346.498 212.414 346.545 212.63 346.56L214.43 346.83L221.07 347.74C226.67 348.52 234.39 349.68 242.93 350.97C251.47 352.26 259.21 353.35 264.82 353.97C267.63 354.31 269.91 354.55 271.49 354.69L273.3 354.83C273.512 354.859 273.728 354.859 273.94 354.83C273.74 354.757 273.532 354.71 273.32 354.69L271.51 354.43L264.88 353.51C259.28 352.74 251.55 351.58 243.02 350.29C234.49 349 226.74 347.91 221.12 347.29C218.31 346.96 216.04 346.71 214.46 346.58L212.64 346.43C212.428 346.399 212.213 346.395 212 346.42Z" fill="#E0E0E0"/>
<path d="M93.7595 0.192545L22.8997 0.0317688L22.7321 73.9016L93.5919 74.0624L93.7595 0.192545Z" fill="#E0E0E0"/>
<path d="M88.9596 0.18165L18.0997 0.020874L17.9321 73.8907L88.7919 74.0515L88.9596 0.18165Z" fill="#455A64"/>
<path d="M88.81 74.07L17.91 73.91L18.08 0L89 0.16L88.81 74.07Z" fill="#F5F5F5"/>
<path d="M79.417 10.09L27.6072 9.97247L27.4846 63.9823L79.2945 64.0999L79.417 10.09Z" fill="white"/>
<path d="M27.48 64.34C27.1069 64.8802 26.6742 65.3767 26.19 65.82C25.36 66.69 24.19 67.87 22.89 69.15C21.59 70.43 20.39 71.58 19.5 72.39C19.0523 72.8628 18.5486 73.2792 18 73.63C18.3672 73.0882 18.7968 72.5915 19.28 72.15C20.1 71.28 21.28 70.1 22.58 68.81C23.88 67.52 25.1 66.39 25.98 65.58C26.4291 65.1087 26.9326 64.6924 27.48 64.34Z" fill="#E0E0E0"/>
<path d="M79.28 64.33C79.8294 64.6911 80.3302 65.1213 80.77 65.61C81.64 66.44 82.77 67.61 84.1 68.91C85.43 70.21 86.52 71.41 87.33 72.3C87.7985 72.7545 88.2175 73.2573 88.58 73.8C88.0396 73.4348 87.543 73.0086 87.1 72.53C86.23 71.7 85.04 70.53 83.76 69.22C82.48 67.91 81.33 66.7 80.52 65.82C80.0542 65.3694 79.6385 64.8699 79.28 64.33Z" fill="#E0E0E0"/>
<path d="M79.27 10.24C79.6352 9.69366 80.065 9.19338 80.55 8.75C81.38 7.88 82.55 6.75 83.85 5.42C85.15 4.09 86.36 3 87.24 2.19C87.6919 1.73619 88.1953 1.33681 88.74 1C88.3779 1.53977 87.9515 2.03341 87.47 2.47C86.64 3.34 85.47 4.53 84.16 5.81C82.85 7.09 81.65 8.19 80.76 9C80.312 9.46854 79.8121 9.88456 79.27 10.24Z" fill="#E0E0E0"/>
<path d="M27.46 10.25C26.9281 9.88932 26.4383 9.47002 26 8.99999C25.13 8.16999 24 6.99999 22.67 5.69999C21.34 4.39999 20.25 3.18999 19.44 2.29999C18.9506 1.8487 18.5235 1.33416 18.17 0.769989C18.7071 1.14331 19.2032 1.57236 19.65 2.04999C20.52 2.87999 21.7 4.04999 22.98 5.35999C24.26 6.66999 25.41 7.86999 26.22 8.75999C26.6922 9.20456 27.1086 9.7049 27.46 10.25Z" fill="#E0E0E0"/>
<path d="M79.14 64.1C79.14 64.1 79.14 64.01 79.14 63.84C79.14 63.67 79.14 63.4 79.14 63.08C79.14 62.4 79.14 61.43 79.14 60.17C79.14 57.61 79.14 53.89 79.14 49.17C79.14 39.71 79.14 26.24 79.14 10.1L79.34 10.3L27.6 10.2L27.83 9.96999C27.77 29.8 27.72 48.34 27.67 63.97L27.48 63.77L64.89 64H75.4H78.18H78.89H75.48L65 64.16H27.47H27.27V64C27.27 48.36 27.33 29.82 27.36 9.99999V9.73999H27.6L79.26 9.88999H79.46V10.09C79.38 26.28 79.31 39.8 79.27 49.29C79.27 54 79.21 57.7 79.19 60.29C79.19 61.5433 79.19 62.5033 79.19 63.17C79.19 63.48 79.19 63.72 79.19 63.9C79.1797 63.9681 79.1629 64.035 79.14 64.1Z" fill="#E0E0E0"/>
<path d="M43.86 51.65C41.9699 49.6195 40.8798 46.9727 40.7915 44.2C40.7033 41.4274 41.6229 38.7167 43.38 36.57C44.83 34.92 46.74 33.72 48.08 31.99C51 28.23 51 22.29 55 19.78C57.93 17.95 62.14 19.01 64.28 21.73C65.2862 23.1463 65.8995 24.8036 66.0576 26.5337C66.2156 28.2638 65.9129 30.0049 65.18 31.58C64.18 33.92 62.36 35.91 61.62 38.35C60.88 40.79 61.29 43.6 60.51 46.09C59.51 49.09 56.37 51 53.41 52.09C50.2888 53.1308 46.8921 52.9739 43.88 51.65" fill="#F5F5F5"/>
<path d="M58.49 26.8C58.3686 27.29 58.2046 27.7685 58 28.23C57.65 29.14 57.1 30.44 56.39 32.02C54.5008 36.1511 52.3532 40.159 49.96 44.02C47.5454 47.8664 44.8866 51.554 42 55.06C40.89 56.41 40 57.47 39.31 58.18C38.9838 58.5688 38.6295 58.9331 38.25 59.27C38.5158 58.8403 38.8241 58.4383 39.17 58.07C39.79 57.32 40.67 56.22 41.74 54.86C44.5258 51.2987 47.1227 47.5936 49.52 43.76C51.9034 39.9172 54.0831 35.9517 56.05 31.88C56.8 30.32 57.4 29.05 57.8 28.16C57.9938 27.6892 58.2246 27.2345 58.49 26.8Z" fill="#E0E0E0"/>
<path d="M47.75 36.14C47.9593 37.0376 48.0964 37.9505 48.16 38.87C48.36 40.58 48.61 42.95 48.86 45.64L48.52 45.46L49.63 44.81C52.23 43.3 54.63 41.96 56.31 41.01C57.2147 40.4548 58.1608 39.97 59.14 39.56C58.2961 40.2079 57.4035 40.7896 56.47 41.3C54.8 42.3 52.47 43.71 49.87 45.21L48.75 45.86L48.43 46.04V45.68C48.19 42.99 48 40.61 47.88 38.9C47.7615 37.9851 47.718 37.062 47.75 36.14Z" fill="#E0E0E0"/>
<path d="M61.37 32.17C60.8263 32.5684 60.2392 32.9039 59.62 33.17C58.51 33.72 56.97 34.44 55.26 35.22L54.73 35.46L54.45 35.59L54.4 35.29C54.14 33.56 53.92 32.02 53.79 30.91C53.677 30.3137 53.6334 29.7063 53.66 29.1C53.8824 29.6651 54.0303 30.2567 54.1 30.86C54.32 31.96 54.58 33.49 54.86 35.21L54.54 35L55.07 34.76C56.78 33.98 58.34 33.3 59.48 32.83C60.0825 32.5379 60.7167 32.3165 61.37 32.17Z" fill="#E0E0E0"/>
<path d="M451 418.89C451 419.04 350 419.15 225.5 419.15C101 419.15 0 419 0 418.89C0 418.78 101 418.63 225.52 418.63C350.04 418.63 451 418.75 451 418.89Z" fill="#263238"/>
<path d="M122.63 330.4C127.34 327.97 132.89 327.65 138.12 328.52C140.93 328.98 143.86 329.82 145.77 331.93C147.68 334.04 148.04 337.76 145.85 339.57C144.435 340.527 142.73 340.958 141.03 340.79C136.93 340.79 132.39 340.03 129.12 342.49C127.25 343.89 126.01 346.23 123.78 346.92C122.664 347.179 121.495 347.067 120.448 346.601C119.401 346.136 118.535 345.342 117.98 344.34C116.915 342.29 116.678 339.909 117.32 337.69C117.585 336.148 118.202 334.689 119.123 333.424C120.044 332.16 121.244 331.125 122.63 330.4Z" fill="#E8505B"/>
<path d="M111.84 309.57C114.72 313.68 120.32 312.32 122.92 309.81C125.52 307.3 126.61 303.66 127.61 300.19C129.89 292.26 132.19 283.94 130.49 275.87C130.085 273.42 129.012 271.13 127.39 269.25C126.57 268.322 125.52 267.625 124.346 267.23C123.172 266.836 121.914 266.756 120.7 267C117.88 267.74 116.12 270.51 114.85 273.14C111.119 280.906 109.161 289.404 109.12 298.02C109.12 302.02 109.58 306.23 111.84 309.54" fill="#E8505B"/>
<path d="M103.93 315.47C107.06 311.76 107.65 306.35 106.26 301.7C104.87 297.05 101.73 293.09 98.1 289.86C93.8382 286.067 88.8795 283.14 83.5 281.24C81.416 280.399 79.1745 280.021 76.93 280.13C75.8083 280.194 74.7192 280.53 73.7572 281.111C72.7952 281.691 71.9895 282.497 71.41 283.46C69.87 286.39 71.35 289.95 72.94 292.85C75.7514 297.965 78.9613 302.85 82.54 307.46C85.41 311.17 88.71 314.83 93.09 316.51C97.47 318.19 102.03 317.98 104.35 314.94" fill="#E8505B"/>
<path d="M111.65 371.62C111.799 371.007 111.886 370.38 111.91 369.75C112.04 368.39 112.21 366.68 112.41 364.65C112.66 362.139 113.041 359.642 113.55 357.17C114.224 354.16 115.133 351.207 116.27 348.34C117.39 345.475 118.908 342.781 120.78 340.34C122.302 338.354 124.25 336.734 126.48 335.6C127.99 334.847 129.61 334.341 131.28 334.1C131.912 334.082 132.539 333.991 133.15 333.83C132.518 333.765 131.882 333.765 131.25 333.83C129.518 333.962 127.824 334.406 126.25 335.14C123.908 336.248 121.854 337.884 120.25 339.92C118.298 342.39 116.724 345.137 115.58 348.07C114.414 350.984 113.511 353.996 112.88 357.07C112.393 359.574 112.059 362.105 111.88 364.65C111.72 366.82 111.66 368.57 111.63 369.78C111.571 370.392 111.578 371.009 111.65 371.62Z" fill="#263238"/>
<path d="M112 367.7C112.034 367.411 112.034 367.119 112 366.83C112 366.18 112 365.36 112 364.35C112 362.2 112 359.08 112.11 355.23C112.3 347.54 112.97 339.23 114.25 327.59C115.46 316.59 117.08 303.84 118.8 295.59C119.17 293.7 119.54 292 119.89 290.51C120.24 289.02 120.5 287.73 120.78 286.69C121.06 285.65 121.21 284.91 121.36 284.28C121.439 283.999 121.489 283.711 121.51 283.42C121.378 283.68 121.277 283.956 121.21 284.24L120.49 286.61C120.17 287.61 119.84 288.92 119.49 290.41C119.14 291.9 118.69 293.59 118.29 295.47C116.161 305.294 114.562 315.225 113.5 325.22C112.22 336.91 111.64 347.56 111.59 355.27C111.59 359.13 111.59 362.27 111.72 364.41L111.87 366.89C111.884 367.164 111.927 367.436 112 367.7Z" fill="#263238"/>
<path d="M112.05 347.16C112.12 346.295 112.12 345.425 112.05 344.56C111.904 342.215 111.641 339.879 111.26 337.56C110.7 334.107 109.945 330.688 109 327.32C107.88 323.185 106.45 319.14 104.72 315.22C101.752 307.993 97.4965 301.366 92.16 295.66C91.2184 294.682 90.2165 293.763 89.16 292.91C88.7 292.53 88.3 292.15 87.89 291.84L86.75 291.05C86.061 290.53 85.3321 290.065 84.57 289.66C84.44 289.83 87.66 291.72 91.72 296.04C96.891 301.788 101.044 308.376 104 315.52C105.696 319.421 107.133 323.43 108.3 327.52C109.279 330.854 110.09 334.235 110.73 337.65C111.27 340.57 111.58 342.95 111.73 344.6C111.776 345.46 111.883 346.315 112.05 347.16Z" fill="#263238"/>
<path d="M92.2 383.39L94.25 411.59H130.48L132.54 383.39H92.2Z" fill="#263238"/>
<path d="M136.87 372.28H88.7V383.39H136.87V372.28Z" fill="#263238"/>
<path d="M88.7 410.51V413.59H90.96H136.07V410.51H88.7Z" fill="#455A64"/>
<path d="M93.18 419.01L90.96 413.59H134.34L131.75 419.01H93.18Z" fill="#455A64"/>
<path d="M131.87 392.61C131.822 392.702 131.766 392.789 131.7 392.87L131.16 393.58L129.05 396.28L128.95 396.4L128.86 396.28C127.54 394.44 125.76 391.99 123.68 389.11H123.98C122.43 391.29 120.72 393.72 118.87 396.34L118.71 396.56L118.53 396.35L112.53 389.15H112.88L112.54 389.57L107.13 396.36L106.95 396.58L106.78 396.35L101.68 389.12H101.97L95.68 396.28L95.57 396.41L95.49 396.27L93.49 392.96C93.28 392.6 93.12 392.31 92.98 392.08C92.916 391.98 92.8656 391.873 92.83 391.76C92.9092 391.846 92.9795 391.94 93.04 392.04L93.6 392.89L95.67 396.14H95.47L101.66 388.89L101.81 388.7L101.96 388.9C103.52 391.09 105.25 393.51 107.11 396.1H106.76L112.16 389.3C112.28 389.16 112.39 389.01 112.49 388.88L112.67 388.67L112.84 388.88L118.84 396.09H118.5L123.66 388.9L123.81 388.68L123.96 388.9L129.03 396.14H128.85L131.04 393.51L131.63 392.83C131.79 392.67 131.86 392.6 131.87 392.61Z" fill="#E0E0E0"/>
<path d="M133 383.2C133 383.33 123.93 383.43 112.73 383.43C101.53 383.43 92.46 383.33 92.46 383.2C92.46 383.07 101.53 382.98 112.73 382.98C123.93 382.98 133 383.08 133 383.2Z" fill="#455A64"/>
<path d="M134.87 413.9C134.87 414.02 125.01 414.12 112.87 414.12C100.73 414.12 90.87 414.02 90.87 413.9C90.87 413.78 100.73 413.67 112.87 413.67C125.01 413.67 134.87 413.77 134.87 413.9Z" fill="#263238"/>
<path d="M397.19 199C396.41 195.61 400.41 183.89 397.83 183.63C394.54 183.3 393.98 196.63 393.83 197.81C393.68 198.99 391.99 198.81 392.15 197.81C392.39 196.27 394.58 181.2 391.26 181.17C389.42 181.17 389.34 184.5 389.34 184.5C389.34 184.5 388.1 199.35 386.53 199.28C384.96 199.21 386.08 190.76 386.24 187.61C386.4 184.46 384.89 182.87 383.77 184.17C382.14 186.08 382.14 193.74 381.94 196.75C381.74 199.76 380.94 208.43 377.82 204.1C374.7 199.77 370.72 197.57 369.25 197.72C367.78 197.87 367.51 199.99 368.93 200.82C370.391 201.872 371.7 203.121 372.82 204.53C373.706 205.672 374.461 206.909 375.07 208.22C375.902 209.867 376.452 211.642 376.7 213.47C376.915 214.915 377.435 216.298 378.224 217.527C379.014 218.756 380.055 219.803 381.28 220.6C381.28 220.6 378.224 236 378 242C377.776 248 377.5 252.5 378.224 255.5C378.949 258.5 401 265 401 265L396.45 220.59C397.36 212.52 400.91 202.31 402.21 197.59C404.28 190.05 403.31 189.73 402.39 189.68C400.38 189.59 398 202.34 397.19 199Z" fill="#FFBE9D"/>
<path d="M394.82 209.27C394.056 209.347 393.298 209.474 392.55 209.65C390.752 210.177 389.167 211.258 388.02 212.74C387.673 213.199 387.371 213.692 387.12 214.21L387 214.45L386.82 214.27C385.805 213.219 384.618 212.35 383.31 211.7C382.31 211.21 381.7 211.01 381.71 210.96C382.301 211.032 382.876 211.205 383.41 211.47C384.782 212.074 386.03 212.929 387.09 213.99L386.78 214.05C387.042 213.507 387.357 212.991 387.72 212.51C388.373 211.654 389.18 210.929 390.1 210.37C390.84 209.914 391.646 209.577 392.49 209.37C393.051 209.244 393.625 209.18 394.2 209.18C394.411 209.171 394.621 209.201 394.82 209.27Z" fill="#7C3B29"/>
<path d="M393.91 220.42C392.635 220.916 391.278 221.164 389.91 221.15C388.559 221.251 387.201 221.091 385.91 220.68C385.91 220.56 387.72 220.84 389.91 220.77C392.1 220.7 393.88 220.3 393.91 220.42Z" fill="#7C3B29"/>
<path d="M281.92 158.35C282.18 155.301 283.437 152.423 285.498 150.162C287.559 147.9 290.308 146.381 293.32 145.84C294.91 145.769 296.484 145.487 298 145C299.14 144.356 300.23 143.627 301.26 142.82C303.069 141.737 305.192 141.3 307.281 141.581C309.371 141.863 311.303 142.846 312.76 144.37C315.42 147.31 316.1 142.91 322.08 145.91C327.08 148.4 324.84 152.51 324.84 152.51C327.294 152.297 329.746 152.939 331.78 154.328C333.814 155.717 335.305 157.767 336 160.13C336.78 163.13 336.43 166.93 339 168.76C340.23 169.65 341.86 169.76 343.12 170.64C345.47 172.19 345.79 175.5 345.48 178.3C345.17 181.1 344.53 184.08 345.74 186.62C347.74 190.79 353.95 192.05 355.03 196.54C355.54 198.66 354.82 201.29 356.43 202.77C357.137 203.287 357.929 203.676 358.77 203.92C360.424 204.591 361.861 205.704 362.925 207.137C363.989 208.569 364.64 210.267 364.805 212.044C364.97 213.821 364.643 215.609 363.861 217.213C363.079 218.817 361.872 220.176 360.37 221.14C359.54 221.67 358.54 222.14 358.27 223.14C358 224.14 358.74 225.23 359.27 226.14C360.291 227.891 360.715 229.927 360.479 231.94C360.242 233.954 359.357 235.836 357.958 237.303C356.559 238.769 354.721 239.742 352.721 240.073C350.721 240.405 348.668 240.077 346.87 239.14C345.237 242.571 342.337 245.234 338.78 246.57C337.169 247.231 335.399 247.405 333.69 247.07C332.352 246.69 331.107 246.04 330.03 245.16C324.76 241.16 317.32 235.07 316.39 228.53" fill="#FF725E"/>
<path d="M281.8 168.53L281.57 163.85L309.52 157.62C318.17 156.44 328.18 164.82 329 173.5C331 187.5 337.92 197.75 337 205C335.14 219.58 322.89 220 322.89 220V232.4L284.75 234.8L281.8 168.53Z" fill="#FFBE9D"/>
<path d="M323.37 184.06C323.389 184.546 323.218 185.021 322.894 185.383C322.569 185.745 322.115 185.967 321.63 186C321.392 186.029 321.15 186.01 320.919 185.944C320.688 185.877 320.473 185.765 320.286 185.614C320.1 185.463 319.946 185.276 319.833 185.064C319.72 184.852 319.651 184.619 319.63 184.38C319.611 183.895 319.782 183.421 320.107 183.061C320.432 182.7 320.885 182.481 321.37 182.45C321.608 182.419 321.849 182.437 322.08 182.502C322.311 182.567 322.526 182.679 322.713 182.829C322.9 182.979 323.054 183.166 323.167 183.377C323.28 183.589 323.349 183.821 323.37 184.06Z" fill="#263238"/>
<path d="M325.75 179.78C325.53 180.03 324.09 179.03 322.09 179.1C320.09 179.17 318.65 180.21 318.42 179.97C318.19 179.73 318.54 179.42 319.16 178.97C320.008 178.345 321.027 177.996 322.08 177.97C323.121 177.933 324.147 178.228 325.01 178.81C325.64 179.24 325.86 179.67 325.75 179.78Z" fill="#263238"/>
<path d="M304.68 185C304.702 185.486 304.532 185.961 304.206 186.322C303.88 186.683 303.425 186.902 302.94 186.93C302.702 186.961 302.461 186.943 302.23 186.878C301.999 186.813 301.784 186.701 301.597 186.551C301.41 186.401 301.256 186.214 301.143 186.003C301.03 185.791 300.961 185.559 300.94 185.32C300.923 184.834 301.095 184.361 301.419 184C301.744 183.638 302.195 183.416 302.68 183.38C302.918 183.351 303.16 183.37 303.391 183.436C303.622 183.503 303.837 183.615 304.024 183.766C304.21 183.917 304.364 184.104 304.477 184.316C304.59 184.528 304.659 184.761 304.68 185Z" fill="#263238"/>
<path d="M306.09 180.77C305.86 181.01 304.42 180.02 302.42 180.08C300.42 180.14 298.98 181.2 298.76 180.96C298.54 180.72 298.87 180.41 299.49 179.96C300.343 179.337 301.365 178.989 302.42 178.96C303.461 178.931 304.486 179.228 305.35 179.81C306 180.22 306.2 180.65 306.09 180.77Z" fill="#263238"/>
<path d="M313.81 195.39C314.856 195.022 315.945 194.79 317.05 194.7C317.56 194.63 318.05 194.51 318.11 194.16C318.139 193.632 318.002 193.107 317.72 192.66C317.21 191.43 316.66 190.15 316.09 188.81C313.82 183.33 312.16 178.81 312.38 178.74C312.6 178.67 314.62 183.01 316.89 188.49L318.46 192.36C318.799 192.968 318.915 193.675 318.79 194.36C318.721 194.542 318.611 194.706 318.469 194.84C318.327 194.973 318.156 195.073 317.97 195.13C317.691 195.218 317.402 195.268 317.11 195.28C316.019 195.451 314.91 195.488 313.81 195.39Z" fill="#263238"/>
<path d="M322.871 220C313.869 220.342 304.925 218.558 297 215C297 215 303.593 225.912 322.871 224V220Z" fill="#EB996E"/>
<path d="M313.12 200.24C312.724 199.771 312.215 199.411 311.641 199.194C311.067 198.977 310.447 198.91 309.84 199C309.399 199.053 308.973 199.195 308.588 199.417C308.204 199.638 307.867 199.935 307.6 200.29C307.345 200.633 307.201 201.045 307.187 201.473C307.172 201.9 307.289 202.321 307.52 202.68C307.854 203.029 308.284 203.271 308.757 203.374C309.229 203.478 309.721 203.438 310.17 203.26C311.105 202.895 311.958 202.348 312.68 201.65C312.898 201.485 313.085 201.282 313.23 201.05C313.306 200.94 313.347 200.809 313.347 200.675C313.347 200.541 313.306 200.41 313.23 200.3" fill="#EB996E"/>
<path d="M308 197C308.33 197 308.4 199.15 310.31 200.63C312.22 202.11 314.52 201.81 314.55 202.11C314.55 202.24 314.05 202.55 313.07 202.6C311.796 202.662 310.541 202.269 309.53 201.49C308.57 200.757 307.929 199.683 307.74 198.49C307.59 197.49 307.82 197 308 197Z" fill="#263238"/>
<path d="M306.36 172.9C306.18 173.45 304.17 173.26 301.83 173.61C299.49 173.96 297.61 174.67 297.29 174.19C297.14 173.96 297.46 173.44 298.2 172.89C299.203 172.21 300.346 171.767 301.545 171.594C302.744 171.421 303.966 171.522 305.12 171.89C306 172.23 306.44 172.64 306.36 172.9Z" fill="#263238"/>
<path d="M324.84 174C324.5 174.47 323.11 174 321.45 174.07C319.79 174.14 318.39 174.47 318.06 174C317.91 173.77 318.11 173.31 318.71 172.86C319.515 172.306 320.473 172.016 321.45 172.03C322.424 172.014 323.379 172.305 324.18 172.86C324.78 173.32 325 173.78 324.84 174Z" fill="#263238"/>
<path d="M331.09 155.73C329.09 160.96 324.45 168.86 318.94 169.81C316.177 170.244 313.35 169.966 310.725 169.001C308.1 168.037 305.765 166.419 303.94 164.3C303.31 168.46 298.83 170.88 294.71 171.77C291.802 172.51 288.748 172.451 285.87 171.6C284.442 171.155 283.152 170.353 282.121 169.27C281.09 168.187 280.353 166.858 279.98 165.41C279.39 162.49 283.22 155.05 286.12 154.41" fill="#FF725E"/>
<path d="M291.503 233.287C291.491 235.645 290.767 237.941 289.43 239.862C288.093 241.783 286.209 243.235 284.034 244.019C284.237 245.932 283.767 247.856 282.71 249.447C281.653 251.039 280.077 252.194 278.264 252.707C276.451 253.219 274.519 253.056 272.812 252.246C271.106 251.435 269.737 250.031 268.95 248.284C268.647 247.334 268.201 246.439 267.629 245.631C266.121 243.939 263.439 244.489 261.256 243.939C257.341 242.938 255.383 238.262 255.481 234.138C255.579 233.33 255.579 232.513 255.481 231.705C255.119 230.073 253.778 228.912 252.74 227.62C248.492 222.314 249.539 214.075 253.445 208.499C254.747 206.646 256.382 204.674 256.127 202.412C255.819 201.173 255.324 199.99 254.659 198.908C253.82 197.014 253.558 194.906 253.907 192.858C254.256 190.809 255.2 188.916 256.616 187.425C257.066 187.16 257.41 186.742 257.589 186.245C257.768 185.747 257.77 185.201 257.595 184.702C257.142 181.674 257.827 178.583 259.513 176.051C261.198 173.52 263.759 171.735 266.679 171.056C267.037 171.012 267.385 170.904 267.707 170.736C268.588 170.185 268.519 168.904 268.568 167.853C268.696 165.069 270.418 159.773 272.347 157.841C277.711 152.435 283.535 156.089 285.649 157.841C285.649 157.841 290.945 177.393 290.456 181.148C289.966 184.902 287.94 194.303 289.291 198.407C290.641 202.512 292.961 210.951 291.571 214.846C290.181 218.74 291.503 233.287 291.503 233.287Z" fill="#FF725E"/>
<path d="M331.43 395.55C331.43 395.55 373.77 407.27 375.43 407.86C377.98 408.76 377.55 418.11 373.58 417.96C371.7 417.89 341.06 419.1 337.19 418.86C333.32 418.62 321.67 414 321.67 414L331.43 395.55Z" fill="#E8505B"/>
<path d="M349.07 411.7C349.28 411.7 349.57 409.49 350.93 407.16C352.29 404.83 354.06 403.43 353.93 403.26C353.8 403.09 351.75 404.26 350.32 406.8C348.89 409.34 348.89 411.72 349.07 411.7Z" fill="#263238"/>
<path d="M344.65 409.7C344.86 409.7 345.29 407.7 346.42 405.52C347.55 403.34 348.88 401.76 348.72 401.62C348.56 401.48 346.95 402.86 345.78 405.21C344.61 407.56 344.47 409.69 344.65 409.7Z" fill="#263238"/>
<path d="M340.51 408.59C340.73 408.59 340.56 406.46 341.51 404.12C342.46 401.78 343.97 400.31 343.82 400.12C343.67 399.93 341.82 401.27 340.82 403.82C339.82 406.37 340.34 408.65 340.51 408.59Z" fill="#263238"/>
<path d="M341.26 403.12C341.638 402.115 341.795 401.041 341.72 399.97C341.713 398.807 341.568 397.649 341.29 396.52C341.124 395.84 340.914 395.172 340.66 394.52C340.526 394.132 340.291 393.787 339.98 393.52C339.769 393.358 339.508 393.275 339.242 393.288C338.976 393.301 338.724 393.408 338.53 393.59C338.202 393.908 337.999 394.334 337.96 394.79C337.936 395.163 337.936 395.537 337.96 395.91C337.968 396.608 338.055 397.302 338.22 397.98C338.503 399.111 338.94 400.198 339.52 401.21C339.988 402.171 340.633 403.036 341.42 403.76C341.52 403.7 340.81 402.71 339.97 400.98C339.472 399.98 339.099 398.922 338.86 397.83C338.723 397.196 338.652 396.549 338.65 395.9C338.65 395.25 338.65 394.44 339.04 394.12C339.117 394.051 339.217 394.013 339.32 394.013C339.423 394.013 339.523 394.051 339.6 394.12C339.818 394.322 339.98 394.577 340.07 394.86C340.319 395.467 340.532 396.088 340.71 396.72C341.002 397.803 341.189 398.911 341.27 400.03C341.34 401.91 341.15 403.11 341.26 403.12Z" fill="#263238"/>
<path d="M341.21 402.69C340.347 402.333 339.412 402.182 338.48 402.25C337.469 402.25 336.461 402.374 335.48 402.62C334.876 402.751 334.294 402.966 333.75 403.26C333.394 403.426 333.102 403.705 332.921 404.055C332.74 404.404 332.68 404.803 332.75 405.19C332.845 405.554 333.037 405.887 333.304 406.152C333.571 406.418 333.905 406.607 334.27 406.7C334.894 406.855 335.546 406.855 336.17 406.7C337.172 406.45 338.109 405.99 338.92 405.35C339.702 404.834 340.381 404.176 340.92 403.41C340.133 403.863 339.381 404.375 338.67 404.94C337.882 405.474 336.999 405.853 336.07 406.06C335.554 406.185 335.016 406.185 334.5 406.06C334.261 405.993 334.044 405.866 333.869 405.691C333.694 405.516 333.567 405.299 333.5 405.06C333.459 404.821 333.499 404.576 333.613 404.362C333.727 404.148 333.909 403.979 334.13 403.88C334.613 403.617 335.127 403.415 335.66 403.28C336.594 403.016 337.552 402.848 338.52 402.78C340.15 402.64 341.19 402.81 341.21 402.69Z" fill="#263238"/>
<path d="M355.57 412.16C355.78 412.16 355.57 410.32 356.41 408.34C357.25 406.36 358.61 405.19 358.48 405.02C358.35 404.85 356.64 405.85 355.75 408.07C354.86 410.29 355.4 412.23 355.57 412.16Z" fill="#263238"/>
<path d="M326 414.11C326.516 414.428 327.066 414.686 327.64 414.88C329.175 415.474 330.748 415.962 332.35 416.34C337.655 417.502 343.081 418.016 348.51 417.87C354.86 417.8 360.58 417.52 364.72 417.35L369.63 417.09C370.235 417.086 370.838 417.022 371.43 416.9C370.831 416.808 370.225 416.777 369.62 416.81H364.71L348.51 417.13C343.128 417.262 337.748 416.82 332.46 415.81C328.44 415 326.08 414 326 414.11Z" fill="#263238"/>
<path d="M324.78 415.08C324.84 415.17 325.99 414.5 327.95 413.64C330.44 412.457 333.211 411.997 335.95 412.31C339.14 412.8 341.4 414.94 342.88 416.43C343.632 417.318 344.447 418.15 345.32 418.92C344.757 417.89 344.061 416.939 343.25 416.09C342.414 415.111 341.472 414.229 340.44 413.46C339.149 412.502 337.647 411.868 336.06 411.61C333.188 411.265 330.279 411.813 327.73 413.18C326.653 413.654 325.657 414.295 324.78 415.08Z" fill="#263238"/>
<g opacity="0.3">
<path opacity="0.3" d="M331.43 395.55C331.43 395.55 373.77 407.27 375.43 407.86C377.98 408.76 377.55 418.11 373.58 417.96C371.7 417.89 341.06 419.1 337.19 418.86C333.32 418.62 321.67 414 321.67 414L331.43 395.55Z" fill="black"/>
</g>
<path d="M270.5 340L262 349C262 349 246.5 340 216.5 343C204.18 343.68 191.66 357.14 189.27 367.14C186.88 377.14 186.55 390.94 200.91 400.52C215.27 410.1 286.68 415.39 286.68 415.39H314.93L361.1 354.5L362.5 347.5L270.5 340Z" fill="#263238"/>
<path d="M299.76 388.12C299.451 388.149 299.139 388.149 298.83 388.12C298.23 388.07 297.33 388.07 296.18 387.91C292.933 387.531 289.727 386.861 286.6 385.91C281.968 384.508 277.454 382.742 273.1 380.63C268.16 378.3 262.88 375.43 257.35 372.46C252.161 369.619 246.819 367.066 241.35 364.81C236.902 362.97 232.278 361.586 227.55 360.68C224.363 360.075 221.124 359.791 217.88 359.83C216.73 359.83 215.88 359.93 215.23 359.94C214.921 359.969 214.609 359.969 214.3 359.94C214.602 359.868 214.91 359.825 215.22 359.81C215.82 359.76 216.71 359.6 217.87 359.59C221.137 359.455 224.41 359.673 227.63 360.24C232.4 361.083 237.069 362.424 241.56 364.24C247.035 366.48 252.377 369.03 257.56 371.88C263.1 374.88 268.35 377.73 273.26 380.08C277.582 382.206 282.058 384.004 286.65 385.46C289.747 386.43 292.917 387.149 296.13 387.61C297.27 387.81 298.13 387.85 298.76 387.93C299.099 387.962 299.433 388.025 299.76 388.12Z" fill="#455A64"/>
<path d="M338.5 411.5C347.58 407.93 396.595 396.42 414.255 376C416.336 373.753 418 370 419 362.5C420.078 354.413 420.123 353.406 419 349.5C414.255 333 399.65 330.9 386.65 336.04C384.8 336.77 380.56 338.42 378.78 339.38C373.94 341.98 295.41 391.78 295.41 391.78C295.41 391.78 309.09 418.46 308.75 419.49L338.5 411.5Z" fill="#263238"/>
<path d="M357.74 351.21C357.675 351.277 357.601 351.334 357.52 351.38L356.87 351.83L354.3 353.5L344.82 359.5L313.42 379.24L296.36 389.87L296.47 389.52C300.1 398.26 303.2 405.72 305.42 411.04C306.48 413.65 307.33 415.73 307.93 417.22C308.2 417.9 308.41 418.45 308.58 418.87C308.666 419.055 308.73 419.25 308.77 419.45C308.66 419.279 308.566 419.098 308.49 418.91C308.31 418.5 308.06 417.96 307.76 417.29L305.1 411.18C302.83 405.87 299.66 398.45 295.95 389.74L295.85 389.52L296.06 389.39L313.06 378.72L344.56 359.13L354.15 353.26L356.77 351.68L357.46 351.29C357.65 351.24 357.73 351.2 357.74 351.21Z" fill="#455A64"/>
<path d="M275.46 358.894C274.647 358.725 273.864 358.431 273.14 358.024C271.338 357.163 269.62 356.136 268.01 354.954C266.397 353.761 264.898 352.422 263.53 350.954C262.924 350.386 262.408 349.728 262 349.004C262.14 348.874 264.64 351.704 268.37 354.414C272.1 357.124 275.54 358.714 275.46 358.894Z" fill="#455A64"/>
<path d="M316 352.62C316.124 353.658 316.165 354.705 316.12 355.75C316.12 357.68 316.23 360.33 316.49 363.25C316.75 366.17 317.16 368.8 317.49 370.7C317.725 371.719 317.875 372.756 317.94 373.8C317.535 372.837 317.243 371.83 317.07 370.8C316.519 368.338 316.128 365.843 315.9 363.33C315.668 360.814 315.604 358.285 315.71 355.76C315.685 354.706 315.782 353.652 316 352.62Z" fill="#455A64"/>
<path d="M321.79 352C321.79 352 322.02 351.94 322.4 352.08C322.936 352.299 323.391 352.68 323.7 353.17C323.943 353.537 324.102 353.953 324.166 354.389C324.23 354.824 324.197 355.269 324.07 355.69C323.879 356.209 323.535 356.657 323.083 356.975C322.631 357.293 322.093 357.465 321.54 357.47C320.986 357.524 320.429 357.403 319.948 357.123C319.467 356.843 319.086 356.419 318.86 355.91C318.716 355.492 318.673 355.046 318.733 354.608C318.794 354.17 318.958 353.753 319.21 353.39C319.534 352.905 320.019 352.55 320.58 352.39C320.78 352.318 321 352.318 321.2 352.39C320.53 352.604 319.957 353.046 319.58 353.64C319.394 353.95 319.281 354.298 319.248 354.658C319.215 355.018 319.264 355.381 319.39 355.72C319.584 356.105 319.891 356.423 320.27 356.63C320.648 356.837 321.081 356.924 321.51 356.88C321.94 356.875 322.359 356.743 322.715 356.501C323.07 356.259 323.347 355.918 323.51 355.52C323.622 355.174 323.661 354.809 323.625 354.448C323.589 354.087 323.478 353.737 323.3 353.42C322.944 352.811 322.42 352.318 321.79 352Z" fill="#455A64"/>
<path d="M297.64 350C297.841 350.28 297.987 350.596 298.07 350.93C298.363 351.82 298.501 352.753 298.48 353.69C298.469 355.089 298.159 356.47 297.57 357.74C296.882 359.33 295.752 360.69 294.315 361.658C292.877 362.626 291.192 363.161 289.46 363.2C288.061 363.263 286.664 363.031 285.36 362.52C284.489 362.179 283.679 361.699 282.96 361.1C282.684 360.894 282.447 360.64 282.26 360.35C283.268 361.067 284.359 361.658 285.51 362.11C286.768 362.546 288.101 362.726 289.43 362.64C291.053 362.573 292.625 362.057 293.972 361.149C295.319 360.242 296.388 358.979 297.06 357.5C297.641 356.305 297.981 355.007 298.06 353.68C298.07 352.441 297.929 351.205 297.64 350Z" fill="#455A64"/>
<path d="M344.22 359.3C343.591 359.399 342.947 359.308 342.37 359.04C340.904 358.533 339.649 357.554 338.8 356.256C337.951 354.959 337.557 353.416 337.68 351.87C337.664 351.232 337.842 350.605 338.19 350.07C338.28 350.07 338.1 350.78 338.12 351.88C338.122 353.313 338.539 354.714 339.322 355.914C340.105 357.114 341.219 358.061 342.53 358.64C343.53 359.09 344.23 359.2 344.22 359.3Z" fill="#455A64"/>
<path d="M375 399.17L375.3 399.01L376.2 398.57L379.66 396.9C382.66 395.44 387.01 393.34 392.25 390.5C398.445 387.288 402.483 385.732 407.84 381.26C410.963 378.587 413.753 375.549 416.15 372.21C418.506 368.468 419 359 419 354.5C419 352.5 418.538 349.803 417.63 347.768C417.182 346.777 416.713 345.161 416.09 344.27C415.458 343.402 414.74 342.277 414 341.5C412.524 340.01 411.135 338.814 409.5 337.5C408.035 336.133 405.397 335.282 403.5 334.638C401.658 334.151 399.224 334.342 397.32 334.418C395.519 334.449 393.725 334.646 391.96 335.008C388.79 335.692 385.74 336.845 382.91 338.428L370.56 345.278L367.19 347.128L366.31 347.598C366.214 347.663 366.11 347.713 366 347.748L366.29 347.568L367.15 347.058L370.48 345.138C373.38 343.488 377.55 341.078 382.78 338.138C385.627 336.527 388.697 335.348 391.89 334.638C393.677 334.265 395.495 334.058 397.32 334.018C399.261 333.934 401.733 333.746 403.61 334.248C405.556 334.894 408.24 335.763 409.74 337.16C411.394 338.481 412.8 339.687 414.29 341.19C415.045 341.976 415.773 343.115 416.41 344C417.056 344.911 417.542 346.55 418 347.568C419 350.5 419.5 352.5 419.5 355.5C419.5 360.5 418.271 369.523 416.47 372.39C414.05 375.756 411.229 378.815 408.07 381.5C402.685 385.993 398.609 387.556 392.37 390.76C387.1 393.56 382.73 395.63 379.71 397.04L376.22 398.64L375.3 399.04L375 399.17Z" fill="#455A64"/>
<path d="M298.73 395.81C298.73 395.81 256.24 407.01 254.54 407.58C251.98 408.45 252.29 417.8 256.26 417.7C258.14 417.7 288.77 419.25 292.64 419.05C296.51 418.85 307 414.87 307 414.87L298.73 395.81Z" fill="#E8505B"/>
<path d="M280.89 411.75C280.68 411.75 280.42 409.53 279.08 407.18C277.74 404.83 276 403.41 276.14 403.25C276.28 403.09 278.3 404.3 279.7 406.83C281.1 409.36 281.07 411.77 280.89 411.75Z" fill="#263238"/>
<path d="M285.33 409.8C285.12 409.8 284.72 407.8 283.62 405.6C282.52 403.4 281.21 401.81 281.36 401.67C281.51 401.53 283.12 402.94 284.25 405.29C285.38 407.64 285.51 409.79 285.33 409.8Z" fill="#263238"/>
<path d="M289.48 408.74C289.27 408.74 289.48 406.62 288.55 404.26C287.62 401.9 286.14 400.42 286.29 400.26C286.44 400.1 288.29 401.43 289.21 404C290.13 406.57 289.65 408.81 289.48 408.74Z" fill="#263238"/>
<path d="M288.8 403.27C288.433 402.259 288.29 401.181 288.38 400.11C288.407 398.945 288.568 397.788 288.86 396.66C289.029 395.979 289.246 395.31 289.51 394.66C289.647 394.271 289.885 393.926 290.2 393.66C290.413 393.5 290.676 393.422 290.942 393.438C291.207 393.454 291.458 393.565 291.65 393.75C291.98 394.065 292.176 394.495 292.2 394.95C292.241 395.322 292.258 395.696 292.25 396.07C292.228 396.768 292.131 397.463 291.96 398.14C291.664 399.272 291.209 400.356 290.61 401.36C290.133 402.315 289.478 403.17 288.68 403.88C288.59 403.82 289.31 402.88 290.17 401.12C290.681 400.128 291.067 399.077 291.32 397.99C291.464 397.356 291.541 396.71 291.55 396.06C291.55 395.41 291.55 394.59 291.18 394.28C291.112 394.2 291.016 394.15 290.912 394.139C290.808 394.127 290.703 394.157 290.62 394.22C290.402 394.422 290.24 394.677 290.15 394.96C289.887 395.564 289.667 396.186 289.49 396.82C289.179 397.894 288.975 398.996 288.88 400.11C288.74 402.05 288.92 403.25 288.8 403.27Z" fill="#263238"/>
<path d="M288.86 402.84C289.724 402.487 290.66 402.347 291.59 402.43C292.603 402.44 293.61 402.575 294.59 402.83C295.193 402.972 295.775 403.194 296.32 403.49C296.665 403.671 296.942 403.958 297.11 404.31C297.278 404.662 297.327 405.058 297.25 405.44C297.149 405.804 296.952 406.135 296.679 406.397C296.406 406.659 296.068 406.843 295.7 406.93C295.08 407.091 294.43 407.091 293.81 406.93C291.925 406.356 290.281 405.179 289.13 403.58C289.907 404.05 290.652 404.571 291.36 405.14C292.143 405.685 293.022 406.078 293.95 406.3C294.466 406.425 295.004 406.425 295.52 406.3C295.76 406.236 295.979 406.11 296.154 405.934C296.33 405.759 296.456 405.54 296.52 405.3C296.565 405.062 296.529 404.816 296.419 404.6C296.308 404.385 296.129 404.212 295.91 404.11C295.428 403.84 294.914 403.632 294.38 403.49C293.45 403.217 292.496 403.04 291.53 402.96C289.91 402.79 288.87 403 288.86 402.84Z" fill="#263238"/>
<path d="M274.38 412.12C274.17 412.12 274.38 410.29 273.59 408.29C272.8 406.29 271.42 405.11 271.59 404.95C271.76 404.79 273.42 405.81 274.28 408.03C275.14 410.25 274.55 412.2 274.38 412.12Z" fill="#263238"/>
<path d="M303.9 414.44C303.377 414.746 302.824 414.997 302.25 415.19C300.707 415.765 299.127 416.232 297.52 416.59C292.2 417.687 286.768 418.137 281.34 417.93C274.99 417.78 269.28 417.42 265.14 417.2L260.23 416.88C259.628 416.864 259.029 416.794 258.44 416.67C259.036 416.585 259.639 416.561 260.24 416.6L265.16 416.7L281.35 417.22C286.731 417.42 292.118 417.044 297.42 416.1C301.47 415.32 303.85 414.31 303.9 414.44Z" fill="#263238"/>
<path d="M305.14 415.42C305.08 415.52 303.93 414.83 301.98 413.95C299.502 412.727 296.729 412.228 293.98 412.51C290.78 412.96 288.49 415.08 286.98 416.51C286.216 417.388 285.391 418.21 284.51 418.97C285.086 417.944 285.795 416.999 286.62 416.16C287.464 415.19 288.417 414.321 289.46 413.57C290.761 412.632 292.265 412.015 293.85 411.77C296.73 411.456 299.637 412.043 302.17 413.45C303.257 413.947 304.26 414.611 305.14 415.42Z" fill="#263238"/>
<path d="M262.64 416.73C262.57 416.68 262.93 416.12 263.28 415.14C263.746 413.868 263.87 412.495 263.64 411.16C263.41 409.825 262.835 408.573 261.97 407.53C261.32 406.72 260.79 406.32 260.84 406.24C261.399 406.442 261.895 406.787 262.28 407.24C263.286 408.281 263.955 409.601 264.201 411.028C264.447 412.454 264.259 413.922 263.66 415.24C263.19 416.29 262.69 416.77 262.64 416.73Z" fill="#263238"/>
<path d="M289 233.5C273 235.5 270 237 270 237L257 284.5C257 284.5 252 317.62 252 324C252 337 254.173 341.491 261.5 347.5C267.257 350.925 278.418 346.52 294.5 349C310.582 351.48 315 354 328.5 352C342 350 346 349 357 350C368 351 371 340.95 372 330.95C373.55 315.45 369.811 315 367.5 297.5C365.189 280 346.019 235.807 346.019 235.807L322.5 231.5C322.5 231.5 305 231.5 289 233.5Z" fill="#CA444E"/>
<path d="M277.11 304.8C277.048 304.635 277.005 304.464 276.98 304.29L276.69 302.8C276.44 301.46 276.1 299.6 275.69 297.32C274.87 292.64 273.76 286.26 272.52 279.2C271.28 272.14 270.26 265.75 269.47 261.07C269.11 258.78 268.81 256.91 268.59 255.56C268.5 254.94 268.43 254.44 268.37 254.06C268.342 253.885 268.325 253.708 268.32 253.53C268.384 253.694 268.427 253.865 268.45 254.04C268.53 254.43 268.63 254.92 268.75 255.53C268.99 256.87 269.34 258.73 269.75 261.01C270.57 265.69 271.69 272.08 272.92 279.13C274.15 286.18 275.19 292.59 275.92 297.27C276.29 299.56 276.59 301.43 276.8 302.78C276.89 303.39 276.97 303.89 277.02 304.28C277.068 304.45 277.098 304.624 277.11 304.8Z" fill="#263238"/>
<path d="M323 231C322.671 231.31 322.318 231.593 321.945 231.849C321.587 232.103 321.123 232.369 320.606 232.698C320.089 233.027 319.435 233.345 318.718 233.642C317.026 234.381 315.257 234.929 313.445 235.276C311.248 235.706 309.018 235.94 306.78 235.976C304.407 236.04 302.139 235.976 300.094 235.775C298.272 235.663 296.461 235.422 294.673 235.053C293.465 234.797 292.29 234.402 291.171 233.875C290.867 233.734 290.571 233.575 290.285 233.398C290.096 233.271 289.99 233.207 290.001 233.186C290.011 233.165 290.444 233.387 291.235 233.727C292.365 234.194 293.537 234.549 294.736 234.788C296.517 235.113 298.317 235.318 300.125 235.403C302.161 235.541 304.417 235.637 306.769 235.584C308.984 235.54 311.191 235.32 313.371 234.926C315.145 234.597 316.88 234.085 318.549 233.398C320.097 232.725 321.586 231.923 323 231Z" fill="#263238"/>
<path d="M343.43 335.23C343.279 335.286 343.121 335.319 342.96 335.33L341.59 335.53C340.99 335.61 340.26 335.71 339.4 335.78C338.54 335.85 337.58 335.97 336.51 336.02C334.36 336.17 331.79 336.24 328.94 336.2C326.09 336.16 322.94 335.95 319.69 335.57C316.44 335.19 313.33 334.57 310.55 334C307.77 333.43 305.29 332.7 303.23 332C302.23 331.7 301.23 331.36 300.47 331.08C299.71 330.8 298.97 330.55 298.41 330.32L297.13 329.81C296.976 329.756 296.829 329.685 296.69 329.6C296.85 329.628 297.008 329.672 297.16 329.73L298.47 330.17C299.03 330.38 299.73 330.62 300.55 330.87C301.37 331.12 302.28 331.44 303.32 331.73C305.37 332.35 307.85 332.99 310.63 333.6C313.41 334.21 316.48 334.73 319.74 335.12C323 335.51 326.11 335.7 328.95 335.79C331.79 335.88 334.34 335.79 336.49 335.69C337.56 335.69 338.49 335.57 339.38 335.51C340.27 335.45 340.97 335.39 341.57 335.33L342.95 335.21C343.11 335.199 343.271 335.206 343.43 335.23Z" fill="#263238"/>
<path d="M351.53 277C351.378 276.681 351.264 276.345 351.19 276C351 275.39 350.75 274.49 350.45 273.38C349.84 271.16 349.06 268.08 348.3 264.66C347.54 261.24 346.94 258.11 346.54 255.85C346.35 254.71 346.2 253.79 346.11 253.16C346.04 252.831 346.007 252.496 346.01 252.16C346.133 252.482 346.217 252.818 346.26 253.16C346.41 253.87 346.6 254.76 346.82 255.82C347.29 258.07 347.94 261.18 348.7 264.6C349.46 268.02 350.19 271.11 350.7 273.34C350.95 274.4 351.16 275.34 351.33 275.99C351.427 276.32 351.494 276.658 351.53 277Z" fill="#263238"/>
<g opacity="0.3">
<path opacity="0.3" d="M299.39 233.9C300.27 236.9 299.45 241.36 299.88 244.08C301.715 254.951 302.302 265.996 301.63 277C301.546 277.598 301.583 278.207 301.74 278.79C301.97 279.29 302.269 279.754 302.63 280.17C304.84 283.09 305.41 286.99 304.96 290.63C304.361 294.248 303.299 297.773 301.8 301.12C301.72 298.19 301.88 293.8 302.11 290.88C302.16 290.29 302.46 290.67 302.47 290.08C302.57 286.56 301.98 283.3 299.47 280.79C298.934 280.333 298.463 279.805 298.07 279.22C297.799 278.627 297.64 277.99 297.6 277.34C296.08 265.047 295.043 252.713 294.49 240.34C294.386 239.647 294.527 238.939 294.89 238.34C295.295 237.965 295.754 237.652 296.25 237.41C297.2 236.79 297.79 235.69 298.81 235.2" fill="black"/>
</g>
<path d="M269.93 236.94C269.93 236.94 249.17 248.62 254 278.5C256.256 293.084 261.071 300.366 266.72 314C269.99 321.69 277.39 327 285.72 325.9C289.34 325.43 292.92 326 295.35 324.54C299.02 322.32 300.63 314.84 301.35 306.78C301.82 301.28 301.62 295.56 302.35 290.86C303.54 283.21 300.03 279.6 295.53 278.7L277.91 275.19L276.91 284.51L269.93 236.94Z" fill="#CA444E"/>
<path d="M284 296.42C284 296.42 284.34 296.78 285 297.29C285.966 298.001 287.099 298.453 288.29 298.6C290.064 298.778 291.855 298.524 293.51 297.86C295.581 297.155 297.494 296.051 299.14 294.61C300.704 293.099 301.733 291.119 302.07 288.97C302.336 287.212 302.122 285.416 301.45 283.77C300.76 282.279 299.808 280.925 298.64 279.77C299.055 279.967 299.428 280.242 299.74 280.58C300.652 281.427 301.386 282.446 301.9 283.58C302.691 285.298 302.972 287.207 302.71 289.08C302.39 291.385 301.305 293.515 299.63 295.13C297.913 296.638 295.905 297.779 293.73 298.48C291.973 299.152 290.073 299.366 288.21 299.1C286.954 298.897 285.78 298.346 284.82 297.51C284.15 296.9 283.94 296.44 284 296.42Z" fill="#263238"/>
<path d="M256.5 290C256.56 290 257.5 290.62 266.85 313.9C268.011 316.173 269.546 318.235 271.39 320C274.111 322.626 277.478 324.486 281.15 325.39C285.636 326.515 290.363 326.186 294.65 324.45C296.91 323.53 297.73 321.02 298.59 318.93C299.348 316.83 299.91 314.664 300.27 312.46C300.838 308.701 301.215 304.917 301.4 301.12C301.63 297.95 301.82 295.35 301.96 293.43C302.04 292.59 302.1 291.9 302.15 291.34C302.157 291.096 302.194 290.855 302.26 290.62C302.299 290.862 302.299 291.108 302.26 291.35C302.26 291.91 302.26 292.6 302.2 293.45C302.12 295.37 302 297.97 301.86 301.15C301.742 304.972 301.408 308.785 300.86 312.57C300.51 314.817 299.951 317.027 299.19 319.17C298.777 320.309 298.279 321.415 297.7 322.48C297.077 323.632 296.093 324.549 294.9 325.09C290.456 326.905 285.545 327.231 280.9 326.02C277.764 325.206 274.848 323.708 272.36 321.633C269.872 319.559 267.874 316.959 266.51 314.02C266.21 313.371 256.803 291.363 256.59 290.68C256.535 290.457 256.505 290.229 256.5 290Z" fill="#263238"/>
<path d="M272.3 298.38C272.176 297.187 272.176 295.983 272.3 294.79C272.42 292.58 272.63 289.53 272.9 286.16C273.05 284.47 273.16 282.88 273.34 281.41C273.442 280.056 273.912 278.756 274.7 277.65C275.261 276.913 276.059 276.394 276.96 276.18C277.6 276.05 277.96 276.18 277.96 276.18C277.96 276.18 277.61 276.18 277.05 276.41C276.264 276.704 275.587 277.231 275.11 277.92C273.8 279.65 273.96 282.85 273.62 286.19C273.28 289.53 273.06 292.6 272.82 294.8C272.758 296.007 272.584 297.205 272.3 298.38Z" fill="#263238"/>
<path d="M282.02 265.69C281.84 264.74 281.56 263.38 281.2 261.69C280.48 258.33 279.44 253.69 278.2 248.56C277.696 246.132 277.065 243.732 276.31 241.37C275.679 239.414 274.689 237.593 273.39 236L273 236.31C274.2 237.896 275.114 239.68 275.7 241.58C276.41 243.71 276.91 246.16 277.52 248.72C278.71 253.84 279.83 258.47 280.68 261.81C281.1 263.48 281.45 264.81 281.68 265.75C281.778 266.245 281.939 266.726 282.16 267.18C282.169 266.68 282.122 266.18 282.02 265.69Z" fill="#263238"/>
<g opacity="0.3">
<path opacity="0.3" d="M278.7 273.06C277.085 273.087 275.518 273.619 274.22 274.58C271.305 276.586 269.2 279.564 268.28 282.98C267.38 286.393 267.541 290 268.74 293.32C269.11 294.32 269.81 295.52 270.9 295.47C272.18 295.42 272.7 293.82 272.9 292.55C273.393 289.03 273.887 285.507 274.38 281.98C274.469 280.772 274.785 279.591 275.31 278.5C275.581 277.956 275.995 277.496 276.508 277.17C277.021 276.844 277.613 276.664 278.22 276.65L278.55 272.89" fill="black"/>
</g>
<path d="M397.39 289.14C399.885 284.938 401.3 280.183 401.51 275.3C401.696 270.157 403.02 265.52 401.51 260.6L377.5 253.5V260.5L397.39 289.14Z" fill="#CA444E"/>
<path d="M378.23 260.6C378.23 260.6 350 239 348 237C346 235 342.1 235.5 342.1 235.5L346 281.5C346 281.5 375.87 290.38 383.79 292.35C386.149 292.901 388.603 292.9 390.962 292.349C393.32 291.797 395.52 290.71 397.39 289.17L378.23 260.6Z" fill="#CA444E"/>
<path d="M389 280.36C388.703 280.268 388.425 280.122 388.18 279.93C387.469 279.473 386.8 278.955 386.18 278.38C384.166 276.452 382.528 274.167 381.35 271.64C380.191 269.128 379.27 266.514 378.6 263.83C378.33 262.83 378.14 261.97 378.01 261.39C377.924 261.094 377.877 260.788 377.87 260.48C378.303 261.538 378.664 262.624 378.95 263.73C379.719 266.36 380.678 268.93 381.82 271.42C382.979 273.893 384.54 276.157 386.44 278.12C387.88 279.6 389 280.29 389 280.36Z" fill="#263238"/>
<path d="M399.45 265.22C399.138 265.263 398.822 265.263 398.51 265.22C397.67 265.196 396.832 265.122 396 265C390.422 264.09 385.199 261.669 380.9 258C380.248 257.451 379.631 256.863 379.05 256.24C378.64 255.8 378.43 255.54 378.46 255.52C378.49 255.5 379.46 256.39 381.13 257.71C383.306 259.433 385.675 260.896 388.19 262.07C390.706 263.227 393.347 264.093 396.06 264.65C398.13 265 399.45 265.13 399.45 265.22Z" fill="#263238"/>
<path d="M379.83 277C379.334 276.32 378.952 275.563 378.7 274.76C378.029 272.848 377.625 270.852 377.5 268.83C377.379 266.831 377.395 264.826 377.55 262.83C377.559 261.994 377.663 261.162 377.86 260.35C377.96 261.179 377.98 262.017 377.92 262.85C377.92 264.38 377.86 266.5 378.02 268.85C378.136 270.831 378.472 272.793 379.02 274.7C379.5 276.07 379.91 276.93 379.83 277Z" fill="#263238"/>
<path d="M354 260.063C354.229 260.382 354.42 260.726 354.568 261.089C354.901 261.762 355.361 262.746 355.913 263.969C357.028 266.411 358.496 269.817 360.024 273.608C361.551 277.399 362.841 280.887 363.736 283.409C364.176 284.682 364.53 285.706 364.75 286.429C364.898 286.789 365 287.167 365.052 287.553C364.85 287.218 364.685 286.863 364.559 286.493L363.394 283.541C362.363 280.942 361.02 277.554 359.541 273.805C358.062 270.056 356.633 266.705 355.582 264.109C355.103 262.955 354.704 261.969 354.38 261.174C354.213 260.818 354.086 260.446 354 260.063Z" fill="#263238"/>
<path d="M275.5 278L282.04 229.83L296.72 235.62L298.61 285.46C298.61 285.46 293.91 292.56 285.98 289.65C283.71 288.814 280.5 287.42 278.5 285.46C276.5 283.5 275.739 282.907 275.5 280.5V278Z" fill="#FFBE9D"/>
<path d="M280.47 186.93L307.91 211.06L302.94 229.08L300.95 229.67L276.96 205.12L278.48 187.52L280.47 186.93Z" fill="#263238"/>
<path d="M278.48 187.52L305.92 211.65L300.95 229.67L274.97 205.71L278.48 187.52Z" fill="#455A64"/>
<path d="M297.34 237.2C299.018 235.345 299.991 232.959 300.09 230.46C300.03 226.76 299.01 217.88 299.01 217.88C299.01 217.88 303.78 207.88 303.66 206.51C303.54 205.14 303.32 205.2 301.61 205.73C299.9 206.26 294.61 215.42 294.61 215.42L292.88 208.64C292.88 208.64 297.3 201.52 297.65 200.52C298 199.52 298.58 198.71 297.48 198.62C296.38 198.53 288.07 206.57 288.07 206.57L288.74 214C288.74 214 288.57 214.59 287.38 213.55C286.19 212.51 286.49 203.64 286.49 203.64C286.49 203.64 289.31 198.39 289.25 197.64C289.19 196.89 289.76 196.06 289.25 194.76C288.74 193.46 287.06 194.96 287.06 194.96L281.55 202.18L279.55 195.03C279.55 195.03 279.63 193.51 277.65 193.5L278.42 216.67L283.42 234.5L297.34 237.2Z" fill="#FFBE9D"/>
<path d="M298.61 285.47C298.568 285.178 298.542 284.884 298.53 284.59C298.53 283.98 298.45 283.13 298.39 282.04C298.29 279.77 298.15 276.49 297.96 272.31C297.63 263.87 297.15 251.83 296.57 237.25V237.11L296.69 237.01C297.864 235.991 298.776 234.705 299.35 233.26C299.894 231.715 300.082 230.068 299.9 228.44C299.73 225.05 299.31 221.52 298.83 217.91V217.81V217.72C299.73 215.81 300.63 213.85 301.5 211.83C301.93 210.83 302.37 209.83 302.76 208.76C302.96 208.25 303.15 207.76 303.3 207.2L303.4 206.81C303.4 206.69 303.4 206.61 303.4 206.49C303.391 206.251 303.343 206.014 303.26 205.79C303.32 205.63 302.56 205.79 302.07 205.96C301.834 206.02 301.616 206.133 301.43 206.29C301.214 206.459 301.016 206.65 300.84 206.86C300.087 207.726 299.389 208.638 298.75 209.59C297.43 211.51 296.19 213.53 294.97 215.59L294.54 216.32L294.33 215.5L292.59 208.72V208.58L292.67 208.45L294.91 204.78C295.76 203.34 296.7 201.85 297.39 200.44C297.53 200.04 297.73 199.63 297.82 199.29C297.88 199.11 297.82 199.03 297.82 199.05C297.721 198.991 297.605 198.966 297.49 198.98C297.352 199.036 297.218 199.103 297.09 199.18C296.93 199.27 296.76 199.4 296.59 199.51C296.42 199.62 295.94 200 295.59 200.26C293.05 202.35 290.67 204.6 288.35 206.82L288.45 206.54C288.683 209.047 288.907 211.523 289.12 213.97V214V214.05C289.077 214.184 288.988 214.298 288.869 214.373C288.75 214.448 288.609 214.479 288.47 214.46C288.297 214.448 288.13 214.397 287.98 214.31C287.738 214.181 287.513 214.024 287.31 213.84C286.917 213.425 286.665 212.897 286.59 212.33C286.411 211.339 286.3 210.336 286.26 209.33C286.16 207.38 286.16 205.46 286.26 203.56V203.48V203.41C287.285 201.665 288.2 199.859 289 198C289.035 197.91 289.059 197.816 289.07 197.72C289.07 197.64 289.07 197.43 289.07 197.31C289.07 197.03 289.17 196.78 289.21 196.54C289.309 196.097 289.292 195.635 289.16 195.2C289.01 194.72 288.86 194.52 288.49 194.59C288.073 194.705 287.689 194.917 287.37 195.21L281.84 202.42L281.49 202.89L281.33 202.32C280.663 199.847 280.017 197.463 279.39 195.17V195C279.395 194.804 279.351 194.61 279.262 194.435C279.172 194.261 279.041 194.111 278.88 194C278.543 193.795 278.154 193.694 277.76 193.71L278.02 193.44C278.3 202.86 278.52 210.68 278.7 216.61C279.8 220.87 280.65 224.17 281.24 226.44L281.87 228.98C282 229.55 282.05 229.85 282.05 229.85C282.05 229.85 281.95 229.56 281.78 229L281.06 226.48C280.44 224.22 279.54 220.94 278.37 216.7L277.51 193.53V193.26H277.78C278.284 193.241 278.782 193.374 279.21 193.64C279.443 193.8 279.633 194.015 279.762 194.266C279.892 194.518 279.956 194.797 279.95 195.08V194.99C280.617 197.283 281.283 199.663 281.95 202.13L281.44 202.03L286.94 194.8C287.34 194.417 287.833 194.144 288.37 194.01C288.545 193.968 288.728 193.97 288.902 194.015C289.077 194.061 289.237 194.148 289.37 194.27C289.576 194.492 289.721 194.765 289.79 195.06C289.952 195.588 289.977 196.15 289.86 196.69C289.86 196.95 289.76 197.19 289.74 197.41C289.729 197.526 289.729 197.644 289.74 197.76C289.726 197.916 289.696 198.07 289.65 198.22C288.872 200.159 287.97 202.047 286.95 203.87V203.73C286.9 205.61 286.9 207.52 287.01 209.45C287.05 210.41 287.16 211.366 287.34 212.31C287.387 212.727 287.558 213.12 287.83 213.44C287.993 213.592 288.175 213.723 288.37 213.83L288.6 213.91C288.6 213.91 288.6 213.97 288.6 213.98C288.76 214.05 288.39 213.9 288.42 213.92V214C288.2 211.56 287.973 209.083 287.74 206.57V206.4L287.86 206.29C290.19 204.06 292.56 201.81 295.14 199.68C295.47 199.42 295.8 199.16 296.14 198.91C296.32 198.79 296.48 198.66 296.68 198.55C296.901 198.395 297.154 198.292 297.42 198.25C297.57 198.234 297.722 198.249 297.867 198.293C298.011 198.338 298.145 198.412 298.26 198.51C298.37 198.635 298.444 198.788 298.474 198.951C298.504 199.115 298.488 199.284 298.43 199.44C298.29 199.91 298.12 200.26 297.98 200.65C297.2 202.26 296.31 203.65 295.44 205.12L293.19 208.79L293.24 208.52L294.97 215.3L294.33 215.21C295.55 213.14 296.8 211.12 298.14 209.21C298.802 208.234 299.524 207.299 300.3 206.41C300.503 206.179 300.723 205.965 300.96 205.77C301.215 205.563 301.512 205.413 301.83 205.33C302.115 205.236 302.406 205.159 302.7 205.1C302.882 205.068 303.068 205.068 303.25 205.1C303.37 205.121 303.483 205.169 303.582 205.24C303.68 205.311 303.762 205.403 303.82 205.51C303.955 205.827 304.029 206.166 304.04 206.51C304.05 206.687 304.05 206.863 304.04 207.04L303.93 207.47C303.76 208.03 303.57 208.57 303.37 209.1C302.96 210.15 302.52 211.18 302.09 212.19C301.203 214.19 300.303 216.16 299.39 218.1V217.91C299.86 221.54 300.27 225.07 300.39 228.5C300.563 230.215 300.351 231.947 299.77 233.57C299.157 235.116 298.175 236.49 296.91 237.57L297.02 237.32C297.5 251.9 297.89 263.95 298.17 272.39C298.29 276.57 298.38 279.85 298.44 282.13C298.44 283.22 298.44 284.07 298.49 284.68C298.54 285.29 298.61 285.47 298.61 285.47Z" fill="#EB996E"/>
<path d="M282.63 214.74C282.44 214.74 282.06 211.92 281.78 208.4C281.5 204.88 281.44 202.02 281.63 202.01C281.82 202 282.21 204.84 282.48 208.35C282.75 211.86 282.83 214.72 282.63 214.74Z" fill="#EB996E"/>
<path d="M250.51 223L234.85 191.33C247.032 164.952 248.908 134.971 240.108 107.28C231.309 79.5892 212.47 56.1911 187.295 41.6845C162.12 27.1779 132.429 22.612 104.059 28.8843C75.6887 35.1566 50.6903 51.8134 33.9772 75.5808C17.2641 99.3483 10.045 128.507 13.7389 157.327C17.4329 186.147 31.7726 212.543 53.9397 231.327C76.1068 250.111 104.498 259.924 133.533 258.839C162.568 257.753 190.147 245.847 210.85 225.46V225.52L250.51 223Z" fill="#FAFAFA"/>
<path d="M250.51 223L210.86 225.63H210.64L210.75 225.45V225.39L210.93 225.53C208.027 228.387 204.979 231.094 201.8 233.64C200.14 235.04 198.31 236.32 196.48 237.7C194.65 239.08 192.65 240.36 190.58 241.61C181.538 247.274 171.75 251.649 161.5 254.61C149.517 258.06 137.061 259.579 124.6 259.11C110.529 258.566 96.6752 255.459 83.72 249.94C69.458 243.873 56.5419 235.035 45.72 223.94C33.685 211.551 24.5587 196.639 19.003 180.285C13.4473 163.931 11.6017 146.546 13.6 129.39C13.79 127.12 14.23 124.89 14.6 122.63C14.97 120.37 15.5 118.15 15.97 115.91C20.3729 97.5793 29.0993 80.5688 41.42 66.3L43.83 63.64L45 62.32L46.27 61.06L48.79 58.54L51.41 56.14C58.3765 49.8346 66.0949 44.4136 74.39 40C76.39 38.85 78.52 37.91 80.6 36.91C82.68 35.91 84.82 35.1 86.93 34.2C89.04 33.3 91.21 32.59 93.38 31.93C95.55 31.27 97.71 30.54 99.92 30.04C108.556 27.8131 117.415 26.562 126.33 26.31C149.962 25.7206 173.213 32.3384 192.992 45.2835C212.772 58.2286 228.142 76.8877 237.06 98.78C239.486 104.805 241.426 111.015 242.86 117.35C243.16 118.89 243.47 120.41 243.76 121.92C244.05 123.43 244.23 124.92 244.47 126.44L244.8 128.67C244.88 129.42 244.95 130.16 245.03 130.9C245.2 132.37 245.31 133.83 245.39 135.28C246.076 145.91 245.292 156.584 243.06 167C242.1 171.453 240.885 175.847 239.42 180.16C238.01 184.16 236.49 187.91 234.95 191.3V191.2C245.04 211.76 250.19 222.2 250.52 222.92L234.76 191.3V191.25C236.29 187.86 237.76 184.16 239.19 180.12C240.644 175.817 241.846 171.433 242.79 166.99C245.002 156.588 245.765 145.931 245.06 135.32C244.98 133.87 244.87 132.41 244.69 130.94C244.62 130.21 244.54 129.47 244.46 128.73L244.13 126.5C243.89 125.01 243.74 123.5 243.42 121.99C243.1 120.48 242.82 118.99 242.51 117.44C241.078 111.126 239.135 104.939 236.7 98.94C231.354 85.7696 223.605 73.708 213.85 63.37C202.661 51.4617 189.082 42.0516 174.003 35.7564C158.924 29.4611 142.685 26.4226 126.35 26.84C117.456 27.0866 108.617 28.331 100 30.55C97.81 31.05 95.67 31.79 93.5 32.43C91.33 33.07 89.26 34 87.11 34.7C84.96 35.4 82.88 36.41 80.81 37.4C78.74 38.39 76.64 39.33 74.64 40.48C66.3944 44.8535 58.7198 50.2274 51.79 56.48L49.17 58.87L46.67 61.38L45.41 62.64L44.21 64L41.81 66.64C38.6833 70.2475 35.778 74.0411 33.11 78C25.3276 89.5702 19.6786 102.44 16.43 116C15.97 118.23 15.43 120.45 15.07 122.69C14.71 124.93 14.3 127.16 14.07 129.42C12.0587 147.012 14.0868 164.83 20 181.52C25.5514 197.242 34.4496 211.572 46.08 223.52C56.8487 234.588 69.7072 243.408 83.91 249.47C96.8102 254.987 110.611 258.098 124.63 258.65C137.051 259.136 149.47 257.641 161.42 254.22C171.636 251.29 181.396 246.955 190.42 241.34C192.5 240.1 194.42 238.74 196.32 237.45C198.22 236.16 199.98 234.81 201.64 233.45C204.816 230.914 207.864 228.221 210.77 225.38L211.37 224.81L210.94 225.52V225.57L210.84 225.4L250.51 223Z" fill="#263238"/>
<path d="M69.52 242.69L189.28 242.5C189.28 242.5 160.65 261.5 126.28 259.23C96.38 257.29 69.52 242.69 69.52 242.69Z" fill="#455A64"/>
<path d="M122 162.35L128.84 187.35L153.84 153.66L147.86 242H112.24L101.85 242.5C101.85 242.5 103.39 228.57 104.03 220.71C104.418 214.445 105.478 208.239 107.19 202.2C112.51 184.85 122 162.35 122 162.35Z" fill="#FAFAFA"/>
<path d="M130 201.45C130.09 201.56 126.06 204.8 121 208.69C115.94 212.58 111.79 215.63 111.7 215.52C111.61 215.41 115.63 212.16 120.7 208.28C125.77 204.4 129.91 201.33 130 201.45Z" fill="#263238"/>
<path d="M192.01 150.17L172.61 140.84L165 131.79L154.24 142.98L125.7 241.75H174.64L180.91 224.8L192.01 159.36V150.17Z" fill="#E8505B"/>
<path d="M104.71 243.18L103.39 222.18L162.51 212.18C162.51 212.18 172.61 163.4 178.83 155.4C184.57 148.03 192.06 150.59 192.06 150.59C192.06 150.59 198.81 155.21 197.19 172.9C196.35 182.17 192.96 214.29 191.73 225.9C191.44 228.684 190.52 231.365 189.04 233.74C187.376 236.413 185.059 238.617 182.306 240.146C179.554 241.675 176.458 242.479 173.31 242.48L104.71 243.18Z" fill="#E8505B"/>
<path d="M172.17 224.38C172.08 224.38 172 223.45 171.57 222.02C171.01 220.156 170.078 218.424 168.83 216.93C167.567 215.451 166.019 214.241 164.28 213.37C162.93 212.7 162.02 212.46 162.05 212.37C162.879 212.429 163.689 212.653 164.43 213.03C166.285 213.822 167.93 215.038 169.23 216.58C170.531 218.122 171.452 219.948 171.92 221.91C172.16 222.71 172.245 223.548 172.17 224.38Z" fill="#263238"/>
<g opacity="0.2">
<path opacity="0.2" d="M171.09 142.26C170.527 148.433 169.344 154.534 167.56 160.47L163.12 159.17C163.963 160.527 164.516 162.045 164.743 163.627C164.97 165.208 164.867 166.82 164.44 168.36C163.571 171.431 162.279 174.366 160.6 177.08L138.54 216.71L160.78 166.22L160.2 156.88L164.48 155.96L171.09 142.26Z" fill="black"/>
</g>
<g opacity="0.2">
<path opacity="0.2" d="M162.32 211.62C165.034 211.464 167.72 212.249 169.922 213.843C172.125 215.437 173.71 217.743 174.41 220.37C174.61 220.988 174.61 221.652 174.41 222.27C174.303 222.573 174.083 222.824 173.797 222.971C173.511 223.118 173.179 223.15 172.87 223.06C172.447 222.798 172.137 222.388 172 221.91C171.021 219.705 169.606 217.721 167.842 216.077C166.077 214.432 163.998 213.161 161.73 212.34" fill="black"/>
</g>
<path d="M138.7 216.24C138.776 215.962 138.877 215.691 139 215.43L139.95 213.14C140.82 211.14 142.05 208.28 143.55 204.79C146.65 197.71 150.91 188.01 155.55 177.29C157.28 173.4 158.94 169.64 160.55 166.11V166.23C160.35 162.91 160.17 159.78 160 156.89V156.7H160.18L164.47 155.8L164.33 155.92L169.66 145.13L171.15 142.13L171.56 141.36C171.599 141.271 171.65 141.187 171.71 141.11C171.694 141.209 171.66 141.303 171.61 141.39L171.26 142.18C170.92 142.91 170.46 143.92 169.87 145.18L164.7 156.04V156.13H164.61L160.33 157.06L160.5 156.83C160.69 159.72 160.89 162.83 161.11 166.16V166.22V166.28C159.55 169.81 157.9 173.57 156.18 177.47L143.99 204.89C142.42 208.36 141.15 211.18 140.24 213.18C139.8 214.13 139.45 214.87 139.24 215.43C139.081 215.714 138.901 215.985 138.7 216.24Z" fill="#263238"/>
<path d="M104.66 242.49C104.652 242.373 104.652 242.257 104.66 242.14C104.66 241.88 104.66 241.54 104.58 241.14C104.51 240.2 104.41 238.88 104.29 237.14C104.06 233.69 103.73 228.74 103.29 222.65V222.48H103.45L146.22 214.62L162 211.76L161.8 211.95C165.26 198.78 168.27 187.35 170.42 179.17C171.51 175.17 172.42 171.9 172.98 169.64C173.28 168.55 173.52 167.7 173.69 167.09L173.88 166.43L173.96 166.22C173.96 166.22 173.96 166.29 173.96 166.45L173.81 167.11C173.66 167.73 173.45 168.59 173.18 169.68C172.61 171.95 171.79 175.2 170.76 179.25C168.66 187.44 165.76 198.88 162.32 212.07V212.23H162.16L146.39 215.1L103.6 222.82L103.76 222.62C104.09 228.72 104.36 233.62 104.55 237.13C104.63 238.82 104.69 240.13 104.73 241.13C104.73 241.56 104.73 241.9 104.73 242.13C104.718 242.252 104.695 242.373 104.66 242.49Z" fill="#263238"/>
<path d="M189 148.53C189 148.63 188 148.78 186.5 149.34C184.534 150.077 182.734 151.195 181.201 152.629C179.669 154.064 178.435 155.787 177.57 157.7C176.91 159.17 176.7 160.16 176.57 160.14C176.558 159.901 176.585 159.661 176.65 159.43C176.774 158.791 176.958 158.165 177.2 157.56C178 155.546 179.235 153.734 180.817 152.252C182.399 150.771 184.288 149.657 186.35 148.99C186.969 148.791 187.605 148.647 188.25 148.56C188.496 148.507 188.75 148.497 189 148.53Z" fill="#263238"/>
<path d="M77.27 126.31C79.02 123.08 78.27 110.04 80.94 110.5C84.38 111.09 81.2 124.8 80.94 126.05C80.68 127.3 82.53 127.6 82.66 126.47C82.85 124.83 84.86 108.89 88.25 109.78C90.13 110.28 89.25 113.71 89.25 113.71C89.25 113.71 86.4 129.17 88 129.54C89.6 129.91 90.85 121 91.57 117.75C92.29 114.5 94.29 113.31 95.05 114.95C96.18 117.35 94.05 125.13 93.37 128.26C92.69 131.39 91.12 140.42 95.5 136.89C99.88 133.36 104.56 132.25 106.02 132.82C107.48 133.39 107.15 135.61 105.47 136.06C103.69 136.724 102.008 137.626 100.47 138.74C99.249 139.648 98.1381 140.695 97.16 141.86C95.8389 143.297 94.7705 144.947 94 146.74C93.3765 148.154 92.4607 149.419 91.3128 150.453C90.1648 151.488 88.8109 152.267 87.34 152.74L84.78 164.92L68.2 161.36L71.89 148.48C73.24 140.01 72.49 128.63 72.51 123.48C72.51 115.22 73.6 115.16 74.51 115.38C76.68 115.81 75.56 129.46 77.27 126.31Z" fill="#FFD1BD"/>
<path d="M76.8 137.39C77.554 137.676 78.2888 138.01 79 138.39C80.6899 139.425 82.004 140.974 82.75 142.81C82.9673 143.373 83.1314 143.956 83.24 144.55L83.3 144.83L83.53 144.69C84.8625 143.913 86.3161 143.365 87.83 143.07C88.96 142.85 89.66 142.83 89.66 142.77C89.0411 142.665 88.4089 142.665 87.79 142.77C86.2236 142.995 84.7138 143.514 83.34 144.3L83.63 144.44C83.5242 143.814 83.3533 143.201 83.12 142.61C82.6899 141.561 82.0733 140.599 81.3 139.77C80.6691 139.104 79.9408 138.538 79.14 138.09C78.6087 137.798 78.0448 137.57 77.46 137.41C77.2431 137.363 77.0194 137.356 76.8 137.39Z" fill="#CC8F75"/>
<path d="M74.59 149C75.75 149.863 77.0633 150.497 78.46 150.87C79.8224 151.356 81.2644 151.58 82.71 151.53C82.71 151.4 80.82 151.19 78.58 150.48C76.34 149.77 74.65 148.88 74.59 149Z" fill="#CC8F75"/>
<path d="M134.62 136.99L121.95 162.35L128.79 187.34L146.97 168.12L164.9 134.81L134.62 136.99Z" fill="#FFD1BD"/>
<path d="M122.7 139.37C122.7 139.37 104.7 145.77 104.7 146.96C101.52 149.45 90.93 175.05 87.56 179.9L77.93 194.08L86 162.56L68.23 157.34C68.23 157.34 53.05 194 51.2 202.17C50.0876 206.996 50.1873 212.022 51.49 216.8L51.59 216.72C52.7293 220.373 55.0781 223.529 58.25 225.67C65.78 230.5 72.82 231.41 80.02 226.09C84.1 223.09 88.76 219.44 93.02 216.04L94.14 242.52H104C104 241.03 103.7 222.89 103.7 222.89C104.983 218.596 105.985 214.224 106.7 209.8C107.59 203.56 122.21 162.58 122.21 162.58L133.56 140.72L133.82 132.63L122.7 139.37Z" fill="#E8505B"/>
<path d="M94 242.29C93.9456 242.02 93.9188 241.745 93.92 241.47C93.92 240.88 93.83 240.09 93.77 239.09C93.66 236.98 93.51 234 93.32 230.31C92.98 222.83 92.52 212.52 91.99 200.96V200.9C92.2 199.8 92.43 198.64 92.65 197.46L98.76 166.31C99.55 162.37 100.2 159.16 100.66 156.89C100.89 155.81 101.07 154.96 101.21 154.33L101.36 153.67C101.374 153.591 101.397 153.514 101.43 153.44C101.445 153.519 101.445 153.601 101.43 153.68L101.32 154.35L100.87 156.93L99.13 166.39C97.6 174.39 95.49 185.39 93.13 197.57C92.91 198.74 92.68 199.91 92.47 201V200.94C92.93 212.5 93.34 222.82 93.63 230.3C93.75 233.99 93.85 236.97 93.92 239.09C93.92 240.09 93.94 240.88 93.98 241.46C94.0087 241.736 94.0154 242.013 94 242.29Z" fill="#263238"/>
<path d="M104 218.79C104.003 218.511 104.033 218.233 104.09 217.96C104.17 217.38 104.29 216.59 104.44 215.6C104.79 213.5 105.27 210.6 105.86 206.92C107.11 199.56 108.86 189.48 110.72 178.33C111.99 171.04 113.18 164.2 114.2 158.33V158.28C116.7 152.62 118.79 147.89 120.27 144.52C121 142.9 121.59 141.61 122.01 140.67C122.2 140.26 122.36 139.93 122.48 139.67C122.6 139.41 122.65 139.33 122.67 139.34C122.644 139.464 122.604 139.585 122.55 139.7C122.44 139.97 122.3 140.31 122.14 140.7C121.74 141.64 121.2 142.95 120.52 144.59C119.07 147.98 117.04 152.74 114.62 158.43V158.38C113.62 164.21 112.46 171.05 111.21 178.38L106.21 206.95C105.55 210.56 105.02 213.5 104.63 215.59L104.18 217.94C104.14 218.227 104.08 218.511 104 218.79Z" fill="#263238"/>
<path d="M69.52 215.85C69.45 215.85 70.22 214.7 71.3 212.85C72.6966 210.403 73.9034 207.852 74.91 205.22C75.911 202.58 76.7394 199.878 77.39 197.13C77.89 195.02 78.12 193.7 78.2 193.71C78.2504 194.025 78.2504 194.345 78.2 194.66C78.14 195.27 78.01 196.14 77.8 197.21C77.2523 200.002 76.466 202.742 75.45 205.4C74.4207 208.052 73.1346 210.598 71.61 213C71.1561 213.734 70.6655 214.445 70.14 215.13C69.77 215.62 69.55 215.87 69.52 215.85Z" fill="#263238"/>
<g opacity="0.2">
<path opacity="0.2" d="M70.88 214.39C70.7177 214.425 70.5653 214.496 70.4345 214.599C70.3037 214.701 70.1977 214.832 70.1246 214.981C70.0515 215.13 70.0131 215.294 70.0123 215.46C70.0115 215.626 70.0483 215.79 70.12 215.94C70.2914 216.231 70.5486 216.463 70.8565 216.602C71.1644 216.742 71.5079 216.783 71.84 216.72C72.5042 216.583 73.1131 216.252 73.59 215.77C75.0351 214.279 76.0688 212.44 76.59 210.43C78.11 205.61 78.19 200.43 78.25 195.43C76.8291 202.019 74.3359 208.329 70.87 214.11" fill="black"/>
</g>
<g opacity="0.2">
<path opacity="0.2" d="M92.74 216.74C89.8314 211.866 88.5593 206.189 89.11 200.54C89.65 192.84 93.39 185.8 96.18 178.61C94.58 186.17 93.66 193.68 92.18 200.95C92.18 200.95 92.96 211.76 92.98 216.55" fill="black"/>
</g>
<g opacity="0.2">
<path opacity="0.2" d="M105.16 211.92C105.94 200.4 106.73 188.86 108.76 177.5C110.816 165.872 114.733 154.651 120.36 144.27C118.91 148.83 114.44 158.41 114.44 158.41C114.44 158.41 107.98 192.41 105.19 209.57" fill="black"/>
</g>
<path d="M103.71 225.16L105.32 243H96.89L89.43 242.88C86.5842 243.188 83.7179 243.262 80.86 243.1C80.63 243.1 80.49 243.05 80.47 243.01C80.0269 242.953 79.5911 242.849 79.17 242.7C78.41 242.42 77.62 241.93 77.75 241.09C78.12 238.53 79.64 238.32 79.64 238.32L80.4 238.27L80.46 238.05C79.3 238.05 78.33 238.05 77.82 237.96C77.58 237.96 77.44 237.91 77.42 237.87C77.4 237.83 74.42 237.52 74.66 235.94C75.03 233.38 76.55 233.17 76.55 233.17L79 233C77.8 233 76.79 233 76.26 232.91C76.03 232.91 75.88 232.86 75.87 232.82C75.86 232.78 72.87 232.47 73.11 230.89C73.48 228.33 75 228.12 75 228.12L77 227.98C76 227.98 75.24 227.98 74.78 227.9C74.55 227.9 74.41 227.9 74.39 227.81C74.37 227.72 71.39 227.46 71.63 225.87C72 223.31 73.52 223.11 73.52 223.11C73.52 223.11 78.22 222.77 81.45 222.64C81.45 222.64 85.12 219.33 86.56 219.49C88.72 219.71 101.26 224.34 101.26 224.34L103.71 225.16Z" fill="#FFD1BD"/>
<path d="M87.88 237.78C86.5074 238.078 85.1043 238.213 83.7 238.18C82.3232 238.307 80.936 238.264 79.57 238.05C80.9408 237.739 82.345 237.602 83.75 237.64C85.1269 237.506 86.5154 237.553 87.88 237.78Z" fill="#CC8F75"/>
<path d="M87.91 232.71C85.9491 233.053 83.9606 233.214 81.97 233.19C79.9724 233.349 77.9647 233.332 75.97 233.14C77.9309 232.796 79.9192 232.632 81.91 232.65C83.9078 232.491 85.9158 232.511 87.91 232.71Z" fill="#CC8F75"/>
<g opacity="0.78">
<path opacity="0.78" d="M87.49 227.57C85.5249 227.906 83.5337 228.067 81.54 228.05C79.5424 228.215 77.5339 228.195 75.54 227.99C77.5018 227.654 79.4897 227.493 81.48 227.51C83.4809 227.345 85.4928 227.365 87.49 227.57Z" fill="#CC8F75"/>
</g>
<path d="M80.11 222.73C80.7323 222.851 81.3663 222.901 82 222.88L86.57 223.03L91.14 223.19C91.771 223.267 92.409 223.267 93.04 223.19C92.4255 223.026 91.7952 222.929 91.16 222.9C89.99 222.79 88.37 222.67 86.58 222.61C84.79 222.55 83.17 222.55 82 222.61C81.3675 222.575 80.733 222.615 80.11 222.73Z" fill="#CC8F75"/>
<path d="M173.19 77.26C175.3 72.1 182.01 69.76 187.24 71.68C192.47 73.6 196 79 196.6 84.5C197.033 87.2336 196.465 90.0318 195 92.38C194.123 93.5271 193.022 94.4839 191.763 95.1922C190.505 95.9004 189.116 96.3454 187.68 96.5C185.114 96.859 182.499 96.5289 180.103 95.5434C177.707 94.5579 175.617 92.9527 174.046 90.8924C172.475 88.8321 171.481 86.3909 171.166 83.8195C170.85 81.2481 171.224 78.639 172.25 76.26" fill="#263238"/>
<path d="M194.48 77.94C194.48 77.94 194.38 78.21 194.1 78.62C193.701 79.2072 193.253 79.7592 192.76 80.27C191.116 81.9611 189.097 83.2409 186.866 84.0054C184.635 84.7699 182.255 84.9976 179.92 84.67C179.218 84.5745 178.525 84.4172 177.85 84.2C177.593 84.1482 177.348 84.0463 177.13 83.9C177.13 83.81 178.21 84.15 179.96 84.31C182.237 84.533 184.535 84.2636 186.699 83.5199C188.863 82.7762 190.841 81.5758 192.5 80C193.78 78.8 194.41 77.89 194.48 77.94Z" fill="#455A64"/>
<path d="M196.7 83.82C196.7 83.82 196.52 84.04 196.13 84.36C195.574 84.8125 194.993 85.2332 194.39 85.62C192.398 86.9143 190.19 87.8391 187.87 88.35C186.585 88.6157 185.271 88.7199 183.96 88.66C182.894 88.6074 181.837 88.4329 180.81 88.14C180.122 87.952 179.452 87.7009 178.81 87.39C178.36 87.17 178.11 87.03 178.13 87C178.15 86.97 179.13 87.38 180.92 87.79C181.932 88.0182 182.963 88.1488 184 88.18C185.272 88.2089 186.543 88.0948 187.79 87.84C190.052 87.3323 192.222 86.4753 194.22 85.3C195.75 84.41 196.65 83.75 196.7 83.82Z" fill="#455A64"/>
<path d="M119.11 92.65C106.73 65.42 136.18 51.74 152.24 56.28C167.34 60.55 173.78 68.06 176.24 78.16C178.7 88.26 178.6 99.16 174.64 108.83C172.69 113.57 169.18 118.39 164.08 118.99" fill="#263238"/>
<path d="M133.9 159.94C133.68 146.94 133.53 129.06 133.53 129.14C133.53 129.22 122.34 127.28 120.03 112.69C118.88 105.44 119.24 93.54 119.85 83.82C120.41 75.06 126.2 64.33 134.92 65.25L162.16 72.13C163.438 72.2673 164.618 72.8784 165.468 73.8428C166.317 74.8072 166.775 76.0549 166.75 77.34L165 133.66" fill="#FFD1BD"/>
<path d="M126.53 94.18C126.522 94.6643 126.701 95.1329 127.031 95.4873C127.362 95.8417 127.816 96.0542 128.3 96.08C128.536 96.1019 128.775 96.0763 129.001 96.0048C129.227 95.9333 129.437 95.8172 129.617 95.6635C129.798 95.5098 129.946 95.3215 130.053 95.1096C130.16 94.8978 130.224 94.6667 130.24 94.43C130.254 93.9443 130.076 93.4728 129.744 93.1173C129.413 92.7618 128.955 92.5508 128.47 92.53C128.234 92.5081 127.995 92.5337 127.769 92.6052C127.543 92.6767 127.333 92.7928 127.153 92.9465C126.972 93.1002 126.824 93.2886 126.717 93.5004C126.61 93.7122 126.546 93.9433 126.53 94.18Z" fill="#263238"/>
<path d="M146.71 94.18C146.699 94.665 146.878 95.1351 147.209 95.49C147.539 95.8449 147.995 96.0567 148.48 96.08C148.716 96.1019 148.955 96.0763 149.181 96.0048C149.407 95.9333 149.617 95.8172 149.797 95.6635C149.978 95.5098 150.126 95.3215 150.233 95.1096C150.34 94.8978 150.404 94.6667 150.42 94.43C150.431 93.945 150.252 93.475 149.921 93.12C149.591 92.7651 149.135 92.5534 148.65 92.53C148.414 92.5081 148.175 92.5337 147.949 92.6052C147.723 92.6767 147.513 92.7928 147.333 92.9465C147.152 93.1002 147.004 93.2886 146.897 93.5004C146.79 93.7122 146.726 93.9433 146.71 94.18Z" fill="#263238"/>
<path d="M134.63 104.51C133.568 104.18 132.47 103.982 131.36 103.92C130.85 103.92 130.36 103.77 130.28 103.42C130.235 102.887 130.353 102.353 130.62 101.89L132.14 98C134.25 92.42 135.78 87.84 135.55 87.76C135.32 87.68 133.44 92.12 131.32 97.7C130.82 99.07 130.32 100.38 129.87 101.64C129.546 102.254 129.45 102.962 129.6 103.64C129.675 103.823 129.79 103.986 129.937 104.118C130.085 104.25 130.26 104.346 130.45 104.4C130.734 104.474 131.026 104.514 131.32 104.52C132.419 104.663 133.532 104.659 134.63 104.51Z" fill="#263238"/>
<path d="M133.5 129.2C140.356 129.301 147.105 127.501 153 124C153 124 148.06 134.15 133.46 132.79L133.5 129.2Z" fill="#CC8F75"/>
<path d="M164 95.74C164.21 95.64 171.81 92.28 171.9 101.01C171.99 109.74 163.2 108.01 163.18 107.78C163.16 107.55 164 95.74 164 95.74Z" fill="#FFD1BD"/>
<path d="M165.78 104.45C165.78 104.45 165.93 104.55 166.19 104.67C166.555 104.819 166.965 104.819 167.33 104.67C168.25 104.32 169.01 102.85 169.03 101.27C169.047 100.523 168.897 99.7814 168.59 99.1C168.495 98.8393 168.341 98.6042 168.14 98.4133C167.938 98.2224 167.695 98.0809 167.43 98C167.255 97.9559 167.07 97.9747 166.907 98.0533C166.744 98.132 166.614 98.2653 166.54 98.43C166.42 98.68 166.48 98.85 166.43 98.87C166.38 98.89 166.24 98.72 166.31 98.36C166.354 98.1419 166.475 97.9468 166.65 97.81C166.89 97.6271 167.191 97.5447 167.49 97.58C167.849 97.6482 168.184 97.8072 168.464 98.0417C168.745 98.2763 168.96 98.5786 169.09 98.92C169.469 99.6692 169.658 100.5 169.64 101.34C169.64 103.11 168.72 104.76 167.46 105.14C167.227 105.213 166.98 105.231 166.739 105.193C166.498 105.155 166.269 105.062 166.07 104.92C165.79 104.66 165.75 104.46 165.78 104.45Z" fill="#CC8F75"/>
<path d="M135.23 110.12C135.486 110.878 135.85 111.595 136.31 112.25C136.542 112.574 136.84 112.845 137.185 113.045C137.53 113.245 137.913 113.37 138.31 113.41C138.738 113.411 139.159 113.304 139.535 113.1C139.91 112.895 140.229 112.6 140.46 112.24C140.911 111.514 141.118 110.662 141.05 109.81C141.05 109.04 140.67 108.12 139.9 108.03C139.581 108.017 139.265 108.086 138.98 108.23L134.98 109.86" fill="#CC8F75"/>
<path d="M136.83 113.44C137.557 113.495 138.287 113.407 138.98 113.18C139.682 112.909 140.257 112.385 140.59 111.71C140.786 111.301 140.892 110.855 140.903 110.401C140.913 109.948 140.827 109.498 140.65 109.08C140.557 108.867 140.44 108.666 140.3 108.48C140.14 108.31 140.17 108.32 139.99 108.35C139.772 108.422 139.559 108.505 139.35 108.6L138.69 108.87C137.83 109.21 137.05 109.52 136.4 109.76C135.71 110.097 134.971 110.32 134.21 110.42C134.814 109.944 135.489 109.566 136.21 109.3C136.84 108.99 137.6 108.64 138.44 108.3L139.09 108.01C139.33 107.894 139.577 107.794 139.83 107.71C140.021 107.645 140.229 107.645 140.42 107.71C140.595 107.786 140.747 107.907 140.86 108.06C141.3 108.622 141.566 109.3 141.624 110.011C141.683 110.721 141.532 111.434 141.19 112.06C140.765 112.85 140.047 113.443 139.19 113.71C138.627 113.892 138.024 113.913 137.45 113.77C137 113.62 136.82 113.48 136.83 113.44Z" fill="#263238"/>
<path d="M173.76 89.76C172.86 89.7 165.65 90.63 166.22 104.04C166.75 116.57 175.53 113.81 178.34 109.04C181 104.63 182.53 90.38 173.76 89.76Z" fill="#455A64"/>
<path d="M178.22 91.35C178.203 91.2306 178.203 91.1094 178.22 90.99C178.22 90.73 178.22 90.39 178.22 89.99C178.22 89.07 178.16 87.78 178.11 86.17C178.05 82.88 177.95 78.31 177.85 73.02L178.01 73.18H174.29L174.46 73C174.46 74 174.51 75.06 174.54 76.13C174.67 81.13 174.78 85.84 174.88 89.77V89.88H174.77C173.248 90.2341 171.895 91.1031 170.94 92.34C170.221 93.3086 169.701 94.4097 169.41 95.58C169.213 96.3304 169.083 97.0967 169.02 97.87C169.02 98.14 169.02 98.34 168.97 98.48C168.92 98.62 168.97 98.69 168.97 98.69C168.97 98.69 168.97 98.62 168.97 98.48C168.97 98.34 168.97 98.13 168.97 97.86C169.002 97.0782 169.109 96.3013 169.29 95.54C169.56 94.3384 170.074 93.205 170.8 92.21C171.774 90.9076 173.17 89.9848 174.75 89.6L174.64 89.74C174.53 85.82 174.39 81.14 174.25 76.1C174.25 75.04 174.19 73.98 174.16 72.98V72.81H178.21V73C178.27 78.28 178.32 82.86 178.36 86.15C178.36 87.75 178.36 89.04 178.36 89.97V90.97C178.324 91.1003 178.277 91.2274 178.22 91.35Z" fill="#455A64"/>
<path d="M173.75 73C171.053 67.3303 166.575 62.6982 161 59.81C157.566 58.0898 153.955 56.7486 150.23 55.81C150.23 55.81 155.48 54.57 163.96 58.34C167.82 60.06 171.71 62.29 174.27 65.64C175.91 67.77 177.94 71.92 177.94 72.99L173.75 73Z" fill="#455A64"/>
<path d="M172.8 112.84C172.71 112.834 172.621 112.81 172.54 112.77C172.307 112.673 172.083 112.555 171.87 112.42C171.094 111.909 170.447 111.224 169.98 110.42C169.318 109.208 168.922 107.868 168.82 106.49C168.67 104.827 168.67 103.153 168.82 101.49C168.956 99.8228 169.234 98.1702 169.65 96.55C169.938 95.206 170.423 93.912 171.09 92.71C171.557 91.9032 172.208 91.218 172.99 90.71C173.2 90.5729 173.425 90.4589 173.66 90.37C173.742 90.3305 173.83 90.3068 173.92 90.3C173.92 90.3 173.59 90.45 173.06 90.82C172.333 91.3516 171.729 92.0338 171.29 92.82C170.689 94.0114 170.255 95.28 170 96.59C169.61 98.2007 169.342 99.8388 169.2 101.49C169.063 103.154 169.063 104.826 169.2 106.49C169.282 107.83 169.643 109.138 170.26 110.33C170.689 111.12 171.291 111.804 172.02 112.33C172.47 112.69 172.81 112.81 172.8 112.84Z" fill="#263238"/>
<path d="M143.877 110.818L136.968 112.174C136.047 112.354 135.447 113.248 135.627 114.169L135.729 114.689C135.91 115.611 136.804 116.211 137.725 116.03L144.633 114.675C145.554 114.494 146.155 113.601 145.974 112.679L145.872 112.159C145.691 111.238 144.798 110.638 143.877 110.818Z" fill="#455A64"/>
<path d="M145 111.83L175.66 102.21C176.025 102.097 176.419 102.132 176.758 102.308C177.097 102.484 177.353 102.787 177.47 103.15C177.528 103.336 177.548 103.533 177.529 103.727C177.51 103.921 177.452 104.11 177.359 104.281C177.266 104.453 177.139 104.604 176.986 104.726C176.834 104.847 176.658 104.937 176.47 104.99L145.12 113.46L145 111.83Z" fill="#455A64"/>
<path d="M167.66 107.6C167.984 107.458 168.318 107.341 168.66 107.25L171.46 106.39C172.64 106.03 174.08 105.65 175.61 105.15C175.983 105.015 176.323 104.804 176.61 104.53C176.887 104.243 177.042 103.859 177.04 103.46C177.04 103.266 176.979 103.077 176.866 102.919C176.753 102.761 176.594 102.643 176.41 102.58C175.991 102.466 175.549 102.466 175.13 102.58L165.94 105.58L163.14 106.44C162.814 106.558 162.48 106.652 162.14 106.72C162.461 106.557 162.795 106.423 163.14 106.32L165.9 105.32C168.25 104.53 171.47 103.42 175.09 102.32C175.569 102.175 176.081 102.175 176.56 102.32C176.807 102.403 177.022 102.562 177.174 102.774C177.327 102.985 177.409 103.239 177.41 103.5C177.412 103.741 177.366 103.98 177.275 104.203C177.184 104.426 177.05 104.629 176.88 104.8C176.561 105.106 176.179 105.339 175.76 105.48C174.17 105.99 172.76 106.33 171.57 106.67L168.73 107.42C168.38 107.515 168.022 107.575 167.66 107.6Z" fill="#263238"/>
<path d="M151.58 89.9C151.34 90.27 149.24 89.12 146.64 89.59C144.04 90.06 142.43 91.81 142.09 91.59C141.92 91.48 142.09 90.83 142.79 90.04C143.739 89.0206 144.996 88.3397 146.368 88.1013C147.74 87.863 149.153 88.0803 150.39 88.72C151.31 89.18 151.69 89.73 151.58 89.9Z" fill="#CC8F75"/>
<path d="M151.28 90.23C150.792 90.1384 150.311 90.0148 149.84 89.86C148.706 89.5974 147.527 89.5941 146.391 89.8503C145.255 90.1066 144.192 90.6158 143.28 91.34C142.57 91.89 142.2 92.34 142.14 92.28C142.08 92.22 142.35 91.72 143.04 91.06C143.946 90.2069 145.064 89.6129 146.278 89.3402C147.492 89.0675 148.757 89.1262 149.94 89.51C150.84 89.81 151.31 90.17 151.28 90.23Z" fill="#263238"/>
<path d="M152.63 84.36C152.41 85.06 150.18 85.01 147.53 85.14C144.88 85.27 142.64 85.42 142.39 84.73C142.27 84.4 142.73 83.89 143.64 83.43C144.827 82.8706 146.118 82.5641 147.43 82.53C148.742 82.4676 150.052 82.6753 151.28 83.14C152.23 83.54 152.72 84 152.63 84.36Z" fill="#263238"/>
<path d="M130.64 91.44C130.44 91.55 130.04 91.18 129.41 90.74C128.62 90.185 127.714 89.819 126.76 89.67C124.5 89.29 122.68 90.34 122.42 89.97C122.3 89.81 122.61 89.3 123.42 88.8C124.502 88.1654 125.771 87.9252 127.01 88.12C128.274 88.3088 129.415 88.9833 130.19 90C130.76 90.74 130.81 91.35 130.64 91.44Z" fill="#CC8F75"/>
<path d="M130.89 92.52C130.82 92.52 130.48 92.07 129.77 91.44C128.853 90.6331 127.75 90.0662 126.56 89.79C125.374 89.5629 124.151 89.6351 123 90C122.09 90.27 121.58 90.59 121.54 90.52C121.5 90.45 121.95 90.04 122.88 89.65C124.1 89.1651 125.435 89.0503 126.72 89.32C128.004 89.6043 129.174 90.266 130.08 91.22C130.461 91.5738 130.74 92.0225 130.89 92.52Z" fill="#263238"/>
<path d="M131.79 85.24C131.66 85.95 129.53 86.16 127.01 86.24C124.49 86.32 122.35 86.08 122.21 85.36C122.07 84.64 124.21 83.65 126.99 83.63C129.77 83.61 131.93 84.54 131.79 85.24Z" fill="#263238"/>
<path d="M155.34 64.55C153.645 66.8505 152.297 69.3876 151.34 72.08C150.876 73.4319 150.713 74.8685 150.862 76.2899C151.01 77.7113 151.467 79.0832 152.2 80.31C153.74 82.56 156.37 83.75 158.77 85.06C161.17 86.37 163.62 88.16 164.22 90.83C164.4 91.66 164.05 94.57 164.67 95.16C165.53 95.95 167.04 95.46 167.67 94.49C168.3 93.52 168.75 90.31 168.76 89.14L168.92 78.24C168.92 75.16 168.92 71.97 167.59 69.24C165.72 65.36 161.86 64.12 156.22 64.4" fill="#263238"/>
<path d="M119.52 86.43C119.953 82.7215 121.384 79.1999 123.66 76.24C125.973 73.284 129.302 71.2919 133 70.65C136.68 70.1 140.4 71.12 144.11 71.33C147.82 71.54 152.11 70.63 154 67.46C154.6 66.46 154.89 65.08 154.12 64.22C153.799 63.9073 153.418 63.6624 153 63.5C148.063 61.1026 142.531 60.2089 137.09 60.93C131.635 61.6915 126.665 64.4712 123.16 68.72C121.451 70.8519 120.245 73.3425 119.634 76.0058C119.023 78.6691 119.021 81.4361 119.63 84.1" fill="#263238"/>
<path d="M117.3 81C117.216 80.8509 117.159 80.6885 117.13 80.52C116.992 80.0555 116.892 79.5806 116.83 79.1C116.614 77.3212 116.785 75.5169 117.33 73.81C118.14 71.2534 119.663 68.981 121.72 67.26C124.241 65.1612 127.281 63.7796 130.52 63.26C133.734 62.7738 137.013 62.9233 140.17 63.7C141.544 64.0208 142.897 64.4283 144.22 64.92C145.47 65.38 146.58 65.92 147.65 66.17C149.336 66.6289 151.09 66.7847 152.83 66.63C153.454 66.4991 154.035 66.2137 154.52 65.8C154.434 65.9458 154.322 66.0746 154.19 66.18C153.811 66.4977 153.362 66.7205 152.88 66.83C151.1 67.0695 149.29 66.9643 147.55 66.52C146.45 66.25 145.31 65.76 144.08 65.33C142.771 64.8633 141.435 64.4759 140.08 64.17C136.978 63.4317 133.762 63.2992 130.61 63.78C127.453 64.2574 124.48 65.5693 122 67.58C119.994 69.2323 118.488 71.4103 117.65 73.87C117.088 75.5184 116.867 77.2636 117 79C117.14 80.27 117.35 80.94 117.3 81Z" fill="#455A64"/>
<path d="M133.44 58C133.735 57.8905 134.046 57.8297 134.36 57.82C135.208 57.7332 136.062 57.7332 136.91 57.82C139.74 58.0893 142.433 59.1652 144.67 60.92C145.96 61.92 147.04 63.06 148.18 63.84C149.205 64.5134 150.354 64.9757 151.56 65.2C152.366 65.3835 153.196 65.4408 154.02 65.37C154.6 65.3 154.89 65.14 154.91 65.18C154.93 65.22 154.66 65.43 154.05 65.57C153.204 65.7323 152.336 65.7323 151.49 65.57C150.22 65.3875 149.003 64.9376 147.92 64.25C146.7 63.46 145.6 62.34 144.34 61.34C142.17 59.6459 139.588 58.5589 136.86 58.19C134.77 57.91 133.45 58.1 133.44 58Z" fill="#455A64"/>
<path d="M177.6 84.79C177.6 84.79 177.4 84.44 176.98 83.89C176.36 83.1171 175.565 82.5034 174.66 82.1C173.322 81.4996 171.866 81.209 170.4 81.25C168.583 81.3537 166.777 81.6045 165 82C163.186 82.4001 161.324 82.5415 159.47 82.42C157.958 82.2896 156.475 81.9322 155.07 81.36C154.121 80.9805 153.219 80.494 152.38 79.91C152.059 79.7189 151.769 79.4794 151.52 79.2C152.705 79.8891 153.938 80.4907 155.21 81C156.596 81.5117 158.047 81.8248 159.52 81.93C161.329 82.019 163.141 81.8676 164.91 81.48C166.712 81.0787 168.546 80.8411 170.39 80.77C171.925 80.7504 173.443 81.093 174.82 81.77C175.757 82.2196 176.557 82.9098 177.14 83.77C177.296 84.0005 177.424 84.249 177.52 84.51C177.59 84.69 177.62 84.78 177.6 84.79Z" fill="#455A64"/>
<path d="M176 77.79C176 77.79 175.81 77.44 175.38 76.91C174.75 76.18 173.95 75.6166 173.05 75.27C171.702 74.7731 170.252 74.6185 168.83 74.82C167.21 74.98 165.47 75.47 163.58 75.82C161.786 76.2327 159.919 76.2018 158.14 75.73C156.702 75.2902 155.402 74.4838 154.37 73.39C153.67 72.6696 153.104 71.8297 152.7 70.91C152.595 70.6598 152.508 70.4025 152.44 70.14C152.406 70.0507 152.389 69.9557 152.39 69.86C152.943 71.0708 153.701 72.1771 154.63 73.13C155.652 74.1345 156.906 74.8727 158.28 75.28C159.993 75.6866 161.777 75.6866 163.49 75.28C165.34 74.93 167.11 74.45 168.79 74.28C170.283 74.0951 171.798 74.2984 173.19 74.87C174.129 75.2628 174.942 75.9062 175.54 76.73C175.78 77.0391 175.938 77.4036 176 77.79Z" fill="#455A64"/>
<path d="M138.54 177.8C138.597 177.739 138.661 177.686 138.73 177.64L139.28 177.2C139.982 176.623 140.65 176.005 141.28 175.35C142.305 174.3 143.263 173.188 144.15 172.02C145.2 170.66 146.32 169.02 147.55 167.2C150.01 163.56 152.89 159.12 155.95 154C157.48 151.45 159.06 148.72 160.65 145.84L161.85 143.65C162.237 142.885 162.696 142.158 163.22 141.48C163.768 140.778 164.503 140.244 165.34 139.94C165.768 139.769 166.235 139.717 166.69 139.79C166.931 139.848 167.151 139.969 167.33 140.14C167.495 140.329 167.612 140.556 167.67 140.8C167.571 141.106 167.411 141.388 167.2 141.63C166.969 141.874 166.655 142.024 166.32 142.05C165.692 142.05 165.083 141.839 164.59 141.45C164.053 141.085 163.653 140.552 163.452 139.935C163.251 139.317 163.261 138.651 163.48 138.04C163.698 137.41 164.154 136.889 164.75 136.59C165.331 136.288 165.998 136.193 166.64 136.32C166.978 136.372 167.297 136.509 167.566 136.719C167.836 136.929 168.047 137.205 168.18 137.52C168.249 137.699 168.265 137.894 168.226 138.082C168.187 138.27 168.095 138.443 167.96 138.58C167.71 138.822 167.399 138.992 167.06 139.07C166.492 139.2 165.898 139.139 165.368 138.896C164.838 138.654 164.403 138.244 164.13 137.73C163.857 137.199 163.793 136.586 163.95 136.01C164.101 135.451 164.41 134.947 164.84 134.56C165.268 134.174 165.824 133.96 166.4 133.96C166.69 133.963 166.975 134.034 167.232 134.168C167.489 134.301 167.711 134.494 167.88 134.73C168.049 134.994 168.114 135.311 168.06 135.62C168.002 135.925 167.826 136.194 167.57 136.37C167.336 136.531 167.066 136.633 166.784 136.668C166.502 136.703 166.216 136.669 165.95 136.57C165.692 136.457 165.46 136.291 165.271 136.083C165.081 135.874 164.938 135.628 164.85 135.36C164.672 134.853 164.59 134.317 164.61 133.78C164.58 132.725 164.854 131.683 165.4 130.78C165.683 130.307 166.127 129.952 166.65 129.78C166.908 129.725 167.174 129.721 167.433 129.769C167.692 129.817 167.939 129.916 168.16 130.06C168.398 130.195 168.594 130.391 168.728 130.629C168.862 130.867 168.928 131.137 168.92 131.41C168.885 131.68 168.772 131.934 168.594 132.14C168.416 132.346 168.182 132.496 167.92 132.57C167.674 132.654 167.411 132.676 167.155 132.634C166.899 132.592 166.656 132.488 166.45 132.33C166.053 132.01 165.789 131.554 165.71 131.05C165.633 130.564 165.674 130.067 165.83 129.6C165.952 129.144 166.119 128.702 166.33 128.28C166.546 127.867 166.871 127.521 167.27 127.28C167.664 127.035 168.109 126.884 168.57 126.84C168.807 126.801 169.05 126.832 169.27 126.93C169.479 127.045 169.66 127.206 169.8 127.4C169.942 127.59 170.041 127.808 170.09 128.04C170.157 128.285 170.128 128.546 170.01 128.77C169.877 128.967 169.687 129.119 169.466 129.205C169.244 129.291 169.001 129.307 168.77 129.25C168.338 129.175 167.94 128.969 167.63 128.66C167.027 128.057 166.671 127.251 166.63 126.4C166.575 125.59 166.789 124.785 167.24 124.11C167.464 123.787 167.754 123.514 168.09 123.31C168.424 123.124 168.798 123.021 169.18 123.01C169.559 122.985 169.934 123.095 170.24 123.32C170.39 123.438 170.51 123.59 170.588 123.765C170.667 123.939 170.702 124.129 170.69 124.32C170.64 124.678 170.472 125.01 170.213 125.263C169.955 125.517 169.619 125.677 169.26 125.72C168.926 125.738 168.595 125.66 168.304 125.495C168.013 125.33 167.776 125.085 167.62 124.79C167.297 124.259 167.153 123.639 167.21 123.02C167.423 121.972 167.791 120.961 168.3 120.02C168.69 119.11 169.06 118.28 169.39 117.54C170.04 116.06 170.55 114.91 170.91 114.11L171.31 113.23C171.355 113.127 171.405 113.027 171.46 112.93L171.34 113.24L170.97 114.14L169.51 117.59L168.44 120.08C167.965 121.027 167.628 122.037 167.44 123.08C167.394 123.657 167.531 124.234 167.83 124.73C167.967 124.99 168.175 125.205 168.43 125.35C168.685 125.495 168.977 125.565 169.27 125.55C169.577 125.511 169.864 125.375 170.087 125.16C170.31 124.946 170.459 124.665 170.51 124.36C170.517 124.204 170.487 124.048 170.422 123.906C170.358 123.764 170.261 123.638 170.14 123.54C169.872 123.351 169.547 123.259 169.22 123.28C168.869 123.294 168.527 123.39 168.22 123.56C167.913 123.744 167.65 123.993 167.45 124.29C167.03 124.917 166.836 125.668 166.9 126.42C166.935 127.197 167.255 127.934 167.8 128.49C168.074 128.757 168.423 128.935 168.8 129C168.981 129.054 169.175 129.051 169.354 128.99C169.534 128.929 169.689 128.814 169.8 128.66C169.859 128.491 169.872 128.309 169.837 128.133C169.802 127.957 169.72 127.793 169.6 127.66C169.493 127.501 169.349 127.37 169.18 127.28C169.004 127.203 168.81 127.179 168.62 127.21C168.201 127.242 167.797 127.381 167.447 127.614C167.097 127.847 166.812 128.166 166.62 128.54C166.42 128.943 166.263 129.365 166.15 129.8C166.005 130.221 165.967 130.671 166.04 131.11C166.107 131.537 166.327 131.925 166.66 132.2C166.83 132.326 167.028 132.409 167.237 132.443C167.446 132.476 167.66 132.458 167.86 132.39C168.066 132.342 168.251 132.23 168.39 132.07C168.528 131.91 168.612 131.711 168.63 131.5C168.625 131.294 168.566 131.094 168.459 130.918C168.352 130.743 168.201 130.598 168.02 130.5C167.644 130.258 167.187 130.176 166.75 130.27C166.31 130.408 165.934 130.699 165.69 131.09C165.187 131.943 164.934 132.92 164.96 133.91C164.945 134.407 165.023 134.902 165.19 135.37C165.265 135.589 165.384 135.79 165.538 135.962C165.693 136.133 165.88 136.272 166.09 136.37C166.308 136.447 166.541 136.472 166.77 136.443C167 136.413 167.219 136.33 167.41 136.2C167.501 136.138 167.58 136.058 167.64 135.966C167.701 135.873 167.743 135.769 167.763 135.661C167.784 135.552 167.782 135.44 167.759 135.332C167.737 135.224 167.693 135.121 167.63 135.03C167.491 134.839 167.309 134.684 167.099 134.576C166.889 134.468 166.656 134.412 166.42 134.41C165.928 134.414 165.454 134.599 165.09 134.93C164.681 135.242 164.393 135.686 164.275 136.186C164.157 136.687 164.217 137.213 164.443 137.674C164.67 138.136 165.05 138.504 165.518 138.717C165.986 138.929 166.513 138.973 167.01 138.84C167.286 138.776 167.541 138.641 167.75 138.45C167.837 138.358 167.896 138.244 167.921 138.12C167.946 137.996 167.935 137.868 167.89 137.75C167.779 137.486 167.602 137.256 167.376 137.081C167.15 136.905 166.883 136.791 166.6 136.75C166.035 136.625 165.444 136.707 164.934 136.98C164.424 137.253 164.029 137.7 163.82 138.24C163.634 138.78 163.631 139.367 163.811 139.91C163.992 140.452 164.347 140.919 164.82 141.24C165.257 141.583 165.795 141.773 166.35 141.78C166.607 141.741 166.847 141.624 167.036 141.446C167.226 141.267 167.356 141.035 167.41 140.78V140.87C167.37 140.687 167.28 140.518 167.149 140.384C167.018 140.249 166.852 140.155 166.67 140.11C166.272 140.049 165.865 140.094 165.49 140.24C164.702 140.525 164.01 141.023 163.49 141.68C162.975 142.341 162.527 143.051 162.15 143.8L161 146C159.4 148.88 157.81 151.6 156.27 154.16C153.19 159.27 150.27 163.69 147.8 167.33C146.56 169.14 145.42 170.76 144.36 172.13C143.458 173.294 142.483 174.4 141.44 175.44C140.558 176.325 139.586 177.116 138.54 177.8Z" fill="#263238"/>
</svg>
